<?xml version="1.0" encoding="utf-8"?>
<!-- Generator: Adobe Illustrator 19.0.0, SVG Export Plug-In . SVG Version: 6.00 Build 0)  -->
<svg version="1.1" id="Layer_1" xmlns="http://www.w3.org/2000/svg" xmlns:xlink="http://www.w3.org/1999/xlink" x="0px" y="0px"
	 viewBox="0 0 612 792" style="enable-background:new 0 0 612 792;" xml:space="preserve">
<style type="text/css">
	.st0{fill:#F7F7F7;}
</style>
<g>
	<path class="st0" d="M236.3,566.9c-1.1-2.2-2.8-3.8-5.2-4.5c-6-1.5-10.7-5.2-14.9-9.5c-3.8-4-7.6-7.4-13.1-9.4
		c-6.9-2.5-11.6-8.3-15.5-14.6c-3.5-5.7-6.7-11.6-9.1-18c-1.3-3.4-3.1-6.6-5.5-9.3c-4.8-5.2-8.4-11-11.1-17.6
		c-3.1-7.4-6.8-14.6-9.8-22c-5.3-13.1-8.5-26.8-10.9-40.7c-2.7-15-1.2-29.7,2.1-44.3c1-4.7,0.5-9.4,0.8-14.2c-0.1-0.5-0.1-1-0.2-1.5
		c0.1-0.2,0.1-0.5,0.2-0.7c1.3-0.7,0.6-1.9,0.7-2.9c0.8-0.3,1-0.9,0.8-1.7c0,0-0.1-0.2-0.1-0.2c1-0.6,0.7-1.7,0.9-2.7
		c0.5-1.6,2.2-2.8,1.7-4.7c2.6-4.1,3.1-8.8,4.2-13.4c0-0.5,0-0.9,0-1.4c1.7-1.5,1.9-3.7,2.7-5.7l-0.1-0.3c0,0-0.3,0.1-0.3,0.1
		c0.9-0.2,1.1-1,1.2-1.7c0.9-1.1,1.5-2.3,1.8-3.7c0.1-0.3,0.2-0.5,0.3-0.8c1.2-0.8,2.6-1.4,2.9-3.1c0.1-0.6,0.4-1.5,1-1.3
		c5.7,1.6,4.8-3.9,6.7-6.3c0.3-0.4,0.2-1.2,0.3-1.7c2.7-2.6,5.2-5.4,6.2-9.2c0,0-0.1,0.1-0.1,0.1c0.6-0.9,1.3-1.9,1.9-2.8
		c-0.1-0.1-0.2-0.2-0.2-0.3c0.1,0.1,0.1,0.2,0.2,0.3c1.5-2.9,4.7-4.6,5.5-7.9c0.2-0.3,0.5-0.6,0.7-0.9c0.3-0.4,0.6-0.9,0.9-1.3
		c2.4-2.1,4-4.9,5.3-7.6c3.9-8.1,10.7-12.8,18.4-16.5c3.2-1.5,6.1-3.2,8.4-6c3.1-4,8.5-4.4,12.5-7.1c5.3-3.5,11.3-6,16.3-10.1
		c0.8-0.7,1.6-1,2.7-0.6c0.5,1.7-2,1.5-1.7,3.2c7.5-0.4,15.3,0.4,22.5-2c3.6-1.2,7.1-2.6,10.8-3c4.3,0,8.5,0.7,12.7-0.6
		c6.5-0.6,13.1-0.8,19.6-0.2c8.8,0.9,17.5,1.3,26.3,2c3.2,0.2,6.2,2.2,9.3,3.5c12.9,5.1,25.9,9.9,38,17c3.1,1.8,6.7,2.5,9.7,4.5
		c9.4,6.4,18.9,12.5,27.9,19.5c6.7,5.2,13.2,11.3,21.7,14c1.5,0.5,2.8,1.6,2.4,3.3c-0.4,2-2.1,1.1-3.4,1c-0.5,0-1,0-2.2,0
		c5.4,5.1,9.3,10.6,13.6,15.8c5.5,6.6,7.3,15,9.8,22.9c2,6.1,3.4,12.5,4.7,18.7c0.9,4.3,0.8,9.2,1.1,13.9c0.2,2.7-0.1,5.5,2.2,7.6
		c0.7,0.6,0.7,1.8,0.7,2.8c0,3,0.3,5.9,1.8,8.7c1.3,2.3,0.5,5,0.2,7.3c-1.5,12.3,0.9,24.8-2.6,36.9c1.2,17.1-5.5,32.8-8.6,49.2
		c-0.8,4.3-3,8.4-4.5,12.5c-0.4,1-1.6,1.8-2.2,1.5c-2.7-1.5-2.8,0.9-3.2,2.1c-3.8,12.1-10.5,22.4-19.6,31.1
		c-0.2,0.1-0.2,0.5-0.2,0.7c-0.5,0.4-0.5,1-0.4,1.6c-0.9,0.7-0.6,2.4-1.9,2.6c-4.1,0.8-5.9,4.3-8.3,7c-3.6,4.1-6.8,8.7-13.1,8.8
		c-0.8,0-1.5,0.7-2.3,1.1c-5.4,2.2-8.7,7.8-14.2,9.5c-4.6,1.4-8.1,4.6-12.3,6.4c-10.4,4.5-21.4,6.4-32.8,6.3l-0.1,0.1
		c0,0,0.1-0.1,0.1-0.1c-0.5-3,1.7-3,3.5-3c7.6-0.3,14.9-2.8,22.5-3.6c1.9-0.2,3.8-1.2,6-1.9c-2.4-2-4.3-1.2-6-0.3
		c-2.5,1.2-5.1,1.8-7.8,2.6c-6.2,2-12.9,1.5-19,3.7c-2.2,0.8-3.1,3.3-6.1,3.6c-3.6,0.3-7.2-0.2-10.8,0.1c-9.7,0.9-19.4,0.3-29,0.6
		c-10,0.4-20.1-0.3-30.1-0.5c-1.1,0-2.3-0.2-3.3-0.6c-5.1-2.2-10.7-3-15.7-5.6C247.9,569,242,568.1,236.3,566.9z M233.1,338.8
		c0.7,0.2,1.3,0.2,1.7-0.4c0.1-0.1,0.1-0.2,0.2-0.3c0,0-0.1,0-0.1,0c0,0.1,0,0.2,0,0.3C234.2,338,233.7,338.4,233.1,338.8
		C233.2,338.9,233.2,338.8,233.1,338.8z M239.8,248c1.7,0.7,2.6-0.7,3.5-1.8c-1.2,0.6-2.3,1.2-3.4,1.9c-0.3,0.2-0.6,0.4-0.8,0.6
		c0.1,0.1,0.3,0.1,0.4,0.2C239.6,248.6,239.7,248.3,239.8,248z M344.2,566.7c0.7-0.3,1.8,0.2,2.1-0.9c0.2-0.6-0.6-0.6-1-0.6
		c0.3-0.3,0.3-0.6-0.1-0.9c3.5,0.3,7.3-1.5,10.6,1.1c-1.5,2.7-4.9,0.4-6.9,2.5c3.5,1.1,6.8,0.2,10.1-0.1c1.6-0.1,4.6,0.5,4.6-1
		c0.1-2.9-2.9,0.2-4-1.2c-0.1-0.1-0.2-0.1-0.3-0.1c0.2-0.6,0.5-1.1,1.3-1.1c5.5-0.1,11-0.1,16.3-2.4c2.4-1,4.6-3.4,8-1.6
		c-1.6-8.7-2.4-16.9-1.7-25.1c0.1-1.1,0.3-2.5-0.9-3.1c-4.6-2.1-8.1-6-12.8-9c0.4,7.7,0.1,14.9,1,22.1c0.5,4.3,1.1,8.7,0.6,13.1
		c-0.1,0.9-0.2,1.8-1.3,2c-1.1,0.2-2.2-0.4-2.4-1.3c-0.8-4.3-4.1-7.7-3.7-12.6c0.5-6.1-0.1-12.2-0.2-18.3c0-0.8,0.1-1.9-0.9-2.2
		c-0.3-0.1-1,0.3-1.2,0.7c-2.8,5.2-6.6,9.9-5.5,16.5c0.8,4.4,0.9,8.9,1.2,13.4c0.1,1.7,0.1,3.9-2.1,4.3c-2.4,0.4-3-1.8-3.3-3.7
		c-1.4-7.4-2.1-14.8-2.1-22.3c0-1.3,0.2-3.2,1.1-3.9c3.2-2.3,4.1-6.1,6.5-8.9c2.4-2.9,4.2-6.2,3.5-10.6c-0.7-4.4-2.2-8.7-1.3-13.3
		c1.4-7.4-1-14.8-0.6-22.2c0.2-3,0.4-6-0.3-9l-0.1,0c0.6-1,0.7-2-0.4-2.8c-0.1-1-0.1-2-0.2-2.9c0.3-4.8-0.6-9.6-0.8-14.3
		c-0.1-4-1-2.7-3.2-2.2c-2.4,0.5-1.7,2.4-2.4,3.7c-0.8,1.6-2.3,2.9-3.1,0.7c-0.7-2.1-2.4-2.9-3.6-4.2c-5.8-6.7-12.2-12.9-17.6-20
		c-0.6-0.8-1.4-2.1-3.1-1.3c-3.3,1.8-6.6,3.4-9.9,5.1c-0.9,0.6-2.5,1.2-2.5,1.9c-0.2,1.9-3.9,2.6-1.8,5c2,2.2,4,4.4,6.3,6.2
		c3.1,2.5,4.3,5.9,4.9,9.6c-0.2,0.4-0.6,0.8-0.6,1.2c-0.4,6.5,0.2,12.9-0.6,19.4c-0.5,3.8-0.4,7.8,0.4,11.8
		c0.6,3.3,1.4,7.2-0.2,10.3c-1.9,3.7-1.6,7.4-1.5,11.3c0,6.4,2.3,12.5,1.6,18.9c-0.2,2.3,1.1,2.1,2.6,1.8c4.2-0.9,8.4-0.7,12.6-0.4
		c1.7,0.1,2.9,1,2.8,2.8c-0.1,1.9-1.4,2.6-3.1,2.4c-2.7-0.3-5.2,0.3-7.6,1.3c-1.5,0.6-3.1,1.2-4.7,0.7c-3-0.9-3.1,0.9-2.9,2.9
		c0.6,7.7,0,15.4-0.8,23.1c-0.2,1.7,0,4.4-2.2,4.5c-2.5,0.1-1.9-2.7-2.2-4.4c-0.2-1.2,0-2.5-0.1-3.7c-0.2-6.2,0.2-12.5-0.4-18.7
		c-0.3-3.5-1.8-4.3-4.9-4.1c-4,0.3-8,0.7-11.8-0.9c-1.2-0.5-3.3-0.7-2.9-2.8c0.5-2.2,2.4-1.6,3.7-1.3c4.1,0.9,8.2-0.4,12.3,0.1
		c2.1,0.2,2.7-0.7,2.8-2.8c0-6.2,0.3-12.5,0.4-18.7c0.3-16.5,0.2-32.9-0.6-49.4c0-0.7,0-1.5,0-2.2c0.1-1,0.2-2,0.2-3
		c0.1-2.9,0.1-5.3-2.8-7.7c-4.8-4-10.5-7.3-13.1-13.5c-1.1-1.3-0.8-2.8-0.3-4.2c1.1-4,1.7-8,1.8-12.3c0.2-17.1-2.1-34-3.8-50.9
		c0-0.3,0-0.5,0.1-0.8c0-0.5,0-0.9,0.1-1.4c1.9-4.2,1.5-8.8,1.7-13.2c1.9-1.5,3.7-3,5.3,0.4c0.5,1.1,1.8,1,2.7,0.7
		c5.4-1.8,10.1,0,14.9,2.2c2.4,1.2,5.3,1.6,6.8,4.3c4.2,7.3,5.8,15.1,2.1,22.9c-2.8,5.9-5.6,9.4-13.2,9c-1.7-0.1-3.3,0-5.1,0
		c4.1,7.7,11.1,12.7,15.5,19.8c1.2,2,1.8,4.5,4.1,5.7c2.8,1.3,3.3,3.3,3.3,6.5c0,2.3,2.6,4.5,4.1,6.7l0.3-0.2l-0.2,0.2
		c0.4,0.4,0.7,0.8,1.1,1.2c2.3,3.4,4.7,6.8,7.7,11.1c-0.2-7.6,0.5-13.9-0.7-20.2c-0.4-2.3-1.6-5.4-0.6-6.8c3.2-4.2,1.5-7.3-1-10.7
		c-0.6-0.9-0.9-2.1-1.3-3.1c-4-12-1.9-23.6,2.6-35c0.4-1.1,1.3-2.1,0.1-3.4c-3.7-4.2-7-9-11.1-12.8c-7-6.6-13.7-13.4-19.4-21.1
		c-3.8-5.1-9-8.6-13.4-12.9c-0.7-0.7-1.5-0.9-2.3-0.4c-0.7,0.4-0.9,1-0.7,1.9c0.4,1.8,0.1,3.7-1.1,5.2c-5.7,6.4-8.8,14.2-11.9,22
		c-0.4,1-0.8,2.6-1.5,2.9c-3.3,1.1-2.7,3.8-2.7,6c0.2,8.2,0,16.4-0.1,24.6c-0.1,5.1-0.5,10.3,0.5,15.5c1.3,6.9,1.2,13.7-2.6,20
		c-0.3,0.6-0.3,1.3,0.3,1.6c1.4,0.7,1,1.9,0.8,3c-1,5.4,0.1,10.9-1.4,16.3c-0.9,4.2,0.2,8.5-0.4,12.7c-0.2,1.5,0.1,3.6-2.2,3.8
		c-3.1,0.3-6,1.8-9.2,1.4c-2.8-0.3-3.5,0.5-3.4,3.4c0.5,11,0.3,22,0.9,33c0.5,8.7,0.5,17.5,0.7,26.2c0,1.7,0.7,2.4,1.9,3.3
		c6.1,4.2,11.7,9.1,16.1,15.1c1.7,2.3,3.7,5.3,3.4,7.7c-0.7,6.4,0,12.7,0,19c0,1.8,0,3.5-1,5c-0.5,0.8-1.2,1.2-2.2,1.2
		c-1.1,0-1.5-0.8-1.8-1.6c-0.2-0.7-0.5-1.5-0.5-2.2c0.3-7.2-1.4-14.3-1.8-21.4c0-0.8,0.2-1.2-0.5-1.8c-4.3-3.9-8.5-7.8-12.4-11.4
		c-2.4,4.2-1.6,9.3-1.2,14.3c0.4,4.3,1.2,8.6,1.7,12.9c0.3,2.5,0.3,5-0.1,7.5c-0.2,1.4-1,2.5-2.3,2.5c-1.4,0-1.4-1.5-1.6-2.6
		c-1.9-9-3.4-18.1-3.3-27.4c0-2,0-4.1-0.8-5.6c-3.5,3.3-6.8,6.5-10.1,9.6c-1.5,1.4-2,3.1-1.6,5.1c0.9,4.6,0.5,9.2,0.7,13.8
		c0.1,2.1-0.2,3.8,2.8,4.4c1.4,0.3,5,0.1,4.5,2.3c-0.5,2.1-3.5,0.7-5.4,0.5c-1.5-0.2-2.1,0.3-2.4,1.6c-0.3,1.4,0.7,1.7,1.7,2
		c3.7,0.8,7.1,2.2,10.7,3.2c8.2,2.4,16.6,4.4,25.3,4.6c4.9,0.1,10-0.2,14.8,1.8c1.7,0.7,3.7,0.3,5.6-0.9c1.9-1.2,3.4-3.5,6.2-2.9
		c4.6,0.9,9.2-0.7,13.9,0.2c6,1.1,12-1.8,18.1-1.5c1.6,0.1,1.1-1.3,1.1-2.2l0.1-0.2L344.2,566.7z M452.4,335L452.4,335
		c-1.9-4.1-3.5-8.5-6.9-11.9c0,0,0,0,0,0c-0.2-0.5-0.5-1-0.7-1.5c-0.1-0.9-0.5-1.5-1.5-1.6c-0.3,0-0.7,0-1,0c-0.8,0.5-1.7,1-2-0.3
		c-1.4-5-4.8-8.7-7.4-12.9c-6.1-9.7-13.3-18.2-24.8-21.8c-2.7-0.8-5.2-2.2-7.3-4.2c-3.3-3.1-6.6-6.2-10-9
		c-7.8-6.3-16.9-10.6-26.4-14c-4.6-1.7-9.2-3.3-13.8-5.1c-3.6-1.4-7-3.6-11-3.7c-4.3-0.1-8.5-0.9-12.8-1.3c-7.5-0.6-15-2.1-22.4-3.7
		c-7.6-1.6-14.7,0.1-23.1,0.5c4.2,2.7,7.5,4.8,10.7,7c3.6,2.4,7.7,4.2,10,8.4c1.3,2.4-0.7,4.2-0.4,5.8c0.7,4.3,0.5,8.7,0.9,13
		c0.5,6.1,2.1,12.2,1.8,18.2c-0.2,4.7,2.3,6.4,5.4,8.1c1.7,0.9,3.6,1.5,5.5,1.9c15.8,3.8,30.2,11.1,44.5,18.3
		c13.7,6.9,28.1,12.1,41.8,19c0.5,0.3,1.2,0.6,1.8,0.6c3.6-0.5,4.1,2,4.3,4.6c-1.2,5.7,0,11.4,0.4,17.1c0,0.6,0,1.5,0.7,1.6
		c3.6,0.4,7.1,2.1,10.8,0.3c0.7-0.1,1.4-0.1,2.2-0.2c1,0,2,0.1,3,0.1c0,0,0.3,0,0.3,0c0.4,0.2,0.8,0.4,1.2,0.7
		c0.3,0.2,0.6,0.6,0.9,0.7c2.1,0.4,4.8,0.5,4.1,3.5c-0.7,3-3.2,3.2-6,2.4c-4.7-1.4-9.5-1.4-14.4-0.8c-1.5,0.2-2.2,0.5-2.2,2.2
		c0.1,2.8-0.2,5.7-0.2,8.5c0.1,5.3-0.4,10.6,1.2,15.7c-1.7,1.7,0.1,3.5,0.1,5.2c0.1,7.5,0.7,15.1,1.1,22.6c-0.2,0.5-0.4,1-0.5,1.5
		c-0.2,1.7,0.9,3.5-0.4,5.2c-6.1,11.1-12.3,22.2-17.8,33.7c-1.2,3-2.4,6.4-5.9,6.9c-3.4,0.4-6.8,1.4-10.2,1.7
		c-0.8-0.1-1.5-0.1-2.3-0.2c-1.9-0.1-3.7-0.1-5.6-0.5c-2.5-0.5-2.9,0.3-2.8,2.7c0.4,8.6,1,17.2,0.3,25.8c-0.2,1.9-0.4,4,0.4,5.9
		l-0.1-0.1c3.3,3.3,7.4,5.5,11,8.3c3.1,2.4,4.7,7.6,10.2,6.4c0.8-0.2,1.3,1.3,1.8,2.2c2.2,3.4,3.1,6.5,2,10.8
		c-1.2,4.5-0.9,9.4-1.2,14.2c1.1,0.3,1.6-0.4,2.2-1c3.9-4.5,8.7-7.7,14.2-10.1c1.8-0.8,3.7-1.3,5.5-2.2c4.7-2.6,7.3-7.3,11.4-10.6
		c2.9-2.4,5.6-5,7.1-8.5c3.8-9.2,11.3-16,15.9-24.6c1.3-2.2,2.6-4.5,4-6.7c0.6-1,1-2.7,2.3-2.7c3.4,0,3.6-2.5,4.3-4.7
		c1-2.8,1.6-5.7,2.3-8.5c1.1-3.9,1.3-8,1.9-12c-1.6,1.2-2.3,2.7-2.6,4.4c-1.1,6.8-4.2,12.6-8,18.2c-1.9-0.8-0.9-2-0.3-3
		c3.5-7,5-14.7,7-22.2c0.1-0.2,0.1-0.4,0.1-0.6c3.9-7.2,6.3-15.1,6.7-23.1c0.4-8.9,2.5-17.8,1-26.8c-0.3-1.6-0.2-3.3,0.2-4.8
		c1.5-6.1,0.7-11.8-1.9-17.4c-0.9-7.1-2.1-14.2-2.5-21.4c-0.3-5.5-0.8-10.9-1.9-16.3c-0.8-3.8-2.4-7.4-4.3-10.8
		C454.2,336.5,453.2,335.8,452.4,335z M307.9,382.4c1,0.9,2.3,0.3,3.4,0.6c3.8,0.6,7.3,0.9,10.7-2.2c5-4.6,5.6-14.5,2.9-19.8
		c-1-2-1.4-4.4-3.8-5.3c-3.4-1.3-6.7-2.7-10.1-3.7c-5.2-1.5-8.8,1.7-8.2,6.9c0.1,0.6,0.2,1.2,0.3,1.8c-0.2,4.7,0.1,9.4,0.5,14
		C303.7,378.2,304.9,380.7,307.9,382.4L307.9,382.4z M310.3,420.8c0.4-0.2,0.7-0.4,1.1-0.6c1.8-0.6,3.5-1.3,5.3-1.7
		c2.5-0.5,6.3,0.4,7.2-1.9c0.9-2.1-2.3-4.3-3.6-6.5c-4.3-7.3-10.1-13.4-16.4-19.7c-0.5,2.8,0.4,4.9,0.7,7c0,9,0,17.9,0,26.9
		C306.5,423.8,308.5,422.4,310.3,420.8l-0.1-0.2L310.3,420.8z M402,546.7c-4.8,2.1-8.2,6-11.2,10.3c6.6-4.6,14.2-7.8,19.2-14.5
		c-2.3,0.4-4.1,1.4-5.8,3C403.2,545.4,402.5,545.9,402,546.7z M264.8,444c7-1.1,9.1-3.8,7.1-10.3c-1-3.5-1.1-7.1-1.8-10.7
		c0.4-2.8,0.6-5.7,1.3-8.4c1-3.5,1.2-6.8-1.8-9.2c-2.6-2.2-2-6.1-4.7-8.1c-2.7-6.4-5.9-12.7-6.4-19.9c-0.4,0-0.7,0-1.1,0.1
		c-1,3.9-1.9,7.7-2.9,11.6l0.1-0.1c-2.2,2.3-1.5,5.6-2.9,8.2c-3,5.4-3.9,10.7-3.3,17.2c0.7,6.7,0.5,13.9-0.2,20.8
		c-0.2,2.2-0.8,4.3-0.4,6.7c0.3,1.9,0.8,2.5,2.8,2.4c4.2-0.2,8.5-0.1,12.7-0.1C263.8,444,264.3,444,264.8,444z M378.5,401.1
		c-2.3,1.9-3.8,3.8-3.1,7.4c1.1,5.1,1.1,10.3,1.7,15.5c0.6,4.5-1.3,8.9-0.6,13.4c0.4,2.1-0.1,3.7-1.7,4.9c-0.4,0-0.8,0-1.3,0
		c-1.6-0.5-3,0.1-4.1,1.1c-1.7,1.6-4.6-0.5-5.4,1.2c-0.8,1.7,1.4,3.6,1.3,5.9c-0.3,6.2,0,12.4-0.2,18.7c0,1.1,0.3,1.4,1,1.2
		c4.3-1.1,8.5,0.2,12.7,0.2c2-0.8,4.9,0.8,6.1-1.8c2.7-5.6,7.2-10.1,8.9-16.2c2.2-1.1,2.2-3.7,3.5-5.4c3.9-5,7.5-10.6,6.7-17.1
		c-1.3-10.3-0.3-20.6-1.3-30.9c-0.7-7.1,0-14.3-1.2-21.5c-0.6-3.6-2.4-2.8-4.4-2.1c-0.6,0.2-1,1-1.8,1c-0.3,0-0.5-0.1-0.8-0.1
		c-3.7-2.5-8.5-0.2-12-3c-0.8,1.5-0.1,2.7-0.1,3.9C382.4,385.5,383.8,393.8,378.5,401.1L378.5,401.1z M365.7,412.5
		c-0.4,0-0.8-0.1-1.2-0.1c-0.5,0.1-1,0.2-1.5,0.3c-2.8-0.4-5.8,0-8.4-1.6c-2.3-1.5-3-1-3.1,1.9c-0.4,8,1.6,15.9,0.9,23.9
		c-0.1,1.1,0.2,2,1.6,1.8c4.2,0.1,8.3-1.2,12.6-0.7c1.8,0.2,4.5,0,4.8-1.9c0.4-2.4,1.6-5.5-0.2-7.5c-1.6-1.7-1.5-3.2-1.4-5
		c0.1-4.6,1.1-9.2,0.7-15.1C368.9,410.9,366.2,410.1,365.7,412.5z M241.4,425.2c0-0.8,0.4-1.7-0.6-2.3c-0.1-1.9-0.1-3.9-0.2-5.8
		c0.9-2.8-1.9-5.3-5.7-4.6c-2.1,0.4-4.1,0.3-6.2,0.1c-0.2-0.1-0.4-0.3-0.6-0.4c-2.4-0.9-4.7-0.5-7,0.2c-0.7,0-1.4,0-2.1,0.1
		c-1.2,0-2.5,0-3.7,0c-5.2-0.1-10.5,2.3-15.8-0.1c-1-0.5-2.4-0.5-2.7-1.6c-0.4-1.2,0.9-1.9,1.8-2.6c0.5-0.3,1.1-0.6,1.7-0.9
		c3.4-0.8,6.7,0.3,10,0.2c1.5-0.1,2.6-0.2,2.6-2.2c0-9,0-17.9-1.5-26.8c0.5-4.5-0.6-8.8-1.2-13.3c-0.7-5.6-0.6-5.6-6.4-5.1
		c-0.5,0-0.9,0.3-1.4,0.4c-1.4,0.3-2.9,0.6-4.3,0.9c-1.5-0.4-2.9-0.3-4.4-0.1c-0.3,0-0.6-0.1-0.9-0.1c-0.2-0.2-0.4-0.2-0.6-0.2
		c-0.3-0.1-0.5-0.1-0.8-0.2c-0.8-0.6-2.1-1.1-1.8-2c0.3-0.9,1.2-1.6,2.5-1.8c2.9-0.5,5.7-1.5,8.4-2.7c0.5-0.1,0.9-0.2,1.4-0.2
		c1.6-0.3,3.4,0,4.7-1.4c0.8-0.1,0.8-0.6,0.6-1.3c1.2-0.6,2.5-1.2,3.7-1.7c3.2-1.9,6.3-4,9.6-5.8c5.8-3.1,11.4-7,17.6-8.9
		c11-3.3,20.1-10.1,30.4-14.7c9-4.1,16.6-10.7,25.5-15.2c2.1-1.1,3.4-2.7,3.3-5.7c-0.3-12-2.1-23.8-2-35.8c0-0.9,0.1-2-0.9-2.3
		c-6-1.6-9.4-6.7-13.8-10.4c-4.1-3.3-7.7-6.5-12.9-2.3c-0.5,0.4-1.4,0.3-2.1,0.6c-3.2,1.1-6.6,1.4-9.6,2.9
		c-14.6,7.5-29.8,13.9-43.8,22.7c-3.5,2.2-6.1,4.1-7.3,8c-0.9,0.1-1.4,0.3-2.1,1.2c-1.9,2.5-2.7,7-7.6,4.9c-0.3-0.1-0.9,0.3-1.2,0.7
		c-2.1,2.1-4.2,4.1-6.1,6.3c-5.6,6.7-9.8,14.2-14.5,21.5c-0.3,0.6-0.6,1.1-0.9,1.7c-3,3.9-3.9,8.9-6.9,12.7c-3.2,4.1-5.5,8.6-7,13.4
		c-1.1,3.5-1,7.1-3.3,10.6c-3,4.6-3.6,10.2-4,15.9c-0.6,9.9-2.1,19.8-3.1,29.8c-0.3,2.7-0.8,5.5,1.8,7.6c0.7,0.5,0.9,1.6,0.2,2.4
		c-1.8,2.3-0.7,4.8-0.6,7.2c0.1,1.7,1.1,3.6,0.6,5.1c-1.7,5.2,0.7,9.8,1.7,14.5c1.5,7.4,6.8,13.2,9.3,20.2c0.1,0.2,0.4,0.3,0.6,0.4
		c0.8-0.6-0.3-2,1.1-2.5c2.8,5.9,6.2,11.7,8.4,17.6c3.3,9.1,9.2,16.5,13.9,24.6c4.1,7.2,8.3,14.6,14,20.8c0.6,0.7,0.1,2.4,1.6,2.1
		c1.4-0.3-0.4-2,1.2-3c4,5.4,8.2,10.6,11.8,16.1c3.8,5.7,5.9,7.3,13.2,7.7c0.5,0,1.4,0.6,1.4,1.1c0.3,2.5,2.2,2,3.9,2.6
		c1,0.4,5.9-0.2,2.6,3.8c-3.4-2.4-7.5-1.8-11.5-3.5c0.5,4.2,4,5.1,6.1,7.2c1.7,1.7,2.1-2.1,3.8-1.3c1.4,0.2,2,2,3.6,1.6
		c-1,3.6,1,5.9,5.7,6.5c-0.3-1.9-0.7-3.9-1-5.8c-1.3-2.7-0.2-5.7-0.9-8.4l-0.1,0c0.2-3.3,0-6.6,1-9.9c0.5-1.6,3.1-2,2.3-4.3
		c-0.6-1.7,0.6-3,1.4-4.4c2.1-3.4,5.3-5.6,8.4-7.9c4.2-3.1,5.9-6.9,5.2-12.1c-1-6.6-2.1-13.3-1.7-20.1c0.1-1.7-0.7-1.9-2.1-2.3
		c-2.5-0.7-4.6,0.6-6.9,0.6c-6.7,0-13.3-1.9-20-1.5c-1.7,0.1-2.7-1.1-3.4-2.5c-0.1-0.5-0.2-1.1-0.3-1.6c-0.3-0.8-0.6-1.5-0.8-2.3
		c-0.6-2.8-0.1-5.7-0.4-8.5c-0.6-6.9-1.3-13.7,0.4-20.5c4.1-1.1,4.6-0.7,5,3.5c0.4,4.6,0.9,9.2,1.3,13.8c0,0.4,0,0.7,0,1.1
		c-0.7,2.1-0.2,4.2-0.4,6.3c-0.1,1.3,0.5,2,1.9,2.2c7.6,0.8,15.3,1.2,22.8,2.9c3.1,0.7,3.8-1.1,2.8-3.5c-0.8-2.1-0.7-4.2-0.5-6.2
		c0.5-4.6,0.1-9.2-0.2-13.8c-0.1-2.3,0.2-5.4-1-6.7c-1.6-1.6-4.3,0.5-6.5,1c-3.2,0.7-4.9-0.4-5.2-3.8c-0.3-3.5-0.8-7.1-2-10.4
		C241.4,431.7,242.2,428.5,241.4,425.2z M347.9,398.3c1.5,4.2,4.2,7.2,8.3,8.9c6.2,2.6,14.5-1.1,17.8-7.7c5.3-10.4,7.4-21,0.2-31.7
		c-2.4-3.5-4.9-6.9-8-9.8c-2.4-2.2-5.8-4.5-8.8-2.3c-6.1,4.4-10,10.5-10.2,18.4c-1.9,0.2-1.5,1.6-1.5,2.8c0,4.6,0,9.2,0,13.7
		C345.8,393.3,346,396.1,347.9,398.3z M396.8,347.6c-6.5-2.9-12.8-6-19.4-8.7c-9.2-3.8-17.8-8.9-27-12.8c-6.9-2.9-14-5.2-20.5-9
		c-3-1.8-6.4-4.5-9.9-3.8c-3.1,0.6-5.8,0.5-8.8-0.4c1.7,2,3.4,3.9,5.3,5.3c6.2,4.5,10.8,10.6,15.9,16.1c5.4,5.8,9.7,12.6,15.8,17.8
		c1.7,1.4,2.5,2,2.9-0.9c0.5-2.9,3.1-4.2,4.7-2.3c1.8,2.1,4.1,2.1,6.2,2.9c3.6,1.3,7,2.8,9.3,5.9c2.9,3.9,7,6.7,9.1,11.2
		c0.3,0.6,0.8,1.1,1.4,0.7c1.8-1.1,4,0.1,5.7-1.1c3.1,1.8,6.6-1,9.9,0.8c0.8,0.5,3.5-0.8,2.9-3.5c-0.7-3.2-1-6.4-1.5-9.6
		c0-0.5,0-1,0-1.5C399.5,352,402,348.6,396.8,347.6z M227.2,406.4c4.3,1.8,8.5,0,12.8-0.5c1.4-0.1,1.7-1,2.2-2.1
		c2-4.3,3.2-8.8,4.4-13.3c2.3-8.8,5-17.6,6.3-26.7c0.8-4,1-8,1.2-12.1c1.3-2.4,2.8-4,5.5-1.5c2.1,6.1,1,12.5,2.7,18.8
		c2.4,9.2,4.4,18.4,8.3,27.1c1.1,2.5,2.9,4.7,4.8,7.8c1.2-3.9,0.6-6.9,0.7-10c0-0.7-0.3-1.2-1.1-1.1c-3,0.1-2.6-2.1-2.5-3.9
		c0.1-4.9,0.4-9.7,0.5-14.6c0-1.7,0-3.5,0.1-5.2c0.2-2,0.4-4,0.5-6c2.2-3.4,2-7.2,1.6-10.8c-0.5-4.5-1.3-8.9,1-13.2
		c1-1.8,1.4-3.9,2.1-5.9c1.4-2.5,2-5.7,4.4-7.2c3.4-2.1,4-5.3,5.3-9.3c-7.6,3.6-14.6,6.8-21.3,10.2c-2.6,1.3-5.7,1.8-7.4,4.6
		c-12.4,5.7-24.3,12.5-36.8,19.5c4.1,0.5,7.7,0.8,11.1,2.3c1.5,0.7,2.8,1.1,2.7,2.9c-0.1,1.9-1.6,1.7-2.8,1.8
		c-2.6,0.2-4.8,0.7-5.8,3.6c-0.4,1.1-2.1,1.9-3.2,0c-0.1-0.4,0-1.2-0.3-1.3c-2.5-1.2-5.4-1.3-7.4,0.1c-1.5,1-0.9,3.8-0.1,5.8
		c0.1,0.7,0.1,1.4,0.2,2.1c1.1,9.9,0.2,19.8,0.9,29.6c0.2,2.7-1.7,6.1,0.9,7.8C220.9,407.3,224.3,406.7,227.2,406.4z M162.7,467.6
		c-1,4.4,2.1,7,3.6,10.2c5.2,11,11.1,21.6,20.1,30c0.8,0.8,2,2,1.3,2.7c-2.4,2.6,0.2,3.8,1.3,5.2c1.2,1.4,2.5,2.5,2.3,4.7
		c-0.1,0.9,1.2,2.3,2.2,2.8c1.2,0.7,1.6-1.1,2.5-1.7c1.6-1.1-0.3-1.9-0.7-2.6c-4.1-7.9-10.3-14.5-13.6-22.9
		c-0.3-0.8-0.9-1.5-1.5-2.1c-4.2-3.7-6.8-8.5-9.5-13.3C168.2,476.2,165.4,471.9,162.7,467.6z M190.9,526.7
		c2.8,8.8,10.7,12,17.7,16.3C203.7,536.5,196.2,532.7,190.9,526.7z M442.6,508.6c-4.7,3.9-6.6,8.8-9,13.3c-0.4,0.7-0.3,2.1,1.2,2.1
		c1.4,0,4.3-4.5,3.5-5.5c-1.4-1.6-0.2-2.1,0.6-3C440.6,513.8,442.2,512,442.6,508.6z M468,403c-1.2,6.1,0.2,12.2,0.1,18.2
		C469.9,415.1,471,409,468,403z M275.6,529c-3.3-3.6-6.7-7.3-10-10.9C267.9,522.8,272.1,525.7,275.6,529z M465.2,444.7
		c-0.9,4.6-1.7,9.3-2.6,13.9C465.3,454.2,466.5,449.6,465.2,444.7z M427.1,532.5c-4.1,0.6-5.9,4.1-8.3,7
		C422.6,538.6,424.7,535.3,427.1,532.5z M301.1,376.2c-0.3-3.3-0.6-6.7-0.9-10.9C299.5,369.5,300.4,372.8,301.1,376.2z M254.2,482.2
		c-2.5-0.6-4.9-1.3-7.4-1.9c-0.1,0.3-0.2,0.6-0.2,0.9C249,482.1,251.4,482.9,254.2,482.2z M212.9,357.9c2.6,0.1,5.1-0.9,7.8-0.7
		C218,356.3,215.3,355.9,212.9,357.9z M380.1,473.1c0.1-0.2,0.2-0.3,0.2-0.4c0-0.1-0.2-0.2-0.3-0.2c-2.8,0.5-5.7-0.6-8.6,0.1
		C374.3,473.4,377.2,473.4,380.1,473.1z M466.4,428.5c0.7-1.9,2-3.9,1.1-6.2C467.1,424.4,466.8,426.4,466.4,428.5z M313.1,422.7
		c-0.1-0.2-0.2-0.4-0.3-0.5c-1.8,1.1-3.7,2.3-5.5,3.4c1-0.1,1.9-0.5,2.8-0.9C311.1,424.1,312.1,423.4,313.1,422.7z M403.8,277.8
		c1.7,1.8,3,3,5,3.1C407.4,279.9,406.7,277.7,403.8,277.8z M278.3,371.2c0.3,0,0.5-0.1,0.8-0.1c0-1.5,0-3,0-4.5c-0.2,0-0.3,0-0.5,0
		C278.5,368.2,278.4,369.7,278.3,371.2z M472.3,419.9c-0.1,0-0.2,0.1-0.2,0.1c-0.1,2.4-0.2,4.8-0.3,7.2c0.2,0,0.4,0,0.6,0
		C472.3,424.8,472.3,422.4,472.3,419.9z M285.3,315.4c-2,0.3-3.9,1.1-6.2,2.7C282,317.8,283.6,316.5,285.3,315.4z M231.6,340
		c-1.3-0.1-2,0.3-2.7,1.1C229.9,341.3,230.5,340.7,231.6,340z"/>
	<path class="st0" d="M474.9,384.8c-0.4-2.3-0.8-4.6-1.1-6.9c-0.1-0.7-0.3-1.7,0.7-1.8c1-0.1,1.4,0.7,1.4,1.8c-0.1,2.3,0,4.6,0,6.9
		C475.5,384.8,475.2,384.8,474.9,384.8z"/>
	<path class="st0" d="M341.8,563.4c-0.9,1.2-2.2,1.4-3.6,1.6c-0.5,0-1,0-1.4,0c-1.5,0-2.7,0.6-3.8,1.4c-1.2-1.4-0.1-1.8,1-2.3
		C336.5,562.8,339.2,563.4,341.8,563.4z"/>
	<path class="st0" d="M165,451.8c0,0.6,0.2,1.4-0.5,1.6c-1,0.4-1.2-0.5-1.6-1.1c-3-3.7-2.5-8.5-3.8-12.7c-0.7-2.2-0.6-4.7-0.8-7
		c-0.1-0.7-0.1-1.6,1-1.6c0.8,0,1.5,0.4,1.5,1.3c-0.3,6.5,2.4,12.3,4.1,18.3C164.9,451.1,164.9,451.5,165,451.8z"/>
</g>
</svg>
