<?xml version="1.0" encoding="utf-8"?>
<!-- Generator: Adobe Illustrator 19.0.0, SVG Export Plug-In . SVG Version: 6.00 Build 0)  -->
<svg version="1.1" id="Layer_1" xmlns="http://www.w3.org/2000/svg" xmlns:xlink="http://www.w3.org/1999/xlink" x="0px" y="0px"
	 viewBox="174 117 960 560" style="enable-background:new 174 117 960 560;" xml:space="preserve">
<style type="text/css">
	.st0{fill:#ED1C24;}
</style>
<g id="XMLID_4_">
	<path id="XMLID_795_" class="st0" d="M319.3,432.3c2.4,1.1,2.4,2.4,0.2,3.7c-5.4,3.6-11.3,6.4-18,8.6c-2,0.7-3.6,1.9-5.2,3
		c-3,2.2-5.7,4.7-8.5,7.1c-2.8,2.4-5.5,4.9-8.1,7.2c-0.4,0.3-0.8,0.4-1.4,0.8c-0.8-0.6-1.4-1.1-2-1.7c0,3.3-3,5.1-5.9,7.1
		c-0.2,0.1-0.4,0.6-0.4,0.8c0,4.9,0.2,9.7,0,14.6c0,3.3-0.4,6.5-0.4,9.8c0,0.3-0.2,0.6-0.2,0.8c1.8,9.1-0.8,18.3,0.2,27.6
		c0.2,2.5-0.6,5-0.8,7.5c0,0.7,0.8,1.4,1.2,2.2c0.2,0.4,0.6,0.8,0.6,1.1c-0.4,4.7-0.4,9.6-1.6,14.1c-1.4,5.8-1.6,11.6-1.8,17.5
		c-0.4,6-0.6,11.9-0.2,17.7c0.2,1.7,0.8,3.2,1.2,4.9c0.2,0.4,0.4,0.8,0.4,1.1c-1.8,4.2,2,8,1.2,11.9c-1,5.1,3.4,9.6,3.4,14.6
		c0,0.7,0,1.4,0.2,1.9c0.2,1,0.2,1.9,0.2,2.9c0,1.1,0.2,2.1,0.2,3.2c0.2,1.2,1.8,2.8-0.8,3.9c-0.2,0.1-0.4,1.1,0,1.2
		c2,1.2,1.2,2.8,1.4,4.3c0.2,1,1.4,1.8,2,2.8c0.8,1.1,1.8,2.2,2.4,3.5c0.6,1.2,0.8,2.6,1.2,3.9c0,0.3,0.4,0.4,0.2,0.6
		c-3.2,4.6,0.8,8.9,0.6,13.3c0,4,0,8.2,0,12.9c-1.8-0.7-2.4-1-3.2-1.2c2.6-2.5,2.4-4.6,0-7.1c1.8-1.8,0.6-10.5-2.6-11.9
		c0.6-0.6,1-1,1.8-1.7c-0.8-0.4-1.6-0.8-2.4-1.2c0.6-1.5,1.2-3,1.8-4.9c-3.8-0.4-3-2.6-3.2-4.6c-0.4-4-1.4-7.9-2.2-11.8
		c-0.6-3-1.4-6.1-2.2-9.1c-1-3.9-3.4-7.6-4.4-11.4c-0.8-2.9-4.2-4.9-4-7.8c0-0.1,0.2-0.3,0.4-0.7c0.8,0.6,1.6,1,2.4,1.4
		c0.2,0,0.4-0.1,0.6-0.1c-1-1.9-2-4-2.8-6c-2.6-6.7-5.2-13.3-7.7-20.1c-0.6-1.5-1-3,1-4.4c0.6-0.4,0.8-1.2,0.8-1.9
		c0.4-6.7,1-13.2,1.4-20c-2.6-1.1-2.6-1.5-0.4-3.6c1-0.8,0.6-2.4,0.8-3.5c-0.2,0-0.6-0.1-0.8-0.1c-0.2,0.4-0.6,0.8-0.8,1.5
		c-0.2-0.3-0.6-0.4-0.6-0.6c0.4-1.8,1.2-3.6,1-5.3c-0.2-4.3-0.8-8.7-1-13c-0.2-3.5,0-6.9-0.2-10.4c0-0.7-0.2-1.9-0.8-2.1
		c-3-0.7-2.4-2.2-2.2-3.7c0.8-9.4,2-19,2.2-28.4c0-1.5-3-3.5-5-4.7c-3.6-2.1-7.5-3.9-11.5-5.7c-2.2-1-4.6-1.7-6.3-2.8
		c-6.7-3.7-10.5-9-15.7-13.7c-2-1.8-5-3-6.7-4.9c-3.6-3.3-6.7-6.9-10.1-10.4c-1.4-1.4-3.4-2.6-4.8-4c-3.8-3.6-7.1-7.3-10.9-11
		c-1.6-1.4-3.6-2.6-5.4-3.9c-0.6-0.4-1.4-0.8-1.8-1.4c-0.6-1-1-2.1-1.4-3c1,0.6,2.2,1.1,3.4,1.7c2.8,1.2,5.4,2.6,8.1,3.9
		c0.2-0.1,0.4-0.3,0.6-0.6c-0.4-0.6-1-1.1-0.8-1.5c0.4-0.7,1-1.5,1.8-1.7c3-0.4,5.5,0,7.7,1.8c3,2.5,5.9,4.9,9.1,7.2
		c0.8,0.6,2,0.8,2.8,1.2c0.4-0.6,1.2-1.2,1.2-1.7c-0.2-1-1-2.5-1.8-2.5c-2.4-0.1-2.4-1.2-2.8-2.4c-0.4-1.2-1.2-2.6-1.4-3.9
		c0-0.7,1.2-1.5,1.8-2.2c0.6,0.6,1.4,1.1,1.8,1.7c2.2,3,3.8,6.4,6.3,9.1c4.4,5,9.3,9.8,14.3,14.4c7.9,7.3,16.3,14.6,24.4,21.9
		c1,0.8,2,1.8,3,2.9c0.4-0.6,0.8-0.7,0.8-0.8c0.6-5,1.8-9.8,1.8-14.8c0-2.9-1.4-5.7-2-8.6c-0.8-4-2-8.2-2.2-12.3
		c-0.6-6.7-0.6-13.2-1-19.8c-0.2-4.9-0.6-9.7-0.6-14.6c-0.2-13-0.4-26.1-0.6-39.1c-0.2-7.6-0.6-15.2-0.8-22.9c0-1.5,1-3,1.2-4.6
		s0-2.9-0.2-4.4c-0.2-1.1-1-2.2-0.8-3.3c1.2-4.7-0.6-9.3-2-13.9c-0.4-1.5-0.6-3-0.6-4.4c0-1.7,1.6-1.9,5-0.6
		c-0.6-3.3-0.8-6.4-1.6-9.3c-0.2-0.7-2.2-1.1-3-1.8c-0.6-0.4-1-1-1-1.4c0-0.3,1.2-0.8,1.6-0.8c0.8,0,1.6,0.4,2,1
		c0.6,0.6,1,1.4,1.4,2.1c0.4,0,0.6,0,1-0.1c0.2-0.7,0.4-1.4,0.4-2.1c0-6.5,0-12.9-0.2-19.4c0-2.1-1.4-4.2-1.6-6.2
		c-0.2-5,1.2-10.4-0.6-15c-1.8-4.4,0-9.1-3.4-13.3c3.6-1.5,2.2-4.2,2.6-6.2c0.6-6,1-11.9,1.2-17.9c0-2.6-1-5.3-1-8
		c0-2.4,0.8-4.7,0.6-6.9c-0.2-2.4-1.2-4.9-2-7.2c-0.2-0.8-0.6-1.5-0.6-2.4c-0.4-7.3-0.6-14.6-1-21.9c-0.2-4-0.2-7.9-0.2-11.9
		c0-0.8,0.8-1.7,1.4-2.5c-0.2-0.7-1-1.7-0.8-2.4c0.6-2.1-0.8-2.5-3.4-2.4c-3.6,0.1-7.1,0.3-10.7,0.1c-0.8,0-2.4-0.8-2.4-1.2
		c-0.2-0.6,0.8-1.7,1.6-1.9c2.4-0.6,4.8-0.8,7.1-1.2c1-0.1,2.4-0.7,2.4-1.1c0-0.7-0.8-1.4-1.4-2.1c-0.6-0.7-1.4-1.2-2.2-1.8
		c1.2-0.1,2.6-0.4,3.6-0.3c2.6,0.6,4.6,0.1,6.7-0.8c3.6-1.7,7.7-2.5,12.1-2.4c4.8,0.3,9.3-1.8,14.3,0.4c-0.2-1.1-0.4-1.8-0.4-2.1
		c27.5,0.3,55.1,0.6,82.4,0.8c0-0.3,0-0.6,0-0.7c-1-0.1-2.2,0-2.6-0.4c-1-0.7-1.4-1.7-2.2-2.6c1-0.3,2-1,3-1
		c1.8-0.1,3.6,0.1,5.5,0.3c1.2,0,2.4,0.1,4.2,0.1c-0.6-0.7-0.8-1-1-1.2c-1.4-1.8-1-2.6,2-2.6c7.7,0,15.9-0.8,23.2,0.6
		c19.4,3.7,39.2,2.8,58.9,3.9c6.1,0.3,12.3,0.6,18.4,0.6c5.4,0,10.9-0.3,16.3-0.4c15.1-0.4,30.3-1,45.4-1.4c1,0,2,0,3,0.1
		c0.8,0.3,1.6,0.7,2.4,1.1c-0.8,0.6-1.6,1.4-2.6,1.5c-3.2,0.1-6.3,0.4-9.3-0.1c-10.3-1.5-20.8-0.8-31.1-0.7c-0.4,0-0.8,0.3-1.4,1
		c0.8,0.1,1.6,0.3,2.4,0.4c11.9,0.6,24,1.1,35.9,1.8c9.5,0.6,18.8,1.1,28.3,1.9c5.2,0.4,10.3,1.2,15.5,1.7c3.4,0.3,6.5,0.3,9.9,0.6
		c3,0.3,6.1,1,9.1,1.1c3.8,0.1,7.5-0.1,11.3-0.1c7.1-0.1,14.3-0.3,21.4-0.3c4.2,0,6.9,3.6,5.2,6.2c-0.2,0.4-1.2,0.7-2,0.8
		c-1.2,0.3-2.6,0.4-3.8,0.6c-0.8,1.8,4.2,2.1,1.8,4.2c-0.2,0-0.4,0-0.4,0c-4-3.3-9.3-3.6-15.1-3.3c-10.9,0.4-22,0.8-32.9,1.2
		c-9.7,0.3-19.6,0.8-29.3,0.8c-7.3,0-14.9-0.4-22.2-0.7c-11.1-0.3-22.4-0.7-33.5-1c-13.1-0.4-26-0.8-39-1c-8.3-0.1-16.6,0.3-25,0
		c-6.9-0.1-13.7-1.1-20.4-1.4c-3.6-0.1-7.1,0.6-10.9,0.7c-7.3,0.4-14.7,1.1-22,1.2c-5.4,0.1-10.7-0.7-16.1-0.8
		c-5.7-0.3-11.7-0.3-17.4-0.4c-3.8,0-7.5,0.3-11.3,0.3c-1.2,0-2.2-0.3-3.6-0.4c0,0.4-0.2,1-0.2,1.2c-5.9-0.1-11.5-0.3-17.2-0.1
		c-3.6,0-7.3,0.4-10.9,0.7c-1.4,0.1-2.8,0.4-4.2,0.3c-9.3-1.1-18.6,0.4-27.9-0.3c-4.8-0.4-5.2,0-5,3.5c0.2,2.5,0.8,5.1,1.2,7.6
		c0.2,0.8,0.4,1.7,0.4,2.5c0.2,6.9,0.2,13.9,0.6,20.7c0.2,4.6,1.2,9.1,1.4,13.7c0.2,4.3-0.2,8.7-0.4,13.2c0,0.7-0.6,1.4-1,2.1
		c-0.2,0-0.6-0.1-0.8-0.1c0-0.8,0-1.7,0-2.5c-0.4,0-0.6-0.1-1-0.1c-0.4,0.7-0.8,1.4-0.8,2.2c0,1.8-0.4,3.7,0.2,5.5
		c1.2,3.6,0.2,7.1-0.6,10.5c-0.6,2.9,1,6.1,1.2,9.1c0.2,2.8-0.4,5.5,0.2,8.3c1.4,7.8-0.6,15.7,2.6,23.6c1.2,3-0.6,6.7-1,10
		c0,0.8-0.4,2.1,0.2,2.6c2.2,2.4,2.6,4.9,2.4,7.6c-0.2,1.8,0.2,3.7,0.4,5.7c0.4,4.2,1,8.5,1.2,12.6c0,1.9-0.4,3.9-0.8,5.8
		c-0.6,3.9-1,7.6-1.8,11.5c-1.8,6.9,1.6,13.9,1.4,20.7c-0.2,8.5-1.2,16.9-0.8,25.2c0.4,9.7-0.6,19.4,2,29.1c0.8,2.6,0.2,5.4,0,8
		c-0.2,4.2-0.6,8.5-0.8,12.8c-0.6-0.1-1.2-0.3-2.4-0.6c0.4,0.8,0.6,1.5,1,1.7c3,1.1,2.2,2.9,2.4,4.7c0.2,7.1,1,14,1,21.1
		c0,5.5-0.4,11.1-1,16.6c-0.2,1.9-1.4,3.9-2.2,5.8c0.4,0.1,0.8,0.3,1.2,0.4c1-0.6,2.6-1,3-1.8c4.6-7.1,13.3-11.5,20.4-16.9
		c7.7-6.1,17-11,23.8-17.7c2.8-2.8,7.1-4.9,10.5-7.2c2.4-1.7,4.6-3.6,6.9-5.3c1-0.7,2.6-1.1,3.8-1.1c1,0,2.8,0.6,3,1
		c0.2,1-0.2,2.1-0.8,3c-0.8,1.1-2.4,1.9-3.6,2.9c0.2,0.1,0.4,0.4,0.6,0.6c2-1.1,4-2.2,5.9-3.2c1-0.6,2.4-1.4,3.4-1.2
		c3,0.6,4.8-0.3,6.9-1.7c3.2-1.9,7.1-3.3,10.7-5c0.6-0.3,1.2-0.6,1.8-0.4c0.6,0,1.6,0.1,2,0.6c0.2,0.3,0,1-0.6,1.2
		c-3.6,2.2-7.1,4.3-10.7,6.4c-1.6,1-2.8,1.7-1.4,2.8c-2.8,1.2-5.4,2.4-8.1,3.5c-0.2-0.1-0.4-0.4-0.8-0.6c1.4-1,3-1.9,4.4-3
		c-0.2-0.1-0.2-0.3-0.4-0.4c-2,0.7-4.4,1.1-5.9,2.2c-2,1.5-5.7,2.1-6.1,4.6c0,0.1-0.4,0.1-0.6,0.3c-3,1-3,1-3,2.9
		C325,426.4,323,430.1,319.3,432.3c-1.2,1-2.4,1.9-3.6,2.9c-3.4,0.8-4,1.2-4,3.9c1.6-1.7,2.8-2.8,4-3.9
		C318.7,435.5,319.5,434.8,319.3,432.3z M265.6,470.5c-0.4,0.1-0.8,0.1-1.2,0.3c0.4,5,0.8,9.8,1.4,14.8c0,0.6,0.8,1.1,1.2,1.7
		c0.4-0.6,1.4-1.1,1.2-1.7c-0.4-4.6-1.2-9-1.8-13.6C266.4,471.4,265.8,471,265.6,470.5z M261.8,584.7c0.2,0,0.6-0.1,0.8-0.1
		c-0.4-1.1-0.8-2.4-1.2-3.5c-0.6-2.1-1.4-4-2-6.1c-0.6-1.5-0.8-3-1.4-4.6c-0.2-0.4-1-0.7-1.6-1.1c-0.4,0.6-1.2,1.1-1,1.5
		c0.4,1.2,1.2,2.5,1.8,3.9c1.2,2.8,2.4,5.7,3.6,8.5C260.8,583.7,261.4,584.1,261.8,584.7z M258.8,313.8c0.4,0,0.8,0,1.2,0
		c2.2-2.9,2.4-10.5,0-11.8C259.8,306,259.2,309.9,258.8,313.8z M257.4,279.4c0.6,2.2,1.2,4.3,1.8,6.5
		C262,282.9,261.4,280.8,257.4,279.4z M284.8,127.8c0,0.3,0,0.6,0,0.7c3,0,5.9,0,8.9,0c0-0.3,0-0.6,0-0.7
		C290.7,127.8,287.8,127.8,284.8,127.8z M268.5,499.3c-0.4,0-1,0-1.4,0c-0.2,2.4-0.4,4.9-0.6,7.2c0.6,0,1,0,1.6,0
		C268.1,504.1,268.3,501.8,268.5,499.3z M620.5,135.8c1.4-0.4,2.4-0.7,3.4-1c1-0.1,2-0.3,3-0.4C620.1,133.3,620.1,133.3,620.5,135.8
		z M269.1,495.3c-0.6-1.7-1.2-3-1.6-4.4c-0.4,0.1-0.8,0.1-1.2,0.3C266.7,492.5,264.8,494.3,269.1,495.3z M261.4,190.2
		c-0.4,0-1,0-1.4,0c-0.2,1.7-0.2,3.3-0.4,5.1c0.4,0,1,0,1.4,0C261.2,193.5,261.4,191.8,261.4,190.2z M268.1,129.3
		c-1.8-0.1-3.8-3-5.5,0C264.6,129.3,266.4,129.3,268.1,129.3z M267.3,537.5c-0.2,0-0.4,0-0.6,0c0,1.8,0,3.5,0,5.3c0.2,0,0.4,0,0.6,0
		C267.3,541,267.3,539.3,267.3,537.5z"/>
	<path id="XMLID_779_" class="st0" d="M1054.3,623.6c-1.4-3.3-2.8-6.8-4-10.1c-0.4,0.1-1,0.1-1.4,0.3c0.4,4.7,0.8,9.3,1.4,14.1
		c-1,0-2,0-3,0.1c0.4,1.1-1.4,2.8,2.4,3c-4,3-2.8,6.7-2.6,10.1c0.2,1.7,1,3,0.2,4.9c-0.2,0.4,1.6,1.4,2.4,2.1c-4.2,1.5-3.4,4-2,6.7
		c0.2,0.4-0.8,1.2-1.2,1.8c-0.4-0.1-0.6-0.1-1-0.3c-0.2-1.7-0.2-3.2-0.4-4.9c-0.4-6.4-0.8-12.8-1.2-19.1c-0.2-1.9-0.4-4-0.6-6
		c0-0.4,0.2-1,0.4-1.5c0.2-0.6,0.8-1,0.8-1.4c-0.6-2.4-1.2-4.7-2-7.2c3-1.7,3.2-13.2-0.2-16.2c0.8-0.1,1.6-0.1,2.6-0.3
		c-1-1.9-1.8-3.9-2.8-6c2.8-3.2,2.8-3.2-1-3.7c-0.4-4.3-0.8-8.7-1-13c-0.2-6.5-0.4-13.2-0.4-19.7c0-4,0.8-7.9,1.2-11.9
		c0-0.4,0.2-1,0.6-1.2c3.2-2.9,3.2-6.2,3-9.7c-0.2-14.7-0.4-29.4-0.6-44.1c0-3.7-1-7.3-1.2-11.1c0-1.5,1-3,1.4-4.2
		c-2.6-0.8-5.9-1.4-8.1-2.9c-2.2-1.4-3.4-3.6-4.8-5.5c-4.2-6-7.7-12.1-12.1-17.9c-1.8-2.4-4.8-4.3-6.9-6.5c-3-2.9-5.9-5.8-9.1-8.7
		c-2.6-2.4-5.4-4.4-7.9-6.8c-2.6-2.4-5.2-4.9-7.7-7.2c0,0,0-0.1-0.2-0.1c-5.7-2.5-5.4-7.2-7.9-10.8c-0.6-0.7-1.4-1.4-2-2.1
		c-0.6-0.8-1.4-1.8-1.4-2.6c0.2-0.8,1.2-1.8,2.2-2.2c0.4-0.1,2.2,0.6,2.8,1.1c3.2,2.8,5.9,5.7,9.1,8.3c2.8,2.4,5.9,4.4,8.9,6.7
		c3.6,2.8,7.1,5.5,10.5,8.5c5.2,4.4,10.1,9,15.3,13.4c3.6,3.2,7.5,6.1,11.1,9.3c0.6,0.6,0.4,1.4,0.6,2.1c0,0.1-0.2,0.3,0,0.4
		c1,2.9,3.8,5,6.1,7.3c0.4,0,0.8-0.1,1.2-0.1c0.2-1.8,0.4-3.6,0.6-5.4c0.2-2.5,1.6-4.9-1.8-7.5c-2.8-2.2-4-5.5-2.2-8.7
		c0.4-0.7,0.2-1.5,0.2-2.2c0.2-4,0.4-7.9,0.6-11.9c0.2-4,0-7.9-1.4-11.9c-1.2-2.8-1.6-5.7-1.6-8.6c-0.2-6-0.2-11.9,0-17.9
		c0.2-4.9,0.8-9.6,1.4-14.4c0-0.6,0.6-1.1,1.2-1.5c2-1.8,2.2-3.3,0.6-5.8c-0.4,0.4-0.8,0.8-1.2,1.2c-0.2-0.1-0.4-0.3-0.4-0.3
		c0.2-2.9,0.6-5.8,0.8-8.7c0.2-1.9,0.6-3.9,3.4-5.1c0.8-0.4,0.8-1.5,0.8-2.2c-0.4-6.5-1-12.9-1-19.4c0-3.5,1-6.9,0.8-10.4
		c-0.2-4.4-1.2-8.9-1.6-13.4c-0.6-5.3-1-10.5-1.2-15.7c0-1.8,0.2-3.7,0.6-5.4c0.4-1.2,2.2-2.8,1.8-3.7c-2.8-7.5,1.4-14.8,0.6-22.2
		c-0.6-6.5-0.4-13-0.4-19.5c0-0.8,0.6-1.9,1.6-2.2c3.6-1.5,3.2-3.6,2.4-6c-0.2,0.7-0.6,1.2-0.8,1.9c-0.2,0-0.4,0-0.4,0
		c-0.4-3.6-0.8-7.1-0.8-10.7c-0.2-7.3-0.2-14.7-0.2-21.9c0-6.7,0.6-13.3,0.6-19.8c0-2.6-0.8-5.4-1-8c-0.2-1.4-0.6-2.6-0.4-4
		c0.4-6.1,0.8-12.2,1.2-18.3c0-0.6-0.4-1.2-1-2.4c-1.6,1.1-2.6,1.8-4.4,3.2c0.2-2.9,0.2-5.3,0.6-7.6c0-0.3,1-0.4,1.4-0.7
		c0.4,0.4,1,1,1,1.4c0.2,1,0,1.9,0,2.9c0.4,0,0.6,0,1,0c0.2-0.3,0.6-0.4,0.6-0.7c-0.4-3.9,2.6-7.1,4.2-10.5c0.2-0.4-0.4-1.5-1-1.7
		c-2.4-0.4-4.8-0.7-7.3,0.3c-2.8,1-6.1,1.1-9.3,1.2c-11.7,0.4-23.2,0.4-34.9,0.8c-9.7,0.4-19.4,1.4-29.3,1.5
		c-7.9,0.1-15.9-0.8-23.8-1.1c-2.6-0.1-5.2,0-8.1,0c4.4,3.5,10.7,0.6,14.9,3.2c-7.7-0.7-15.5,0.6-23.2-1.1c-5.7-1.2-12.1-1.8-18-1.9
		c-6.3-0.1-12.7,0.6-19,0.7c-3.2,0.1-6.3-0.3-9.5,0c-3.2,0.3-6.1,1.1-9.1,1.7c-1,0.1-2,0.6-3.2,0.6c-7.7,0-15.3,0.1-23,0.1
		c-2.4,0-4.4,0-5,2.2c-0.2-0.7-0.4-1.4-0.6-2.5c-2.8,1.2-5.2,2.4-7.7,3.5c0-0.7,0.2-1.1,0.2-1.7c-0.4-0.1-0.6-0.3-1-0.3
		c-11.7,0.3-23.6,0.7-35.3,0.8c-8.5,0.1-17,0-25.4,0.3c-6.9,0.1-13.9,0.8-21,1c-4,0.1-7.9-0.4-11.9-0.6c-0.8,0-1.8,0.3-2.6,0.6
		c0.6,0.4,1.2,1.1,2,1.2c1,0.3,2.2,0.3,3.4,1c-2.4,0-5,0.3-7.3,0c-5.2-0.6-10.1-1.2-15.1-2.1c-2.4-0.4-4.4-0.4-5.9,1.2
		c-1.8-1.2-3.2-1.2-5.5-0.4c-2.8,1-6.3,1.1-9.3,0.8c-2.6-0.3-5.5,0-7.7-1.8c-0.8-0.7-3.4-0.6-5.2-0.7c-1.6-0.1-3.4,0.1-4.8,0
		c-1-0.1-2-1-3-1.5c0.8-0.4,1.6-0.8,2.6-1.2c0.4-0.1,1.2-0.1,1.4-0.4c1.4-1.9,3.6-2.5,6.5-1.9c0.4,0,1.2,0,1.2-0.1
		c1.6-2.4,4.6-1.5,7.3-1.7c0.8,0,1.6-0.1,2.2-0.4c2.8-1.7,6.1-1.5,9.5-1.7c2.8-0.1,5.7-0.6,8.5-0.8c2.8-0.1,5.4-0.4,8.1-0.4
		c14.3-0.3,28.7-0.7,43-0.8c10.3-0.1,20.4-0.1,30.7-0.4c4.6-0.1,9.3-0.4,13.9-0.7c1.8-0.1,2.2-0.8,1.2-1.8c-1.4-1.7,0-2.4,2-2.2
		c3.6,0.1,6.9,0.6,10.5,0.7c8.1,0.4,16.1,1,24.2,1.1c16.3,0.3,32.3,0.4,48.6,0.4c10.9,0,21.8,0.1,32.7-0.4c13.5-0.7,26.8-2.1,40-3
		c0.6,0,1.2-0.1,1.6,0c4.2,1.2,7.7,0.7,11.9-0.4c3-0.8,6.3-0.7,9.5,0.6c4.4,1.8,9.3,0.8,13.9,0.7c2,0,4-0.4,5.7-0.3
		c7.9,0.7,15.9,1.8,23.8,2.2c5,0.3,9.9,0,14.9-0.1c1,0,2-1,2.8-1.7c1.2-0.8,2.4-1.2,3.4,0c1.2,1.7,3,1.8,5.2,1.8c2,0,4-0.1,5.7,0
		c1.2,0.1,2.2,0.7,3.2,1.1c-0.6,0.8-1,2.2-1.8,2.4c-4.4,0.7-5.4,2.8-5.5,5.5c-0.4,3.3-1,6.7-1.4,10.1c-1.2,8,1,16.2,0.4,24.3
		c-0.8,8.6-0.4,17.2-0.8,25.8c-0.6,8.9-1.8,17.7-2.4,26.6c-0.2,2.5,0.4,5.1,0.8,7.6c0.8,6.5-0.8,12.8-3,19c-0.4,1.1-1,2.2-0.8,3.3
		c0.4,4.9,1,9.6,1.2,14.4c0.4,6.7,0.8,13.4,1,20.1c0,1.8,0,3.6,0,5.4c-0.2,6.8-0.4,13.7-0.8,20.5c-0.4,4.3-1.2,8.7-1.6,13
		c-0.2,0.8,0.2,1.8,0.2,2.6c0,1,0.2,2.4-0.6,2.8c-2.8,1.5-2.4,3.6-2.2,5.5c0.2,3.3,0.8,6.5,1.2,9.8c0.4,0,0.6,0.1,1,0.1
		c0.4-1.4,0.8-2.9,1.2-4.6c2.2,2.9,1.6,6.4-1.8,8.3c-0.8-0.8-1.6-1.7-2.4-2.5c-0.2,0-0.6,0.1-0.8,0.1c0.6,4.2,1.2,8.3,1.8,13.2
		c-2.8,2.4-1,6.1-1.8,9.7c4.4,5.5,1.2,11.6,1.8,17.5c0.4,3.9,0.6,7.6,0.6,11.5c0,2.4-0.4,4.7-0.6,6.9c-0.2,1.1-0.4,2.1-0.4,3.2
		c0.2,0.8,0.8,1.5,1.4,2.4c1.2-0.4,2.2-0.7,3.4-1.1c0.8-0.3,1.6-0.4,2.4-0.7c-0.2,0.7,0,2.1-0.4,2.2c-3,0.7-2.8,2.4-3,4
		c-0.2,1-1.4,1.9-2,2.9c-0.4,0.7-1.2,1.5-1.2,2.2c0.2,5.1-0.6,10.5,1,15.5c1.2,3.9,0.8,7.5,0.4,11.2c0,0.3,0,0.4,0,0.7
		c0,0.1,0.2,0.3,1,0.8c1-1.5,1.8-2.8,2.8-4.2c0.8-1.1,1.2-2.5,2.4-3.5c3.8-3,7.7-6,11.7-9c9.7-7.2,19.6-14.4,29.1-21.6
		c4.6-3.5,8.7-7.2,13.1-10.8c1.6-1.4,3.4-2.5,6.3-2.4c3.8,0.1,4.8,1.1,2.8,3.3c-2.2,2.4-4.8,4.6-7.1,6.9c-0.8,0.8-1.4,1.8-2.2,2.6
		c0.4,0.3,0.6,0.4,1,0.7c5-2.5,10.1-5,15.1-7.3c0.2,0.1,0.4,0.3,0.6,0.4c-0.4,0.4-0.6,1.2-1.2,1.4c-6.7,1.9-8.5,6.4-11.3,10.4
		c-1.2,1.5-2.6,3-3.8,4.4c0.2,0.1,0.4,0.3,0.6,0.3c1.2-0.1,2.4-0.3,3.8-0.3c-0.8,0.8-1.4,1.7-2.4,2.2c-6.3,3.6-13.3,6.5-18.6,11
		c-1.4,1.1-3.4,1.8-5,2.9c-0.6,0.4-0.4,1.1-0.6,1.8c0.8,0,1.6,0,2.2-0.3c1.2-0.3,2.2-0.8,3.8-0.8c-3.4,2.4-6.9,4.7-10.3,7.1
		c-0.6,0.4-1.2,0.8-1.6,1.4c-1.8,1.7-3.8,2.8-7.1,3c-2.6,0.3-5.2,1.7-7.5,2.8c-2.4,1.1-4.6,2.2-6.7,3.6c-1.8,1.1-3.2,2.4-4.8,3.5
		c-1.4,0.8-2.8,1.7-4.6,2.2c-2.4,0.8-4.2,1.7-4.4,3.7c-0.2,8-0.4,15.9-0.8,24c-0.2,3-0.4,6-0.6,9c0,0.6,0.2,1.1,0.2,1.7
		c0.4,0,0.6,0,1,0c0-1.9,0-4,0-6c0-0.7,0.6-1.2,1-1.9c0.2,0.6,0.8,1.2,0.8,1.8c0.2,3.7,0.2,7.3,0.4,11.1c0.4,4.2,0.4,8.2-1.2,12.3
		c-0.8,2.5,0.2,5.3,0.2,8c0,3-0.6,6.1-0.8,9.1c-0.2,1.2-0.4,2.6-0.6,3.9c0.4,0,0.6,0,1,0.1c0.2-1,0.6-2.1,0.8-3
		c0.2-0.1,0.6-0.3,0.8-0.3c0.6,0.7,1.4,1.5,1.4,2.2c-0.2,4-0.8,8.2-0.8,12.2c-0.2,6.4-0.2,12.8-0.2,19.1c0,1.8,0,3.7,0,5.8
		c1-0.4,1.4-0.6,2-0.8c0.4,0.1,0.6,0.1,1,0.3c-1.2,5.4-2.8,10.8-3.8,16.2c-0.8,4.4-0.6,8.9-0.8,13.3c0,2.1,0,4.2,0,6.1
		c-0.4,0-0.6,0-1,0c-0.4-1.1-0.8-2.2-1.2-3.3c-0.2,0-0.6,0-0.8,0c0,1-0.4,1.9-0.2,2.8c0.6,2.9-0.2,6,2,8.7c1.2,1.7,0.6,4,0.8,6
		C1054.9,623.5,1054.5,623.5,1054.3,623.6z M1056.1,247c4.8-3.9,4-25.9-1.6-29c0.6,3.2,1,6,1.4,8.6c0.2,1,0.6,1.9,0.4,2.9
		c-0.4,1.5-3.2,3.2,0.2,4.7c0.2,0.1-0.2,0.6-0.2,0.8c-0.4,3.5-0.6,7.1-1,10.5C1055.5,245.9,1055.7,246.4,1056.1,247z M1060.3,192.5
		c-1.8,5-1,9.7-0.6,14.4C1062.3,205.4,1062.7,194.9,1060.3,192.5z M1033.3,461.2c0,1-0.2,1.4,0,1.7c2,2.6,4,5.3,5.9,7.9
		c0.4,0.6,1.6,0.7,2.6,1c0.4-0.6,1.4-1.1,1.2-1.7c0-0.6-1-1.1-1.8-1.5c-0.6-0.4-1.8-0.7-1.8-1
		C1039.7,464.5,1035.5,463.7,1033.3,461.2z M1044.4,553.2c-0.4,0-0.8,0-1,0c-0.8,3.2-2,6.4-0.6,9.7c0.6,1.4,1.8,1.7,3.2,1.2
		C1045.6,560.4,1045,556.8,1044.4,553.2z M1045,443.3c0.4,0,0.6,0,1,0c-0.4-3.7-0.8-7.5-1.2-11.2c0-0.3-0.8-0.6-1.4-0.8
		c-0.4,0.4-1.2,0.8-1,1.1C1043,436.1,1044,439.7,1045,443.3z M702,136.8c6.1-0.4,12.1-0.7,18-1.1C709.9,134.7,702.8,135.3,702,136.8
		z M1047,596.6c0.2,0.1,0.4,0.4,0.6,0.6c0.6-0.4,1.6-0.7,1.8-1.1c0.6-1,0.8-1.9,1-3c0.2-1.1,0-2.2,0-3.2c-0.4,0-1,0-1.4,0
		C1048.4,592,1047.8,594.2,1047,596.6z M1059.1,284.3c-0.4,0-0.8,0-1,0c0,2.8,0,5.4,0,8.2c1-2.4,1.2-4.7,1.4-7.1
		C1059.3,285,1059.1,284.6,1059.1,284.3z M1057.3,183.4c0.4,0,0.8-0.1,1.2-0.1c1.4-2.1-2-3.6-1.4-5.5c-0.4,0-0.8,0.1-1.4,0.1
		C1056.3,179.6,1056.7,181.6,1057.3,183.4z M1057.1,212.5c1.8-2.5-1-2.6-3-3.2C1052.5,211.4,1054.9,211.8,1057.1,212.5z
		 M1093.6,440.1c-0.2-0.3-0.6-0.4-0.8-0.7c-2.2,1.1-5.2,1.7-5.5,4C1089.4,442.5,1091.4,441.3,1093.6,440.1z M1054.7,507.7
		c0-2.1,0-4,0-6.1C1052.5,502.8,1052.5,506.9,1054.7,507.7z M1046.2,328.1c0.6,0,1,0,1.6,0.1c0.2-1.7,0.2-3.2,0.4-4.9
		c-0.4,0-1,0-1.4,0C1046.6,324.9,1046.4,326.4,1046.2,328.1z M959.2,131.1c0,0.1,0,0.4,0,0.6c2.2,0.6,4.2,0.8,6.1,0.1
		c0-0.3,0-0.4,0-0.7C963.4,131.1,961.4,131.1,959.2,131.1z"/>
	<path id="XMLID_773_" class="st0" d="M352,304.7c-0.2-0.1-0.6-0.7-1.4-1.4c-2.8,0.8-5.7,1.8-8.7,2.6c0.2,0.1,0.2,0.3,0.4,0.4
		c12.1,0.4,24.2,0.7,36.3,1.1c0.2-0.3,0.2-0.6,0.4-1c-1.8-0.8-3.8-1.5-5.5-2.4c0.2-0.1,0.4-0.4,0.6-0.6c3.4,0.7,7.1,0.8,8.7,3.9
		c0.4,0.6,2.8,0.8,4.2,0.8c0.8,0,1.6-1,2.8-1.7c0.6,0.8,1.6,1.8,2.4,2.8c-2,0.7-3.8,1.4-5.9,2.1c0.2,4.7-3.8,6.4-10.3,4
		c-0.4,2.4-2.8,2.4-5.5,2.4c-10.3,0.1-20.6,0.3-30.9,0.4c-2.8,0-5.7-0.4-8.5-0.1c-1.2,0.1-2.4,1.2-3.2,2.1c-0.8,0.8-1,1.9-1.8,2.9
		c-0.4,0.4-1.6,0.4-2.4,0.7c-0.2-0.6-0.6-1.2-0.4-1.8c0.8-2.1,2.4-4.2,2.6-6.2c0.2-1.8-1.4-3.7-2.2-5.7c-1.4,0.8-2.2,1.8-3.2,1.8
		c-1.2,0-2.4-0.8-3.6-1.2c-0.8,0.7-1.6,1.2-2.6,2.2c-0.4-0.8-0.8-1.4-1-1.9c1.8-0.4,3.2-0.7,4.6-1.2c3.8-1.4,5.4-3.2,4.6-6.4
		c-0.6-3,0.2-6.1,0.2-9.3c0-3.5-0.8-7.1-0.6-10.5c0.2-2.6,1.2-5.3,1.8-8c0.4-2.6,0.8-5.3,1.2-7.9c0.6-3.5,1.4-6.9,2-10.3
		c0.2-2.1,0-4.2,0-6.9c-4,0.7-7.5,1.4-10.9,1.9c0,2.9,0,5.5,0,8.3c0,5.1,0,10.4,0.2,15.5c0,0.6,0.4,1.2,0.4,1.8c0,0.6,0.2,1,0,1.5
		c0,0.1-1.2,0.4-1.4,0.3c-0.6-0.4-1.2-0.8-1.4-1.4c-0.2-1.1,0.2-2.2,0-3.3c-0.2-7.1-0.6-14.1-0.8-21.2c0-1.1,3-4,4.6-4.2
		c3-0.3,6.1-0.6,9.1-0.8c0.4-1.5,0.8-3,1-4.6c0.6-3.3,1.4-3.6,5.9-2.2c2.2-1.9,4.6-3.9,6.5-6c1.4-1.5,2.8-1.7,3.6,0
		c1.4,2.9,4.6,3.6,8.5,4c5.9,0.6,11.7,1.5,17.4,2.4c2,0.3,3.8,0.3,5.7,0.4c5.7,0.4,11.5,0.8,17.2,1.4c0.6,0,1.6,0.8,1.6,1.1
		c-0.2,0.6-0.8,1.1-1.6,1.4c-1.6,0.7-3.4,1.1-5.7,1.9c3.6,0,6.3-0.4,8.5,0.1c2.2,0.7,3.8,2.4,5.7,3.6c0.4-0.1,0.8-0.1,1.4-0.3
		c0.2-1.8,0.4-3.5,0.8-5.5c1.4-0.6,2.4,0.3,3.2,1.4c2.6,4,4.8,8,7.7,11.9c3.2,4,2.8,8.5,3.6,12.8c0,0.4-0.4,1-0.8,1.4
		c-0.8-5.5-2.6-10.8-5.5-15.9c-0.4,0-0.8,0.1-1.2,0.1c0.6,2.2,1,4.6,1.8,6.8c0.8,2.9,1.6,6,2.6,8.9c0.4,1.4,1.4,2.6,2,4
		c0.4,1,0.2,2.1,0.8,3.2c1.4,2.9,3,5.8,4.6,8.6c1.4,2.5,4.4,4.7,3.8,7.8c0,0.1,0.4,0.4,0.6,0.7c2.6-1.9,9.1-19.7,7.7-22.5
		c-3,3.9-3.2,8.6-7.1,12.3c0.2-0.8,0-1.8,0.4-2.6c1.6-3.7,3.2-7.5,5.2-11.1c1-1.8,3.6-3.3,5-5.1c1.4-1.5,2.4-3.3,3.4-5
		c2.2-3.5,4.2-6.9,6.3-10.4c0.8-1.2,9.9-2.6,10.9-1.7c0.8,0.8,1,2.2,0.4,3.2c-1.6,3.5-3.6,6.9-5.2,10.4c-2,4.9-5,9.4-5,14.6
		c0,1.2-0.6,2.5-1.4,3.7c-4.2,7.1-8.5,14.1-12.7,21.2c-0.8,1.4-1,3-1.6,4.6c-0.2,0.6,0,1.1-0.2,1.5c-1.4,2.8-2.4,5.4,1.4,7.9
		c0.8,0.6-0.2,2.4-0.2,3.6c-1.2-0.8-2.6-1.5-3.4-2.5c-1-1.2-1.4-2.6-1.8-4c-0.6-1.7-1.8-1.9-3.2-0.8c-1.4,1.1-2,0.7-3.2,0
		c-2.6-1.5-4-3.5-5-5.7c-3.6-8-7.5-15.9-11.5-24c-2-4.3-4.4-8.5-6.5-12.6c-0.2,0.1-0.6,0.3-0.4,0.1c-1.4-3.3-3-6.5-4.4-9.8
		c-1.2-2.6-2-5.4-3.2-8c-1.2-2.8-6.9-3.9-9.7-2.1c-3.2-0.7-6.1-1.8-9.1-1.7c-3.2,0.1-5.9-0.8-9.1-0.6c-3.2,0.3-6.5,0.4-9.5,0.8
		c-2.6,0.4-4.6,1.8-7.5,1c-0.4-0.1-2.6,2.1-2.8,3.2c-0.4,1.9,0.2,3.9-0.2,6c-1.8-1.7-3.4-3.3-5.2-5.1c-0.2,0.1-0.6,0.1-0.8,0.3
		c0,4.4,0,8.9,0,13.4c8.3-2.2,16.4-2.9,24.8-3.2c7.7-0.1,14.1,1,17.8,6.4c1.8,2.5,5.5,1.4,8.7,1.2c1.4,0,2.8,0.3,4.2,0.7
		c0.2,0.1,0.2,1.4-0.2,1.8s-1.6,0.7-2.4,0.8c-2.2,0.3-4.4,0.4-5.4,2.4c-0.2,0.4-1.6,0.4-2.6,0.7c-0.8,0.3-2.2,0.4-2.4,0.8
		c-1.8,3-5.9,4.3-9.5,5.7c-4.6,1.7-8.7,1.5-13.1-1c-3.6-2.1-7.9-3.6-11.9-5.3c-1.4-0.6-4.4-1.1-4.4-1c-1.4,1.9-4,2.6-6.5,3.5
		c-0.2,0,0,0.7,0.8,1.2c0.2-0.4,0.4-0.8,0.8-1.4c0.4,0.7,0.8,0.8,0.8,1c-0.4,3.2-0.8,6.2-1.4,9.4c-0.2,1.2-0.4,2.2,2.2,2.2
		c0.4,0,1.2,0.6,1.4,1c0.4,0.6,0.6,1.2,1,1.9c0.6,1.1,1.6,3.2,2.2,3.2c2.4-0.1,4.8-1,7.1-1.5c2.4-0.6,4.8-1.2,7.3-1.5
		c5-0.7,9.9-1.4,14.9-1.9c0.6-0.1,1.2,0.1,2,0.7c-0.8,0.3-1.4,0.6-2.2,0.7c-5.7,1-11.5,1.9-17,3C352.6,303,352.4,304.1,352,304.7z
		 M370,285.9c0-0.3,0-0.4,0-0.7c-5.5-1.2-11.5-1.1-17.4-1.7c1.6,2.5,7.3,0.1,7.5,3.5C363.5,286.6,366.6,286.4,370,285.9z
		 M364.7,273.8c0-0.4-0.2-0.7-0.2-1.1c-4.4,0.3-8.5,0.6-12.9,0.7c0,0.4,0,0.7,0.2,1.1C356.1,274.3,360.5,274,364.7,273.8z
		 M338.1,240.2c0.4,0.4,0.6,0.8,1,1.2c1.2-0.4,2.6-0.8,3.8-1.2c-0.4-0.6-1-1.1-1.4-1.5C340.3,239.1,339.3,239.7,338.1,240.2z
		 M337.5,300.1c-2.8,0.7-2.6,2.1-2.4,3.3c0,0.3,0.8,0.8,1.2,0.8s1.2-0.4,1.2-0.7C337.7,302.4,337.5,301.5,337.5,300.1z"/>
	<path id="XMLID_765_" class="st0" d="M763,266.8c-0.6,0.8-1.4,1.8-2.4,3c-0.4-2.4-0.8-4.3-1.2-6.2c-0.4,0-0.6,0-1,0
		c-0.2,2.5-0.6,5-0.8,7.5c0.4,0.1,0.6,0.1,1,0.3c-1.2,0.4-2.4,0.7-3.8,1.1c-0.4-0.6-0.6-1.1-1-1.2c-0.8-0.3-1.8-0.4-2.6-0.7
		c-0.2,0.6-0.8,1.2-0.6,1.8c0.4,0.8,1.2,1.5,2.2,2.2c1.4,1.1,0.8,1.9-0.8,2.2c-2,0.3-4.6,1.5-5.5-1c-0.2-0.3-1.6-0.6-2.4-0.6
		c-5,0.4-9.9,0.7-15.1,1.2c-0.6,0-1.2,1.1-1.2,1.7s0.8,1.2,1,1.9c0.2,0.4,0,1,0,1.4c0,0.1-1,0.3-1.2,0.1c-0.4-0.4-0.6-0.8-0.8-1.2
		c-0.6-2.6-1.8-3.6-4.4-2.8c-1.2,0.4-2.4,1.9-2.6,2.9c-0.2,5.4,0,10.7,0.2,16.1c0.6,8.9,1.4,17.7,2.2,26.6c0.4,3.3,1.2,6.8,2,10.1
		c0.2,0.7,1.4,1.1,2.6,1.5c1,1.2,0.6,2.4-1.4,2.9c-2.2,0.7-3.2-0.4-4-1.5c-1-1.4-2-2.9-2.8-4.4c-0.4,0-0.8,0-1,0
		c0,1-0.4,1.9-0.2,2.8c1.2,3.3,1,3.6-3.8,3.5c-0.8,1-1.4,1.9-2.4,3.3c-2.8-3,2.8-5.8-0.4-8.7c-1.4,1.8-0.2,4.3-4.4,4.9
		c0-1,0-1.7,0-2.5c0-2.9,0-5.8,0-8.7c0-4.2-0.2-8.5,0-12.6c0.4-5.4,0.6-10.7-0.6-15.9c-1.4-5.7-1.2-11.6-1.8-17.5
		c0-0.8-0.2-1.5-0.4-2.6c-5.2,3-10.1,1.9-15.1,0.1c-2.8-1-5.4-1.9-8.7-1.5c-4.2,0.4-8.5,0.1-12.9-0.3c-1.4-0.1-3.4-1.2-3.8-2.1
		c-0.6-1.7,1.8-2.4,3.8-2.8c0.6-0.1,1.4-0.1,2.4-0.3c-1-2.4-6.3-2.8-5-5.8c3.4,0.4,6.7,0.7,9.7,1.1c-1.2,0.6-2.4,1.1-3.8,1.8
		c1,0.6,2,1.5,2.8,1.4c1.4-0.1,3.2-0.7,4.2-1.4c0.4-0.3-0.8-1.5-1.4-2.6c0.6-0.1,1.6-0.3,2.6-0.3c2.2-0.1,3.8-0.3,3.8-2.5
		c-0.2-1.7,2.4-1.7,4-1.4c7.7,1.5,14.9-0.1,21.8-2.2c0.6-0.1,1.6-0.4,2.2-0.1c5.5,1.7,10.9-0.3,16.4-0.1c7.3,0.3,14.7,0,22,0.3
		c4.2,0.1,9.1,0.4,12.3,1.9c4.2,1.9,5.7,1.8,7.7-1.1c0.4-0.6,3.8,0,5.5,0.3c0.4,0,0.8,1.4,0.6,1.9c-1.8,4.2,0.8,8.3,0.4,12.5
		c3.2-1.4,1-3.5,1.8-5.1c2,0.6,2.2,1.4,1.8,2.8c-0.6,1.4-2.8,2.9-0.2,4.6c-1,0-2,0-2.8,0c-0.8,4-0.4,4.7,5,5.3
		c2.8,0.3,5.9,0.1,8.7-0.4c5.2-1.1,10.3-1.8,15.7-1.2c3.8,0.3,4.2,0,4.2-2.5c0-4.3,0-8.7,0-13c0-0.6,0.2-1.2,0.4-1.8
		c0.8-1.9,1.4-3.7-0.2-5.7c-0.4-0.4-0.2-1.1-0.2-1.9c0.8,0.3,1.4,0.3,1.6,0.6c1.4,1.8,2.8,2.9,5.9,1.5c1.8-0.7,4,0.7,4,2.6
		c0,6.7-0.2,13.4-0.4,20.1c0,0.7,0,1.5-0.2,2.2c-0.4,1.5,0.4,2.4,2.6,2.9c1.4,0.4,3,1.5,3.2,2.4c0.2,0.7-1.4,1.9-2.6,2.4
		c-1.8,0.7-2.4,1.5-2.4,2.9c0.2,9.7,0.4,19.4,0.8,29.1c0,1.9,1.4,3.7,1.6,5.7c0.2,1.1-0.4,2.4-1,3.3c-0.6,1-1.8,1.9-2.8,2.8
		c-0.8-0.6-1.8-1.2-2.6-1.9c-0.2,0.1-0.6,0.3-0.8,0.3c-0.2,1-0.2,2.1-0.6,3c-0.2,0.6-1.2,1-1.8,1.4c-0.6-0.4-1.4-0.7-1.8-1.2
		c-4.2-5.1-3.8-10.7-3.4-16.2c0.2-2.1,0.2-4,0.4-6.1c0.4-5,0.6-10,1-15c0.2-1.5-0.2-2.1-2.6-2.2c-9.7-0.3-19.4-0.7-29.3-1.1
		c-0.4,2.8-0.6,5.5-1,8.7c-3.2,1.2-0.2,4-1.4,6.5c3.8-0.1,4,1.2,3.8,3.2c-0.2,1.9-0.2,4,0.2,6.1c0.6,3.5-0.2,3.9-5.4,2.5
		c0.6,2.1,1,4.2,1.8,6.1c1.2,2.4-1.2,3.7-2.8,5.7c-1-1.1-1.8-1.8-2.8-2.9c-1,0.7-2,1.2-3,1.8c-2,1.2-5,0.7-5.2-1.2
		c-0.6-8.3-5.2-16.4-3.6-25.1c1.4-8,1-16.2,1-24.4c0-4.2,0.6-8,3.6-11.8c0.8-0.8,0.6-2.1,1-3.2C763.8,267,763.4,267,763,266.8z
		 M792.5,284.7c5.7,0,11.1,0,16.8,0C805.8,283,796.9,283.2,792.5,284.7z M691.5,276c0,0.3,0,0.6,0,0.8c3.2,0.1,6.1,0.3,9.3,0.3
		c0-0.3,0-0.4,0.2-0.7c-2-1-4-1.9-6.1-3c0.2,1.1,0.4,1.8,0.6,2.8C693.6,276.1,692.4,276,691.5,276z M745.6,265
		c-0.2,0.3-0.4,0.6-0.4,0.8c2.4,0.7,4.8,1.5,7.1,2.1c0.6,0.1,1.6-0.1,2.4-0.3c-0.4-0.6-0.6-1.5-1.2-1.5
		C750.9,265.6,748.3,265.4,745.6,265z M776.5,319.1c0.4,0,0.6,0,1,0c0-2.5,0-5.1,0-7.6c-0.4,0-0.8,0-1.2,0
		C775.3,314,774.9,316.4,776.5,319.1z M684.7,273.5c0,0.3,0,0.6,0,0.8c1.6,0.1,3.2,0.1,4.8,0.1c0.2,0,0.2-0.4,0.4-0.7
		c-1.4-0.1-3-0.4-4.4-0.6C685.3,273.2,685.1,273.3,684.7,273.5z M742.2,266.1c-3-2.4-4-2.4-5-0.4C739,265.8,740.6,266,742.2,266.1z"
		/>
	<path id="XMLID_755_" class="st0" d="M507.3,205.3c-1.6,3.5-0.2,7.1-3.4,10.3c-1.8-3,2.4-6.7-3.2-9.3c-0.2,1.4-0.4,2.5-0.2,3.5
		c1.6,7.8-2,14.4-8.9,20.2c-3.4,2.8-7.7,5-12.1,6.8c-2.8,1.1-6.5,2.1-9.5,1.7c-5.2-0.8-9.9,1.1-14.9-0.1c-0.6-0.1-1.8-0.3-1.8-0.4
		c-0.2-2.8-3.8-2.6-6.1-3.6c-0.6-0.3-1.2-0.6-1.8-1c-0.6-0.4-1-1-1.4-1.5c1-0.3,1.8-0.4,3.2-0.7c0-0.4-0.2-1.2-0.4-1.9
		c-0.2-2.5-0.4-5-0.8-7.5c-0.6-2.9-1.6-5.8-2-8.9c-0.4-2.8-1-5.5,1.2-8.2c0.2-0.3,0.4-0.7,0.2-1.1c-0.2-2.9-0.6-6-0.8-8.9
		c-0.8-7.8-1.8-15.5-2.6-23.1c0-0.7,0-1.4-0.2-2.1c-0.2-1.1-0.8-2.1-1.2-3.2c-0.2-0.7-0.6-1.4-0.8-2.1c1-0.1,2-0.4,3-0.3
		c2.4,0.4,4.4-0.1,5.7-1.2c1.8-1.5,3.6-2.4,5.5-0.3c3.8-1.2,7.1-2.5,10.7-3.7c0.6-0.1,1.4,0.4,2.2,0.4c6.1,0,12.1,0.8,17.6,2.8
		c5.5,1.8,11.3,3.3,16.8,4.9c0.6,0.1,1,0.4,1.4,1c-6.5-1.4-13.1-2.9-19.6-4.3c-6.7-1.5-13.7-1.8-20.6-0.6c0.4,0.1,1,0.6,1.4,0.6
		c4.4,0.1,8.9,0.3,13.3,0.6c0.8,0,1.8-0.1,2.2,0.1c4,2.1,8.7,2.6,13.3,3.7c3.2,0.8,5.9,1.9,8.9,3c0.4,0.1,0.6,0.4,0.4,1.1
		c-2.2-0.6-4.4-1-6.5-1.5c2.8,2.4,4.8,5.1,9.3,6.1c3.4,0.8,6.5,2.2,8.3,4.6c0.4,0.6,0.8,1.4,0.6,1.9c-0.6,1.8-0.8,3.5,2.4,4.7
		c-5,1.5-5.9,4.2-7.1,7.2c-1,2.4-4.4,4-6.5,6.2c-0.8,0.8-1.6,1.8-2,2.8c-0.2,0.3,1.2,0.8,1.8,1.2c0.2-0.1,0.4-0.3,0.8-0.4
		c-0.2-0.4-0.4-0.8-0.8-1.8C504.6,203.9,506.2,204.6,507.3,205.3z M467.5,194.2c0,0.1,0,0.3,0.2,0.6c4.4-0.6,8.5-0.8,12.7-1.5
		c2.2-0.4,4.4-1.2,6.3-2.2c1.4-0.7,2.2-1.8,3.4-2.8c2.6-2.2,2.2-4.2-0.6-6.1c-2-1.4-3.8-2.8-5.2-4.4c-1-1.2-1.8-1.2-3.6-1.2
		c-7.7,0.1-15.5,0.7-23,1.9c-2.8,0.4-2.2,1.4-1.8,2.6c0.8,3.2,1.6,6.5,2.2,9.7c0.2,0.7,0.2,1.5,0.2,2.2c0.2,1.2,1,1.9,3,1.7
		C463.3,194.2,465.5,194.2,467.5,194.2z M459.4,208c-0.6-0.8-1-1.7-1.8-2.2c-0.4-0.4-1.4-0.4-2-0.7c-0.2,0.4-0.8,1-0.6,1.4
		c1.2,1.9,2.4,3.9,4,6.1c0.2-1.5,0.4-2.5,0.4-3.5c0.2,0,0.6,0,0.8,0c0,5.3,0,10.5,0,15.9c1.6-0.3,3.4-0.6,4.8-1
		c3.6-1.1,6.7-2.4,10.3-3.3c10.7-2.8,10.5-8.2,5.9-13.6C474,209.2,466.7,207.8,459.4,208z M455.4,183.2c-0.4,0-0.8,0-1.4,0
		c-1,4.2-0.2,8.3,1.2,12.5c0.4,0,0.8,0,1.2,0C456,191.5,455.6,187.4,455.4,183.2z M493.9,182.5c0.2-1.9,2.8-3.9-0.8-5.5
		c-4-1.8-4-2.1-8.5-0.7C489.9,177,492.7,179.2,493.9,182.5z M473.5,203.7c0-0.3,0-0.4-0.2-0.7c-3.8-0.6-7.5-0.4-10.9,1
		c-0.4,0.1-0.4,1-0.4,1.2C465.9,204.7,469.7,204.2,473.5,203.7z M484.9,225.2c-0.2-0.1-0.4-0.4-0.6-0.6c-2.4,1-4.6,1.9-7.7,3.2
		C481.4,228.7,483.4,227.3,484.9,225.2z M489.9,208.6c-0.4,0.1-0.8,0.1-1.2,0.3c0.4,1.4,0.8,2.8,1.2,4.2c0.6-0.1,1-0.1,1.6-0.3
		C490.9,211.4,490.5,210,489.9,208.6z M509.9,179.9c-0.4,0-0.8,0-1.4,0c0.2,1.5,0.4,3,0.8,4.6c0.4,0,1-0.1,1.4-0.1
		C510.3,183,510.1,181.4,509.9,179.9z"/>
	<path id="XMLID_751_" class="st0" d="M657.6,371.6c-2.6-0.6-4.4-0.4-4.6,1.9c0,0.8-0.8,1.5-0.8,2.5c1-0.7,1.8-1.4,2.8-2.2
		c0.2,2.1-2,2.9-4,3.7c-3.4,1.4-3.4,1.2-1.2,3.5c6.5,6.4,9.9,13.4,10.5,21.2c0.4,4.6,1,9.1,1.2,13.7c0,1-0.2,2.1-0.4,3
		c-0.4,0-0.6,0-1,0.1c-0.4-0.4-0.8-0.7-1-1.1c-0.8-1.9-1.2-3.9-3.8-5.3c-0.6-0.4-0.8-1.4-1-2.1c-0.6-2.4-1.2-4.6-1.8-6.9
		c-1.8-6.8-6.7-12.8-10.1-19.1c-1-1.8-3-3.5-4.8-5.1c-0.6-0.6-1.8-1-2.6-1.4c-0.4,0.3-0.8,0.4-0.8,0.6c-0.6,6.5-5,12.5-6.7,18.9
		c-0.6,2.5-1.8,2.5-5.2,1.7c-0.8-0.3-2,0.1-3,0.3c-1,0.1-2.2,0.6-3,0.1c-0.6-0.3-1.2-1.4-1-1.9c1.4-3.2,3.2-6.2,4.6-9.4
		c2-4.6,3.8-9,3.6-14c-0.2-5.1-0.4-10.7,4.2-15.2c0.8-0.8,2.2-1.5,2.6-2.5c0.6-1.1,1-3,0.2-3.6c-4.6-2.8-4.8-6.7-6.3-10.4
		c-2.6-6.5-1.6-13.2-2.2-19.7c-0.6-6.5,0.8-13,1.4-19.5c0.2-1.4,1.2-3.2-2-4.3c-0.6,1.5-1.2,2.8-1.6,4c-0.2,0-0.6,0-0.8,0
		c-0.2-0.4-0.8-1-0.6-1.4c2.4-4-1-7.2-3.2-10.7c-3.4-5.7-6.7-11.4-10.1-16.9c-0.8-1.2-1.2-2.6-2.4-3.7c-3.2-2.8-2.6-5.8-2.6-8.9
		c0-0.3,0.4-0.7,0.6-0.7c3.2-0.8,5.4-2.2,5.7-4.7c2,0.6,3.6,1,5.2,1.7c1,0.4,2,1.1,2.4,1.8c1,1.4,1.6,2.9,2.4,4.4
		c1.4,2.6,3.8,4.3,8.1,4.4c0.6,0,1,0.4,2.2,1c-2,0.1-3.2,0.3-4.8,0.4c2.4,3.3,4.4,6.4,6.5,9.4c1,1.2,2.4,1,3.6,0
		c6.3-4.3,8.9-9.8,10.1-15.7c0.2-0.6-0.2-1-0.2-1.5c-0.2-1.7,0.4-3.3,3-3.7s3.6,1,4.2,2.8c0.8-0.6,1.6-1.1,2-1.5
		c1.4-1.4,2.6-2.5,5.5-1.4c0.8,0.3,2.6-0.6,3.8-1c1.4-0.6,2.6-1.1,3.8-1.8c0.4,0.3,0.6,0.4,1,0.7c-0.8,1.4-1.6,2.9-2.4,4.3
		c-2.8,4.2-5.9,8.2-8.5,12.3c-3.4,5.1-6.1,10.4-9.5,15.5c-2.2,3.3-5,6.4-7.5,9.6l-0.2,0.1c-4.6,1.1-3.2,3.6-3.2,5.8
		c0,2.4,0.2,4.7,0,7.1c-0.2,4.2,1.8,7.6,4.8,11.1c0.4,0.6,0.8,1.2,1.2,1.8c-0.4,0.1-0.8,0.3-1.2,0.4c-1.6-1.8-3.2-3.6-4.6-5.4
		c-0.4,0-0.8,0.1-1,0.1c-1,10-4.2,20-0.4,30.2c5.4-2.5,9.1-0.8,13.9,0.7c8.3,2.6,10.1,7.9,13.1,12.8
		C661.7,364.3,659.5,370.4,657.6,371.6c0-1.4,0-2.9,0-4.6C654.8,369,654.6,370.4,657.6,371.6z M645.9,356.1c-1,1.1-2.2,1.7-2.6,2.5
		c-1.8,3.3-3.6,6.8-5,10.3c-0.4,0.8,0.2,1.8,0.4,2.8c1.8-0.3,3.8-0.1,5.4-0.7c3-1.1,4.4-3.2,5-5.5
		C650,362.1,649.2,359.1,645.9,356.1z M625.9,370.5c3.4-2.2,4.6-8.5,2.4-10.3C627.4,363.7,626.7,367,625.9,370.5z"/>
	<path id="XMLID_745_" class="st0" d="M609.6,327.7c0.6-0.1,1.4-0.4,2-0.6c0.2,0.3,0.4,0.4,0.4,0.4c-0.6,2.1-3.2,2.8-5.7,3.3
		c-0.6,0.1-2-0.8-2.6-1.5c-2-2.4-5-4-8.1-5.4c-0.2,0.1-0.6,0.3-0.8,0.4c1.2,1.2,2.4,2.4,3.4,3.6c0.8,0.8,1.6,1.9,1.6,2.8
		c-0.2,1.9-1.6,2.2-5.2,1.5c-1.4,1.1-2.6,2.2-3.8,3.3c-1.4-1.1-2.8-2.1-4-3.2c-2.8-2.5-5.2-5.1-7.9-7.6
		c-6.7-6.2-13.5-12.3-20.2-18.6c-0.6-0.7-1.8-1.1-3.2-1.9c0,1.8-0.4,3.2,0,4.6c1.2,3-2,5.7-1.8,8.6c0.2,2.2,0,4.3,0,6.5
		c0.4,0,0.8,0,1,0c0.4-2.4,1-4.6,1.4-6.9c0.2,0,0.6,0,0.8,0.1c0,3.5,0,6.9,0,10.4c0,0.4-1.2,1.1-2,1.1c-0.8,0.1-1.8-0.3-2.4-0.7
		c-0.6-0.4-0.8-1.1-1.4-2.1c-0.8,0.8-1.4,1.5-2,2.1c-1.8,1.5-3.8,1.5-5.4-0.1c-0.6-0.6-1.2-1.1-2-1.4c-3.6-1.4-5.2-3.5-5.2-6.2
		c-0.2-8.2-0.6-16.5-0.4-24.7c0.2-7.5,0.8-15,1.2-22.3c0.2-2.8,1-5.7,1.4-8.5c0.2-0.8-0.8-1.8-0.6-2.6c0.4-1.2,1-2.5,1.8-3.6
		c0.8-1,2.4-1.7,2.8-2.6c0.6-2.2,2.2-2.1,4.4-1.1c0.4,0.1,0.8,0.4,0.6,0.3c3.6-0.6,6.5-1.1,9.3-1.5c0-0.3,0.2-0.4,0.2-0.7
		c-2-0.6-3.8-1.1-5.7-1.7c1.2-1.4,2.8-1.4,4.8-0.7c3.2,1.1,6.3,1.9,9.7,2.8c0.8,0.3,1.8,0.4,2.2,0.8c4.2,3.6,10.5,4,16.3,5
		c6.3,1,12.3,7.3,10.1,11.6c-0.4,0.6-1.2,1.1-1.8,1.8c-1-1.9-1.2-3.9-2.6-5.3c-1.2-1.2-3.6-1.9-6.1-3.3c0.4,1,0.4,1.4,0.6,1.7
		c2.6,3.3,5.9,6.5,7.9,10c2,3.6,3.6,7.5,2,11.4c-1.2,2.9-1.2,3,3.2,3.3c0.8,0,1.4,0.1,2.2,0.8c-1,0-2,0.1-3,0
		c-2.8-0.4-4.8,0-6.7,1.7c-1.6,1.4-4,2.2-6.1,3.2c-0.6,0.3-1.6-0.3-2.6-0.4c0.2-0.3,0.2-0.6,0.4-0.8c0.8,0,1.6,0.1,1.6,0.1
		c1.4-1.5,2.4-2.9,3.4-4.2c1.2-1.5,2.6-2.9,3.6-4.6c0.4-0.6-0.2-1.5-1.2-2.4c-0.4,0.6-1,1.1-1.4,1.7c-2.2,2.6-4,5.5-6.5,8
		c-1,1.1-3.4,1.4-5.7,2.4c4.2,2.9,9.9,2.9,14.7,4.7c-6.1,0.6-11.5-1.9-17.8-2.1c2.4,1.7,4.4,3.5,6.5,4.9c5.5,3.6,11.5,6.9,16.8,10.7
		c3,2.1,5.2,5,7.7,7.5C605.4,323.4,607.4,325.5,609.6,327.7z M553.7,265.2c-0.8-0.4-1.2-0.7-1.8-1c0.2,2.1,0.4,3.9,0.8,5.8
		c1.2-0.3,2.2-0.4,3.4-0.7c0,0.4,0.2,0.4,0,0.6c-0.4,0.3-0.8,0.7-1.4,1c-4.4,1.5-4.2,4-3.4,6.8c0.6,2.2,1.2,4.4,1.6,6.7
		c1.2,5.7,1.2,5,7.7,4.7c0.6,0,1,0,1.6,0c4.8,0.6,7.7-1.2,9.3-4c1.4-2.5,2.4-5.1,3.6-7.6c1.8-3.9-0.4-7.9-5.5-9.8
		c-3.2-1.1-6.3-2.5-9.5-3.7C556.7,262.7,554.5,263.1,553.7,265.2z M594.5,319.2l-0.2,0.1c-2-2.1-4-4.2-5.9-6.2
		c-0.2,0.1-0.2,0.1-0.4,0.3C590,315.3,592.2,317.3,594.5,319.2z M576.1,292.9c1.4-1.1,2.6-1.9,3.8-2.9c-0.2-0.1-0.4-0.3-0.6-0.4
		C574.9,291.2,574.9,291.2,576.1,292.9z M550,306.2c0.2,0,0.6,0,0.8,0.1c0-1.2,0-2.6,0-3.9c-0.2,0-0.6,0-0.8,0
		C550,303.6,550,304.9,550,306.2z"/>
	<path id="XMLID_738_" class="st0" d="M496.4,388.1c-5-0.6-4.2-5.4-9.7-4.9c0,2.1,0,4.3,0,6c-1.8,0.7-4,1.1-4,1.5
		c0.2,1.4,1,2.6,1.6,4c0.2,0,0.6-0.1,0.8-0.1c-0.2-1-0.4-1.9-0.6-2.9c2.4,1,3.6,2.1,3.6,4c0,2.8-0.4,5.7,2,8.3
		c0.6,0.6,0.6,2.1,0,2.5c-0.8,0.6-2.4,0.4-3.8,0.4c-0.4,0-0.8-0.3-1.2-0.3c-4.6,0.3-5.5-0.3-5.5-3.9c0-1.7-0.4-2.5-3.4-1.4
		c-0.2-1.9-0.4-3.5-0.4-5.1c-0.2-4.4-2.2-8.3-5.7-12.2c-3.2-3.5-7.1-6.1-10.7-9.1c-1.6-1.2-2.4-3-3.8-4.4c-0.8-0.7-2.2-1-3.2-1.4
		c-0.2,1-1,1.9-0.8,2.9c0.6,2.5,1.8,4.9,2.6,7.2c0.2,0.6-0.2,1.2-0.2,1.8c0.2,1.2,0.4,2.4,0.6,3.6c0.6,0,1,0,1.6,0
		c-0.2-2.8-0.4-5.7-0.6-8.5c0.2,0,0.6,0,0.8-0.1c0.6,1.7,1.6,3.5,1.8,5.1c1,7.1,3.4,14.1,1.8,21.3c-0.2,0.8-1.8,1.8-3,2.1
		c-2.2,0.6-6.7-2.2-6.7-3.9c-0.6-8.3-3.8-16.2-7.5-24c-3-6.2-6.1-12.5-5.9-19.3c0-2.2-1-4.3-1.2-6.5c0-0.7,0.6-1.4,1-2.2
		c1.4-2.5,2.8-5,4.4-7.5c0.2-0.4,1-0.7,1.6-1c3.2-1.5,6.1-3.2,9.5-4.7c1-0.4,2.8-0.8,3.8-0.6c3.8,1,7.9,1.8,10.9,3.6
		c4.4,2.6,9.3,5.3,10.9,9.4c-0.2,0.1-0.4,0.3-0.8,0.4c-1.4-1.2-2.8-2.5-4.2-3.6c-0.4,0.1-0.6,0.1-1,0.3c0,0.6,0,1.1,0.2,1.5
		c1,2.2,2,4.4,3,6.7c0.2,0.4,0,1-0.2,1.2c-3.2,2.6-4,6.4-8.5,8.3c-0.2,0,0.4,1.5,1.2,1.9c2.4,1.4,5.2,2.4,7.5,3.7
		c5.5,3.3,8.5,7.9,11.1,12.6c0.2,0.3,0.4,0.7,1.2,1.7c0.2-1.1,0.6-1.7,0.4-2.2c-1.2-5.7-2.4-11.4-4-16.9c-0.6-2.1-1.8-4-2.2-6.1
		c-0.6-3-0.8-6.1-1-9.1c0-0.3,0.2-0.7,0-0.8c-2.6-2.9,1.2-5.1,2-7.6c0.4-1.4,3.8-1.4,4.6,0c0.8,1.1,0.8,2.5,1,3.7
		c0.2,0.6,0,1.1,0.4,1.4c0.2,0.1,1.2,0.1,1.8,0c4.6-0.8,8.9-1.8,13.5-2.2c2.4-0.3,5.5-0.1,7.3,0.7c3,1.4,5.4,3.5,7.3,5.7
		c1.6,1.8-1,3.9-4,3c-6.1-1.7-11.1,0.8-16.4,1.8c-1.8,0.3-3.6,0.3-5.7,0.4c0,0.1,0.2,1,0.6,1.8c-2.6-0.1-3.2,0.6-1.8,2.1
		c5.2-0.3,9.9-0.7,14.9-0.6c6.5,0.1,12.1,5.8,10.3,9.6c-5.9-0.6-11.7-1.1-17.4-1.7c-2.4-0.3-3.4,0-2.2,1.9c0.4,0.6-1.6,1.7-2.4,2.6
		c-0.4-0.1-0.8-0.1-1.2-0.3c0.2,1,0.6,2.1,1,3.2c7.7-3.3,15.3-5.3,24-3.5c2.6,0.6,3.4,1.7,2.6,3.9c-1,2.4-0.6,4.6,1.4,7.1
		c-2.8,0.8-4.8,2.1-8.5,1.5c-4.6-0.8-9.3-0.7-14.1-1c-2.6-0.1-3.8,0.7-3.6,2.5C495.8,384.6,496,386.2,496.4,388.1z M465.1,350.3
		c-0.2-2.5-1.2-4.4-3.2-6.4c-2.4-2.2-6.7-2.5-9.1-0.3c-1.4,1.2-2.8,2.5-3.8,3.9c-1.6,2.1-1,2.4,2.4,2.6c3.2,0.3,6.7-0.1,9.1,1.9
		c0.6,0.4,2.4,0.4,3.4,0.1C464.7,352.1,464.7,351,465.1,350.3z M471.9,369.7c-0.4,0.1-0.8,0.3-1.2,0.6c1,1.7,1.8,3.5,3.2,5.1
		c3.2,4.2,6.9,8,7.7,12.8c1.2-0.3,2.4-0.4,3.8-0.7C482.8,380.6,479.6,374.3,471.9,369.7z M447.7,352.5c0,4.7,6.3,2.4,9.3,3.9
		c1,0.6,4.4-0.7,6.9-1.2C460,351.2,455.4,350.5,447.7,352.5z M501,349.2c-4.2-1.7-7.5-0.3-10.9,0.8
		C492.7,352.8,496.4,352.5,501,349.2z M455.8,385.9c-0.6,0.1-1,0.3-1.6,0.4c1,4,2,7.9,3,11.9c0.4,0,0.8,0,1.2,0
		c0.2-0.8,1-1.9,0.4-2.5c-2.2-2.4-1.4-5-2-7.3C456.8,387.4,456.2,386.7,455.8,385.9z"/>
	<path id="XMLID_731_" class="st0" d="M689.7,237.4c3.8,2.9,7.9,5.3,13.7,5.7c1.4,0.1,3-0.4,4.6-0.6c0-0.1,0-0.4,0-0.6
		c-3.8-1.2-7.7-2.4-11.5-3.6c-3.6-1.2-7.3-2.5-7.3-6.1c-0.2,0-0.6,0-0.8,0c-0.4,0.7-0.8,1.2-1.2,2.1c-0.4-1.2-0.8-2.4-1.4-3.5
		c-0.8-1.5-1.4-3-4.8-2.1c-0.8,0.3-2.8-1-3.6-1.8c-0.8-0.7-1.2-1.8-1.4-2.8c-1-5.3-3.4-10.4-2.2-15.8c0.2-1.4-0.6-2.8-0.4-4.2
		c0.8-6.9,5.9-12.5,11.9-17.7c1-1,2.8-1.7,4.4-2.4c6.7-2.9,11.7-7.9,20.4-8.6c0.8-0.1,1.6-0.7,2.6-1c2.2-0.7,4.2-1,5.5,0.8
		c1.2,1.5,3.2,2.1,5.4,3c3.4,1.4,6.5,3.5,9.3,5.4c3,1.9,5.5,4.3,8.3,6.4c1.4,1.1,3,2.1,3.8,3.3c3.8,5.5,6.1,11.4,6.1,17.6
		c0,0.6,0,1.2,0.4,1.7c4.2,5.7,3,11-1.8,16.2c-4.4,4.9-10.1,8.7-16.8,11.9c-5.4,2.5-11.5,4.3-18.2,2.4c-1.4-0.4-3.4,0-5,0.3
		c-4,0.8-7.9,1.1-11.5-0.6c-3.2-1.4-5.9-3.2-8.9-4.9C689.1,238,689.3,237.7,689.7,237.4z M691.5,214.4c1,2.5,2,4.9,3,7.3
		c0.4,1,0.6,2.1,1.2,2.9c1,1.1,2.6,1.9,3.6,3c2.2,2.5,5.4,3.9,9.5,2.9c3.8-0.8,7.7-1.9,10.9-3.5c5.4-2.5,10.1-5.4,15.3-8.2
		c0.6-0.4,1.6-1,1.6-1.4c-0.2-3.6,0.4-7.5-1.4-10.8c-2.8-5.1-8.1-9.1-15.5-12.1c-4-1.7-9.9-3.2-6.7-8.7c-2.8,1.1-5.4,1.5-6.5,2.6
		c-1.2,1.2-2.4,2.1-4.4,2.8c-1.8,0.7-3.2,1.9-5,3.2c4,1.4,5,0.1,5.4-1.8c2.6,0,5-0.1,7.3,0c0.8,0,1.6,0.6,2.4,0.8
		c-0.6,0.4-1.2,1-2,1c-6.1,0.6-9.7,3.6-13.7,6.2c-4.6,3-2.4,6.9-2.2,10.4c0,1.7,2,1.9,4.2,0.6C696.6,215.4,696.6,215.4,691.5,214.4z
		 M723.6,239.1c6.1,1.2,13.7-2.4,22-10.5c4-3.9,5.9-8.3,3.8-13.3c-0.8,0.6-1.2,1.2-1.6,1.8c-1.2,1.9-2.2,4.2-3.6,6
		c-2,2.6-4.2,5.1-6.5,7.5c-2.6,2.5-5.5,4.9-8.5,7.1c-0.6,0.6-2,0.6-3,0.8C725.3,238.8,724.6,239,723.6,239.1z M683.1,193.2
		c-4.8,1-9.9,9.4-7.9,12.3C677.8,201.4,680.6,197.2,683.1,193.2z M727.9,193.6c0.4-0.1,0.6-0.3,1-0.4c-2-2.2-3.8-4.3-6.3-7.2
		c-1,1.1-1.8,1.7-2.4,2.5c-0.2,0.4-0.2,1.4,0.2,1.5C723,191.1,725.5,192.4,727.9,193.6z M681,228c0.6-0.6,1.4-1,1.4-1.2
		c-0.8-1.4-1.8-2.8-2.8-4.2c0-0.1-1,0.1-1.4,0.1c0.4,1.1,0.4,2.4,1,3.3C679.2,226.8,680,227.3,681,228z"/>
	<path id="XMLID_728_" class="st0" d="M865.1,194.2c-1.4,2.1-2.8,4.2-4,6.4c-2,3.6-4.2,7.1-6.1,10.7c-0.2,0.3-0.4,0.8-0.4,1.1
		c1.4,3.5-1,5.8-4.2,8.3c-2.6,2.2-5,4.4-5.7,7.6c-0.8,3.3-3.4,6.5-5.2,9.7c-0.2,0.4-1,0.7-1.8,1.1c1.6-3.9,3.2-7.5,4.8-11.2
		c-0.4-0.1-0.8-0.3-1.2-0.3c-2.4,3.7-1.4,8.9-8.1,10.8c-0.4-0.7-1.4-1.8-2.2-2.9c-0.2,0-0.4,0-0.6,0c-0.2,0.8-0.4,1.5-0.6,2.2
		c-7.3-4.3-9.3-10.4-11.7-16.5c-1-2.5-2.6-5-3.8-7.5c-0.4,0-1,0-1.4,0c-0.8,1.4-1.4,2.6-2.2,4c-1,1.8-2.2,3.5-3.2,5.3
		c-0.2,0.4-0.6,1-0.4,1.2c2.6,3.2-1,5.8-1.6,8.6c-0.4,1.5-1.4,3-2.2,4.4c-0.6,0.8-1.6,2.4-2,2.2c-2-0.3-4-0.8-5.7-1.7
		c-0.8-0.4-0.8-1.5-1.4-2.2c-0.6-0.7-1.4-1.5-2.4-1.7c-3-0.6-4.4-1.7-5.2-3.6c-1.8-4.3-3.6-8.5-5.5-12.8c-0.6-1.2-1.6-2.5-2.4-3.7
		c-2.6-3.6-4.8-7.3-7.5-11c-3-3.7-6.3-7.3-9.7-10.8c-1.8-1.8-1.6-3.2,1-4.3c0.8-0.3,1.2-0.8,2-1.2c2.4-1.5,4.8-3,7.3-4.3
		c0.6-0.3,2.6,0.4,3.8,1c0.6,0.3,1,1.1,1.2,1.8c0.8,1.9,2.4,2.2,4.8,1.5c4.2-1.1,6.3-0.1,6.9,2.9c0.2,0.7,0.4,1.5,0.4,2.2
		c0,0.4-0.2,1-0.4,1.4c-0.6-0.3-1.6-0.6-1.8-1c-0.4-1.2-0.4-2.5-0.6-4.4c-2.4,1.7-4.2,2.8-5.5,4c-0.2,0.1,0.6,1.2,1.2,1.4
		c4,0.8,1.4,1.5-0.6,2.5c4,0.7,5.9,2.5,5.2,5.3c1.6,0,2.6-0.1,3.8-0.1c0,0.3,0.2,0.4,0.2,0.7c-1.2,0.3-2.4,0.4-4.2,0.7
		c3,6.4,8.1,11.8,14.1,16.9c0.4,0,0.8,0,1-0.1c0.6-1.9,1.2-3.9,1.6-5.8c1.4-6.2,2.8-12.5,6.5-18.3c1-1.7,2-3.6-0.8-5.1
		c-0.6-0.3-0.8-1.4-0.4-1.8c0.2-0.4,1.6-0.3,2.4-0.7c0.8-0.3,1.6-0.8,1.8-1.2c0.2-0.8,0-1.7-0.2-2.5c1.6-0.1,3-0.1,4.2-0.3
		c3.4-0.7,6.1,1.1,5.5,3.5c-0.6,3.3-1.2,6.7-1.2,10c0,1.4,1.4,2.8,2,4.3c0.6,1.7,1,3.3,1.6,5c0,0.3,0,0.7,0.2,0.8
		c5.4,2.9,5.7,7.2,6.5,11.4c0,0.1,0.2,0.4,0.6,0.8c0.6-0.3,1.4-0.6,1.6-1c3-3.9,5.9-7.8,8.5-11.8c3.6-5.8,6.9-11.6,10.1-17.6
		c0.8-1.4,0.8-2.9,1-4.4c0.4-3.3,4.4-5.5,8.9-4.7c1.2,0.3,2.2,1.5,2.6,2.5c0.8,1.9,1.2,4.2,1.8,6.1c1,0,1.2,0,1.4,0
		c1-0.6,2-1,3.2-1.5c0,1,0.4,2.1,0,3C869,191.3,868.2,193.5,865.1,194.2c0.4-0.6,0.8-1.1,1.2-1.7c0.4-0.6,0.8-1.2,1.2-1.8
		c-0.4-0.1-1-0.3-1-0.3c-0.6,0.6-1.6,1.1-1.8,1.7C864.3,192.7,864.9,193.5,865.1,194.2z M779.6,190.7c1.2-1,2.2-1.9,3.4-2.9
		c-0.4-0.1-0.6-0.4-1-0.6C782,188.8,777.1,187.4,779.6,190.7z"/>
	<path id="XMLID_721_" class="st0" d="M523.6,253.9c-9.5,0-18.8,0-28.5,2.8c2.8,0.6,5,0.7,6.9,1.2c4,1.1,7.7,2.5,11.7,3.5
		c3,0.8,6.1,1.1,9.3,1.7c1,0.1,2,0,3,0.1c0.8,0.1,1.2,0.7,2,1.1c-0.8,0.3-1.6,0.7-2.2,0.6c-4.2-1.1-6.3,1.1-8.7,2.8
		c-0.6,0.4-0.4,1.4-0.4,2.1c0,1.7,0,3.3,0,5.1c-0.4,0.1-0.6,0.1-1,0.3c-0.6-0.6-1.2-1-1.6-1.5c-0.4-1-0.6-1.9-1-2.9
		c-1-2.1-3.2-2.8-5.9-2.2c-3.2,0.6-6.5,1.2-9.5,1.9c-7.7,1.8-15.3,3.7-23,5.7c-0.8,0.3-1.6,1.1-1.8,1.8c-0.4,1-0.2,1.9-0.2,2.9
		c0.2,2.9,2.2,3.7,5.9,2.4c10.1-3.6,22.8-2.9,30.3,2.2c0.8,0.6,2.2,1.1,3.4,1.2c2.6,0.1,4.6,1.1,4.4,2.6c-0.2,1.1-2.6,2.1-4,3
		c-0.4,0.3-1.2,0.3-2,0.3c0.6,1.5,2,3.2-2.6,3.3c3,1.9,7.7,3.5,3.8,6.4c-2.2,1.5-5.5,1.4-8.9,0.1c2.4-0.7,4.6-1.1,6.5-1.7
		c0-0.1,0.2-0.4,0.2-0.6c-2.6-0.6-5-1.4-7.5-1.5c-4.6-0.3-9.3-0.1-13.9-0.1c-4.6,0-5.9,0.8-7.3,4c-0.2,0.3-0.4,0.6-1.6,0.8
		c-0.2-1-1-2.1-0.6-2.8c2.6-4.4,7.7-5.5,14.3-5.3c0-0.3,0-0.6,0-0.8c-1.4-0.3-3-0.8-4.4-0.7c-4.4,0.4-8.9,1.1-13.3,1.8
		c-0.6,0.1-1.4,1.1-1.4,1.7c-0.2,3.6-0.2,7.2,0,10.8c0,0.6,1.6,1.7,2,1.7c8.9-1.7,18-1.7,27-1.4c2.4,0.1,5.4,0.6,7.3,1.4
		c2.4,1.1,4.4,2.8,5.7,4.6c1.6,2.2-1.8,6-5.4,6.5c-0.8,0.1-1.6,0.3-2.8,0.4c1.6,2.9,4.4,5.8,0.6,9.1c-4.8-3.2-10.7-3.5-16.8-3.3
		c-1.6,0-3.2-0.4-4.8-0.6c-3.2-0.3-6.5-0.4-10.3-0.7c-1.8-2.1-3.4-2.2-7.1-0.6c-2.4,1.1-3.6,0.8-4-1.1c-0.6-2.4-0.8-4.7-1-6.9
		c-0.2-5.7,0-11.2-0.2-16.9c-0.2-4.9-0.8-9.7-0.6-14.6c0.2-5.5,1-11.1,1.4-16.6c0.2-1.4,1-3,0.2-4.2s-3-1.7-4.8-2.4
		c-0.8-0.4-1.8-0.6-2.6-0.8c0.8-0.4,1.4-1,2.2-1.4c2.8-1.2,5.7-2.6,8.7-3.7c0.8-0.3,1.8-0.3,2.8-0.1c6.3,1.1,12.5,0.3,18.4-0.6
		c3.4-0.4,6.5-2.2,9.9-2.9C507.7,251.4,515.7,252,523.6,253.9z M478,267.4c2,1-2.4,4.4,3.2,3.7c2.2-0.3,4.4-1.4,3.4-2.9
		C483.4,266,480.4,267.2,478,267.4z M508.9,294.7c-4-2.9-7.5,0.3-11.1,0C500.4,295.9,506.9,295.9,508.9,294.7z M507.1,327.7
		c-2.6-3.3-5.4-4.3-8.5-3.6C501.4,325.2,504.2,326.4,507.1,327.7z M484.4,323.8c0,0.3-0.2,0.6-0.2,0.8c2.4,0.6,5,1,7.3,1.5
		c0.2-0.3,0.2-0.7,0.4-1C489.7,323.8,486.7,324.3,484.4,323.8z M477,272.2c0-0.3,0-0.6-0.2-0.8c-1.2-0.3-2.2-0.6-4.2-1.2
		c0.6,1.2,0.8,2.4,1.4,2.4C474.8,272.8,476,272.4,477,272.2z"/>
	<path id="XMLID_717_" class="st0" d="M1010.5,274.2c-2-0.4-4-0.8-5.9-1.4c-2-0.6-4-1.1-5.9-1.8c-2-0.7-3.4-0.8-5.4,0.3
		c-2.2,1.2-5,2.1-7.5,3.2c-0.2-0.1-0.4-0.3-0.6-0.4c1.8-1.4,3.8-2.8,5.9-4.4c-0.4-0.1-1.2-0.4-1.8-0.8c-1.6-1.5-3-0.8-4.6,0
		c-4,2.5-7.9,5-11.7,7.6c-2,1.5-4,3.5-5,5.4c-2.8,5.8-5.2,11.6-7.5,17.5c-0.4,1.1-0.2,2.5-0.4,4.4c1.6-0.7,2.8-1.1,3-1.5
		c1-3.3,5-3.5,8.5-4c4.6-0.8,9.1-1.4,13.5-3.3c2.4-1.1,6.3-0.4,9.5-0.3c2.4,0.1,4.8,1.1,7.1,1.1c5.9,0.1,11.5,3.3,7.5,8.5
		c-2.8,3.6-6.3,6.9-8.9,10.5c-1.4,1.9-3,3.6-5.4,4.9s-4.8,2.8-7.5,3.6c-4.4,1.5-9.1,2.6-13.7,3.9c-1.6,0.4-3.4,0.7-5,0.8
		c-4.2,0.1-8.3,0-12.5,0c-0.2,0-0.4,0-0.6,0c-2.8-0.3-4.2-1.4-5.7-2.9c-1.2-1.1-4.2-1.2-6.1-2.1c-0.8-0.4-1.4-1.7-1.4-2.4
		c0.2-3.5,0.8-7.1,1.2-10.5c0.2-2.8,0.2-5.5,0-8.3c-0.2-4,0.4-7.9,3.4-11.5c1.4-1.7,2-3.6,3.4-5.4c3.4-4.4,6.7-8.9,10.5-13.2
		c1.6-1.7,4.2-3,6.5-4.3c6.3-3.3,12.9-6.8,19.6-9.8c6.7-2.9,10.5-1.7,17,1.5c1.2,0.6,2.6,1.1,3.8,1.2c2.8,0.3,4.2,1.2,4,3
		c0,1.9,0,3.9,2.6,5.3c1.8,1,1.6,2.2,0.2,3.3c-1.4,1.1-3,2.1-4.6,3C1010.7,274.9,1010.7,274.4,1010.5,274.2z M994.3,305.2
		c-1.6-0.1-2.4-0.3-3-0.3c-4.8,0.1-9.7,0.3-14.5,0.6c-2.2,0.1-4.8,0-6.7,0.7c-2.4,0.8-4,0.8-6.3-0.1c-1.6-0.7-4.2-1.2-4.8,0.7
		c-0.4,1.2-0.2,2.9,0.6,4c1.8,1.9,4.4,3.5,6.3,5.3c3.4,2.8,7.1,3.7,11.5,1.8c4.2-1.8,7.7-4.2,11.1-6.7
		C991.1,309.8,992.3,307.6,994.3,305.2z M992.7,260.4c2.4,0,4.6,0.1,6.5-0.1c0.6,0,1.2-1,1.4-1.5c0-0.3-0.6-1-1.2-1.1
		C997.6,257.1,993.9,258.5,992.7,260.4z"/>
	<path id="XMLID_716_" class="st0" d="M917.6,313c0.6-1,1-1.2,1-1.5c-1-10.4-2.2-20.8-3.2-31.1c-0.2-3.3,0.2-6.7,0.2-9.8
		c0-1.4,0-2.9,0.2-4.3c1-4.4,2.6-8.9,1.4-13.4c0-0.4,0.6-1.2,1.2-1.4c1-0.1,2.8-0.3,3.2,0.1c1.6,1.5,3.4,2.4,6.1,2.4
		c0.8,0,1.6,0.7,2.4,1.1c-0.6,0.4-1,1-1.6,1.4c-0.4,0.4-1,0.8-0.8,1.1c0.6,2.6,1.2,5.3,1.8,7.5c2.6-0.8,4.6-1.5,6.5-2.1
		c0.8-0.1,2.4,0.3,2.6,0.4c0.6,3.5,2.4,6.9-0.6,10.8c-0.4-1-0.6-1.7-0.6-2.2c0-1.2,0.2-2.6,0-3.9s1-3.2-2.4-3.3
		c-2.2-0.1-4.8,2.5-4.8,4.2c0,2.8-0.2,5.4-0.2,8.2c0,1.2,0.4,2.5,0.4,3.7c0,0.3-0.2,0.7-0.2,1c-0.4,1-0.8,2.1-0.8,3
		c0,5.8,0.4,11.8,0.2,17.6c-0.2,4.2-0.8,8.5-1.4,12.6c-0.2,1.4-0.2,2.9-0.6,4.3c-0.4,1.2-1.2,2.4-1.8,3.6c-0.8,1.9-1.6,4-2.6,6
		c-0.4,0.8-0.8,1.5-1.6,2.1c-0.2,0.3-1.6-0.3-2.4-0.4c1.8-3.7-3.2-4.2-5.9-5.4c-5.9-2.6-9.7-6.2-12.7-10.5
		c-2.4-3.6-5.2-7.1-7.5-10.7c-1.4-2.1-2.2-4.3-3.2-6.4c-0.2-0.6-0.6-1.1-1-1.7c-0.4,0-0.6,0-1,0c-0.8,3-1.4,6.1-2.2,9.1
		c-1.6,5.4-3,10.7-5,15.9c-1.6,4-3.6,8-7.3,11.4c-1,0.8-3,1.9-4,1.8c-2.4-0.4-2.6-1.9-1.8-3.5c1.4-3.2,3-6.2,4.2-9.4
		c0.4-1.1,0.2-2.2,0.4-3.3c0-0.3,0.2-1,0.4-1c2.8-0.4,2.4-2.1,2.8-3.5c1.2-5.3,2.2-10.5,3.2-15.8c0.2-0.8-0.2-1.8-0.2-2.6
		c-0.2-1.5,0.8-2.9,1.6-4.3c1.4-2.8,1.8-6,1.8-9c0-4.2-1.8-8.3-0.8-12.2c0.6-2.5,2.6-5,3.4-7.6c0.4-1.4,1.8-1.5,3.6-0.8
		c4.8,1.9,7.1,4.6,6.5,8.5c-0.2,1.2-0.4,2.5-0.2,3.6c0.4,1.7,1,3.3,1.6,5c0,0.3,0.2,0.4,0.4,0.7c3.6,9.4,10.3,18,14.3,27.4
		C911.8,308.5,915,310.5,917.6,313z"/>
	<path id="XMLID_715_" class="st0" d="M570.2,224.7c0.4,1.7,1.2,3.5,0.8,3.7c-1.8,0.7-4,0.8-6.1,1.2c0.6,0.7,1.4,1.7,2,2.6
		c0.2,0.4,0,1.1-0.2,1.7c-0.8,0-2,0.1-2.4-0.3c-3.6-3.3-7.5-1.5-11.7-0.7c-2.4,0.4-5,0.4-7.3,0.3c-4.2-0.1-8.3-0.6-12.3,0.8
		c-3,1-5.7-0.4-6.3-2.6c-0.4-1.8-1-3.6-1.6-5.3c-0.8,0.7-1.4,1.4-2.2,1.8c-0.4,0.1-2-0.7-2-1.1c0.2-0.8,0.8-2.2,1.4-2.4
		c3-0.4,2.4-1.9,2.4-3.3c0-2.2,0-4.4,0-6.7c0-4.7,0-9.4,0-14.3c0.2-5.8,0.6-11.5,0.8-17.3c0.2-3.7-0.2-7.3,0-11.1
		c0-1.5,0.2-3.2,0.6-4.7c1-2.4,6.5-4.6,9.3-3.3c5.4,2.5,11.3,2.4,17,2.2c6.5-0.3,11.7,1.8,16.8,3.9c1.6,0.6,3.4,1,5,1.5
		c0.8,0.3,1.6,0.7,2.4,1.1c-0.6,0.6-1.2,1.2-2,1.5c-0.6,0.3-1.6,0.1-2.6,0.3c-0.8,0.1-1.6,0.3-2.4,0.6c0.6,0.4,1,1,1.8,1.4
		c1.2,0.7,2.6,1.2,3.8,1.8c0,0.1-0.2,0.4-0.2,0.6c-2.4,0.3-4.8,0.4-7.1,0.7c0,0.1,0,0.3,0,0.4c1.8,0.6,3.6,1.2,5.4,1.8
		c-0.2,0.3-0.2,0.6-0.4,0.8c-1-0.1-2.2-0.3-3-0.6c-1.4-0.4-2.4-1.2-3.8-1.7c-5.7-2.2-12.3-1.5-18.4-2.6c-1.4-0.3-2.8-0.3-4.2-0.4
		c-2.4-0.4-4.4,0.3-5,1.7c-0.8,1.7,1.8,1.7,3.4,2.1c0.6,0.1,1,0.4,1.6,0.6c-0.2,0.1-0.2,0.3-0.2,0.3c-8.1,1.1-8.1,1.1-7.7,6.9
		c0,1,0.2,1.9,0.4,2.9c0.4,1.8,1,3.6,1.4,5.5c3.8,0,7.5,0,11.1,0c5.7-0.1,11.3-0.3,17-0.3c3.2,0,7.9,2.6,9.1,4.7
		c0.6,1.4-0.6,2.9-2.8,2.6c-3.2-0.3-5.5,0.6-7.7,2.2c-0.6,0.4-1.8,0.7-2.6,0.8c-5.7,0.3-11.5,0.7-16.8-1.1c-0.8-0.3-1.8-0.6-2.8-0.6
		c-4.6-0.4-5,0.1-6.5,3c-2.2,4.2,0,8.2-0.8,12.3c-0.2,1.4,1.2,1.8,3,1.4c2.4-0.4,5-0.8,7.5-0.8c7.9-0.3,15.7-0.4,23.6-0.6
		c1,0,2.6,0.6,2.6,1.1c0.2,0.8-0.4,1.8-0.6,2.6C570.6,224.8,569.8,224.8,570.2,224.7z"/>
	<path id="XMLID_712_" class="st0" d="M550.7,346.9c0.4,1.1,0.6,2.1,1,3.2c0.8,2.4-0.6,3.5-3.8,2.9c-2.2-0.4-3.6,0-4.6,1.4
		c-2.2,3-4.6,6-6.1,9.1c-0.6,1,0.8,2.5,1.6,3.7c2.6,3.9,9.5,7.1,15.3,6.4c1.8-0.3,3.4-2.2,4.6-3.6c2.8-3.3,4.2-7.3,7.7-10.3
		c4-3.3,9.7-5.5,14.7-8.3c0.8-0.4,1.8-0.8,2.4-1.4c1.4-1.7,3.2-2.2,5.5-1.1c1.8,0.8,3.2,0.8,5,0.1c1-0.6,2.6-0.6,4-0.7
		c3.2,0,4.4,1.1,3.2,3.2c-1,1.5-0.4,2.5,0.8,3.7c3.6,3.9,7.1,7.8,7.9,12.3c0.4,2.2,0,4.6-1.2,6.7c-5.5,10.3-20.8,14.6-34.7,10.7
		c-4-1.1-8.1-1.9-10.9-4.7c-2-1.9-5-1.4-5.9,1c-1.2,2.6-5.9,3-10.1,2.2c-5.4-1-10.7-2.4-15.5-4.2c-4.2-1.5-6.7-4.3-8.3-7.6
		c-2.2-4.6-2-9,1.2-13c2.2-2.6,5.7-4.9,8.9-7.1c3.6-2.5,7.5-4.9,11.5-7.2c2.6-1.5,5.2-2.9,8.1-4c2.4-1,5,0,5.9,1.7
		c0.6,1.1,1.2,2.4,1.8,3.9c-1.2-0.1-1.8-0.3-2.4-0.3c-1,0.1-2.2,0.3-3.2,0.4c0.4,0.8,0.8,1.8,1.6,2.5c0.8,0.7,2,1,3.6,1.8
		c-4.8,0.6-6.1-1.7-7.7-3.6C551.5,346.7,551.1,346.8,550.7,346.9z M583.4,376.9c2.2-0.4,5.4-1,8.7-1.5c4-0.7,5.2-3.3,7.7-5
		c0.2-0.1,0-0.7,0-1.1c-0.2-1.2-0.8-2.5-0.8-3.7c-0.6-3.9-4.4-6-8.5-8c-1-0.6-3.4-0.6-4.6-0.1c-6.7,2.6-10.5,6.9-12.1,12.1
		C573.3,372.7,578.3,376.9,583.4,376.9z"/>
	<path id="XMLID_711_" class="st0" d="M602.1,169.1c0,2.9,0,5.3,0,7.8c0.2,0,0.4,0.1,0.8,0.1c0.6-0.4,1.2-0.8,2-1.5
		c0.4,0.6,0.8,1.1,0.8,1.7c0.2,1.1,0.4,1.8,2.2,2.1c1,0.1,2,1.1,3,1.7c-0.2,0.1-0.4,0.3-0.4,0.6c-1-0.1-2.2-0.3-3.8-0.6
		c0,6.2,0.2,12.3,0,18.4c0,3.9-0.6,7.6-1,11.5c0,0.4-0.4,1-0.2,1.4c3.2,4,0.4,8-0.6,11.9c-0.2,1,0.2,2.1,0.2,3.2
		c1.4-0.3,2.8-0.6,4-0.6c4,0,7.9,0.1,11.7,0.3c1.6,0.1,3.2,0.6,4.6,0.8c2.4,0.6,4.8,1.1,7.1,1.5c1,0.3,2.2,0.3,3.4,0.4
		c0-0.3,0.2-0.6,0.2-0.8c-0.8-0.3-1.4-0.6-2.4-0.8c4.2-0.4,4.2-0.4,3.4,4.2c1.8-0.1,3.8,0.1,3-2.1c-0.2-0.4,1.2-1.7,1.8-1.7
		c3.2,0,6.5,0.4,9.7,0.7c0.4,0,0.8,0.3,1.6,0.6c-3.8,1.5-8.7-0.7-12.1,2.6c2.6,0.1,4.8,0.3,6.5,0.6s3.6,0.8,5.9,1.5
		c-2,1.1-3.2,1.7-4.4,2.4c0.6,0.6,1,1,1.4,1.2c0.4,0.6,0.6,1.1,0.8,1.7c-0.8,0.1-1.8,0.4-2.6,0.6c-3.2,0.1-6.5-0.6-9.3,1.7
		c-0.8,0.6-3,0.3-4.6,0.4c-2.4,0-4.6,0.1-6.9,0c-3.8-0.3-7.5-0.7-11.3-1.2c-4.4-0.6-8.5-1.1-12.7,0.6c-2.8,1.1-5.5,0-6.7-3
		c-1-2.4-2.2-4.6-4.6-6.4c-0.6-0.4-0.4-1.4-0.6-2.1c0-2.4,0-4.7,0-7.2c0-4.9,0.2-9.6,0.2-14.4c0-2.4,0.2-4.9,0.4-7.2
		c0.2-5,0.6-10.1,0.8-15.1c0-1.4,0.2-2.9,0.4-4.3c0.2-1.7-0.6-3.5,2.4-4.4c0.8-0.3,1.4-1.5,1.4-2.4
		C597.7,171.7,597.7,171.7,602.1,169.1z"/>
	<path id="XMLID_707_" class="st0" d="M682.5,360.3c-3.4-1.7-3.4-3.2-0.6-7.5c3,0,5.7,0,9.1,0c-0.4,0.4-0.8,0.7-1.8,1.4
		c2,0.6,3.6,1.1,5.4,1.4c2.4,0.4,5,0.7,7.3,1.1c5,1,7.1,3.7,9.1,6.5c2.6,3.3,4,6.9,3.8,10.8c0,1,0.2,1.9,0.4,3.3
		c0.8-0.7,1.2-1,1.6-1.5c0.4,1.5,1.2,2.9,1.2,4.3c0.4,4.4-1.2,8.7-4,12.6c-2.2,2.9-5.5,5-10.7,5.4c-2.6,0.1-5.2,1.5-7.7,2.5
		c-1.4,0.4-2.8,1.4-4,1.2c-4.6-0.7-7.7,1.2-10.7,3c-2.4,1.4-3,0.4-3.6-0.8c-1-2.5-2-5-2.8-7.3c-0.2-0.4,0.4-1,0.4-1.5
		c0.6-2.5,1.4-5,2-7.5c0.4-1.7,0.6-3.3,0.8-5c0.2-2.1-0.2-4.3,0-6.4c0.4-3.2,1-6.5,1.4-9.7c0.2-1.4,0.4-2.6,0.6-4
		C680.2,361.6,679.2,360.1,682.5,360.3z M687.7,395c9.3-2.5,15.1-7.1,19.2-12.6c3.2-4,0.8-8-1.8-11.9c-2-2.9-3.6-6.2-8.9-7.1
		c-0.2,0.6-0.4,1.1-0.6,1.7c-3.6-1.4-4.2-1.1-4.6,1C690.1,375.5,688.9,385.1,687.7,395z M707.3,393.7c5.5-3,7.9-7.3,8.3-12.5
		C712.7,385.5,710.1,389.5,707.3,393.7z"/>
	<path id="XMLID_703_" class="st0" d="M740.6,403.1c-1,0-2.2,0-3.6,0c0.8-1,1.4-1.7,2-2.4c-0.2-0.1-0.4-0.3-0.6-0.3
		c-1.2,0.6-2.2,1.2-3.8,2.1c1.6,0.7,2.8,1.2,4,1.8c-4,2.4-5.2,2.5-9.7,0.6c-2.8-1.2-5.5-2.8-9.1-1.4c-0.4,0.1-1.6-0.3-1.8-0.6
		c-0.2-0.3,0-1.1,0.4-1.4c2.2-1.4,3-3.2,3.4-5.1c0.4-2.4,4.6-4.9,7.7-5.1c0.2,0,0.2,0,0.4,0c5.7,2.1,6.7-2.2,9.9-3.6
		c2.2-0.8,1.2-2.8-1-3.9c-1.8-0.8-3.6-1.7-5.4-2.5c-2.2-1.1-3.6-2.5-3.4-4.6c0-0.4-0.4-0.8-1-1.9c-0.6,1.1-0.8,1.7-1.2,2.2
		c-0.2,0-0.6,0-0.6-0.1c-1.6-2.2,0.2-8.3,3-9.8c0.4-0.1,0.4-0.7,0.6-1c0.4-0.6,0.8-1.4,1.2-1.4c3.2-0.1,3.4-1.9,4.4-3.3
		c0.4-0.6,1.6-1.2,2.4-1.1c5.7,0.4,9.9-1.7,13.3-4c2,0.3,3.6,0.4,5.4,0.6c0.6,0,1.4,0,2,0.1c0.8,0.3,1.2,1,1.8,1.4
		c-0.8,0.1-1.6,0.4-2.4,0.6c0.2,0.1,0.4,0.3,0.6,0.4c-1.2,0.8-2.4,2.2-3.8,2.5c-6.7,1.4-10.7,5-14.9,8.3c-0.8,0.7-0.8,2.1-0.6,2.9
		c0.2,0.4,2,0.8,3,0.8c1.4,0.1,3,0,4.6,0c4.6,0,8.5,2.1,9.1,5.3c0.8,5,1.2,10,1.2,15c0,3.5-3.8,5.8-8.9,6.4l0,0
		c0.8-0.7,1.4-1.5,2.4-2.1c3.6-1.9,5-4.6,4.2-7.6c-0.2-0.6-0.8-1.1-1-1.7c-0.6,0.6-1,1.1-0.8,1.4c1,2.2,0,3.9-2.4,5.1
		c-2.6,1.5-5.5,2.8-8.1,4.3C742,400.7,739.6,401.3,740.6,403.1L740.6,403.1z M756.7,383.5c-1-1-1.8-1.8-2.6-2.8
		c-0.8-1-1.4-1.9-2-2.8c-1.6-1.9-4.4-2.4-8.5-1c5.2,1.5,8.5,3.9,10.1,7.5C754.7,384.1,755.7,384,756.7,383.5z M729.3,398.8
		c3.4,0.8,5.7-1.1,8.7-0.8c-0.6-1.1-0.8-1.7-1-2.2C734.5,396.8,732.1,397.7,729.3,398.8z"/>
	<path id="XMLID_702_" class="st0" d="M853.6,333.1c-1.4-1.9-2.6-4-4-6c-0.6-0.8-1.8-1.8-3-2.4c-4.4-1.5-5-4.2-5-7.1
		c0.2-10.1,0.4-20.4,0.6-30.5c0-2.2-0.6-4.4-0.8-6.9c3.4-0.1,3.6-2.2,3.6-4.4c0-1.2,0.6-2.4,1-3.5c0.2-0.6,1.2-0.8,1.8-1.4
		c0.4,0.4,1.2,0.8,1.4,1.4c1,2.2,1.8,4.4,2.6,6.4c2.2,0,3.6,0,5,0c0.2,0.3,0.4,0.6,0.4,0.8c-2.6-0.7-3.4-0.4-3,1.2
		c0.6,3.5,0.6,7.1,1.2,10.7c0.2,0.8,1.2,1.5,1.6,2.1c-0.6,1.4-1.6,2.8-1.6,4.2c-0.4,3,0,6-0.4,9c-0.2,3.5-1,6.9-1.2,10.5
		c0,2.4,0.6,4.6,0.8,6.9c0.2,2.6,0.4,5.3,0.4,7.9c0,0.3-0.4,0.6-0.6,0.7C854.4,332.9,854,333.1,853.6,333.1z"/>
	<path id="XMLID_701_" class="st0" d="M833.4,254.1c0.2-1.4,0.4-3,1-4.6c0.2-0.4,0.6-1,1.2-1.2c1.6-0.7,2.8-1.1,0.4-2.2
		c-0.4-0.1-0.2-1.4,0.4-1.7c1.8-1.4,3.8-2.1,6.5-1.7c1.6,0.3,3.4,0,5,0c2.6,0,3.8-0.7,3.6-2.6c0-0.4,1.4-1,2-1.4
		c0.6,0.4,1.6,1,1.6,1.4c0.4,3.9,0.6,7.8,0.6,11.6c0,0.6-1,1.2-1.8,1.7c-0.8,0.6-2.2,1-2.6,1.7c-1.4,2.8-5,3.9-8.3,5.1
		c-4.6,1.7-8.7-1.7-9.7-5C833.2,254.9,833.4,254.5,833.4,254.1z"/>
	<path id="XMLID_700_" class="st0" d="M639.1,138.5c0-3.6,0.6-7.1,4-10.1c2.2-1.9,5-2.2,7.5-0.4c0.6,0.4,1.2,1,2,1.4
		c5.2,2.4,6.5,5,4.2,9c-1.2,2.1-4,3.9-5,6c-1,2.4-3.6,3.3-5.9,4.3c-2.8,1.2-4,1-4.8-1.2C640.1,144.4,639.7,141.4,639.1,138.5z"/>
	<path id="XMLID_699_" class="st0" d="M1046.8,661.3c1.2,0.4,2.4,1,3.8,1.2c1,0.1,2.2,0.3,2.8-0.1c0.6-0.4,1.4-1.5,1-1.9
		c-2.4-3,1.2-5.4,1.4-8c3-0.3,4,0.7,3.2,2.4c-0.8,2.1-2.4,4.2-2.4,6.2c0,3.5-4,5.1-5.5,7.8c-1,1.5-0.4,3.6-0.2,5.5
		c0,0.8,0.4,1.7,0.8,2.6c-3-0.3-3-0.6-3.6-9.7c0.8,0.3,1.4,0.4,2,0.6c2.2-2.9,2-3.3-2.2-4.7c-0.6-0.3-1.2-0.8-1.8-1.2
		C1046.4,661.8,1046.6,661.5,1046.8,661.3z"/>
	<path id="XMLID_698_" class="st0" d="M261,604.6c0.4,1,1,1.8,1.2,2.8c1.6,6.8,3,13.6,4.6,20.4c0.4,1.4,1,2.6,1.6,4.3
		c-0.6-0.4-1.6-0.8-1.8-1.4c-1.6-4.6-3.4-9.1-4.6-13.9c-1-3.9-1.6-7.9-2.4-11.9C260,604.8,260.6,604.8,261,604.6z"/>
	<path id="XMLID_697_" class="st0" d="M934.4,286.8c5.4,0,3.6,1.9,3.6,3.2c-1.2-0.3-2.4-0.7-3.6-1c-0.4,0.7-0.8,1.2-1,1.9
		c0,0.1,0.2,0.6,0.4,0.6c5.7,1.7-0.4,2.1-1,3.2c0-0.3,0.2-0.6,0-0.8c-2.8-4.6-0.2-8.5,3.6-12.1c0.2-0.3,0.2-0.6,0.4-0.8
		c0.4-0.4,1-0.8,1.6-1.1c0.4,0.4,1.6,1.1,1.4,1.4c-0.6,1.1-1.6,2.2-2.4,3.3C936.8,285.3,935.8,285.8,934.4,286.8z"/>
	<path id="XMLID_696_" class="st0" d="M1051,642.9c-2-3.5,0.4-11.4,4.8-13.7C1054.1,634,1056.5,639,1051,642.9z"/>
	<path id="XMLID_695_" class="st0" d="M907.9,139.3c-4.8-0.3-9.5-0.7-14.1-0.7c-4.8,0-9.7,0.3-14.7,0.4c0.2-0.4,0.2-0.7,0.2-0.7
		c6.1-0.6,12.1-1.2,18.2-1.4c3.4,0,6.9,1,10.3,1.5C908.1,138.7,907.9,139,907.9,139.3z"/>
	<path id="XMLID_694_" class="st0" d="M446.9,144.8c-0.8,0.4-1.4,1-2,1c-4-0.3-4.2-0.3-3,2.2c-2.8-0.7-5.7-1.2-8.5-2.1
		c-0.4-0.1-0.8-0.8-0.8-1.1c0.2-0.4,1-0.8,1.6-0.8c2,0,4,0,5.7,0.1C442.1,144.3,444.1,144.6,446.9,144.8z"/>
	<path id="XMLID_693_" class="st0" d="M938,291.5c1,0.7,2.2,1,2.2,1.5c0.6,3.7,0.4,7.5-2.2,11C938,300.1,938,296.1,938,291.5z"/>
	<path id="XMLID_692_" class="st0" d="M621.3,246.6c-3.6-0.3-7.3-0.6-10.9-1c-0.8-0.1-1.4-1.1-2-1.8c4,0.3,7.5,0.6,11.1,1
		c0.8,0.1,1.6,0.8,2.2,1.2C621.5,246.3,621.3,246.4,621.3,246.6z"/>
	<path id="XMLID_691_" class="st0" d="M860.1,302.4c0.2-0.4,0.4-0.8,0.6-1.1c1.4-1.4,3.4-2.8-1.2-3c-0.2,0-0.8-0.6-0.6-0.8
		c0-0.3,0.8-0.7,1-0.7c1.6,0.3,3.4,0.6,4.4,1.2c0.6,0.4,0.2,1.8-0.4,2.6c-0.8,0.8-2,1.5-3.2,2.2
		C860.7,302.7,860.3,302.6,860.1,302.4z"/>
	<path id="XMLID_690_" class="st0" d="M855.2,288c2.2-1.7,4-3.2,6.1-5C861.7,288.2,860.7,289.1,855.2,288z"/>
	<path id="XMLID_689_" class="st0" d="M539.3,150c0.4,4,5.4,2.8,8.5,3.6c-0.2,0.3-0.2,0.6-0.4,0.8c-3.4-0.4-6.9-0.7-10.7-1.1
		c0.6-1.2,1.2-2.2,1.6-3C538.5,150,538.9,150,539.3,150z"/>
	<path id="XMLID_687_" class="st0" d="M252.1,126.1c1.2-2.1,6.7-2.9,12.3-2.1C259.8,124.9,256.2,125.4,252.1,126.1z"/>
	<path id="XMLID_685_" class="st0" d="M352.6,148.9c-2.4,0.4-4.8,0.8-7.3,1.1c-0.4,0-1.2-0.6-1.2-0.7c0.2-0.4,0.8-1.1,1.2-1.1
		c2.4-0.1,4.8,0,7.1,0C352.6,148.3,352.6,148.6,352.6,148.9z"/>
	<path id="XMLID_684_" class="st0" d="M1010.7,215.5c1.6,0.1,3.4,0.1,5,0.3c0.6,0,1,0.7,1.4,1c-0.6,0.3-1.2,0.8-1.6,0.8
		c-1.8-0.3-3.4-0.7-5.2-1C1010.5,216.2,1010.7,215.9,1010.7,215.5z"/>
	<path id="XMLID_683_" class="st0" d="M785.4,176.9c1.8-0.4,3.6-0.7,5.2-1.1c0.2,0.3,0.2,0.4,0.4,0.7c-0.8,0.3-1.4,0.6-2.4,0.8
		c0.6,0.6,1.2,1,1.8,1.5c-0.2,0.1-0.4,0.4-0.4,0.6c-1.6-0.4-3.2-1-4.8-1.4C785.4,177.7,785.4,177.3,785.4,176.9z"/>
	<path id="XMLID_682_" class="st0" d="M748.9,400.3c-0.8,0.6-1.4,1.2-2.2,1.7c-1.4,0.7-2.8,1.2-4.4,1.8c-0.4,0.1-1.2-0.4-1.8-0.7
		l0,0C743.4,402.1,745.4,400,748.9,400.3C749.1,400.3,748.9,400.3,748.9,400.3z"/>
	<path id="XMLID_681_" class="st0" d="M612.8,294.7c-4,0-6.9,0-9.9,0c0-0.3,0-0.6,0-0.8C605.8,294,608.8,294.3,612.8,294.7z"/>
	<path id="XMLID_679_" class="st0" d="M724.9,284.1c2.6-0.1,4.8-0.3,6.7-0.6C729.7,284,728.1,287.8,724.9,284.1z"/>
	<path id="XMLID_678_" class="st0" d="M858.5,209.2c1-1.8,1.8-3,2.6-4.6C863.3,206.9,862.7,207.8,858.5,209.2z"/>
	<path id="XMLID_677_" class="st0" d="M476.6,147.1c1.2,0.6,2.2,1.1,3.2,1.7c0,0-0.8,0.8-1.2,1.2c-1-0.7-2.2-1.4-3.2-2.1
		C475.8,147.6,476.2,147.3,476.6,147.1z"/>
	<path id="XMLID_676_" class="st0" d="M977.6,285.1c-2.4,0.7-5,1.4-7.3,1.9c-0.2-0.3-0.4-0.6-0.4-0.8c2.6-0.7,5-1.2,7.5-1.9
		C977.2,284.6,977.4,284.8,977.6,285.1z"/>
	<path id="XMLID_675_" class="st0" d="M1117.6,429.8c0-0.3-0.2-0.6-0.2-0.6c1-0.7,2.2-1.5,3.2-2.2c0,0,0.8,0.6,1.2,0.7
		c-1.2,0.6-2.2,1.2-3.4,1.8C1118.5,429.8,1118.1,429.8,1117.6,429.8z"/>
	<path id="XMLID_674_" class="st0" d="M287.6,165.3c-1.6,0.3-3.2,0.6-4.8,1c-0.2-0.4-0.4-1.1-0.4-1.1c1.6-0.3,3.2-0.6,4.8-1
		C287.4,164.7,287.6,165.1,287.6,165.3z"/>
	<path id="XMLID_673_" class="st0" d="M1005.4,313.3c1-1.1,2-2.1,3-3.2C1009.7,312.6,1008.5,313.5,1005.4,313.3z"/>
	<path id="XMLID_672_" class="st0" d="M452.1,145c1.6,0,3.2,0,4.6,0c0,0.1,0.2,0.3,0.2,0.6c-1.2,0.6-2.6,1.1-4.2,1.8
		C452.4,146.4,452.2,145.7,452.1,145z"/>
	<path id="XMLID_671_" class="st0" d="M805.6,172.4c-1-0.8-1.8-1.2-2-1.7c0-0.3,1-1.1,1.4-1.1c0.8,0,1.8,0.6,2,1
		S806.4,171.6,805.6,172.4z"/>
	<path id="XMLID_670_" class="st0" d="M910.4,139.8c2.6-2.6,4,0,5.9,0C914.6,139.8,912.8,139.8,910.4,139.8z"/>
	<path id="XMLID_669_" class="st0" d="M491.9,148.9c-0.8,1.9-1.8,2.1-4.8,0.4C488.9,149.1,490.3,149,491.9,148.9z"/>
	<path id="XMLID_668_" class="st0" d="M541.4,189.6c1.2,0.1,2.6,0.3,3.8,0.4c0,0.3,0,0.4,0.2,0.7c-0.8,0.3-1.8,0.7-2.6,0.6
		s-1.4-0.7-2.2-1C540.8,190,541.2,189.9,541.4,189.6z"/>
	<path id="XMLID_667_" class="st0" d="M458.8,145.2c5-0.6,5.5-0.4,5,1.4C462.2,146.2,460.8,145.8,458.8,145.2z"/>
	<path id="XMLID_666_" class="st0" d="M249.3,265.6c0.2-1.8,0.4-3.6,0.6-5.4c0.2,0,0.2,0,0.4,0c0,1.8,0,3.6,0,5.4
		C249.9,265.7,249.5,265.7,249.3,265.6z"/>
	<path id="XMLID_665_" class="st0" d="M871.2,201.8c-1.4,1.1-2.8,2.2-4.4,3.3c-0.4-0.3-0.6-0.4-1-0.7c1.4-1.1,3-2.2,4.4-3.3
		C870.8,201.3,871,201.5,871.2,201.8z"/>
	<path id="XMLID_664_" class="st0" d="M295.1,157.7c-1-0.7-2.2-1.2-3.2-1.9c0.2-0.3,0.4-0.6,0.6-0.8c1,0.1,2.2,0.1,2.6,0.6
		c0.6,0.4,0.6,1.2,0.8,1.9C295.9,157.4,295.5,157.6,295.1,157.7z"/>
	<path id="XMLID_663_" class="st0" d="M265.6,470.5c0.4,0.4,0.8,1,1,1.4c0.6,4.6,1.2,9,1.8,13.6c0,0.6-0.8,1.1-1.2,1.7
		c-0.4-0.6-1.2-1.1-1.2-1.7c-0.6-5-1-9.8-1.4-14.8C264.8,470.6,265.2,470.6,265.6,470.5z"/>
	<path id="XMLID_662_" class="st0" d="M261.8,584.7c-0.4-0.6-1-1-1.2-1.5c-1.2-2.8-2.4-5.7-3.6-8.5c-0.6-1.2-1.4-2.5-1.8-3.9
		c-0.2-0.4,0.6-1.1,1-1.5c0.6,0.4,1.4,0.7,1.6,1.1c0.6,1.5,1,3,1.4,4.6c0.6,2.1,1.4,4,2,6.1c0.4,1.1,0.8,2.4,1.2,3.5
		C262.4,584.5,262,584.5,261.8,584.7z"/>
	<path id="XMLID_661_" class="st0" d="M258.8,313.8c0.4-3.9,0.8-7.8,1.2-11.8c2.4,1.2,2.2,8.7,0,11.8
		C259.6,313.8,259.2,313.8,258.8,313.8z"/>
	<path id="XMLID_660_" class="st0" d="M257.4,279.4c4,1.2,4.6,3.3,1.8,6.5C258.6,283.7,258.2,281.8,257.4,279.4z"/>
	<path id="XMLID_659_" class="st0" d="M284.8,127.8c3,0,5.9,0,8.7,0c0,0.3,0,0.6,0,0.7c-3,0-5.9,0-8.9,0
		C284.8,128.2,284.8,127.9,284.8,127.8z"/>
	<path id="XMLID_658_" class="st0" d="M268.5,499.3c-0.2,2.4-0.4,4.9-0.6,7.2c-0.6,0-1,0-1.6,0c0.2-2.4,0.4-4.9,0.6-7.2
		C267.5,499.3,268.1,499.3,268.5,499.3z"/>
	<path id="XMLID_657_" class="st0" d="M620.5,135.8c-0.4-2.6-0.4-2.6,6.3-1.4c-1,0.1-2,0.1-3,0.4
		C622.9,135.1,621.9,135.4,620.5,135.8z"/>
	<path id="XMLID_656_" class="st0" d="M269.1,495.3c-4.4-0.8-2.2-2.8-2.8-4.2c0.4-0.1,0.8-0.1,1.2-0.3
		C267.9,492.2,268.3,493.6,269.1,495.3z"/>
	<path id="XMLID_655_" class="st0" d="M261.4,190.2c-0.2,1.7-0.2,3.3-0.4,5.1c-0.4,0-1,0-1.4,0c0.2-1.7,0.2-3.3,0.4-5.1
		C260.6,190,261,190,261.4,190.2z"/>
	<path id="XMLID_654_" class="st0" d="M268.1,129.3c-1.8,0-3.6,0-5.5,0C264.4,126.1,266.4,129,268.1,129.3z"/>
	<path id="XMLID_653_" class="st0" d="M267.3,537.5c0,1.8,0,3.5,0,5.3c-0.2,0-0.4,0-0.6,0c0-1.8,0-3.5,0-5.3
		C266.9,537.5,267.1,537.5,267.3,537.5z"/>
	<path id="XMLID_652_" class="st0" d="M319.3,432.3c0.2,2.5-0.8,3.2-3.8,2.9l0,0C316.9,434.3,318.1,433.3,319.3,432.3
		C319.5,432.3,319.3,432.3,319.3,432.3z"/>
	<path id="XMLID_651_" class="st0" d="M315.7,435.1c-1.2,1.1-2.4,2.4-4,3.9C311.7,436.5,312.3,436.1,315.7,435.1
		C315.7,435.2,315.7,435.1,315.7,435.1z"/>
	<path id="XMLID_650_" class="st0" d="M1056.1,247c-0.2-0.6-0.6-1.1-0.6-1.5c0.2-3.5,0.6-7.1,1-10.5c0-0.3,0.4-0.8,0.2-0.8
		c-3.2-1.5-0.6-3-0.2-4.7c0.2-1-0.2-1.9-0.4-2.9c-0.4-2.8-1-5.4-1.4-8.6C1060.1,221.1,1060.7,243.1,1056.1,247z"/>
	<path id="XMLID_649_" class="st0" d="M1060.3,192.5c2.4,2.4,2,12.9-0.6,14.4C1059.3,202.2,1058.5,197.5,1060.3,192.5z"/>
	<path id="XMLID_648_" class="st0" d="M1033.3,461.2c2.2,2.5,6.3,3.3,6.1,6.4c0,0.3,1.2,0.6,1.8,1c0.6,0.4,1.6,1,1.8,1.5
		c0,0.6-0.8,1.1-1.2,1.7c-0.8-0.3-2.2-0.6-2.6-1c-2.2-2.6-4.2-5.3-5.9-7.9C1033.1,462.6,1033.3,462.1,1033.3,461.2z"/>
	<path id="XMLID_647_" class="st0" d="M1044.4,553.2c0.6,3.6,1,7.2,1.6,11c-1.4,0.4-2.6,0.1-3.2-1.2c-1.4-3.3-0.2-6.5,0.6-9.7
		C1043.8,553.2,1044.2,553.2,1044.4,553.2z"/>
	<path id="XMLID_646_" class="st0" d="M1045,443.3c-1-3.6-1.8-7.2-2.6-11c0-0.3,0.6-0.8,1-1.1c0.4,0.3,1.2,0.6,1.4,0.8
		c0.4,3.7,0.8,7.5,1.2,11.2C1045.6,443.3,1045.2,443.3,1045,443.3z"/>
	<path id="XMLID_645_" class="st0" d="M702,136.8c1-1.7,7.9-2.2,18-1.1C714,136.1,708.1,136.5,702,136.8z"/>
	<path id="XMLID_644_" class="st0" d="M1047,596.6c0.6-2.4,1.2-4.6,2-6.9c0.4,0,1,0,1.4,0c0,1.1,0.2,2.2,0,3.2c-0.2,1-0.4,2.1-1,3
		c-0.2,0.4-1.2,0.7-1.8,1.1C1047.4,596.9,1047.2,596.7,1047,596.6z"/>
	<path id="XMLID_643_" class="st0" d="M1059.1,284.3c0,0.4,0.2,0.7,0.2,1.1c-0.2,2.4-0.4,4.7-1.4,7.1c0-2.8,0-5.4,0-8.2
		C1058.3,284.3,1058.7,284.3,1059.1,284.3z"/>
	<path id="XMLID_642_" class="st0" d="M1057.3,183.4c-0.6-1.8-1-3.6-1.6-5.4c0.4,0,0.8-0.1,1.4-0.1c-0.4,1.9,2.8,3.5,1.4,5.5
		C1058.1,183.2,1057.7,183.2,1057.3,183.4z"/>
	<path id="XMLID_641_" class="st0" d="M1057.1,212.5c-2.4-0.6-4.6-1-3-3.2C1056.1,209.8,1058.9,210,1057.1,212.5z"/>
	<path id="XMLID_640_" class="st0" d="M1093.6,440.1c-2.2,1.1-4.4,2.2-6.5,3.5c0.6-2.4,3.4-3,5.5-4
		C1093,439.7,1093.4,440,1093.6,440.1z"/>
	<path id="XMLID_639_" class="st0" d="M1054.7,507.7c-2-0.8-2.2-5.1,0-6.1C1054.7,503.7,1054.7,505.7,1054.7,507.7z"/>
	<path id="XMLID_638_" class="st0" d="M1046.2,328.1c0.2-1.7,0.4-3.2,0.6-4.9c0.4,0,1,0,1.4,0c-0.2,1.7-0.2,3.2-0.4,4.9
		C1047.2,328.1,1046.8,328.1,1046.2,328.1z"/>
	<path id="XMLID_637_" class="st0" d="M959.2,131.1c2,0,4.2,0,6.1,0c0,0.3,0,0.4,0,0.7c-2,0.7-4.2,0.4-6.1-0.1
		C959.2,131.4,959.2,131.2,959.2,131.1z"/>
	<path id="XMLID_636_" class="st0" d="M370,285.9c-3.4,0.4-6.7,0.8-9.9,1.2c-0.2-3.3-5.7-1-7.5-3.5c5.9,0.6,11.7,0.4,17.4,1.7
		C370,285.4,370,285.7,370,285.9z"/>
	<path id="XMLID_635_" class="st0" d="M364.7,273.8c-4.4,0.3-8.5,0.6-12.9,0.8c0-0.4,0-0.7-0.2-1.1c4.4-0.3,8.5-0.6,12.9-0.7
		C364.7,273.1,364.7,273.3,364.7,273.8z"/>
	<path id="XMLID_634_" class="st0" d="M338.1,240.2c1.2-0.6,2.2-1.1,3.4-1.7c0.4,0.6,1,1.1,1.4,1.5c-1.2,0.4-2.6,0.8-3.8,1.2
		C338.7,241,338.5,240.6,338.1,240.2z"/>
	<path id="XMLID_633_" class="st0" d="M337.5,300.1c0,1.4,0.2,2.4,0,3.3c0,0.3-0.8,0.7-1.2,0.7s-1-0.6-1.2-0.8
		C334.9,302.2,334.9,300.9,337.5,300.1z"/>
	<path id="XMLID_632_" class="st0" d="M792.5,284.7c4.4-1.7,13.5-1.8,16.8,0C803.4,284.7,798.3,284.7,792.5,284.7z"/>
	<path id="XMLID_631_" class="st0" d="M691.5,276c1.2,0,2.2,0.1,3.6,0.1c-0.2-0.8-0.4-1.7-0.6-2.8c2.4,1.1,4.4,2.1,6.1,3
		c0,0.3,0,0.4-0.2,0.7c-3.2-0.1-6.1-0.3-9.3-0.3C691.5,276.5,691.5,276.2,691.5,276z"/>
	<path id="XMLID_630_" class="st0" d="M745.6,265c2.6,0.3,5.4,0.6,7.7,1c0.6,0.1,0.8,1,1.2,1.5c-0.8,0.1-1.8,0.6-2.4,0.3
		c-2.4-0.6-4.8-1.4-7.1-2.1C745.4,265.7,745.6,265.4,745.6,265z"/>
	<path id="XMLID_629_" class="st0" d="M776.5,319.1c-1.6-2.6-1-5.1,0-7.8c0.4,0,0.8,0,1.2,0c0,2.5,0,5.1,0,7.6
		C777.1,319.1,776.7,319.1,776.5,319.1z"/>
	<path id="XMLID_628_" class="st0" d="M684.7,273.5c0.2-0.1,0.6-0.3,0.8-0.3c1.4,0.1,3,0.4,4.4,0.6c-0.2,0.3-0.2,0.7-0.4,0.7
		c-1.6,0-3.2-0.1-4.8-0.1C684.7,274,684.7,273.8,684.7,273.5z"/>
	<path id="XMLID_627_" class="st0" d="M742.2,266.1c-1.6-0.1-3.2-0.3-5-0.4C738.4,263.8,739.2,263.8,742.2,266.1z"/>
	<path id="XMLID_623_" class="st0" d="M479.4,217.3c0.4,0,1,0,1.4,0c0-2.1,0-4.2,0-6.2c-0.2,0-0.6,0-0.8,0
		C480,213.2,479.6,215.3,479.4,217.3z"/>
	<path id="XMLID_622_" class="st0" d="M455.4,183.2c0.4,4.2,0.6,8.3,1,12.5c-0.4,0-0.8,0-1.2,0c-1.4-4.2-2.2-8.3-1.2-12.5
		C454.4,183.2,454.8,183.2,455.4,183.2z"/>
	<path id="XMLID_621_" class="st0" d="M493.9,182.5c-1.2-3.3-4-5.7-9.3-6.2c4.6-1.4,4.6-1.1,8.5,0.7
		C496.6,178.8,493.9,180.6,493.9,182.5z"/>
	<path id="XMLID_620_" class="st0" d="M473.5,203.7c-3.8,0.6-7.5,1-11.5,1.5c0-0.3,0-1.1,0.4-1.2c3.4-1.4,7.1-1.5,10.9-1
		C473.3,203.2,473.5,203.5,473.5,203.7z"/>
	<path id="XMLID_619_" class="st0" d="M484.9,225.2c-1.4,2.1-3.4,3.5-8.1,2.6c3-1.2,5.4-2.2,7.7-3.2
		C484.6,224.8,484.8,225.1,484.9,225.2z"/>
	<path id="XMLID_618_" class="st0" d="M489.9,208.6c0.6,1.4,1,2.8,1.6,4.2c-0.6,0.1-1,0.1-1.6,0.3c-0.4-1.4-0.8-2.8-1.2-4.2
		C489.1,208.7,489.5,208.6,489.9,208.6z"/>
	<path id="XMLID_617_" class="st0" d="M509.9,179.9c0.2,1.5,0.6,3,0.8,4.4c-0.4,0-1,0.1-1.4,0.1c-0.2-1.5-0.4-3-0.8-4.6
		C508.9,180,509.5,180,509.9,179.9z"/>
	<path id="XMLID_615_" class="st0" d="M625.9,370.5c0.8-3.3,1.6-6.7,2.4-10.3C630.4,361.9,629.2,368.3,625.9,370.5z"/>
	<path id="XMLID_614_" class="st0" d="M657.6,371.6c-3-1.2-2.8-2.6,0-4.6C657.6,368.7,657.6,370.1,657.6,371.6L657.6,371.6z"/>
	<path id="XMLID_612_" class="st0" d="M594.5,319.2c-2.2-1.9-4.4-3.9-6.7-5.8c0.2-0.1,0.2-0.1,0.4-0.3c2,2.1,4,4.2,5.9,6.2
		C594.3,319.4,594.3,319.2,594.5,319.2z"/>
	<path id="XMLID_611_" class="st0" d="M576.1,292.9c-1.2-1.7-1.2-1.7,3-3.3c0.2,0.1,0.4,0.3,0.6,0.4
		C578.7,290.9,577.5,291.9,576.1,292.9z"/>
	<path id="XMLID_610_" class="st0" d="M550,306.2c0-1.2,0-2.5,0-3.7c0.2,0,0.6,0,0.8,0c0,1.2,0,2.6,0,3.9
		C550.5,306.2,550.4,306.2,550,306.2z"/>
	<path id="XMLID_609_" class="st0" d="M465.1,350.3c-0.4,0.7-0.4,1.7-1,1.9c-1,0.3-2.8,0.3-3.4-0.1c-2.6-2.1-5.9-1.7-9.1-1.9
		c-3.6-0.3-4-0.6-2.4-2.6c1-1.4,2.4-2.6,3.8-3.9c2.4-2.1,6.7-1.8,9.1,0.3C463.9,345.8,464.9,347.9,465.1,350.3z"/>
	<path id="XMLID_608_" class="st0" d="M471.9,369.7c7.7,4.6,11.1,11,13.5,17.7c-1.4,0.3-2.6,0.4-3.8,0.7c-0.8-4.7-4.6-8.6-7.7-12.8
		c-1.2-1.7-2.2-3.5-3.2-5.1C471.1,370,471.5,369.8,471.9,369.7z"/>
	<path id="XMLID_607_" class="st0" d="M447.7,352.5c7.7-1.9,12.3-1.2,16.3,2.6c-2.6,0.6-5.9,1.9-6.9,1.2
		C454,354.7,447.7,357.2,447.7,352.5z"/>
	<path id="XMLID_606_" class="st0" d="M501,349.2c-4.8,3.3-8.3,3.6-10.9,0.8C493.7,348.9,496.8,347.5,501,349.2z"/>
	<path id="XMLID_605_" class="st0" d="M455.8,385.9c0.4,0.8,1,1.5,1.2,2.4c0.6,2.5-0.2,5.1,2,7.3c0.6,0.6-0.2,1.7-0.4,2.5
		c-0.4,0-0.8,0-1.2,0c-1-4-2-7.9-3-11.9C454.8,386.2,455.4,386,455.8,385.9z"/>
	<path id="XMLID_603_" class="st0" d="M723.6,239.1c0.8-0.1,1.8-0.4,2.6-0.6c1-0.3,2.4-0.3,3-0.8c3-2.4,5.9-4.6,8.5-7.1
		c2.4-2.4,4.6-5,6.5-7.5c1.4-1.9,2.4-4,3.6-6c0.4-0.7,0.8-1.2,1.6-1.8c2.2,5,0.2,9.4-3.8,13.3C737.2,236.9,729.7,240.5,723.6,239.1z
		"/>
	<path id="XMLID_602_" class="st0" d="M683.1,193.2c-2.6,4-5.2,8.2-7.9,12.3C673.2,202.6,678.2,194.2,683.1,193.2z"/>
	<path id="XMLID_601_" class="st0" d="M727.9,193.6c-2.6-1.2-5.2-2.4-7.5-3.7c-0.4-0.3-0.4-1.1-0.2-1.5c0.4-0.7,1.2-1.4,2.4-2.5
		c2.6,2.9,4.6,5,6.3,7.2C728.7,193.2,728.3,193.5,727.9,193.6z"/>
	<path id="XMLID_600_" class="st0" d="M681,228c-0.8-0.7-1.6-1.2-2-1.8c-0.6-1.1-0.6-2.2-1-3.3c0.4,0,1.4-0.3,1.4-0.1
		c1,1.4,2,2.8,2.8,4.2C682.3,227,681.5,227.5,681,228z"/>
	<path id="XMLID_599_" class="st0" d="M779.6,190.7c-2.6-3.3,2.4-1.8,2.6-3.5c0.4,0.1,0.6,0.4,1,0.6
		C782,188.6,780.8,189.7,779.6,190.7z"/>
	<path id="XMLID_598_" class="st0" d="M865.1,194.2c-0.2-0.7-0.6-1.5-0.4-2.1c0.2-0.7,1-1.1,1.8-1.7c0-0.1,0.8,0.1,1,0.3
		c-0.4,0.6-0.8,1.2-1.2,1.8C865.9,193.1,865.3,193.6,865.1,194.2C864.9,194.3,865.1,194.2,865.1,194.2z"/>
	<path id="XMLID_597_" class="st0" d="M478,267.4c2.4-0.1,5.4-1.4,6.5,0.7c1,1.7-1.2,2.6-3.4,2.9C475.6,271.8,480,268.3,478,267.4z"
		/>
	<path id="XMLID_596_" class="st0" d="M508.9,294.7c-2,1.2-8.5,1.2-11.1,0C501.4,295,504.8,291.9,508.9,294.7z"/>
	<path id="XMLID_595_" class="st0" d="M507.1,327.7c-3-1.2-5.7-2.5-8.5-3.6C501.8,323.4,504.6,324.3,507.1,327.7z"/>
	<path id="XMLID_594_" class="st0" d="M484.4,323.8c2.4,0.6,5.4-0.1,7.5,1.2c-0.2,0.3-0.2,0.7-0.4,1c-2.4-0.6-5-1-7.3-1.5
		C484.2,324.3,484.4,324.1,484.4,323.8z"/>
	<path id="XMLID_593_" class="st0" d="M477,272.2c-1,0.1-2.2,0.7-3,0.4c-0.6-0.1-0.8-1.1-1.4-2.4c2,0.6,3.2,0.8,4.2,1.2
		C477,271.7,477,271.9,477,272.2z"/>
	<path id="XMLID_591_" class="st0" d="M992.7,260.4c1.2-2.1,5-3.5,6.9-2.8c0.6,0.1,1.2,0.8,1.2,1.1c-0.2,0.6-0.8,1.5-1.4,1.5
		C997.3,260.6,995.1,260.4,992.7,260.4z"/>
	<path id="XMLID_586_" class="st0" d="M707.3,393.7c2.6-4,5.4-8,8.3-12.5C715.2,386.3,712.9,390.5,707.3,393.7z"/>
	<path id="XMLID_585_" class="st0" d="M749.1,400.3c-3.8-0.4-5.7,1.8-8.5,2.8c-1-1.8,1.4-2.4,2.8-3c2.6-1.5,5.4-2.9,8.1-4.3
		c2.4-1.4,3.4-3,2.4-5.1c-0.2-0.4,0-0.8,0.8-1.4c0.4,0.6,1,1,1,1.7c0.8,3-0.6,5.7-4.2,7.6C750.5,398.8,749.9,399.6,749.1,400.3z"/>
	<path id="XMLID_584_" class="st0" d="M756.7,383.5c-1,0.3-2,0.6-3.2,0.8c-1.6-3.5-4.8-6-10.1-7.5c4.2-1.4,6.9-0.8,8.5,1
		c0.8,1,1.4,1.9,2,2.8C754.9,381.7,755.7,382.6,756.7,383.5z"/>
	<path id="XMLID_583_" class="st0" d="M729.3,398.8c3-1.1,5.2-2.1,7.7-3c0.2,0.6,0.6,1.1,1,2.2C734.9,397.8,732.5,399.6,729.3,398.8
		z"/>
	<path id="XMLID_582_" class="st0" d="M479.4,217.3c0.2-2.1,0.4-4.2,0.6-6.2c0.2,0,0.6,0,0.8,0c0,2.1,0,4.2,0,6.2
		C480.4,217.3,480,217.3,479.4,217.3z"/>
	<path id="XMLID_581_" class="st0" d="M596.1,370.1c-4-2.1-3.2-5.5-5.5-8.2c0.4-0.1,0.8-0.3,1.4-0.4c1.8,2.8,3.8,5.4,5.5,8.2
		C597.1,369.8,596.7,370,596.1,370.1z"/>
</g>
</svg>
