<?xml version="1.0" encoding="utf-8"?>
<!-- Generator: Adobe Illustrator 19.0.0, SVG Export Plug-In . SVG Version: 6.00 Build 0)  -->
<svg version="1.1" id="Layer_1" xmlns="http://www.w3.org/2000/svg" xmlns:xlink="http://www.w3.org/1999/xlink" x="0px" y="0px"
	 viewBox="0 0 960 560" style="enable-background:new 0 0 960 560;" xml:space="preserve">
<style type="text/css">
	.st0{fill:#ED1C24;}
</style>
<g id="XMLID_4_">
	<path id="XMLID_795_" class="st0" d="M281.5,312.4c1.2,0.8,1.2,1.7,0.1,2.7c-2.7,2.6-5.7,4.6-9.1,6.2c-1,0.5-1.8,1.4-2.6,2.2
		c-1.5,1.6-2.9,3.4-4.3,5.1c-1.4,1.7-2.8,3.5-4.1,5.2c-0.2,0.2-0.4,0.3-0.7,0.6c-0.4-0.4-0.7-0.8-1-1.2c0,2.4-1.5,3.7-3,5.1
		c-0.1,0.1-0.2,0.4-0.2,0.6c0,3.5,0.1,7,0,10.5c0,2.4-0.2,4.7-0.2,7.1c0,0.2-0.1,0.4-0.1,0.6c0.9,6.6-0.4,13.2,0.1,19.9
		c0.1,1.8-0.3,3.6-0.4,5.4c0,0.5,0.4,1,0.6,1.6c0.1,0.3,0.3,0.6,0.3,0.8c-0.2,3.4-0.2,6.9-0.8,10.2c-0.7,4.2-0.8,8.4-0.9,12.6
		c-0.2,4.3-0.3,8.6-0.1,12.8c0.1,1.2,0.4,2.3,0.6,3.5c0.1,0.3,0.2,0.6,0.2,0.8c-0.9,3,1,5.8,0.6,8.6c-0.5,3.7,1.7,6.9,1.7,10.5
		c0,0.5,0,1,0.1,1.4c0.1,0.7,0.1,1.4,0.1,2.1c0,0.8,0.1,1.5,0.1,2.3c0.1,0.9,0.9,2-0.4,2.8c-0.1,0.1-0.2,0.8,0,0.9
		c1,0.9,0.6,2,0.7,3.1c0.1,0.7,0.7,1.3,1,2c0.4,0.8,0.9,1.6,1.2,2.5c0.3,0.9,0.4,1.9,0.6,2.8c0,0.2,0.2,0.3,0.1,0.4
		c-1.6,3.3,0.4,6.4,0.3,9.6c0,2.9,0,5.9,0,9.3c-0.9-0.5-1.2-0.7-1.6-0.9c1.3-1.8,1.2-3.3,0-5.1c0.9-1.3,0.3-7.6-1.3-8.6
		c0.3-0.4,0.5-0.7,0.9-1.2c-0.4-0.3-0.8-0.6-1.2-0.9c0.3-1.1,0.6-2.2,0.9-3.5c-1.9-0.3-1.5-1.9-1.6-3.3c-0.2-2.9-0.7-5.7-1.1-8.5
		c-0.3-2.2-0.7-4.4-1.1-6.6c-0.5-2.8-1.7-5.5-2.2-8.2c-0.4-2.1-2.1-3.5-2-5.6c0-0.1,0.1-0.2,0.2-0.5c0.4,0.4,0.8,0.7,1.2,1
		c0.1,0,0.2-0.1,0.3-0.1c-0.5-1.4-1-2.9-1.4-4.3c-1.3-4.8-2.6-9.6-3.9-14.5c-0.3-1.1-0.5-2.2,0.5-3.2c0.3-0.3,0.4-0.9,0.4-1.4
		c0.2-4.8,0.5-9.5,0.7-14.4c-1.3-0.8-1.3-1.1-0.2-2.6c0.5-0.6,0.3-1.7,0.4-2.5c-0.1,0-0.3-0.1-0.4-0.1c-0.1,0.3-0.3,0.6-0.4,1.1
		c-0.1-0.2-0.3-0.3-0.3-0.4c0.2-1.3,0.6-2.6,0.5-3.8c-0.1-3.1-0.4-6.3-0.5-9.4c-0.1-2.5,0-5-0.1-7.5c0-0.5-0.1-1.4-0.4-1.5
		c-1.5-0.5-1.2-1.6-1.1-2.7c0.4-6.8,1-13.7,1.1-20.5c0-1.1-1.5-2.5-2.5-3.4c-1.8-1.5-3.8-2.8-5.8-4.1c-1.1-0.7-2.3-1.2-3.2-2
		c-3.4-2.7-5.3-6.5-7.9-9.9c-1-1.3-2.5-2.2-3.4-3.5c-1.8-2.4-3.4-5-5.1-7.5c-0.7-1-1.7-1.9-2.4-2.9c-1.9-2.6-3.6-5.3-5.5-7.9
		c-0.8-1-1.8-1.9-2.7-2.8c-0.3-0.3-0.7-0.6-0.9-1c-0.3-0.7-0.5-1.5-0.7-2.2c0.5,0.4,1.1,0.8,1.7,1.2c1.4,0.9,2.7,1.9,4.1,2.8
		c0.1-0.1,0.2-0.2,0.3-0.4c-0.2-0.4-0.5-0.8-0.4-1.1c0.2-0.5,0.5-1.1,0.9-1.2c1.5-0.3,2.8,0,3.9,1.3c1.5,1.8,3,3.5,4.6,5.2
		c0.4,0.4,1,0.6,1.4,0.9c0.2-0.4,0.6-0.9,0.6-1.2c-0.1-0.7-0.5-1.8-0.9-1.8c-1.2-0.1-1.2-0.9-1.4-1.7c-0.2-0.9-0.6-1.9-0.7-2.8
		c0-0.5,0.6-1.1,0.9-1.6c0.3,0.4,0.7,0.8,0.9,1.2c1.1,2.2,1.9,4.6,3.2,6.6c2.2,3.6,4.7,7.1,7.2,10.4c4,5.3,8.2,10.5,12.3,15.8
		c0.5,0.6,1,1.3,1.5,2.1c0.2-0.4,0.4-0.5,0.4-0.6c0.3-3.6,0.9-7.1,0.9-10.7c0-2.1-0.7-4.1-1-6.2c-0.4-2.9-1-5.9-1.1-8.9
		c-0.3-4.8-0.3-9.5-0.5-14.3c-0.1-3.5-0.3-7-0.3-10.5c-0.1-9.4-0.2-18.8-0.3-28.2c-0.1-5.5-0.3-11-0.4-16.5c0-1.1,0.5-2.2,0.6-3.3
		c0.1-1.1,0-2.1-0.1-3.2c-0.1-0.8-0.5-1.6-0.4-2.4c0.6-3.4-0.3-6.7-1-10c-0.2-1.1-0.3-2.2-0.3-3.2c0-1.2,0.8-1.4,2.5-0.4
		c-0.3-2.4-0.4-4.6-0.8-6.7c-0.1-0.5-1.1-0.8-1.5-1.3c-0.3-0.3-0.5-0.7-0.5-1c0-0.2,0.6-0.6,0.8-0.6c0.4,0,0.8,0.3,1,0.7
		c0.3,0.4,0.5,1,0.7,1.5c0.2,0,0.3,0,0.5-0.1c0.1-0.5,0.2-1,0.2-1.5c0-4.7,0-9.3-0.1-14c0-1.5-0.7-3-0.8-4.5
		c-0.1-3.6,0.6-7.5-0.3-10.8c-0.9-3.2,0-6.6-1.7-9.6c1.8-1.1,1.1-3,1.3-4.5c0.3-4.3,0.5-8.6,0.6-12.9c0-1.9-0.5-3.8-0.5-5.8
		c0-1.7,0.4-3.4,0.3-5c-0.1-1.7-0.6-3.5-1-5.2c-0.1-0.6-0.3-1.1-0.3-1.7c-0.2-5.3-0.3-10.5-0.5-15.8c-0.1-2.9-0.1-5.7-0.1-8.6
		c0-0.6,0.4-1.2,0.7-1.8c-0.1-0.5-0.5-1.2-0.4-1.7c0.3-1.5-0.4-1.8-1.7-1.7c-1.8,0.1-3.6,0.2-5.4,0.1c-0.4,0-1.2-0.6-1.2-0.9
		c-0.1-0.4,0.4-1.2,0.8-1.4c1.2-0.4,2.4-0.6,3.6-0.9c0.5-0.1,1.2-0.5,1.2-0.8c0-0.5-0.4-1-0.7-1.5c-0.3-0.5-0.7-0.9-1.1-1.3
		c0.6-0.1,1.3-0.3,1.8-0.2c1.3,0.4,2.3,0.1,3.4-0.6c1.8-1.2,3.9-1.8,6.1-1.7c2.4,0.2,4.7-1.3,7.2,0.3c-0.1-0.8-0.2-1.3-0.2-1.5
		c13.9,0.2,27.8,0.4,41.6,0.6c0-0.2,0-0.4,0-0.5c-0.5-0.1-1.1,0-1.3-0.3c-0.5-0.5-0.7-1.2-1.1-1.9c0.5-0.2,1-0.7,1.5-0.7
		c0.9-0.1,1.8,0.1,2.8,0.2c0.6,0,1.2,0.1,2.1,0.1c-0.3-0.5-0.4-0.7-0.5-0.9c-0.7-1.3-0.5-1.9,1-1.9c3.9,0,8-0.6,11.7,0.4
		c9.8,2.7,19.8,2,29.7,2.8c3.1,0.2,6.2,0.4,9.3,0.4c2.7,0,5.5-0.2,8.2-0.3c7.6-0.3,15.3-0.7,22.9-1c0.5,0,1,0,1.5,0.1
		c0.4,0.2,0.8,0.5,1.2,0.8c-0.4,0.4-0.8,1-1.3,1.1c-1.6,0.1-3.2,0.3-4.7-0.1c-5.2-1.1-10.5-0.6-15.7-0.5c-0.2,0-0.4,0.2-0.7,0.7
		c0.4,0.1,0.8,0.2,1.2,0.3c6,0.4,12.1,0.8,18.1,1.3c4.8,0.4,9.5,0.8,14.3,1.4c2.6,0.3,5.2,0.9,7.8,1.2c1.7,0.2,3.3,0.2,5,0.4
		c1.5,0.2,3.1,0.7,4.6,0.8c1.9,0.1,3.8-0.1,5.7-0.1c3.6-0.1,7.2-0.2,10.8-0.2c2.1,0,3.5,2.6,2.6,4.5c-0.1,0.3-0.6,0.5-1,0.6
		c-0.6,0.2-1.3,0.3-1.9,0.4c-0.4,1.3,2.1,1.5,0.9,3c-0.1,0-0.2,0-0.2,0c-2-2.4-4.7-2.6-7.6-2.4c-5.5,0.3-11.1,0.6-16.6,0.9
		c-4.9,0.2-9.9,0.6-14.8,0.6c-3.7,0-7.5-0.3-11.2-0.5c-5.6-0.2-11.3-0.5-16.9-0.7c-6.6-0.3-13.1-0.6-19.7-0.7
		c-4.2-0.1-8.4,0.2-12.6,0c-3.5-0.1-6.9-0.8-10.3-1c-1.8-0.1-3.6,0.4-5.5,0.5c-3.7,0.3-7.4,0.8-11.1,0.9c-2.7,0.1-5.4-0.5-8.1-0.6
		c-2.9-0.2-5.9-0.2-8.8-0.3c-1.9,0-3.8,0.2-5.7,0.2c-0.6,0-1.1-0.2-1.8-0.3c0,0.3-0.1,0.7-0.1,0.9c-3-0.1-5.8-0.2-8.7-0.1
		c-1.8,0-3.7,0.3-5.5,0.5c-0.7,0.1-1.4,0.3-2.1,0.2c-4.7-0.8-9.4,0.3-14.1-0.2c-2.4-0.3-2.6,0-2.5,2.5c0.1,1.8,0.4,3.7,0.6,5.5
		c0.1,0.6,0.2,1.2,0.2,1.8c0.1,5,0.1,10,0.3,14.9c0.1,3.3,0.6,6.6,0.7,9.9c0.1,3.1-0.1,6.3-0.2,9.5c0,0.5-0.3,1-0.5,1.5
		c-0.1,0-0.3-0.1-0.4-0.1c0-0.6,0-1.2,0-1.8c-0.2,0-0.3-0.1-0.5-0.1c-0.2,0.5-0.4,1-0.4,1.6c0,1.3-0.2,2.7,0.1,4
		c0.6,2.6,0.1,5.1-0.3,7.6c-0.3,2.1,0.5,4.4,0.6,6.6c0.1,2-0.2,4,0.1,6c0.7,5.6-0.3,11.3,1.3,17c0.6,2.2-0.3,4.8-0.5,7.2
		c0,0.6-0.2,1.5,0.1,1.9c1.1,1.7,1.3,3.5,1.2,5.5c-0.1,1.3,0.1,2.7,0.2,4.1c0.2,3,0.5,6.1,0.6,9.1c0,1.4-0.2,2.8-0.4,4.2
		c-0.3,2.8-0.5,5.5-0.9,8.3c-0.9,5,0.8,10,0.7,14.9c-0.1,6.1-0.6,12.2-0.4,18.2c0.2,7-0.3,14,1,21c0.4,1.9,0.1,3.9,0,5.8
		c-0.1,3-0.3,6.1-0.4,9.2c-0.3-0.1-0.6-0.2-1.2-0.4c0.2,0.6,0.3,1.1,0.5,1.2c1.5,0.8,1.1,2.1,1.2,3.4c0.1,5.1,0.5,10.1,0.5,15.2
		c0,4-0.2,8-0.5,12c-0.1,1.4-0.7,2.8-1.1,4.2c0.2,0.1,0.4,0.2,0.6,0.3c0.5-0.4,1.3-0.7,1.5-1.3c2.3-5.1,6.7-8.3,10.3-12.2
		c3.9-4.4,8.6-7.9,12-12.8c1.4-2,3.6-3.5,5.3-5.2c1.2-1.2,2.3-2.6,3.5-3.8c0.5-0.5,1.3-0.8,1.9-0.8c0.5,0,1.4,0.4,1.5,0.7
		c0.1,0.7-0.1,1.5-0.4,2.2c-0.4,0.8-1.2,1.4-1.8,2.1c0.1,0.1,0.2,0.3,0.3,0.4c1-0.8,2-1.6,3-2.3c0.5-0.4,1.2-1,1.7-0.9
		c1.5,0.4,2.4-0.2,3.5-1.2c1.6-1.4,3.6-2.4,5.4-3.6c0.3-0.2,0.6-0.4,0.9-0.3c0.3,0,0.8,0.1,1,0.4c0.1,0.2,0,0.7-0.3,0.9
		c-1.8,1.6-3.6,3.1-5.4,4.6c-0.8,0.7-1.4,1.2-0.7,2c-1.4,0.9-2.7,1.7-4.1,2.5c-0.1-0.1-0.2-0.3-0.4-0.4c0.7-0.7,1.5-1.4,2.2-2.2
		c-0.1-0.1-0.1-0.2-0.2-0.3c-1,0.5-2.2,0.8-3,1.6c-1,1.1-2.9,1.5-3.1,3.3c0,0.1-0.2,0.1-0.3,0.2c-1.5,0.7-1.5,0.7-1.5,2.1
		C284.4,308.1,283.4,310.8,281.5,312.4c-0.6,0.7-1.2,1.4-1.8,2.1c-1.7,0.6-2,0.9-2,2.8c0.8-1.2,1.4-2,2-2.8
		C281.2,314.7,281.6,314.2,281.5,312.4z M254.4,339.9c-0.2,0.1-0.4,0.1-0.6,0.2c0.2,3.6,0.4,7.1,0.7,10.7c0,0.4,0.4,0.8,0.6,1.2
		c0.2-0.4,0.7-0.8,0.6-1.2c-0.2-3.3-0.6-6.5-0.9-9.8C254.8,340.6,254.5,340.3,254.4,339.9z M252.5,422.3c0.1,0,0.3-0.1,0.4-0.1
		c-0.2-0.8-0.4-1.7-0.6-2.5c-0.3-1.5-0.7-2.9-1-4.4c-0.3-1.1-0.4-2.2-0.7-3.3c-0.1-0.3-0.5-0.5-0.8-0.8c-0.2,0.4-0.6,0.8-0.5,1.1
		c0.2,0.9,0.6,1.8,0.9,2.8c0.6,2,1.2,4.1,1.8,6.1C252,421.6,252.3,421.9,252.5,422.3z M251,226.9c0.2,0,0.4,0,0.6,0
		c1.1-2.1,1.2-7.6,0-8.5C251.5,221.3,251.2,224.1,251,226.9z M250.3,202.1c0.3,1.6,0.6,3.1,0.9,4.7
		C252.6,204.6,252.3,203.1,250.3,202.1z M264.1,92.7c0,0.2,0,0.4,0,0.5c1.5,0,3,0,4.5,0c0-0.2,0-0.4,0-0.5
		C267.1,92.7,265.6,92.7,264.1,92.7z M255.9,360.7c-0.2,0-0.5,0-0.7,0c-0.1,1.7-0.2,3.5-0.3,5.2c0.3,0,0.5,0,0.8,0
		C255.7,364.2,255.8,362.5,255.9,360.7z M433.5,98.5c0.7-0.3,1.2-0.5,1.7-0.7c0.5-0.1,1-0.2,1.5-0.3
		C433.3,96.7,433.3,96.7,433.5,98.5z M256.2,357.8c-0.3-1.2-0.6-2.2-0.8-3.2c-0.2,0.1-0.4,0.1-0.6,0.2
		C255,355.8,254,357.1,256.2,357.8z M252.3,137.7c-0.2,0-0.5,0-0.7,0c-0.1,1.2-0.1,2.4-0.2,3.7c0.2,0,0.5,0,0.7,0
		C252.2,140.1,252.3,138.9,252.3,137.7z M255.7,93.8c-0.9-0.1-1.9-2.2-2.8,0C253.9,93.8,254.8,93.8,255.7,93.8z M255.3,388.3
		c-0.1,0-0.2,0-0.3,0c0,1.3,0,2.5,0,3.8c0.1,0,0.2,0,0.3,0C255.3,390.8,255.3,389.6,255.3,388.3z"/>
	<path id="XMLID_779_" class="st0" d="M652.4,450.4c-0.7-2.4-1.4-4.9-2-7.3c-0.2,0.1-0.5,0.1-0.7,0.2c0.2,3.4,0.4,6.7,0.7,10.2
		c-0.5,0-1,0-1.5,0.1c0.2,0.8-0.7,2,1.2,2.2c-2,2.2-1.4,4.8-1.3,7.3c0.1,1.2,0.5,2.2,0.1,3.5c-0.1,0.3,0.8,1,1.2,1.5
		c-2.1,1.1-1.7,2.9-1,4.8c0.1,0.3-0.4,0.9-0.6,1.3c-0.2-0.1-0.3-0.1-0.5-0.2c-0.1-1.2-0.1-2.3-0.2-3.5c-0.2-4.6-0.4-9.2-0.6-13.8
		c-0.1-1.4-0.2-2.9-0.3-4.3c0-0.3,0.1-0.7,0.2-1.1c0.1-0.4,0.4-0.7,0.4-1c-0.3-1.7-0.6-3.4-1-5.2c1.5-1.2,1.6-9.5-0.1-11.7
		c0.4-0.1,0.8-0.1,1.3-0.2c-0.5-1.4-0.9-2.8-1.4-4.3c1.4-2.3,1.4-2.3-0.5-2.7c-0.2-3.1-0.4-6.3-0.5-9.4c-0.1-4.7-0.2-9.5-0.2-14.2
		c0-2.9,0.4-5.7,0.6-8.6c0-0.3,0.1-0.7,0.3-0.9c1.6-2.1,1.6-4.5,1.5-7c-0.1-10.6-0.2-21.2-0.3-31.8c0-2.7-0.5-5.3-0.6-8
		c0-1.1,0.5-2.2,0.7-3c-1.3-0.6-3-1-4.1-2.1c-1.1-1-1.7-2.6-2.4-4c-2.1-4.3-3.9-8.7-6.1-12.9c-0.9-1.7-2.4-3.1-3.5-4.7
		c-1.5-2.1-3-4.2-4.6-6.3c-1.3-1.7-2.7-3.2-4-4.9c-1.3-1.7-2.6-3.5-3.9-5.2c0,0,0-0.1-0.1-0.1c-2.9-1.8-2.7-5.2-4-7.8
		c-0.3-0.5-0.7-1-1-1.5c-0.3-0.6-0.7-1.3-0.7-1.9c0.1-0.6,0.6-1.3,1.1-1.6c0.2-0.1,1.1,0.4,1.4,0.8c1.6,2,3,4.1,4.6,6
		c1.4,1.7,3,3.2,4.5,4.8c1.8,2,3.6,4,5.3,6.1c2.6,3.2,5.1,6.5,7.7,9.7c1.8,2.3,3.8,4.4,5.6,6.7c0.3,0.4,0.2,1,0.3,1.5
		c0,0.1-0.1,0.2,0,0.3c0.5,2.1,1.9,3.6,3.1,5.3c0.2,0,0.4-0.1,0.6-0.1c0.1-1.3,0.2-2.6,0.3-3.9c0.1-1.8,0.8-3.5-0.9-5.4
		c-1.4-1.6-2-4-1.1-6.3c0.2-0.5,0.1-1.1,0.1-1.6c0.1-2.9,0.2-5.7,0.3-8.6c0.1-2.9,0-5.7-0.7-8.6c-0.6-2-0.8-4.1-0.8-6.2
		c-0.1-4.3-0.1-8.6,0-12.9c0.1-3.5,0.4-6.9,0.7-10.4c0-0.4,0.3-0.8,0.6-1.1c1-1.3,1.1-2.4,0.3-4.2c-0.2,0.3-0.4,0.6-0.6,0.9
		c-0.1-0.1-0.2-0.2-0.2-0.2c0.1-2.1,0.3-4.2,0.4-6.3c0.1-1.4,0.3-2.8,1.7-3.7c0.4-0.3,0.4-1.1,0.4-1.6c-0.2-4.7-0.5-9.3-0.5-14
		c0-2.5,0.5-5,0.4-7.5c-0.1-3.2-0.6-6.4-0.8-9.7c-0.3-3.8-0.5-7.6-0.6-11.3c0-1.3,0.1-2.7,0.3-3.9c0.2-0.9,1.1-2,0.9-2.7
		c-1.4-5.4,0.7-10.7,0.3-16c-0.3-4.7-0.2-9.4-0.2-14.1c0-0.6,0.3-1.4,0.8-1.6c1.8-1.1,1.6-2.6,1.2-4.3c-0.1,0.5-0.3,0.9-0.4,1.4
		c-0.1,0-0.2,0-0.2,0c-0.2-2.6-0.4-5.1-0.4-7.7c-0.1-5.3-0.1-10.6-0.1-15.8c0-4.8,0.3-9.6,0.3-14.3c0-1.9-0.4-3.9-0.5-5.8
		c-0.1-1-0.3-1.9-0.2-2.9c0.2-4.4,0.4-8.8,0.6-13.2c0-0.4-0.2-0.9-0.5-1.7c-0.8,0.8-1.3,1.3-2.2,2.3c0.1-2.1,0.1-3.8,0.3-5.5
		c0-0.2,0.5-0.3,0.7-0.5c0.2,0.3,0.5,0.7,0.5,1c0.1,0.7,0,1.4,0,2.1c0.2,0,0.3,0,0.5,0c0.1-0.2,0.3-0.3,0.3-0.5
		c-0.2-2.8,1.3-5.1,2.1-7.6c0.1-0.3-0.2-1.1-0.5-1.2c-1.2-0.3-2.4-0.5-3.7,0.2c-1.4,0.7-3.1,0.8-4.7,0.9c-5.9,0.3-11.7,0.3-17.6,0.6
		c-4.9,0.3-9.8,1-14.8,1.1c-4,0.1-8-0.6-12-0.8c-1.3-0.1-2.6,0-4.1,0c2.2,2.5,5.4,0.4,7.5,2.3c-3.9-0.5-7.8,0.4-11.7-0.8
		c-2.9-0.9-6.1-1.3-9.1-1.4c-3.2-0.1-6.4,0.4-9.6,0.5c-1.6,0.1-3.2-0.2-4.8,0c-1.6,0.2-3.1,0.8-4.6,1.2c-0.5,0.1-1,0.4-1.6,0.4
		c-3.9,0-7.7,0.1-11.6,0.1c-1.2,0-2.2,0-2.5,1.6c-0.1-0.5-0.2-1-0.3-1.8c-1.4,0.9-2.6,1.7-3.9,2.5c0-0.5,0.1-0.8,0.1-1.2
		c-0.2-0.1-0.3-0.2-0.5-0.2c-5.9,0.2-11.9,0.5-17.8,0.6c-4.3,0.1-8.6,0-12.8,0.2c-3.5,0.1-7,0.6-10.6,0.7c-2,0.1-4-0.3-6-0.4
		c-0.4,0-0.9,0.2-1.3,0.4c0.3,0.3,0.6,0.8,1,0.9c0.5,0.2,1.1,0.2,1.7,0.7c-1.2,0-2.5,0.2-3.7,0c-2.6-0.4-5.1-0.9-7.6-1.5
		c-1.2-0.3-2.2-0.3-3,0.9c-0.9-0.9-1.6-0.9-2.8-0.3c-1.4,0.7-3.2,0.8-4.7,0.6c-1.3-0.2-2.8,0-3.9-1.3c-0.4-0.5-1.7-0.4-2.6-0.5
		c-0.8-0.1-1.7,0.1-2.4,0c-0.5-0.1-1-0.7-1.5-1.1c0.4-0.3,0.8-0.6,1.3-0.9c0.2-0.1,0.6-0.1,0.7-0.3c0.7-1.4,1.8-1.8,3.3-1.4
		c0.2,0,0.6,0,0.6-0.1c0.8-1.7,2.3-1.1,3.7-1.2c0.4,0,0.8-0.1,1.1-0.3c1.4-1.2,3.1-1.1,4.8-1.2c1.4-0.1,2.9-0.4,4.3-0.6
		c1.4-0.1,2.7-0.3,4.1-0.3c7.2-0.2,14.5-0.5,21.7-0.6c5.2-0.1,10.3-0.1,15.5-0.3c2.3-0.1,4.7-0.3,7-0.5c0.9-0.1,1.1-0.6,0.6-1.3
		c-0.7-1.2,0-1.7,1-1.6c1.8,0.1,3.5,0.4,5.3,0.5c4.1,0.3,8.1,0.7,12.2,0.8c8.2,0.2,16.3,0.3,24.5,0.3c5.5,0,11,0.1,16.5-0.3
		c6.8-0.5,13.5-1.5,20.2-2.2c0.3,0,0.6-0.1,0.8,0c2.1,0.9,3.9,0.5,6-0.3c1.5-0.6,3.2-0.5,4.8,0.4c2.2,1.3,4.7,0.6,7,0.5
		c1,0,2-0.3,2.9-0.2c4,0.5,8,1.3,12,1.6c2.5,0.2,5,0,7.5-0.1c0.5,0,1-0.7,1.4-1.2c0.6-0.6,1.2-0.9,1.7,0c0.6,1.2,1.5,1.3,2.6,1.3
		c1,0,2-0.1,2.9,0c0.6,0.1,1.1,0.5,1.6,0.8c-0.3,0.6-0.5,1.6-0.9,1.7c-2.2,0.5-2.7,2-2.8,4c-0.2,2.4-0.5,4.8-0.7,7.3
		c-0.6,5.8,0.5,11.7,0.2,17.5c-0.4,6.2-0.2,12.4-0.4,18.6c-0.3,6.4-0.9,12.8-1.2,19.2c-0.1,1.8,0.2,3.7,0.4,5.5
		c0.4,4.7-0.4,9.2-1.5,13.7c-0.2,0.8-0.5,1.6-0.4,2.4c0.2,3.5,0.5,6.9,0.6,10.4c0.2,4.8,0.4,9.7,0.5,14.5c0,1.3,0,2.6,0,3.9
		c-0.1,4.9-0.2,9.9-0.4,14.8c-0.2,3.1-0.6,6.3-0.8,9.4c-0.1,0.6,0.1,1.3,0.1,1.9c0,0.7,0.1,1.7-0.3,2c-1.4,1.1-1.2,2.6-1.1,4
		c0.1,2.4,0.4,4.7,0.6,7.1c0.2,0,0.3,0.1,0.5,0.1c0.2-1,0.4-2.1,0.6-3.3c1.1,2.1,0.8,4.6-0.9,6c-0.4-0.6-0.8-1.2-1.2-1.8
		c-0.1,0-0.3,0.1-0.4,0.1c0.3,3,0.6,6,0.9,9.5c-1.4,1.7-0.5,4.4-0.9,7c2.2,4,0.6,8.4,0.9,12.6c0.2,2.8,0.3,5.5,0.3,8.3
		c0,1.7-0.2,3.4-0.3,5c-0.1,0.8-0.2,1.5-0.2,2.3c0.1,0.6,0.4,1.1,0.7,1.7c0.6-0.3,1.1-0.5,1.7-0.8c0.4-0.2,0.8-0.3,1.2-0.5
		c-0.1,0.5,0,1.5-0.2,1.6c-1.5,0.5-1.4,1.7-1.5,2.9c-0.1,0.7-0.7,1.4-1,2.1c-0.2,0.5-0.6,1.1-0.6,1.6c0.1,3.7-0.3,7.6,0.5,11.2
		c0.6,2.8,0.4,5.4,0.2,8.1c0,0.2,0,0.3,0,0.5c0,0.1,0.1,0.2,0.5,0.6c0.5-1.1,0.9-2,1.4-3c0.4-0.8,0.6-1.8,1.2-2.5
		c1.9-2.2,3.9-4.3,5.9-6.5c4.9-5.2,9.9-10.4,14.7-15.6c2.3-2.5,4.4-5.2,6.6-7.8c0.8-1,1.7-1.8,3.2-1.7c1.9,0.1,2.4,0.8,1.4,2.4
		c-1.1,1.7-2.4,3.3-3.6,5c-0.4,0.6-0.7,1.3-1.1,1.9c0.2,0.2,0.3,0.3,0.5,0.5c2.5-1.8,5.1-3.6,7.6-5.3c0.1,0.1,0.2,0.2,0.3,0.3
		c-0.2,0.3-0.3,0.9-0.6,1c-3.4,1.4-4.3,4.6-5.7,7.5c-0.6,1.1-1.3,2.2-1.9,3.2c0.1,0.1,0.2,0.2,0.3,0.2c0.6-0.1,1.2-0.2,1.9-0.2
		c-0.4,0.6-0.7,1.2-1.2,1.6c-3.2,2.6-6.7,4.7-9.4,7.9c-0.7,0.8-1.7,1.3-2.5,2.1c-0.3,0.3-0.2,0.8-0.3,1.3c0.4,0,0.8,0,1.1-0.2
		c0.6-0.2,1.1-0.6,1.9-0.6c-1.7,1.7-3.5,3.4-5.2,5.1c-0.3,0.3-0.6,0.6-0.8,1c-0.9,1.2-1.9,2-3.6,2.2c-1.3,0.2-2.6,1.2-3.8,2
		c-1.2,0.8-2.3,1.6-3.4,2.6c-0.9,0.8-1.6,1.7-2.4,2.5c-0.7,0.6-1.4,1.2-2.3,1.6c-1.2,0.6-2.1,1.2-2.2,2.7
		c-0.1,5.8-0.2,11.5-0.4,17.3c-0.1,2.2-0.2,4.3-0.3,6.5c0,0.4,0.1,0.8,0.1,1.2c0.2,0,0.3,0,0.5,0c0-1.4,0-2.9,0-4.3
		c0-0.5,0.3-0.9,0.5-1.4c0.1,0.4,0.4,0.9,0.4,1.3c0.1,2.7,0.1,5.3,0.2,8c0.2,3,0.2,5.9-0.6,8.9c-0.4,1.8,0.1,3.8,0.1,5.8
		c0,2.2-0.3,4.4-0.4,6.6c-0.1,0.9-0.2,1.9-0.3,2.8c0.2,0,0.3,0,0.5,0.1c0.1-0.7,0.3-1.5,0.4-2.2c0.1-0.1,0.3-0.2,0.4-0.2
		c0.3,0.5,0.7,1.1,0.7,1.6c-0.1,2.9-0.4,5.9-0.4,8.8c-0.1,4.6-0.1,9.2-0.1,13.8c0,1.3,0,2.7,0,4.2c0.5-0.3,0.7-0.4,1-0.6
		c0.2,0.1,0.3,0.1,0.5,0.2c-0.6,3.9-1.4,7.8-1.9,11.7c-0.4,3.2-0.3,6.4-0.4,9.6c0,1.5,0,3,0,4.4c-0.2,0-0.3,0-0.5,0
		c-0.2-0.8-0.4-1.6-0.6-2.4c-0.1,0-0.3,0-0.4,0c0,0.7-0.2,1.4-0.1,2c0.3,2.1-0.1,4.3,1,6.3c0.6,1.2,0.3,2.9,0.4,4.3
		C652.7,450.3,652.5,450.3,652.4,450.4z M653.3,178.7c2.4-2.8,2-18.7-0.8-20.9c0.3,2.3,0.5,4.3,0.7,6.2c0.1,0.7,0.3,1.4,0.2,2.1
		c-0.2,1.1-1.6,2.3,0.1,3.4c0.1,0.1-0.1,0.4-0.1,0.6c-0.2,2.5-0.3,5.1-0.5,7.6C653,177.9,653.1,178.3,653.3,178.7z M655.4,139.4
		c-0.9,3.6-0.5,7-0.3,10.4C656.4,148.7,656.6,141.1,655.4,139.4z M641.8,333.2c0,0.7-0.1,1,0,1.2c1,1.9,2,3.8,3,5.7
		c0.2,0.4,0.8,0.5,1.3,0.7c0.2-0.4,0.7-0.8,0.6-1.2c0-0.4-0.5-0.8-0.9-1.1c-0.3-0.3-0.9-0.5-0.9-0.7
		C645,335.6,642.9,335,641.8,333.2z M647.4,399.6c-0.2,0-0.4,0-0.5,0c-0.4,2.3-1,4.6-0.3,7c0.3,1,0.9,1.2,1.6,0.9
		C648,404.8,647.7,402.2,647.4,399.6z M647.7,320.3c0.2,0,0.3,0,0.5,0c-0.2-2.7-0.4-5.4-0.6-8.1c0-0.2-0.4-0.4-0.7-0.6
		c-0.2,0.3-0.6,0.6-0.5,0.8C646.7,315.1,647.2,317.7,647.7,320.3z M474.6,99.2c3.1-0.3,6.1-0.5,9.1-0.8
		C478.6,97.7,475,98.1,474.6,99.2z M648.7,430.9c0.1,0.1,0.2,0.3,0.3,0.4c0.3-0.3,0.8-0.5,0.9-0.8c0.3-0.7,0.4-1.4,0.5-2.2
		c0.1-0.8,0-1.6,0-2.3c-0.2,0-0.5,0-0.7,0C649.4,427.6,649.1,429.2,648.7,430.9z M654.8,205.6c-0.2,0-0.4,0-0.5,0c0,2,0,3.9,0,5.9
		c0.5-1.7,0.6-3.4,0.7-5.1C654.9,206.1,654.8,205.8,654.8,205.6z M653.9,132.8c0.2,0,0.4-0.1,0.6-0.1c0.7-1.5-1-2.6-0.7-4
		c-0.2,0-0.4,0.1-0.7,0.1C653.4,130.1,653.6,131.5,653.9,132.8z M653.8,153.8c0.9-1.8-0.5-1.9-1.5-2.3
		C651.5,153,652.7,153.3,653.8,153.8z M672.2,318c-0.1-0.2-0.3-0.3-0.4-0.5c-1.1,0.8-2.6,1.2-2.8,2.9
		C670.1,319.7,671.1,318.9,672.2,318z M652.6,366.8c0-1.5,0-2.9,0-4.4C651.5,363.2,651.5,366.2,652.6,366.8z M648.3,237.2
		c0.3,0,0.5,0,0.8,0.1c0.1-1.2,0.1-2.3,0.2-3.5c-0.2,0-0.5,0-0.7,0C648.5,234.9,648.4,236,648.3,237.2z M604.4,95.1
		c0,0.1,0,0.3,0,0.4c1.1,0.4,2.1,0.6,3.1,0.1c0-0.2,0-0.3,0-0.5C606.5,95.1,605.5,95.1,604.4,95.1z"/>
	<path id="XMLID_773_" class="st0" d="M298,220.3c-0.1-0.1-0.3-0.5-0.7-1c-1.4,0.6-2.9,1.3-4.4,1.9c0.1,0.1,0.1,0.2,0.2,0.3
		c6.1,0.3,12.2,0.5,18.3,0.8c0.1-0.2,0.1-0.4,0.2-0.7c-0.9-0.6-1.9-1.1-2.8-1.7c0.1-0.1,0.2-0.3,0.3-0.4c1.7,0.5,3.6,0.6,4.4,2.8
		c0.2,0.4,1.4,0.6,2.1,0.6c0.4,0,0.8-0.7,1.4-1.2c0.3,0.6,0.8,1.3,1.2,2c-1,0.5-1.9,1-3,1.5c0.1,3.4-1.9,4.6-5.2,2.9
		c-0.2,1.7-1.4,1.7-2.8,1.7c-5.2,0.1-10.4,0.2-15.6,0.3c-1.4,0-2.9-0.3-4.3-0.1c-0.6,0.1-1.2,0.9-1.6,1.5c-0.4,0.6-0.5,1.4-0.9,2.1
		c-0.2,0.3-0.8,0.3-1.2,0.5c-0.1-0.4-0.3-0.9-0.2-1.3c0.4-1.5,1.2-3,1.3-4.5c0.1-1.3-0.7-2.7-1.1-4.1c-0.7,0.6-1.1,1.3-1.6,1.3
		c-0.6,0-1.2-0.6-1.8-0.9c-0.4,0.5-0.8,0.9-1.3,1.6c-0.2-0.6-0.4-1-0.5-1.4c0.9-0.3,1.6-0.5,2.3-0.9c1.9-1,2.7-2.3,2.3-4.6
		c-0.3-2.2,0.1-4.4,0.1-6.7c0-2.5-0.4-5.1-0.3-7.6c0.1-1.9,0.6-3.8,0.9-5.8c0.2-1.9,0.4-3.8,0.6-5.7c0.3-2.5,0.7-5,1-7.4
		c0.1-1.5,0-3,0-5c-2,0.5-3.8,1-5.5,1.4c0,2.1,0,4,0,6c0,3.7,0,7.5,0.1,11.2c0,0.4,0.2,0.9,0.2,1.3c0,0.4,0.1,0.7,0,1.1
		c0,0.1-0.6,0.3-0.7,0.2c-0.3-0.3-0.6-0.6-0.7-1c-0.1-0.8,0.1-1.6,0-2.4c-0.1-5.1-0.3-10.2-0.4-15.3c0-0.8,1.5-2.9,2.3-3
		c1.5-0.2,3.1-0.4,4.6-0.6c0.2-1.1,0.4-2.2,0.5-3.3c0.3-2.4,0.7-2.6,3-1.6c1.1-1.4,2.3-2.8,3.3-4.3c0.7-1.1,1.4-1.2,1.8,0
		c0.7,2.1,2.3,2.6,4.3,2.9c3,0.4,5.9,1.1,8.8,1.7c1,0.2,1.9,0.2,2.9,0.3c2.9,0.3,5.8,0.6,8.7,1c0.3,0,0.8,0.6,0.8,0.8
		c-0.1,0.4-0.4,0.8-0.8,1c-0.8,0.5-1.7,0.8-2.9,1.4c1.8,0,3.2-0.3,4.3,0.1c1.1,0.5,1.9,1.7,2.9,2.6c0.2-0.1,0.4-0.1,0.7-0.2
		c0.1-1.3,0.2-2.5,0.4-4c0.7-0.4,1.2,0.2,1.6,1c1.3,2.9,2.4,5.8,3.9,8.6c1.6,2.9,1.4,6.1,1.8,9.2c0,0.3-0.2,0.7-0.4,1
		c-0.4-4-1.3-7.8-2.8-11.5c-0.2,0-0.4,0.1-0.6,0.1c0.3,1.6,0.5,3.3,0.9,4.9c0.4,2.1,0.8,4.3,1.3,6.4c0.2,1,0.7,1.9,1,2.9
		c0.2,0.7,0.1,1.5,0.4,2.3c0.7,2.1,1.5,4.2,2.3,6.2c0.7,1.8,2.2,3.4,1.9,5.6c0,0.1,0.2,0.3,0.3,0.5c1.3-1.4,4.6-14.2,3.9-16.2
		c-1.5,2.8-1.6,6.2-3.6,8.9c0.1-0.6,0-1.3,0.2-1.9c0.8-2.7,1.6-5.4,2.6-8c0.5-1.3,1.8-2.4,2.5-3.7c0.7-1.1,1.2-2.4,1.7-3.6
		c1.1-2.5,2.1-5,3.2-7.5c0.4-0.9,5-1.9,5.5-1.2c0.4,0.6,0.5,1.6,0.2,2.3c-0.8,2.5-1.8,5-2.6,7.5c-1,3.5-2.5,6.8-2.5,10.5
		c0,0.9-0.3,1.8-0.7,2.7c-2.1,5.1-4.3,10.2-6.4,15.3c-0.4,1-0.5,2.2-0.8,3.3c-0.1,0.4,0,0.8-0.1,1.1c-0.7,2-1.2,3.9,0.7,5.7
		c0.4,0.4-0.1,1.7-0.1,2.6c-0.6-0.6-1.3-1.1-1.7-1.8c-0.5-0.9-0.7-1.9-0.9-2.9c-0.3-1.2-0.9-1.4-1.6-0.6c-0.7,0.8-1,0.5-1.6,0
		c-1.3-1.1-2-2.5-2.5-4.1c-1.8-5.8-3.8-11.5-5.8-17.3c-1-3.1-2.2-6.1-3.3-9.1c-0.1,0.1-0.3,0.2-0.2,0.1c-0.7-2.4-1.5-4.7-2.2-7.1
		c-0.6-1.9-1-3.9-1.6-5.8c-0.6-2-3.5-2.8-4.9-1.5c-1.6-0.5-3.1-1.3-4.6-1.2c-1.6,0.1-3-0.6-4.6-0.4c-1.6,0.2-3.3,0.3-4.8,0.6
		c-1.3,0.3-2.3,1.3-3.8,0.7c-0.2-0.1-1.3,1.5-1.4,2.3c-0.2,1.4,0.1,2.8-0.1,4.3c-0.9-1.2-1.7-2.4-2.6-3.7c-0.1,0.1-0.3,0.1-0.4,0.2
		c0,3.2,0,6.4,0,9.7c4.2-1.6,8.3-2.1,12.5-2.3c3.9-0.1,7.1,0.7,9,4.6c0.9,1.8,2.8,1,4.4,0.9c0.7,0,1.4,0.2,2.1,0.5
		c0.1,0.1,0.1,1-0.1,1.3c-0.2,0.3-0.8,0.5-1.2,0.6c-1.1,0.2-2.2,0.3-2.7,1.7c-0.1,0.3-0.8,0.3-1.3,0.5c-0.4,0.2-1.1,0.3-1.2,0.6
		c-0.9,2.2-3,3.1-4.8,4.1c-2.3,1.2-4.4,1.1-6.6-0.7c-1.8-1.5-4-2.6-6-3.8c-0.7-0.4-2.2-0.8-2.2-0.7c-0.7,1.4-2,1.9-3.3,2.5
		c-0.1,0,0,0.5,0.4,0.9c0.1-0.3,0.2-0.6,0.4-1c0.2,0.5,0.4,0.6,0.4,0.7c-0.2,2.3-0.4,4.5-0.7,6.8c-0.1,0.9-0.2,1.6,1.1,1.6
		c0.2,0,0.6,0.4,0.7,0.7c0.2,0.4,0.3,0.9,0.5,1.4c0.3,0.8,0.8,2.3,1.1,2.3c1.2-0.1,2.4-0.7,3.6-1.1c1.2-0.4,2.4-0.9,3.7-1.1
		c2.5-0.5,5-1,7.5-1.4c0.3-0.1,0.6,0.1,1,0.5c-0.4,0.2-0.7,0.4-1.1,0.5c-2.9,0.7-5.8,1.4-8.6,2.2C298.3,219.1,298.2,219.9,298,220.3
		z M307.1,206.8c0-0.2,0-0.3,0-0.5c-2.8-0.9-5.8-0.8-8.8-1.2c0.8,1.8,3.7,0.1,3.8,2.5C303.8,207.3,305.4,207.1,307.1,206.8z
		 M304.4,198c0-0.3-0.1-0.5-0.1-0.8c-2.2,0.2-4.3,0.4-6.5,0.5c0,0.3,0,0.5,0.1,0.8C300.1,198.4,302.3,198.2,304.4,198z M291,173.8
		c0.2,0.3,0.3,0.6,0.5,0.9c0.6-0.3,1.3-0.6,1.9-0.9c-0.2-0.4-0.5-0.8-0.7-1.1C292.1,173,291.6,173.4,291,173.8z M290.7,217
		c-1.4,0.5-1.3,1.5-1.2,2.4c0,0.2,0.4,0.6,0.6,0.6c0.2,0,0.6-0.3,0.6-0.5C290.8,218.7,290.7,218,290.7,217z"/>
	<path id="XMLID_765_" class="st0" d="M505.4,193c-0.3,0.6-0.7,1.3-1.2,2.2c-0.2-1.7-0.4-3.1-0.6-4.5c-0.2,0-0.3,0-0.5,0
		c-0.1,1.8-0.3,3.6-0.4,5.4c0.2,0.1,0.3,0.1,0.5,0.2c-0.6,0.3-1.2,0.5-1.9,0.8c-0.2-0.4-0.3-0.8-0.5-0.9c-0.4-0.2-0.9-0.3-1.3-0.5
		c-0.1,0.4-0.4,0.9-0.3,1.3c0.2,0.6,0.6,1.1,1.1,1.6c0.7,0.8,0.4,1.4-0.4,1.6c-1,0.2-2.3,1.1-2.8-0.7c-0.1-0.2-0.8-0.4-1.2-0.4
		c-2.5,0.3-5,0.5-7.6,0.9c-0.3,0-0.6,0.8-0.6,1.2c0,0.4,0.4,0.9,0.5,1.4c0.1,0.3,0,0.7,0,1c0,0.1-0.5,0.2-0.6,0.1
		c-0.2-0.3-0.3-0.6-0.4-0.9c-0.3-1.9-0.9-2.6-2.2-2c-0.6,0.3-1.2,1.4-1.3,2.1c-0.1,3.9,0,7.7,0.1,11.6c0.3,6.4,0.7,12.8,1.1,19.2
		c0.2,2.4,0.6,4.9,1,7.3c0.1,0.5,0.7,0.8,1.3,1.1c0.5,0.9,0.3,1.7-0.7,2.1c-1.1,0.5-1.6-0.3-2-1.1c-0.5-1-1-2.1-1.4-3.2
		c-0.2,0-0.4,0-0.5,0c0,0.7-0.2,1.4-0.1,2c0.6,2.4,0.5,2.6-1.9,2.5c-0.4,0.7-0.7,1.4-1.2,2.4c-1.4-2.2,1.4-4.2-0.2-6.3
		c-0.7,1.3-0.1,3.1-2.2,3.5c0-0.7,0-1.2,0-1.8c0-2.1,0-4.2,0-6.3c0-3-0.1-6.1,0-9.1c0.2-3.9,0.3-7.7-0.3-11.5
		c-0.7-4.1-0.6-8.4-0.9-12.6c0-0.6-0.1-1.1-0.2-1.9c-2.6,2.2-5.1,1.4-7.6,0.1c-1.4-0.7-2.7-1.4-4.4-1.1c-2.1,0.3-4.3,0.1-6.5-0.2
		c-0.7-0.1-1.7-0.9-1.9-1.5c-0.3-1.2,0.9-1.7,1.9-2c0.3-0.1,0.7-0.1,1.2-0.2c-0.5-1.7-3.2-2-2.5-4.2c1.7,0.3,3.4,0.5,4.9,0.8
		c-0.6,0.4-1.2,0.8-1.9,1.3c0.5,0.4,1,1.1,1.4,1c0.7-0.1,1.6-0.5,2.1-1c0.2-0.2-0.4-1.1-0.7-1.9c0.3-0.1,0.8-0.2,1.3-0.2
		c1.1-0.1,1.9-0.2,1.9-1.8c-0.1-1.2,1.2-1.2,2-1c3.9,1.1,7.5-0.1,11-1.6c0.3-0.1,0.8-0.3,1.1-0.1c2.8,1.2,5.5-0.2,8.3-0.1
		c3.7,0.2,7.4,0,11.1,0.2c2.1,0.1,4.6,0.3,6.2,1.4c2.1,1.4,2.9,1.3,3.9-0.8c0.2-0.4,1.9,0,2.8,0.2c0.2,0,0.4,1,0.3,1.4
		c-0.9,3,0.4,6,0.2,9c1.6-1,0.5-2.5,0.9-3.7c1,0.4,1.1,1,0.9,2c-0.3,1-1.4,2.1-0.1,3.3c-0.5,0-1,0-1.4,0c-0.4,2.9-0.2,3.4,2.5,3.8
		c1.4,0.2,3,0.1,4.4-0.3c2.6-0.8,5.2-1.3,7.9-0.9c1.9,0.2,2.1,0,2.1-1.8c0-3.1,0-6.3,0-9.4c0-0.4,0.1-0.9,0.2-1.3
		c0.4-1.4,0.7-2.7-0.1-4.1c-0.2-0.3-0.1-0.8-0.1-1.4c0.4,0.2,0.7,0.2,0.8,0.4c0.7,1.3,1.4,2.1,3,1.1c0.9-0.5,2,0.5,2,1.9
		c0,4.8-0.1,9.7-0.2,14.5c0,0.5,0,1.1-0.1,1.6c-0.2,1.1,0.2,1.7,1.3,2.1c0.7,0.3,1.5,1.1,1.6,1.7c0.1,0.5-0.7,1.4-1.3,1.7
		c-0.9,0.5-1.2,1.1-1.2,2.1c0.1,7,0.2,14,0.4,21c0,1.4,0.7,2.7,0.8,4.1c0.1,0.8-0.2,1.7-0.5,2.4c-0.3,0.7-0.9,1.4-1.4,2
		c-0.4-0.4-0.9-0.9-1.3-1.4c-0.1,0.1-0.3,0.2-0.4,0.2c-0.1,0.7-0.1,1.5-0.3,2.2c-0.1,0.4-0.6,0.7-0.9,1c-0.3-0.3-0.7-0.5-0.9-0.9
		c-2.1-3.7-1.9-7.7-1.7-11.7c0.1-1.5,0.1-2.9,0.2-4.4c0.2-3.6,0.3-7.2,0.5-10.8c0.1-1.1-0.1-1.5-1.3-1.6c-4.9-0.2-9.8-0.5-14.8-0.8
		c-0.2,2-0.3,4-0.5,6.3c-1.6,0.9-0.1,2.9-0.7,4.7c1.9-0.1,2,0.9,1.9,2.3c-0.1,1.4-0.1,2.9,0.1,4.4c0.3,2.5-0.1,2.8-2.7,1.8
		c0.3,1.5,0.5,3,0.9,4.4c0.6,1.7-0.6,2.7-1.4,4.1c-0.5-0.8-0.9-1.3-1.4-2.1c-0.5,0.5-1,0.9-1.5,1.3c-1,0.9-2.5,0.5-2.6-0.9
		c-0.3-6-2.6-11.8-1.8-18.1c0.7-5.8,0.5-11.7,0.5-17.6c0-3,0.3-5.8,1.8-8.5c0.4-0.6,0.3-1.5,0.5-2.3
		C505.8,193.1,505.6,193.1,505.4,193z M520.3,205.9c2.9,0,5.6,0,8.5,0C527,204.7,522.5,204.8,520.3,205.9z M469.3,199.6
		c0,0.2,0,0.4,0,0.6c1.6,0.1,3.1,0.2,4.7,0.2c0-0.2,0-0.3,0.1-0.5c-1-0.7-2-1.4-3.1-2.2c0.1,0.8,0.2,1.3,0.3,2
		C470.4,199.7,469.8,199.6,469.3,199.6z M496.6,191.7c-0.1,0.2-0.2,0.4-0.2,0.6c1.2,0.5,2.4,1.1,3.6,1.5c0.3,0.1,0.8-0.1,1.2-0.2
		c-0.2-0.4-0.3-1.1-0.6-1.1C499.3,192.1,498,192,496.6,191.7z M512.2,230.7c0.2,0,0.3,0,0.5,0c0-1.8,0-3.7,0-5.5c-0.2,0-0.4,0-0.6,0
		C511.6,227,511.4,228.8,512.2,230.7z M465.9,197.8c0,0.2,0,0.4,0,0.6c0.8,0.1,1.6,0.1,2.4,0.1c0.1,0,0.1-0.3,0.2-0.5
		c-0.7-0.1-1.5-0.3-2.2-0.4C466.2,197.6,466.1,197.7,465.9,197.8z M494.9,192.5c-1.5-1.7-2-1.7-2.5-0.3
		C493.3,192.3,494.1,192.4,494.9,192.5z"/>
	<path id="XMLID_755_" class="st0" d="M376.4,148.6c-0.8,2.5-0.1,5.1-1.7,7.4c-0.9-2.2,1.2-4.8-1.6-6.7c-0.1,1-0.2,1.8-0.1,2.5
		c0.8,5.6-1,10.4-4.5,14.6c-1.7,2-3.9,3.6-6.1,4.9c-1.4,0.8-3.3,1.5-4.8,1.2c-2.6-0.6-5,0.8-7.5-0.1c-0.3-0.1-0.9-0.2-0.9-0.3
		c-0.1-2-1.9-1.9-3.1-2.6c-0.3-0.2-0.6-0.4-0.9-0.7c-0.3-0.3-0.5-0.7-0.7-1.1c0.5-0.2,0.9-0.3,1.6-0.5c0-0.3-0.1-0.9-0.2-1.4
		c-0.1-1.8-0.2-3.6-0.4-5.4c-0.3-2.1-0.8-4.2-1-6.4c-0.2-2-0.5-4,0.6-5.9c0.1-0.2,0.2-0.5,0.1-0.8c-0.1-2.1-0.3-4.3-0.4-6.4
		c-0.4-5.6-0.9-11.2-1.3-16.7c0-0.5,0-1-0.1-1.5c-0.1-0.8-0.4-1.5-0.6-2.3c-0.1-0.5-0.3-1-0.4-1.5c0.5-0.1,1-0.3,1.5-0.2
		c1.2,0.3,2.2-0.1,2.9-0.9c0.9-1.1,1.8-1.7,2.8-0.2c1.9-0.9,3.6-1.8,5.4-2.7c0.3-0.1,0.7,0.3,1.1,0.3c3.1,0,6.1,0.6,8.9,2
		c2.8,1.3,5.7,2.4,8.5,3.5c0.3,0.1,0.5,0.3,0.7,0.7c-3.3-1-6.6-2.1-9.9-3.1c-3.4-1.1-6.9-1.3-10.4-0.4c0.2,0.1,0.5,0.4,0.7,0.4
		c2.2,0.1,4.5,0.2,6.7,0.4c0.4,0,0.9-0.1,1.1,0.1c2,1.5,4.4,1.9,6.7,2.7c1.6,0.6,3,1.4,4.5,2.2c0.2,0.1,0.3,0.3,0.2,0.8
		c-1.1-0.4-2.2-0.7-3.3-1.1c1.4,1.7,2.4,3.7,4.7,4.4c1.7,0.6,3.3,1.6,4.2,3.3c0.2,0.4,0.4,1,0.3,1.4c-0.3,1.3-0.4,2.5,1.2,3.4
		c-2.5,1.1-3,3-3.6,5.2c-0.5,1.7-2.2,2.9-3.3,4.5c-0.4,0.6-0.8,1.3-1,2c-0.1,0.2,0.6,0.6,0.9,0.9c0.1-0.1,0.2-0.2,0.4-0.3
		c-0.1-0.3-0.2-0.6-0.4-1.3C375,147.6,375.8,148.1,376.4,148.6z M356.3,140.6c0,0.1,0,0.2,0.1,0.4c2.2-0.4,4.3-0.6,6.4-1.1
		c1.1-0.3,2.2-0.9,3.2-1.6c0.7-0.5,1.1-1.3,1.7-2c1.3-1.6,1.1-3-0.3-4.4c-1-1-1.9-2-2.6-3.2c-0.5-0.9-0.9-0.9-1.8-0.9
		c-3.9,0.1-7.8,0.5-11.6,1.4c-1.4,0.3-1.1,1-0.9,1.9c0.4,2.3,0.8,4.7,1.1,7c0.1,0.5,0.1,1.1,0.1,1.6c0.1,0.9,0.5,1.4,1.5,1.2
		C354.2,140.6,355.3,140.6,356.3,140.6z M352.2,150.6c-0.3-0.6-0.5-1.2-0.9-1.6c-0.2-0.3-0.7-0.3-1-0.5c-0.1,0.3-0.4,0.7-0.3,1
		c0.6,1.4,1.2,2.8,2,4.4c0.1-1.1,0.2-1.8,0.2-2.5c0.1,0,0.3,0,0.4,0c0,3.8,0,7.6,0,11.5c0.8-0.2,1.7-0.4,2.4-0.7
		c1.8-0.8,3.4-1.7,5.2-2.4c5.4-2,5.3-5.9,3-9.8C359.6,151.4,355.9,150.4,352.2,150.6z M350.2,132.7c-0.2,0-0.4,0-0.7,0
		c-0.5,3-0.1,6,0.6,9c0.2,0,0.4,0,0.6,0C350.5,138.7,350.3,135.7,350.2,132.7z M369.6,132.2c0.1-1.4,1.4-2.8-0.4-4
		c-2-1.3-2-1.5-4.3-0.5C367.6,128.2,369,129.8,369.6,132.2z M359.3,147.5c0-0.2,0-0.3-0.1-0.5c-1.9-0.4-3.8-0.3-5.5,0.7
		c-0.2,0.1-0.2,0.7-0.2,0.9C355.5,148.2,357.4,147.8,359.3,147.5z M365.1,163c-0.1-0.1-0.2-0.3-0.3-0.4c-1.2,0.7-2.3,1.4-3.9,2.3
		C363.3,165.5,364.3,164.5,365.1,163z M367.6,151c-0.2,0.1-0.4,0.1-0.6,0.2c0.2,1,0.4,2,0.6,3c0.3-0.1,0.5-0.1,0.8-0.2
		C368.1,153,367.9,152,367.6,151z M377.7,130.3c-0.2,0-0.4,0-0.7,0c0.1,1.1,0.2,2.2,0.4,3.3c0.2,0,0.5-0.1,0.7-0.1
		C377.9,132.5,377.8,131.4,377.7,130.3z"/>
	<path id="XMLID_751_" class="st0" d="M452.2,268.6c-1.3-0.4-2.2-0.3-2.3,1.4c0,0.6-0.4,1.1-0.4,1.8c0.5-0.5,0.9-1,1.4-1.6
		c0.1,1.5-1,2.1-2,2.7c-1.7,1-1.7,0.9-0.6,2.5c3.3,4.6,5,9.7,5.3,15.3c0.2,3.3,0.5,6.6,0.6,9.9c0,0.7-0.1,1.5-0.2,2.2
		c-0.2,0-0.3,0-0.5,0.1c-0.2-0.3-0.4-0.5-0.5-0.8c-0.4-1.4-0.6-2.8-1.9-3.8c-0.3-0.3-0.4-1-0.5-1.5c-0.3-1.7-0.6-3.3-0.9-5
		c-0.9-4.9-3.4-9.2-5.1-13.8c-0.5-1.3-1.5-2.5-2.4-3.7c-0.3-0.4-0.9-0.7-1.3-1c-0.2,0.2-0.4,0.3-0.4,0.4c-0.3,4.7-2.5,9-3.4,13.6
		c-0.3,1.8-0.9,1.8-2.6,1.2c-0.4-0.2-1,0.1-1.5,0.2c-0.5,0.1-1.1,0.4-1.5,0.1c-0.3-0.2-0.6-1-0.5-1.4c0.7-2.3,1.6-4.5,2.3-6.8
		c1-3.3,1.9-6.5,1.8-10.1c-0.1-3.7-0.2-7.7,2.1-11c0.4-0.6,1.1-1.1,1.3-1.8c0.3-0.8,0.5-2.2,0.1-2.6c-2.3-2-2.4-4.8-3.2-7.5
		c-1.3-4.7-0.8-9.5-1.1-14.2c-0.3-4.7,0.4-9.4,0.7-14.1c0.1-1,0.6-2.3-1-3.1c-0.3,1.1-0.6,2-0.8,2.9c-0.1,0-0.3,0-0.4,0
		c-0.1-0.3-0.4-0.7-0.3-1c1.2-2.9-0.5-5.2-1.6-7.7c-1.7-4.1-3.4-8.2-5.1-12.2c-0.4-0.9-0.6-1.9-1.2-2.7c-1.6-2-1.3-4.2-1.3-6.4
		c0-0.2,0.2-0.5,0.3-0.5c1.6-0.6,2.7-1.6,2.9-3.4c1,0.4,1.8,0.7,2.6,1.2c0.5,0.3,1,0.8,1.2,1.3c0.5,1,0.8,2.1,1.2,3.2
		c0.7,1.9,1.9,3.1,4.1,3.2c0.3,0,0.5,0.3,1.1,0.7c-1,0.1-1.6,0.2-2.4,0.3c1.2,2.4,2.2,4.6,3.3,6.8c0.5,0.9,1.2,0.7,1.8,0
		c3.2-3.1,4.5-7.1,5.1-11.3c0.1-0.4-0.1-0.7-0.1-1.1c-0.1-1.2,0.2-2.4,1.5-2.7c1.3-0.3,1.8,0.7,2.1,2c0.4-0.4,0.8-0.8,1-1.1
		c0.7-1,1.3-1.8,2.8-1c0.4,0.2,1.3-0.4,1.9-0.7c0.7-0.4,1.3-0.8,1.9-1.3c0.2,0.2,0.3,0.3,0.5,0.5c-0.4,1-0.8,2.1-1.2,3.1
		c-1.4,3-3,5.9-4.3,8.9c-1.7,3.7-3.1,7.5-4.8,11.2c-1.1,2.4-2.5,4.6-3.8,6.9c0,0-0.1,0.1-0.1,0.1c-2.3,0.8-1.6,2.6-1.6,4.2
		c0,1.7,0.1,3.4,0,5.1c-0.1,3,0.9,5.5,2.4,8c0.2,0.4,0.4,0.9,0.6,1.3c-0.2,0.1-0.4,0.2-0.6,0.3c-0.8-1.3-1.6-2.6-2.3-3.9
		c-0.2,0-0.4,0.1-0.5,0.1c-0.5,7.2-2.1,14.4-0.2,21.8c2.7-1.8,4.6-0.6,7,0.5c4.2,1.9,5.1,5.7,6.6,9.2
		C454.3,263.3,453.2,267.7,452.2,268.6c0-1,0-2.1,0-3.3C450.8,266.7,450.7,267.7,452.2,268.6z M446.3,257.4
		c-0.5,0.8-1.1,1.2-1.3,1.8c-0.9,2.4-1.8,4.9-2.5,7.4c-0.2,0.6,0.1,1.3,0.2,2c0.9-0.2,1.9-0.1,2.7-0.5c1.5-0.8,2.2-2.3,2.5-4
		C448.4,261.7,448,259.6,446.3,257.4z M436.2,267.8c1.7-1.6,2.3-6.1,1.2-7.4C437,262.9,436.6,265.3,436.2,267.8z"/>
	<path id="XMLID_745_" class="st0" d="M428,236.9c0.3-0.1,0.7-0.3,1-0.4c0.1,0.2,0.2,0.3,0.2,0.3c-0.3,1.5-1.6,2-2.9,2.4
		c-0.3,0.1-1-0.6-1.3-1.1c-1-1.7-2.5-2.9-4.1-3.9c-0.1,0.1-0.3,0.2-0.4,0.3c0.6,0.9,1.2,1.7,1.7,2.6c0.4,0.6,0.8,1.4,0.8,2
		c-0.1,1.4-0.8,1.6-2.6,1.1c-0.7,0.8-1.3,1.6-1.9,2.4c-0.7-0.8-1.4-1.5-2-2.3c-1.4-1.8-2.6-3.7-4-5.5c-3.4-4.5-6.8-8.9-10.2-13.4
		c-0.3-0.5-0.9-0.8-1.6-1.4c0,1.3-0.2,2.3,0,3.3c0.6,2.2-1,4.1-0.9,6.2c0.1,1.6,0,3.1,0,4.7c0.2,0,0.4,0,0.5,0
		c0.2-1.7,0.5-3.3,0.7-5c0.1,0,0.3,0,0.4,0.1c0,2.5,0,5,0,7.5c0,0.3-0.6,0.8-1,0.8c-0.4,0.1-0.9-0.2-1.2-0.5
		c-0.3-0.3-0.4-0.8-0.7-1.5c-0.4,0.6-0.7,1.1-1,1.5c-0.9,1.1-1.9,1.1-2.7-0.1c-0.3-0.4-0.6-0.8-1-1c-1.8-1-2.6-2.5-2.6-4.5
		c-0.1-5.9-0.3-11.9-0.2-17.8c0.1-5.4,0.4-10.8,0.6-16.1c0.1-2,0.5-4.1,0.7-6.1c0.1-0.6-0.4-1.3-0.3-1.9c0.2-0.9,0.5-1.8,0.9-2.6
		c0.4-0.7,1.2-1.2,1.4-1.9c0.3-1.6,1.1-1.5,2.2-0.8c0.2,0.1,0.4,0.3,0.3,0.2c1.8-0.4,3.3-0.8,4.7-1.1c0-0.2,0.1-0.3,0.1-0.5
		c-1-0.4-1.9-0.8-2.9-1.2c0.6-1,1.4-1,2.4-0.5c1.6,0.8,3.2,1.4,4.9,2c0.4,0.2,0.9,0.3,1.1,0.6c2.1,2.6,5.3,2.9,8.2,3.6
		c3.2,0.7,6.2,5.3,5.1,8.4c-0.2,0.4-0.6,0.8-0.9,1.3c-0.5-1.4-0.6-2.8-1.3-3.8c-0.6-0.9-1.8-1.4-3.1-2.4c0.2,0.7,0.2,1,0.3,1.2
		c1.3,2.4,3,4.7,4,7.2c1,2.6,1.8,5.4,1,8.2c-0.6,2.1-0.6,2.2,1.6,2.4c0.4,0,0.7,0.1,1.1,0.6c-0.5,0-1,0.1-1.5,0
		c-1.4-0.3-2.4,0-3.4,1.2c-0.8,1-2,1.6-3.1,2.3c-0.3,0.2-0.8-0.2-1.3-0.3c0.1-0.2,0.1-0.4,0.2-0.6c0.4,0,0.8,0.1,0.8,0.1
		c0.7-1.1,1.2-2.1,1.7-3c0.6-1.1,1.3-2.1,1.8-3.3c0.2-0.4-0.1-1.1-0.6-1.7c-0.2,0.4-0.5,0.8-0.7,1.2c-1.1,1.9-2,4-3.3,5.8
		c-0.5,0.8-1.7,1-2.9,1.7c2.1,2.1,5,2.1,7.4,3.4c-3.1,0.4-5.8-1.4-9-1.5c1.2,1.2,2.2,2.5,3.3,3.5c2.8,2.6,5.8,5,8.5,7.7
		c1.5,1.5,2.6,3.6,3.9,5.4C425.9,233.8,426.9,235.3,428,236.9z M399.8,191.8c-0.4-0.3-0.6-0.5-0.9-0.7c0.1,1.5,0.2,2.8,0.4,4.2
		c0.6-0.2,1.1-0.3,1.7-0.5c0,0.3,0.1,0.3,0,0.4c-0.2,0.2-0.4,0.5-0.7,0.7c-2.2,1.1-2.1,2.9-1.7,4.9c0.3,1.6,0.6,3.2,0.8,4.8
		c0.6,4.1,0.6,3.6,3.9,3.4c0.3,0,0.5,0,0.8,0c2.4,0.4,3.9-0.9,4.7-2.9c0.7-1.8,1.2-3.7,1.8-5.5c0.9-2.8-0.2-5.7-2.8-7.1
		c-1.6-0.8-3.2-1.8-4.8-2.7C401.3,190,400.2,190.3,399.8,191.8z M420.4,230.8c0,0-0.1,0.1-0.1,0.1c-1-1.5-2-3-3-4.5
		c-0.1,0.1-0.1,0.1-0.2,0.2C418.1,228,419.2,229.4,420.4,230.8z M411.1,211.8c0.7-0.8,1.3-1.4,1.9-2.1c-0.1-0.1-0.2-0.2-0.3-0.3
		C410.5,210.6,410.5,210.6,411.1,211.8z M397.9,221.4c0.1,0,0.3,0,0.4,0.1c0-0.9,0-1.9,0-2.8c-0.1,0-0.3,0-0.4,0
		C397.9,219.5,397.9,220.5,397.9,221.4z"/>
	<path id="XMLID_738_" class="st0" d="M370.9,280.5c-2.5-0.4-2.1-3.9-4.9-3.5c0,1.5,0,3.1,0,4.3c-0.9,0.5-2,0.8-2,1.1
		c0.1,1,0.5,1.9,0.8,2.9c0.1,0,0.3-0.1,0.4-0.1c-0.1-0.7-0.2-1.4-0.3-2.1c1.2,0.7,1.8,1.5,1.8,2.9c0,2-0.2,4.1,1,6
		c0.3,0.4,0.3,1.5,0,1.8c-0.4,0.4-1.2,0.3-1.9,0.3c-0.2,0-0.4-0.2-0.6-0.2c-2.3,0.2-2.8-0.2-2.8-2.8c0-1.2-0.2-1.8-1.7-1
		c-0.1-1.4-0.2-2.5-0.2-3.7c-0.1-3.2-1.1-6-2.9-8.8c-1.6-2.5-3.6-4.4-5.4-6.6c-0.8-0.9-1.2-2.2-1.9-3.2c-0.4-0.5-1.1-0.7-1.6-1
		c-0.1,0.7-0.5,1.4-0.4,2.1c0.3,1.8,0.9,3.5,1.3,5.2c0.1,0.4-0.1,0.9-0.1,1.3c0.1,0.9,0.2,1.7,0.3,2.6c0.3,0,0.5,0,0.8,0
		c-0.1-2-0.2-4.1-0.3-6.1c0.1,0,0.3,0,0.4-0.1c0.3,1.2,0.8,2.5,0.9,3.7c0.5,5.1,1.7,10.2,0.9,15.4c-0.1,0.6-0.9,1.3-1.5,1.5
		c-1.1,0.4-3.4-1.6-3.4-2.8c-0.3-6-1.9-11.7-3.8-17.3c-1.5-4.5-3.1-9-3-13.9c0-1.6-0.5-3.1-0.6-4.7c0-0.5,0.3-1,0.5-1.6
		c0.7-1.8,1.4-3.6,2.2-5.4c0.1-0.3,0.5-0.5,0.8-0.7c1.6-1.1,3.1-2.3,4.8-3.4c0.5-0.3,1.4-0.6,1.9-0.4c1.9,0.7,4,1.3,5.5,2.6
		c2.2,1.9,4.7,3.8,5.5,6.8c-0.1,0.1-0.2,0.2-0.4,0.3c-0.7-0.9-1.4-1.8-2.1-2.6c-0.2,0.1-0.3,0.1-0.5,0.2c0,0.4,0,0.8,0.1,1.1
		c0.5,1.6,1,3.2,1.5,4.8c0.1,0.3,0,0.7-0.1,0.9c-1.6,1.9-2,4.6-4.3,6c-0.1,0,0.2,1.1,0.6,1.4c1.2,1,2.6,1.7,3.8,2.7
		c2.8,2.4,4.3,5.7,5.6,9.1c0.1,0.2,0.2,0.5,0.6,1.2c0.1-0.8,0.3-1.2,0.2-1.6c-0.6-4.1-1.2-8.2-2-12.2c-0.3-1.5-0.9-2.9-1.1-4.4
		c-0.3-2.2-0.4-4.4-0.5-6.6c0-0.2,0.1-0.5,0-0.6c-1.3-2.1,0.6-3.7,1-5.5c0.2-1,1.9-1,2.3,0c0.4,0.8,0.4,1.8,0.5,2.7
		c0.1,0.4,0,0.8,0.2,1c0.1,0.1,0.6,0.1,0.9,0c2.3-0.6,4.5-1.3,6.8-1.6c1.2-0.2,2.8-0.1,3.7,0.5c1.5,1,2.7,2.5,3.7,4.1
		c0.8,1.3-0.5,2.8-2,2.2c-3.1-1.2-5.6,0.6-8.3,1.3c-0.9,0.2-1.8,0.2-2.9,0.3c0,0.1,0.1,0.7,0.3,1.3c-1.3-0.1-1.6,0.4-0.9,1.5
		c2.6-0.2,5-0.5,7.5-0.4c3.3,0.1,6.1,4.2,5.2,6.9c-3-0.4-5.9-0.8-8.8-1.2c-1.2-0.2-1.7,0-1.1,1.4c0.2,0.4-0.8,1.2-1.2,1.9
		c-0.2-0.1-0.4-0.1-0.6-0.2c0.1,0.7,0.3,1.5,0.5,2.3c3.9-2.4,7.7-3.8,12.1-2.5c1.3,0.4,1.7,1.2,1.3,2.8c-0.5,1.7-0.3,3.3,0.7,5.1
		c-1.4,0.6-2.4,1.5-4.3,1.1c-2.3-0.6-4.7-0.5-7.1-0.7c-1.3-0.1-1.9,0.5-1.8,1.8C370.6,278,370.7,279.1,370.9,280.5z M355.1,253.2
		c-0.1-1.8-0.6-3.2-1.6-4.6c-1.2-1.6-3.4-1.8-4.6-0.2c-0.7,0.9-1.4,1.8-1.9,2.8c-0.8,1.5-0.5,1.7,1.2,1.9c1.6,0.2,3.4-0.1,4.6,1.4
		c0.3,0.3,1.2,0.3,1.7,0.1C354.9,254.5,354.9,253.7,355.1,253.2z M358.5,267.2c-0.2,0.1-0.4,0.2-0.6,0.4c0.5,1.2,0.9,2.5,1.6,3.7
		c1.6,3,3.5,5.8,3.9,9.2c0.6-0.2,1.2-0.3,1.9-0.5C364,275.1,362.4,270.5,358.5,267.2z M346.3,254.8c0,3.4,3.2,1.7,4.7,2.8
		c0.5,0.4,2.2-0.5,3.5-0.9C352.5,253.9,350.2,253.4,346.3,254.8z M373.2,252.4c-2.1-1.2-3.8-0.2-5.5,0.6
		C369,255,370.9,254.8,373.2,252.4z M350.4,278.9c-0.3,0.1-0.5,0.2-0.8,0.3c0.5,2.9,1,5.7,1.5,8.6c0.2,0,0.4,0,0.6,0
		c0.1-0.6,0.5-1.4,0.2-1.8c-1.1-1.7-0.7-3.6-1-5.3C350.9,280,350.6,279.5,350.4,278.9z"/>
	<path id="XMLID_731_" class="st0" d="M468.4,171.8c1.9,2.1,4,3.8,6.9,4.1c0.7,0.1,1.5-0.3,2.3-0.4c0-0.1,0-0.3,0-0.4
		c-1.9-0.9-3.9-1.7-5.8-2.6c-1.8-0.9-3.7-1.8-3.7-4.4c-0.1,0-0.3,0-0.4,0c-0.2,0.5-0.4,0.9-0.6,1.5c-0.2-0.9-0.4-1.7-0.7-2.5
		c-0.4-1.1-0.7-2.2-2.4-1.5c-0.4,0.2-1.4-0.7-1.8-1.3c-0.4-0.5-0.6-1.3-0.7-2c-0.5-3.8-1.7-7.5-1.1-11.4c0.1-1-0.3-2-0.2-3
		c0.4-5,3-9,6-12.8c0.5-0.7,1.4-1.2,2.2-1.7c3.4-2.1,5.9-5.7,10.3-6.2c0.4-0.1,0.8-0.5,1.3-0.7c1.1-0.5,2.1-0.7,2.8,0.6
		c0.6,1.1,1.6,1.5,2.7,2.2c1.7,1,3.3,2.5,4.7,3.9c1.5,1.4,2.8,3.1,4.2,4.6c0.7,0.8,1.5,1.5,1.9,2.4c1.9,4,3.1,8.2,3.1,12.7
		c0,0.4,0,0.9,0.2,1.2c2.1,4.1,1.5,7.9-0.9,11.7c-2.2,3.5-5.1,6.3-8.5,8.6c-2.7,1.8-5.8,3.1-9.2,1.7c-0.7-0.3-1.7,0-2.5,0.2
		c-2,0.6-4,0.8-5.8-0.4c-1.6-1-3-2.3-4.5-3.5C468.1,172.2,468.2,172,468.4,171.8z M469.3,155.2c0.5,1.8,1,3.5,1.5,5.3
		c0.2,0.7,0.3,1.5,0.6,2.1c0.5,0.8,1.3,1.4,1.8,2.2c1.1,1.8,2.7,2.8,4.8,2.1c1.9-0.6,3.9-1.4,5.5-2.5c2.7-1.8,5.1-3.9,7.7-5.9
		c0.3-0.3,0.8-0.7,0.8-1c-0.1-2.6,0.2-5.4-0.7-7.8c-1.4-3.7-4.1-6.6-7.8-8.7c-2-1.2-5-2.3-3.4-6.3c-1.4,0.8-2.7,1.1-3.3,1.9
		c-0.6,0.9-1.2,1.5-2.2,2c-0.9,0.5-1.6,1.4-2.5,2.3c2,1,2.5,0.1,2.7-1.3c1.3,0,2.5-0.1,3.7,0c0.4,0,0.8,0.4,1.2,0.6
		c-0.3,0.3-0.6,0.7-1,0.7c-3.1,0.4-4.9,2.6-6.9,4.5c-2.3,2.2-1.2,5-1.1,7.5c0,1.2,1,1.4,2.1,0.4
		C471.9,155.9,471.9,155.9,469.3,155.2z M485.5,173c3.1,0.9,6.9-1.7,11.1-7.6c2-2.8,3-6,1.9-9.6c-0.4,0.4-0.6,0.9-0.8,1.3
		c-0.6,1.4-1.1,3-1.8,4.3c-1,1.9-2.1,3.7-3.3,5.4c-1.3,1.8-2.8,3.5-4.3,5.1c-0.3,0.4-1,0.4-1.5,0.6C486.4,172.8,486,172.9,485.5,173
		z M465.1,139.9c-2.4,0.7-5,6.8-4,8.9C462.4,145.8,463.8,142.8,465.1,139.9z M487.7,140.2c0.2-0.1,0.3-0.2,0.5-0.3
		c-1-1.6-1.9-3.1-3.2-5.2c-0.5,0.8-0.9,1.2-1.2,1.8c-0.1,0.3-0.1,1,0.1,1.1C485.2,138.4,486.5,139.3,487.7,140.2z M464,165
		c0.3-0.4,0.7-0.7,0.7-0.9c-0.4-1-0.9-2-1.4-3c0-0.1-0.5,0.1-0.7,0.1c0.2,0.8,0.2,1.7,0.5,2.4C463.1,164.1,463.5,164.5,464,165z"/>
	<path id="XMLID_728_" class="st0" d="M556.9,140.6c-0.7,1.5-1.4,3-2,4.6c-1,2.6-2.1,5.1-3.1,7.7c-0.1,0.2-0.2,0.6-0.2,0.8
		c0.7,2.5-0.5,4.2-2.1,6c-1.3,1.6-2.5,3.2-2.9,5.5c-0.4,2.4-1.7,4.7-2.6,7c-0.1,0.3-0.5,0.5-0.9,0.8c0.8-2.8,1.6-5.4,2.4-8.1
		c-0.2-0.1-0.4-0.2-0.6-0.2c-1.2,2.7-0.7,6.4-4.1,7.8c-0.2-0.5-0.7-1.3-1.1-2.1c-0.1,0-0.2,0-0.3,0c-0.1,0.6-0.2,1.1-0.3,1.6
		c-3.7-3.1-4.7-7.5-5.9-11.9c-0.5-1.8-1.3-3.6-1.9-5.4c-0.2,0-0.5,0-0.7,0c-0.4,1-0.7,1.9-1.1,2.9c-0.5,1.3-1.1,2.5-1.6,3.8
		c-0.1,0.3-0.3,0.7-0.2,0.9c1.3,2.3-0.5,4.2-0.8,6.2c-0.2,1.1-0.7,2.2-1.1,3.2c-0.3,0.6-0.8,1.7-1,1.6c-1-0.2-2-0.6-2.9-1.2
		c-0.4-0.3-0.4-1.1-0.7-1.6c-0.3-0.5-0.7-1.1-1.2-1.2c-1.5-0.4-2.2-1.2-2.6-2.6c-0.9-3.1-1.8-6.1-2.8-9.2c-0.3-0.9-0.8-1.8-1.2-2.7
		c-1.3-2.6-2.4-5.3-3.8-7.9c-1.5-2.7-3.2-5.3-4.9-7.8c-0.9-1.3-0.8-2.3,0.5-3.1c0.4-0.2,0.6-0.6,1-0.9c1.2-1.1,2.4-2.2,3.7-3.1
		c0.3-0.2,1.3,0.3,1.9,0.7c0.3,0.2,0.5,0.8,0.6,1.3c0.4,1.4,1.2,1.6,2.4,1.1c2.1-0.8,3.2-0.1,3.5,2.1c0.1,0.5,0.2,1.1,0.2,1.6
		c0,0.3-0.1,0.7-0.2,1c-0.3-0.2-0.8-0.4-0.9-0.7c-0.2-0.9-0.2-1.8-0.3-3.2c-1.2,1.2-2.1,2-2.8,2.9c-0.1,0.1,0.3,0.9,0.6,1
		c2,0.6,0.7,1.1-0.3,1.8c2,0.5,3,1.8,2.6,3.8c0.8,0,1.3-0.1,1.9-0.1c0,0.2,0.1,0.3,0.1,0.5c-0.6,0.2-1.2,0.3-2.1,0.5
		c1.5,4.6,4.1,8.5,7.1,12.2c0.2,0,0.4,0,0.5-0.1c0.3-1.4,0.6-2.8,0.8-4.2c0.7-4.5,1.4-9,3.3-13.2c0.5-1.2,1-2.6-0.4-3.7
		c-0.3-0.2-0.4-1-0.2-1.3c0.1-0.3,0.8-0.2,1.2-0.5c0.4-0.2,0.8-0.6,0.9-0.9c0.1-0.6,0-1.2-0.1-1.8c0.8-0.1,1.5-0.1,2.1-0.2
		c1.7-0.5,3.1,0.8,2.8,2.5c-0.3,2.4-0.6,4.8-0.6,7.2c0,1,0.7,2,1,3.1c0.3,1.2,0.5,2.4,0.8,3.6c0,0.2,0,0.5,0.1,0.6
		c2.7,2.1,2.9,5.2,3.3,8.2c0,0.1,0.1,0.3,0.3,0.6c0.3-0.2,0.7-0.4,0.8-0.7c1.5-2.8,3-5.6,4.3-8.5c1.8-4.2,3.5-8.4,5.1-12.7
		c0.4-1,0.4-2.1,0.5-3.2c0.2-2.4,2.2-4,4.5-3.4c0.6,0.2,1.1,1.1,1.3,1.8c0.4,1.4,0.6,3,0.9,4.4c0.5,0,0.6,0,0.7,0
		c0.5-0.4,1-0.7,1.6-1.1c0,0.7,0.2,1.5,0,2.2C558.9,138.5,558.5,140.1,556.9,140.6c0.2-0.4,0.4-0.8,0.6-1.2c0.2-0.4,0.4-0.9,0.6-1.3
		c-0.2-0.1-0.5-0.2-0.5-0.2c-0.3,0.4-0.8,0.8-0.9,1.2C556.5,139.5,556.8,140.1,556.9,140.6z M513.8,138.1c0.6-0.7,1.1-1.4,1.7-2.1
		c-0.2-0.1-0.3-0.3-0.5-0.4C515,136.7,512.5,135.7,513.8,138.1z"/>
	<path id="XMLID_721_" class="st0" d="M384.6,183.7c-4.8,0-9.5,0-14.4,2c1.4,0.4,2.5,0.5,3.5,0.9c2,0.8,3.9,1.8,5.9,2.5
		c1.5,0.6,3.1,0.8,4.7,1.2c0.5,0.1,1,0,1.5,0.1c0.4,0.1,0.6,0.5,1,0.8c-0.4,0.2-0.8,0.5-1.1,0.4c-2.1-0.8-3.2,0.8-4.4,2
		c-0.3,0.3-0.2,1-0.2,1.5c0,1.2,0,2.4,0,3.7c-0.2,0.1-0.3,0.1-0.5,0.2c-0.3-0.4-0.6-0.7-0.8-1.1c-0.2-0.7-0.3-1.4-0.5-2.1
		c-0.5-1.5-1.6-2-3-1.6c-1.6,0.4-3.3,0.9-4.8,1.4c-3.9,1.3-7.7,2.7-11.6,4.1c-0.4,0.2-0.8,0.8-0.9,1.3c-0.2,0.7-0.1,1.4-0.1,2.1
		c0.1,2.1,1.1,2.7,3,1.7c5.1-2.6,11.5-2.1,15.3,1.6c0.4,0.4,1.1,0.8,1.7,0.9c1.3,0.1,2.3,0.8,2.2,1.9c-0.1,0.8-1.3,1.5-2,2.2
		c-0.2,0.2-0.6,0.2-1,0.2c0.3,1.1,1,2.3-1.3,2.4c1.5,1.4,3.9,2.5,1.9,4.6c-1.1,1.1-2.8,1-4.5,0.1c1.2-0.5,2.3-0.8,3.3-1.2
		c0-0.1,0.1-0.3,0.1-0.4c-1.3-0.4-2.5-1-3.8-1.1c-2.3-0.2-4.7-0.1-7-0.1c-2.3,0-3,0.6-3.7,2.9c-0.1,0.2-0.2,0.4-0.8,0.6
		c-0.1-0.7-0.5-1.5-0.3-2c1.3-3.2,3.9-4,7.2-3.8c0-0.2,0-0.4,0-0.6c-0.7-0.2-1.5-0.6-2.2-0.5c-2.2,0.3-4.5,0.8-6.7,1.3
		c-0.3,0.1-0.7,0.8-0.7,1.2c-0.1,2.6-0.1,5.2,0,7.8c0,0.4,0.8,1.2,1,1.2c4.5-1.2,9.1-1.2,13.6-1c1.2,0.1,2.7,0.4,3.7,1
		c1.2,0.8,2.2,2,2.9,3.3c0.8,1.6-0.9,4.3-2.7,4.7c-0.4,0.1-0.8,0.2-1.4,0.3c0.8,2.1,2.2,4.2,0.3,6.6c-2.4-2.3-5.4-2.5-8.5-2.4
		c-0.8,0-1.6-0.3-2.4-0.4c-1.6-0.2-3.3-0.3-5.2-0.5c-0.9-1.5-1.7-1.6-3.6-0.4c-1.2,0.8-1.8,0.6-2-0.8c-0.3-1.7-0.4-3.4-0.5-5
		c-0.1-4.1,0-8.1-0.1-12.2c-0.1-3.5-0.4-7-0.3-10.5c0.1-4,0.5-8,0.7-12c0.1-1,0.5-2.2,0.1-3c-0.4-0.8-1.5-1.2-2.4-1.7
		c-0.4-0.3-0.9-0.4-1.3-0.6c0.4-0.3,0.7-0.7,1.1-1c1.4-0.9,2.9-1.9,4.4-2.7c0.4-0.2,0.9-0.2,1.4-0.1c3.2,0.8,6.3,0.2,9.3-0.4
		c1.7-0.3,3.3-1.6,5-2.1C376.6,181.9,380.6,182.3,384.6,183.7z M361.6,193.4c1,0.7-1.2,3.2,1.6,2.7c1.1-0.2,2.2-1,1.7-2.1
		C364.3,192.4,362.8,193.3,361.6,193.4z M377.2,213.1c-2-2.1-3.8,0.2-5.6,0C372.9,214,376.2,214,377.2,213.1z M376.3,236.9
		c-1.3-2.4-2.7-3.1-4.3-2.6C373.4,235.1,374.8,236,376.3,236.9z M364.8,234.1c0,0.2-0.1,0.4-0.1,0.6c1.2,0.4,2.5,0.7,3.7,1.1
		c0.1-0.2,0.1-0.5,0.2-0.7C367.5,234.1,366,234.5,364.8,234.1z M361.1,196.9c0-0.2,0-0.4-0.1-0.6c-0.6-0.2-1.1-0.4-2.1-0.9
		c0.3,0.9,0.4,1.7,0.7,1.7C360,197.3,360.6,197,361.1,196.9z"/>
	<path id="XMLID_717_" class="st0" d="M630.3,198.3c-1-0.3-2-0.6-3-1c-1-0.4-2-0.8-3-1.3c-1-0.5-1.7-0.6-2.7,0.2
		c-1.1,0.9-2.5,1.5-3.8,2.3c-0.1-0.1-0.2-0.2-0.3-0.3c0.9-1,1.9-2,3-3.2c-0.2-0.1-0.6-0.3-0.9-0.6c-0.8-1.1-1.5-0.6-2.3,0
		c-2,1.8-4,3.6-5.9,5.5c-1,1.1-2,2.5-2.5,3.9c-1.4,4.2-2.6,8.4-3.8,12.6c-0.2,0.8-0.1,1.8-0.2,3.2c0.8-0.5,1.4-0.8,1.5-1.1
		c0.5-2.4,2.5-2.5,4.3-2.9c2.3-0.6,4.6-1,6.8-2.4c1.2-0.8,3.2-0.3,4.8-0.2c1.2,0.1,2.4,0.8,3.6,0.8c3,0.1,5.8,2.4,3.8,6.1
		c-1.4,2.6-3.2,5-4.5,7.6c-0.7,1.4-1.5,2.6-2.7,3.5c-1.2,0.9-2.4,2-3.8,2.6c-2.2,1.1-4.6,1.9-6.9,2.8c-0.8,0.3-1.7,0.5-2.5,0.6
		c-2.1,0.1-4.2,0-6.3,0c-0.1,0-0.2,0-0.3,0c-1.4-0.2-2.1-1-2.9-2.1c-0.6-0.8-2.1-0.9-3.1-1.5c-0.4-0.3-0.7-1.2-0.7-1.7
		c0.1-2.5,0.4-5.1,0.6-7.6c0.1-2,0.1-4,0-6c-0.1-2.9,0.2-5.7,1.7-8.3c0.7-1.2,1-2.6,1.7-3.9c1.7-3.2,3.4-6.4,5.3-9.5
		c0.8-1.2,2.1-2.2,3.3-3.1c3.2-2.4,6.5-4.9,9.9-7.1c3.4-2.1,5.3-1.2,8.6,1.1c0.6,0.4,1.3,0.8,1.9,0.9c1.4,0.2,2.1,0.9,2,2.2
		c0,1.4,0,2.8,1.3,3.8c0.9,0.7,0.8,1.6,0.1,2.4c-0.7,0.8-1.5,1.5-2.3,2.2C630.4,198.8,630.4,198.5,630.3,198.3z M622.1,220.7
		c-0.8-0.1-1.2-0.2-1.5-0.2c-2.4,0.1-4.9,0.2-7.3,0.4c-1.1,0.1-2.4,0-3.4,0.5c-1.2,0.6-2,0.6-3.2-0.1c-0.8-0.5-2.1-0.9-2.4,0.5
		c-0.2,0.9-0.1,2.1,0.3,2.9c0.9,1.4,2.2,2.5,3.2,3.8c1.7,2,3.6,2.7,5.8,1.3c2.1-1.3,3.9-3,5.6-4.8
		C620.5,224,621.1,222.4,622.1,220.7z M621.3,188.4c1.2,0,2.3,0.1,3.3-0.1c0.3,0,0.6-0.7,0.7-1.1c0-0.2-0.3-0.7-0.6-0.8
		C623.8,186,621.9,187,621.3,188.4z"/>
	<path id="XMLID_716_" class="st0" d="M583.4,226.3c0.3-0.7,0.5-0.9,0.5-1.1c-0.5-7.5-1.1-15-1.6-22.4c-0.1-2.4,0.1-4.8,0.1-7.1
		c0-1,0-2.1,0.1-3.1c0.5-3.2,1.3-6.4,0.7-9.7c0-0.3,0.3-0.9,0.6-1c0.5-0.1,1.4-0.2,1.6,0.1c0.8,1.1,1.7,1.7,3.1,1.7
		c0.4,0,0.8,0.5,1.2,0.8c-0.3,0.3-0.5,0.7-0.8,1c-0.2,0.3-0.5,0.6-0.4,0.8c0.3,1.9,0.6,3.8,0.9,5.4c1.3-0.6,2.3-1.1,3.3-1.5
		c0.4-0.1,1.2,0.2,1.3,0.3c0.3,2.5,1.2,5-0.3,7.8c-0.2-0.7-0.3-1.2-0.3-1.6c0-0.9,0.1-1.9,0-2.8c-0.1-0.9,0.5-2.3-1.2-2.4
		c-1.1-0.1-2.4,1.8-2.4,3c0,2-0.1,3.9-0.1,5.9c0,0.9,0.2,1.8,0.2,2.7c0,0.2-0.1,0.5-0.1,0.7c-0.2,0.7-0.4,1.5-0.4,2.2
		c0,4.2,0.2,8.5,0.1,12.7c-0.1,3-0.4,6.1-0.7,9.1c-0.1,1-0.1,2.1-0.3,3.1c-0.2,0.9-0.6,1.7-0.9,2.6c-0.4,1.4-0.8,2.9-1.3,4.3
		c-0.2,0.6-0.4,1.1-0.8,1.5c-0.1,0.2-0.8-0.2-1.2-0.3c0.9-2.7-1.6-3-3-3.9c-3-1.9-4.9-4.5-6.4-7.6c-1.2-2.6-2.6-5.1-3.8-7.7
		c-0.7-1.5-1.1-3.1-1.6-4.6c-0.1-0.4-0.3-0.8-0.5-1.2c-0.2,0-0.3,0-0.5,0c-0.4,2.2-0.7,4.4-1.1,6.6c-0.8,3.9-1.5,7.7-2.5,11.5
		c-0.8,2.9-1.8,5.8-3.7,8.2c-0.5,0.6-1.5,1.4-2,1.3c-1.2-0.3-1.3-1.4-0.9-2.5c0.7-2.3,1.5-4.5,2.1-6.8c0.2-0.8,0.1-1.6,0.2-2.4
		c0-0.2,0.1-0.7,0.2-0.7c1.4-0.3,1.2-1.5,1.4-2.5c0.6-3.8,1.1-7.6,1.6-11.4c0.1-0.6-0.1-1.3-0.1-1.9c-0.1-1.1,0.4-2.1,0.8-3.1
		c0.7-2,0.9-4.3,0.9-6.5c0-3-0.9-6-0.4-8.8c0.3-1.8,1.3-3.6,1.7-5.5c0.2-1,0.9-1.1,1.8-0.6c2.4,1.4,3.6,3.3,3.3,6.1
		c-0.1,0.9-0.2,1.8-0.1,2.6c0.2,1.2,0.5,2.4,0.8,3.6c0,0.2,0.1,0.3,0.2,0.5c1.8,6.8,5.2,13,7.2,19.8
		C580.5,223.1,582.1,224.5,583.4,226.3z"/>
	<path id="XMLID_715_" class="st0" d="M408.1,162.6c0.2,1.2,0.6,2.5,0.4,2.7c-0.9,0.5-2,0.6-3.1,0.9c0.3,0.5,0.7,1.2,1,1.9
		c0.1,0.3,0,0.8-0.1,1.2c-0.4,0-1,0.1-1.2-0.2c-1.8-2.4-3.8-1.1-5.9-0.5c-1.2,0.3-2.5,0.3-3.7,0.2c-2.1-0.1-4.2-0.4-6.2,0.6
		c-1.5,0.7-2.9-0.3-3.2-1.9c-0.2-1.3-0.5-2.6-0.8-3.8c-0.4,0.5-0.7,1-1.1,1.3c-0.2,0.1-1-0.5-1-0.8c0.1-0.6,0.4-1.6,0.7-1.7
		c1.5-0.3,1.2-1.4,1.2-2.4c0-1.6,0-3.2,0-4.8c0-3.4,0-6.8,0-10.3c0.1-4.2,0.3-8.3,0.4-12.5c0.1-2.7-0.1-5.3,0-8
		c0-1.1,0.1-2.3,0.3-3.4c0.5-1.7,3.3-3.3,4.7-2.4c2.7,1.8,5.7,1.7,8.6,1.6c3.3-0.2,5.9,1.3,8.5,2.8c0.8,0.4,1.7,0.7,2.5,1.1
		c0.4,0.2,0.8,0.5,1.2,0.8c-0.3,0.4-0.6,0.9-1,1.1c-0.3,0.2-0.8,0.1-1.3,0.2c-0.4,0.1-0.8,0.2-1.2,0.4c0.3,0.3,0.5,0.7,0.9,1
		c0.6,0.5,1.3,0.9,1.9,1.3c0,0.1-0.1,0.3-0.1,0.4c-1.2,0.2-2.4,0.3-3.6,0.5c0,0.1,0,0.2,0,0.3c0.9,0.4,1.8,0.9,2.7,1.3
		c-0.1,0.2-0.1,0.4-0.2,0.6c-0.5-0.1-1.1-0.2-1.5-0.4c-0.7-0.3-1.2-0.9-1.9-1.2c-2.9-1.6-6.2-1.1-9.3-1.9c-0.7-0.2-1.4-0.2-2.1-0.3
		c-1.2-0.3-2.2,0.2-2.5,1.2c-0.4,1.2,0.9,1.2,1.7,1.5c0.3,0.1,0.5,0.3,0.8,0.4c-0.1,0.1-0.1,0.2-0.1,0.2c-4.1,0.8-4.1,0.8-3.9,5
		c0,0.7,0.1,1.4,0.2,2.1c0.2,1.3,0.5,2.6,0.7,4c1.9,0,3.8,0,5.6,0c2.9-0.1,5.7-0.2,8.6-0.2c1.6,0,4,1.9,4.6,3.4
		c0.3,1-0.3,2.1-1.4,1.9c-1.6-0.2-2.8,0.4-3.9,1.6c-0.3,0.3-0.9,0.5-1.3,0.6c-2.9,0.2-5.8,0.5-8.5-0.8c-0.4-0.2-0.9-0.4-1.4-0.4
		c-2.3-0.3-2.5,0.1-3.3,2.2c-1.1,3,0,5.9-0.4,8.9c-0.1,1,0.6,1.3,1.5,1c1.2-0.3,2.5-0.6,3.8-0.6c4-0.2,7.9-0.3,11.9-0.4
		c0.5,0,1.3,0.4,1.3,0.8c0.1,0.6-0.2,1.3-0.3,1.9C408.3,162.7,407.9,162.7,408.1,162.6z"/>
	<path id="XMLID_712_" class="st0" d="M398.3,250.8c0.2,0.8,0.3,1.5,0.5,2.3c0.4,1.7-0.3,2.5-1.9,2.1c-1.1-0.3-1.8,0-2.3,1
		c-1.1,2.2-2.3,4.3-3.1,6.6c-0.3,0.7,0.4,1.8,0.8,2.7c1.3,2.8,4.8,5.1,7.7,4.6c0.9-0.2,1.7-1.6,2.3-2.6c1.4-2.4,2.1-5.3,3.9-7.4
		c2-2.4,4.9-4,7.4-6c0.4-0.3,0.9-0.6,1.2-1c0.7-1.2,1.6-1.6,2.8-0.8c0.9,0.6,1.6,0.6,2.5,0.1c0.5-0.4,1.3-0.4,2-0.5
		c1.6,0,2.2,0.8,1.6,2.3c-0.5,1.1-0.2,1.8,0.4,2.7c1.8,2.8,3.6,5.6,4,8.9c0.2,1.6,0,3.3-0.6,4.8c-2.8,7.4-10.5,10.5-17.5,7.7
		c-2-0.8-4.1-1.4-5.5-3.4c-1-1.4-2.5-1-3,0.7c-0.6,1.9-3,2.2-5.1,1.6c-2.7-0.7-5.4-1.7-7.8-3c-2.1-1.1-3.4-3.1-4.2-5.5
		c-1.1-3.3-1-6.5,0.6-9.4c1.1-1.9,2.9-3.5,4.5-5.1c1.8-1.8,3.8-3.5,5.8-5.2c1.3-1.1,2.6-2.1,4.1-2.9c1.2-0.7,2.5,0,3,1.2
		c0.3,0.8,0.6,1.7,0.9,2.8c-0.6-0.1-0.9-0.2-1.2-0.2c-0.5,0.1-1.1,0.2-1.6,0.3c0.2,0.6,0.4,1.3,0.8,1.8c0.4,0.5,1,0.7,1.8,1.3
		c-2.4,0.4-3.1-1.2-3.9-2.6C398.7,250.6,398.5,250.7,398.3,250.8z M414.8,272.4c1.1-0.3,2.7-0.7,4.4-1.1c2-0.5,2.6-2.4,3.9-3.6
		c0.1-0.1,0-0.5,0-0.8c-0.1-0.9-0.4-1.8-0.4-2.7c-0.3-2.8-2.2-4.3-4.3-5.8c-0.5-0.4-1.7-0.4-2.3-0.1c-3.4,1.9-5.3,5-6.1,8.7
		C409.7,269.4,412.2,272.4,414.8,272.4z"/>
	<path id="XMLID_711_" class="st0" d="M424.2,122.5c0,2.1,0,3.8,0,5.6c0.1,0,0.2,0.1,0.4,0.1c0.3-0.3,0.6-0.6,1-1.1
		c0.2,0.4,0.4,0.8,0.4,1.2c0.1,0.8,0.2,1.3,1.1,1.5c0.5,0.1,1,0.8,1.5,1.2c-0.1,0.1-0.2,0.2-0.2,0.4c-0.5-0.1-1.1-0.2-1.9-0.4
		c0,4.5,0.1,8.9,0,13.3c0,2.8-0.3,5.5-0.5,8.3c0,0.3-0.2,0.7-0.1,1c1.6,2.9,0.2,5.8-0.3,8.6c-0.1,0.7,0.1,1.5,0.1,2.3
		c0.7-0.2,1.4-0.4,2-0.4c2,0,4,0.1,5.9,0.2c0.8,0.1,1.6,0.4,2.3,0.6c1.2,0.4,2.4,0.8,3.6,1.1c0.5,0.2,1.1,0.2,1.7,0.3
		c0-0.2,0.1-0.4,0.1-0.6c-0.4-0.2-0.7-0.4-1.2-0.6c2.1-0.3,2.1-0.3,1.7,3c0.9-0.1,1.9,0.1,1.5-1.5c-0.1-0.3,0.6-1.2,0.9-1.2
		c1.6,0,3.3,0.3,4.9,0.5c0.2,0,0.4,0.2,0.8,0.4c-1.9,1.1-4.4-0.5-6.1,1.9c1.3,0.1,2.4,0.2,3.3,0.4c0.9,0.2,1.8,0.6,3,1.1
		c-1,0.8-1.6,1.2-2.2,1.7c0.3,0.4,0.5,0.7,0.7,0.9c0.2,0.4,0.3,0.8,0.4,1.2c-0.4,0.1-0.9,0.3-1.3,0.4c-1.6,0.1-3.3-0.4-4.7,1.2
		c-0.4,0.4-1.5,0.2-2.3,0.3c-1.2,0-2.3,0.1-3.5,0c-1.9-0.2-3.8-0.5-5.7-0.9c-2.2-0.4-4.3-0.8-6.4,0.4c-1.4,0.8-2.8,0-3.4-2.2
		c-0.5-1.7-1.1-3.3-2.3-4.6c-0.3-0.3-0.2-1-0.3-1.5c0-1.7,0-3.4,0-5.2c0-3.5,0.1-6.9,0.1-10.4c0-1.7,0.1-3.5,0.2-5.2
		c0.1-3.6,0.3-7.3,0.4-10.9c0-1,0.1-2.1,0.2-3.1c0.1-1.2-0.3-2.5,1.2-3.2c0.4-0.2,0.7-1.1,0.7-1.7C422,124.4,422,124.4,424.2,122.5z
		"/>
	<path id="XMLID_707_" class="st0" d="M464.8,260.4c-1.7-1.2-1.7-2.3-0.3-5.4c1.5,0,2.9,0,4.6,0c-0.2,0.3-0.4,0.5-0.9,1
		c1,0.4,1.8,0.8,2.7,1c1.2,0.3,2.5,0.5,3.7,0.8c2.5,0.7,3.6,2.7,4.6,4.7c1.3,2.4,2,5,1.9,7.8c0,0.7,0.1,1.4,0.2,2.4
		c0.4-0.5,0.6-0.7,0.8-1.1c0.2,1.1,0.6,2.1,0.6,3.1c0.2,3.2-0.6,6.3-2,9.1c-1.1,2.1-2.8,3.6-5.4,3.9c-1.3,0.1-2.6,1.1-3.9,1.8
		c-0.7,0.3-1.4,1-2,0.9c-2.3-0.5-3.9,0.9-5.4,2.2c-1.2,1-1.5,0.3-1.8-0.6c-0.5-1.8-1-3.6-1.4-5.3c-0.1-0.3,0.2-0.7,0.2-1.1
		c0.3-1.8,0.7-3.6,1-5.4c0.2-1.2,0.3-2.4,0.4-3.6c0.1-1.5-0.1-3.1,0-4.6c0.2-2.3,0.5-4.7,0.7-7c0.1-1,0.2-1.9,0.3-2.9
		C463.6,261.4,463.1,260.3,464.8,260.4z M467.4,285.5c4.7-1.8,7.6-5.1,9.7-9.1c1.6-2.9,0.4-5.8-0.9-8.6c-1-2.1-1.8-4.5-4.5-5.1
		c-0.1,0.4-0.2,0.8-0.3,1.2c-1.8-1-2.1-0.8-2.3,0.7C468.6,271.4,468,278.3,467.4,285.5z M477.3,284.5c2.8-2.2,4-5.3,4.2-9
		C480,278.6,478.7,281.5,477.3,284.5z"/>
	<path id="XMLID_703_" class="st0" d="M494.1,291.3c-0.5,0-1.1,0-1.8,0c0.4-0.7,0.7-1.2,1-1.7c-0.1-0.1-0.2-0.2-0.3-0.2
		c-0.6,0.4-1.1,0.9-1.9,1.5c0.8,0.5,1.4,0.9,2,1.3c-2,1.7-2.6,1.8-4.9,0.4c-1.4-0.9-2.8-2-4.6-1c-0.2,0.1-0.8-0.2-0.9-0.4
		c-0.1-0.2,0-0.8,0.2-1c1.1-1,1.5-2.3,1.7-3.7c0.2-1.7,2.3-3.5,3.9-3.7c0.1,0,0.1,0,0.2,0c2.9,1.5,3.4-1.6,5-2.6
		c1.1-0.6,0.6-2-0.5-2.8c-0.9-0.6-1.8-1.2-2.7-1.8c-1.1-0.8-1.8-1.8-1.7-3.3c0-0.3-0.2-0.6-0.5-1.4c-0.3,0.8-0.4,1.2-0.6,1.6
		c-0.1,0-0.3,0-0.3-0.1c-0.8-1.6,0.1-6,1.5-7.1c0.2-0.1,0.2-0.5,0.3-0.7c0.2-0.4,0.4-1,0.6-1c1.6-0.1,1.7-1.4,2.2-2.4
		c0.2-0.4,0.8-0.9,1.2-0.8c2.9,0.3,5-1.2,6.7-2.9c1,0.2,1.8,0.3,2.7,0.4c0.3,0,0.7,0,1,0.1c0.4,0.2,0.6,0.7,0.9,1
		c-0.4,0.1-0.8,0.3-1.2,0.4c0.1,0.1,0.2,0.2,0.3,0.3c-0.6,0.6-1.2,1.6-1.9,1.8c-3.4,1-5.4,3.6-7.5,6c-0.4,0.5-0.4,1.5-0.3,2.1
		c0.1,0.3,1,0.6,1.5,0.6c0.7,0.1,1.5,0,2.3,0c2.3,0,4.3,1.5,4.6,3.8c0.4,3.6,0.6,7.2,0.6,10.8c0,2.5-1.9,4.2-4.5,4.6l0,0
		c0.4-0.5,0.7-1.1,1.2-1.5c1.8-1.4,2.5-3.3,2.1-5.5c-0.1-0.4-0.4-0.8-0.5-1.2c-0.3,0.4-0.5,0.8-0.4,1c0.5,1.6,0,2.8-1.2,3.7
		c-1.3,1.1-2.8,2-4.1,3.1C494.8,289.6,493.6,290,494.1,291.3L494.1,291.3z M502.2,277.2c-0.5-0.7-0.9-1.3-1.3-2
		c-0.4-0.7-0.7-1.4-1-2c-0.8-1.4-2.2-1.7-4.3-0.7c2.6,1.1,4.3,2.8,5.1,5.4C501.2,277.6,501.7,277.5,502.2,277.2z M488.4,288.2
		c1.7,0.6,2.9-0.8,4.4-0.6c-0.3-0.8-0.4-1.2-0.5-1.6C491,286.8,489.8,287.4,488.4,288.2z"/>
	<path id="XMLID_702_" class="st0" d="M551.1,240.8c-0.7-1.4-1.3-2.9-2-4.3c-0.3-0.6-0.9-1.3-1.5-1.7c-2.2-1.1-2.5-3-2.5-5.1
		c0.1-7.3,0.2-14.7,0.3-22c0-1.6-0.3-3.2-0.4-5c1.7-0.1,1.8-1.6,1.8-3.2c0-0.9,0.3-1.7,0.5-2.5c0.1-0.4,0.6-0.6,0.9-1
		c0.2,0.3,0.6,0.6,0.7,1c0.5,1.6,0.9,3.2,1.3,4.6c1.1,0,1.8,0,2.5,0c0.1,0.2,0.2,0.4,0.2,0.6c-1.3-0.5-1.7-0.3-1.5,0.9
		c0.3,2.5,0.3,5.1,0.6,7.7c0.1,0.6,0.6,1.1,0.8,1.5c-0.3,1-0.8,2-0.8,3c-0.2,2.2,0,4.3-0.2,6.5c-0.1,2.5-0.5,5-0.6,7.6
		c0,1.7,0.3,3.3,0.4,5c0.1,1.9,0.2,3.8,0.2,5.7c0,0.2-0.2,0.4-0.3,0.5C551.5,240.7,551.3,240.8,551.1,240.8z"/>
	<path id="XMLID_701_" class="st0" d="M540.9,183.8c0.1-1,0.2-2.2,0.5-3.3c0.1-0.3,0.3-0.7,0.6-0.9c0.8-0.5,1.4-0.8,0.2-1.6
		c-0.2-0.1-0.1-1,0.2-1.2c0.9-1,1.9-1.5,3.3-1.2c0.8,0.2,1.7,0,2.5,0c1.3,0,1.9-0.5,1.8-1.9c0-0.3,0.7-0.7,1-1
		c0.3,0.3,0.8,0.7,0.8,1c0.2,2.8,0.3,5.6,0.3,8.4c0,0.4-0.5,0.9-0.9,1.2c-0.4,0.4-1.1,0.7-1.3,1.2c-0.7,2-2.5,2.8-4.2,3.7
		c-2.3,1.2-4.4-1.2-4.9-3.6C540.8,184.4,540.9,184.1,540.9,183.8z"/>
	<path id="XMLID_700_" class="st0" d="M442.9,100.4c0-2.6,0.3-5.1,2-7.3c1.1-1.4,2.5-1.6,3.8-0.3c0.3,0.3,0.6,0.7,1,1
		c2.6,1.7,3.3,3.6,2.1,6.5c-0.6,1.5-2,2.8-2.5,4.3c-0.5,1.7-1.8,2.4-3,3.1c-1.4,0.9-2,0.7-2.4-0.9
		C443.4,104.7,443.2,102.5,442.9,100.4z"/>
	<path id="XMLID_699_" class="st0" d="M648.6,477.6c0.6,0.3,1.2,0.7,1.9,0.9c0.5,0.1,1.1,0.2,1.4-0.1c0.3-0.3,0.7-1.1,0.5-1.4
		c-1.2-2.2,0.6-3.9,0.7-5.8c1.5-0.2,2,0.5,1.6,1.7c-0.4,1.5-1.2,3-1.2,4.5c0,2.5-2,3.7-2.8,5.6c-0.5,1.1-0.2,2.6-0.1,4
		c0,0.6,0.2,1.2,0.4,1.9c-1.5-0.2-1.5-0.4-1.8-7c0.4,0.2,0.7,0.3,1,0.4c1.1-2.1,1-2.4-1.1-3.4c-0.3-0.2-0.6-0.6-0.9-0.9
		C648.4,477.9,648.5,477.7,648.6,477.6z"/>
	<path id="XMLID_698_" class="st0" d="M252.1,436.7c0.2,0.7,0.5,1.3,0.6,2c0.8,4.9,1.5,9.8,2.3,14.7c0.2,1,0.5,1.9,0.8,3.1
		c-0.3-0.3-0.8-0.6-0.9-1c-0.8-3.3-1.7-6.6-2.3-10c-0.5-2.8-0.8-5.7-1.2-8.6C251.6,436.8,251.9,436.8,252.1,436.7z"/>
	<path id="XMLID_697_" class="st0" d="M591.9,207.4c2.7,0,1.8,1.4,1.8,2.3c-0.6-0.2-1.2-0.5-1.8-0.7c-0.2,0.5-0.4,0.9-0.5,1.4
		c0,0.1,0.1,0.4,0.2,0.4c2.9,1.2-0.2,1.5-0.5,2.3c0-0.2,0.1-0.4,0-0.6c-1.4-3.3-0.1-6.1,1.8-8.7c0.1-0.2,0.1-0.4,0.2-0.6
		c0.2-0.3,0.5-0.6,0.8-0.8c0.2,0.3,0.8,0.8,0.7,1c-0.3,0.8-0.8,1.6-1.2,2.4C593.1,206.3,592.6,206.7,591.9,207.4z"/>
	<path id="XMLID_696_" class="st0" d="M650.7,464.3c-1-2.5,0.2-8.2,2.4-9.9C652.3,457.9,653.5,461.5,650.7,464.3z"/>
	<path id="XMLID_695_" class="st0" d="M578.5,101c-2.4-0.2-4.8-0.5-7.1-0.5c-2.4,0-4.9,0.2-7.4,0.3c0.1-0.3,0.1-0.5,0.1-0.5
		c3.1-0.4,6.1-0.9,9.2-1c1.7,0,3.5,0.7,5.2,1.1C578.6,100.6,578.5,100.8,578.5,101z"/>
	<path id="XMLID_694_" class="st0" d="M345.9,105c-0.4,0.3-0.7,0.7-1,0.7c-2-0.2-2.1-0.2-1.5,1.6c-1.4-0.5-2.9-0.9-4.3-1.5
		c-0.2-0.1-0.4-0.6-0.4-0.8c0.1-0.3,0.5-0.6,0.8-0.6c1,0,2,0,2.9,0.1C343.5,104.6,344.5,104.8,345.9,105z"/>
	<path id="XMLID_693_" class="st0" d="M593.7,210.8c0.5,0.5,1.1,0.7,1.1,1.1c0.3,2.7,0.2,5.4-1.1,7.9
		C593.7,217,593.7,214.1,593.7,210.8z"/>
	<path id="XMLID_692_" class="st0" d="M433.9,178.4c-1.8-0.2-3.7-0.4-5.5-0.7c-0.4-0.1-0.7-0.8-1-1.3c2,0.2,3.8,0.4,5.6,0.7
		c0.4,0.1,0.8,0.6,1.1,0.9C434,178.2,433.9,178.3,433.9,178.4z"/>
	<path id="XMLID_691_" class="st0" d="M554.4,218.7c0.1-0.3,0.2-0.6,0.3-0.8c0.7-1,1.7-2-0.6-2.2c-0.1,0-0.4-0.4-0.3-0.6
		c0-0.2,0.4-0.5,0.5-0.5c0.8,0.2,1.7,0.4,2.2,0.9c0.3,0.3,0.1,1.3-0.2,1.9c-0.4,0.6-1,1.1-1.6,1.6
		C554.7,218.9,554.5,218.8,554.4,218.7z"/>
	<path id="XMLID_690_" class="st0" d="M551.9,208.3c1.1-1.2,2-2.3,3.1-3.6C555.2,208.4,554.7,209.1,551.9,208.3z"/>
	<path id="XMLID_689_" class="st0" d="M392.5,108.7c0.2,2.9,2.7,2,4.3,2.6c-0.1,0.2-0.1,0.4-0.2,0.6c-1.7-0.3-3.5-0.5-5.4-0.8
		c0.3-0.9,0.6-1.6,0.8-2.2C392.1,108.7,392.3,108.7,392.5,108.7z"/>
	<path id="XMLID_687_" class="st0" d="M247.6,91.5c0.6-1.5,3.4-2.1,6.2-1.5C251.5,90.6,249.7,91,247.6,91.5z"/>
	<path id="XMLID_685_" class="st0" d="M298.3,107.9c-1.2,0.3-2.4,0.6-3.7,0.8c-0.2,0-0.6-0.4-0.6-0.5c0.1-0.3,0.4-0.8,0.6-0.8
		c1.2-0.1,2.4,0,3.6,0C298.3,107.5,298.3,107.7,298.3,107.9z"/>
	<path id="XMLID_684_" class="st0" d="M630.4,156c0.8,0.1,1.7,0.1,2.5,0.2c0.3,0,0.5,0.5,0.7,0.7c-0.3,0.2-0.6,0.6-0.8,0.6
		c-0.9-0.2-1.7-0.5-2.6-0.7C630.3,156.5,630.4,156.3,630.4,156z"/>
	<path id="XMLID_683_" class="st0" d="M516.7,128.1c0.9-0.3,1.8-0.5,2.6-0.8c0.1,0.2,0.1,0.3,0.2,0.5c-0.4,0.2-0.7,0.4-1.2,0.6
		c0.3,0.4,0.6,0.7,0.9,1.1c-0.1,0.1-0.2,0.3-0.2,0.4c-0.8-0.3-1.6-0.7-2.4-1C516.7,128.7,516.7,128.4,516.7,128.1z"/>
	<path id="XMLID_682_" class="st0" d="M498.3,289.3c-0.4,0.4-0.7,0.9-1.1,1.2c-0.7,0.5-1.4,0.9-2.2,1.3c-0.2,0.1-0.6-0.3-0.9-0.5
		c0,0,0,0,0,0C495.5,290.6,496.5,289.1,498.3,289.3C498.4,289.3,498.3,289.3,498.3,289.3z"/>
	<path id="XMLID_681_" class="st0" d="M429.6,213.1c-2,0-3.5,0-5,0c0-0.2,0-0.4,0-0.6C426.1,212.6,427.6,212.8,429.6,213.1z"/>
	<path id="XMLID_679_" class="st0" d="M486.2,205.5c1.3-0.1,2.4-0.2,3.4-0.4C488.6,205.4,487.8,208.1,486.2,205.5z"/>
	<path id="XMLID_678_" class="st0" d="M553.6,151.4c0.5-1.3,0.9-2.2,1.3-3.3C556,149.8,555.7,150.4,553.6,151.4z"/>
	<path id="XMLID_677_" class="st0" d="M360.9,106.6c0.6,0.4,1.1,0.8,1.6,1.2c0,0-0.4,0.6-0.6,0.9c-0.5-0.5-1.1-1-1.6-1.5
		C360.5,107,360.7,106.8,360.9,106.6z"/>
	<path id="XMLID_676_" class="st0" d="M613.7,206.2c-1.2,0.5-2.5,1-3.7,1.4c-0.1-0.2-0.2-0.4-0.2-0.6c1.3-0.5,2.5-0.9,3.8-1.4
		C613.5,205.8,613.6,206,613.7,206.2z"/>
	<path id="XMLID_675_" class="st0" d="M684.3,310.6c0-0.2-0.1-0.4-0.1-0.4c0.5-0.5,1.1-1.1,1.6-1.6c0,0,0.4,0.4,0.6,0.5
		c-0.6,0.4-1.1,0.9-1.7,1.3C684.8,310.6,684.6,310.6,684.3,310.6z"/>
	<path id="XMLID_674_" class="st0" d="M265.5,119.8c-0.8,0.2-1.6,0.4-2.4,0.7c-0.1-0.3-0.2-0.8-0.2-0.8c0.8-0.2,1.6-0.4,2.4-0.7
		C265.4,119.3,265.5,119.6,265.5,119.8z"/>
	<path id="XMLID_673_" class="st0" d="M627.7,226.5c0.5-0.8,1-1.5,1.5-2.3C629.9,226,629.3,226.7,627.7,226.5z"/>
	<path id="XMLID_672_" class="st0" d="M348.5,105.1c0.8,0,1.6,0,2.3,0c0,0.1,0.1,0.2,0.1,0.4c-0.6,0.4-1.3,0.8-2.1,1.3
		C348.7,106.1,348.6,105.6,348.5,105.1z"/>
	<path id="XMLID_671_" class="st0" d="M526.9,124.9c-0.5-0.6-0.9-0.9-1-1.2c0-0.2,0.5-0.8,0.7-0.8c0.4,0,0.9,0.4,1,0.7
		C527.7,123.9,527.3,124.3,526.9,124.9z"/>
	<path id="XMLID_670_" class="st0" d="M579.8,101.4c1.3-1.9,2,0,3,0C581.9,101.4,581,101.4,579.8,101.4z"/>
	<path id="XMLID_669_" class="st0" d="M368.6,107.9c-0.4,1.4-0.9,1.5-2.4,0.3C367.1,108.1,367.8,108,368.6,107.9z"/>
	<path id="XMLID_668_" class="st0" d="M393.6,137.3c0.6,0.1,1.3,0.2,1.9,0.3c0,0.2,0,0.3,0.1,0.5c-0.4,0.2-0.9,0.5-1.3,0.4
		c-0.4-0.1-0.7-0.5-1.1-0.7C393.3,137.6,393.5,137.5,393.6,137.3z"/>
	<path id="XMLID_667_" class="st0" d="M351.9,105.3c2.5-0.4,2.8-0.3,2.5,1C353.6,106,352.9,105.7,351.9,105.3z"/>
	<path id="XMLID_666_" class="st0" d="M246.2,192.1c0.1-1.3,0.2-2.6,0.3-3.9c0.1,0,0.1,0,0.2,0c0,1.3,0,2.6,0,3.9
		C246.5,192.2,246.3,192.2,246.2,192.1z"/>
	<path id="XMLID_665_" class="st0" d="M560,146.1c-0.7,0.8-1.4,1.6-2.2,2.4c-0.2-0.2-0.3-0.3-0.5-0.5c0.7-0.8,1.5-1.6,2.2-2.4
		C559.8,145.7,559.9,145.9,560,146.1z"/>
	<path id="XMLID_664_" class="st0" d="M269.3,114.3c-0.5-0.5-1.1-0.9-1.6-1.4c0.1-0.2,0.2-0.4,0.3-0.6c0.5,0.1,1.1,0.1,1.3,0.4
		c0.3,0.3,0.3,0.9,0.4,1.4C269.7,114.1,269.5,114.2,269.3,114.3z"/>
	<path id="XMLID_663_" class="st0" d="M254.4,339.9c0.2,0.3,0.4,0.7,0.5,1c0.3,3.3,0.6,6.5,0.9,9.8c0,0.4-0.4,0.8-0.6,1.2
		c-0.2-0.4-0.6-0.8-0.6-1.2c-0.3-3.6-0.5-7.1-0.7-10.7C254,340,254.2,340,254.4,339.9z"/>
	<path id="XMLID_662_" class="st0" d="M252.5,422.3c-0.2-0.4-0.5-0.7-0.6-1.1c-0.6-2-1.2-4.1-1.8-6.1c-0.3-0.9-0.7-1.8-0.9-2.8
		c-0.1-0.3,0.3-0.8,0.5-1.1c0.3,0.3,0.7,0.5,0.8,0.8c0.3,1.1,0.5,2.2,0.7,3.3c0.3,1.5,0.7,2.9,1,4.4c0.2,0.8,0.4,1.7,0.6,2.5
		C252.8,422.2,252.6,422.2,252.5,422.3z"/>
	<path id="XMLID_661_" class="st0" d="M251,226.9c0.2-2.8,0.4-5.6,0.6-8.5c1.2,0.9,1.1,6.3,0,8.5C251.4,226.9,251.2,226.9,251,226.9
		z"/>
	<path id="XMLID_660_" class="st0" d="M250.3,202.1c2,0.9,2.3,2.4,0.9,4.7C250.9,205.2,250.7,203.8,250.3,202.1z"/>
	<path id="XMLID_659_" class="st0" d="M264.1,92.7c1.5,0,3,0,4.4,0c0,0.2,0,0.4,0,0.5c-1.5,0-3,0-4.5,0
		C264.1,93,264.1,92.8,264.1,92.7z"/>
	<path id="XMLID_658_" class="st0" d="M255.9,360.7c-0.1,1.7-0.2,3.5-0.3,5.2c-0.3,0-0.5,0-0.8,0c0.1-1.7,0.2-3.5,0.3-5.2
		C255.4,360.7,255.7,360.7,255.9,360.7z"/>
	<path id="XMLID_657_" class="st0" d="M433.5,98.5c-0.2-1.9-0.2-1.9,3.2-1c-0.5,0.1-1,0.1-1.5,0.3C434.7,98,434.2,98.2,433.5,98.5z"
		/>
	<path id="XMLID_656_" class="st0" d="M256.2,357.8c-2.2-0.6-1.1-2-1.4-3c0.2-0.1,0.4-0.1,0.6-0.2
		C255.6,355.6,255.8,356.6,256.2,357.8z"/>
	<path id="XMLID_655_" class="st0" d="M252.3,137.7c-0.1,1.2-0.1,2.4-0.2,3.7c-0.2,0-0.5,0-0.7,0c0.1-1.2,0.1-2.4,0.2-3.7
		C251.9,137.6,252.1,137.6,252.3,137.7z"/>
	<path id="XMLID_654_" class="st0" d="M255.7,93.8c-0.9,0-1.8,0-2.8,0C253.8,91.5,254.8,93.6,255.7,93.8z"/>
	<path id="XMLID_653_" class="st0" d="M255.3,388.3c0,1.3,0,2.5,0,3.8c-0.1,0-0.2,0-0.3,0c0-1.3,0-2.5,0-3.8
		C255.1,388.3,255.2,388.3,255.3,388.3z"/>
	<path id="XMLID_652_" class="st0" d="M281.5,312.4c0.1,1.8-0.4,2.3-1.9,2.1c0,0,0,0,0,0C280.3,313.8,280.9,313.1,281.5,312.4
		C281.6,312.4,281.5,312.4,281.5,312.4z"/>
	<path id="XMLID_651_" class="st0" d="M279.7,314.4c-0.6,0.8-1.2,1.7-2,2.8C277.7,315.4,278,315.1,279.7,314.4
		C279.7,314.5,279.7,314.4,279.7,314.4z"/>
	<path id="XMLID_650_" class="st0" d="M653.3,178.7c-0.1-0.4-0.3-0.8-0.3-1.1c0.1-2.5,0.3-5.1,0.5-7.6c0-0.2,0.2-0.6,0.1-0.6
		c-1.6-1.1-0.3-2.2-0.1-3.4c0.1-0.7-0.1-1.4-0.2-2.1c-0.2-2-0.5-3.9-0.7-6.2C655.3,160,655.6,175.9,653.3,178.7z"/>
	<path id="XMLID_649_" class="st0" d="M655.4,139.4c1.2,1.7,1,9.3-0.3,10.4C654.9,146.4,654.5,143,655.4,139.4z"/>
	<path id="XMLID_648_" class="st0" d="M641.8,333.2c1.1,1.8,3.2,2.4,3.1,4.6c0,0.2,0.6,0.4,0.9,0.7c0.3,0.3,0.8,0.7,0.9,1.1
		c0,0.4-0.4,0.8-0.6,1.2c-0.4-0.2-1.1-0.4-1.3-0.7c-1.1-1.9-2.1-3.8-3-5.7C641.7,334.2,641.8,333.9,641.8,333.2z"/>
	<path id="XMLID_647_" class="st0" d="M647.4,399.6c0.3,2.6,0.5,5.2,0.8,7.9c-0.7,0.3-1.3,0.1-1.6-0.9c-0.7-2.4-0.1-4.7,0.3-7
		C647.1,399.6,647.3,399.6,647.4,399.6z"/>
	<path id="XMLID_646_" class="st0" d="M647.7,320.3c-0.5-2.6-0.9-5.2-1.3-7.9c0-0.2,0.3-0.6,0.5-0.8c0.2,0.2,0.6,0.4,0.7,0.6
		c0.2,2.7,0.4,5.4,0.6,8.1C648,320.3,647.8,320.3,647.7,320.3z"/>
	<path id="XMLID_645_" class="st0" d="M474.6,99.2c0.5-1.2,4-1.6,9.1-0.8C480.7,98.7,477.7,99,474.6,99.2z"/>
	<path id="XMLID_644_" class="st0" d="M648.7,430.9c0.3-1.7,0.6-3.3,1-5c0.2,0,0.5,0,0.7,0c0,0.8,0.1,1.6,0,2.3
		c-0.1,0.7-0.2,1.5-0.5,2.2c-0.1,0.3-0.6,0.5-0.9,0.8C648.9,431.1,648.8,431,648.7,430.9z"/>
	<path id="XMLID_643_" class="st0" d="M654.8,205.6c0,0.3,0.1,0.5,0.1,0.8c-0.1,1.7-0.2,3.4-0.7,5.1c0-2,0-3.9,0-5.9
		C654.4,205.6,654.6,205.6,654.8,205.6z"/>
	<path id="XMLID_642_" class="st0" d="M653.9,132.8c-0.3-1.3-0.5-2.6-0.8-3.9c0.2,0,0.4-0.1,0.7-0.1c-0.2,1.4,1.4,2.5,0.7,4
		C654.3,132.7,654.1,132.7,653.9,132.8z"/>
	<path id="XMLID_641_" class="st0" d="M653.8,153.8c-1.2-0.4-2.3-0.7-1.5-2.3C653.3,151.9,654.7,152,653.8,153.8z"/>
	<path id="XMLID_640_" class="st0" d="M672.2,318c-1.1,0.8-2.2,1.6-3.3,2.5c0.3-1.7,1.7-2.2,2.8-2.9
		C671.9,317.7,672.1,317.9,672.2,318z"/>
	<path id="XMLID_639_" class="st0" d="M652.6,366.8c-1-0.6-1.1-3.7,0-4.4C652.6,363.9,652.6,365.3,652.6,366.8z"/>
	<path id="XMLID_638_" class="st0" d="M648.3,237.2c0.1-1.2,0.2-2.3,0.3-3.5c0.2,0,0.5,0,0.7,0c-0.1,1.2-0.1,2.3-0.2,3.5
		C648.8,237.2,648.6,237.2,648.3,237.2z"/>
	<path id="XMLID_637_" class="st0" d="M604.4,95.1c1,0,2.1,0,3.1,0c0,0.2,0,0.3,0,0.5c-1,0.5-2.1,0.3-3.1-0.1
		C604.4,95.3,604.4,95.2,604.4,95.1z"/>
	<path id="XMLID_636_" class="st0" d="M307.1,206.8c-1.7,0.3-3.4,0.6-5,0.9c-0.1-2.4-2.9-0.7-3.8-2.5c3,0.4,5.9,0.3,8.8,1.2
		C307.1,206.4,307.1,206.6,307.1,206.8z"/>
	<path id="XMLID_635_" class="st0" d="M304.4,198c-2.2,0.2-4.3,0.4-6.5,0.6c0-0.3,0-0.5-0.1-0.8c2.2-0.2,4.3-0.4,6.5-0.5
		C304.4,197.5,304.4,197.7,304.4,198z"/>
	<path id="XMLID_634_" class="st0" d="M291,173.8c0.6-0.4,1.1-0.8,1.7-1.2c0.2,0.4,0.5,0.8,0.7,1.1c-0.6,0.3-1.3,0.6-1.9,0.9
		C291.3,174.4,291.2,174.1,291,173.8z"/>
	<path id="XMLID_633_" class="st0" d="M290.7,217c0,1,0.1,1.7,0,2.4c0,0.2-0.4,0.5-0.6,0.5c-0.2,0-0.5-0.4-0.6-0.6
		C289.4,218.5,289.4,217.6,290.7,217z"/>
	<path id="XMLID_632_" class="st0" d="M520.3,205.9c2.2-1.2,6.8-1.3,8.5,0C525.8,205.9,523.2,205.9,520.3,205.9z"/>
	<path id="XMLID_631_" class="st0" d="M469.3,199.6c0.6,0,1.1,0.1,1.8,0.1c-0.1-0.6-0.2-1.2-0.3-2c1.2,0.8,2.2,1.5,3.1,2.2
		c0,0.2,0,0.3-0.1,0.5c-1.6-0.1-3.1-0.2-4.7-0.2C469.3,200,469.3,199.8,469.3,199.6z"/>
	<path id="XMLID_630_" class="st0" d="M496.6,191.7c1.3,0.2,2.7,0.4,3.9,0.7c0.3,0.1,0.4,0.7,0.6,1.1c-0.4,0.1-0.9,0.4-1.2,0.2
		c-1.2-0.4-2.4-1-3.6-1.5C496.5,192.2,496.6,192,496.6,191.7z"/>
	<path id="XMLID_629_" class="st0" d="M512.2,230.7c-0.8-1.9-0.5-3.7,0-5.6c0.2,0,0.4,0,0.6,0c0,1.8,0,3.7,0,5.5
		C512.5,230.7,512.3,230.7,512.2,230.7z"/>
	<path id="XMLID_628_" class="st0" d="M465.9,197.8c0.1-0.1,0.3-0.2,0.4-0.2c0.7,0.1,1.5,0.3,2.2,0.4c-0.1,0.2-0.1,0.5-0.2,0.5
		c-0.8,0-1.6-0.1-2.4-0.1C465.9,198.2,465.9,198,465.9,197.8z"/>
	<path id="XMLID_627_" class="st0" d="M494.9,192.5c-0.8-0.1-1.6-0.2-2.5-0.3C493,190.8,493.4,190.8,494.9,192.5z"/>
	<path id="XMLID_623_" class="st0" d="M362.3,157.3c0.2,0,0.5,0,0.7,0c0-1.5,0-3,0-4.5c-0.1,0-0.3,0-0.4,0
		C362.6,154.3,362.4,155.8,362.3,157.3z"/>
	<path id="XMLID_622_" class="st0" d="M350.2,132.7c0.2,3,0.3,6,0.5,9c-0.2,0-0.4,0-0.6,0c-0.7-3-1.1-6-0.6-9
		C349.7,132.7,349.9,132.7,350.2,132.7z"/>
	<path id="XMLID_621_" class="st0" d="M369.6,132.2c-0.6-2.4-2-4.1-4.7-4.5c2.3-1,2.3-0.8,4.3,0.5
		C371,129.5,369.6,130.8,369.6,132.2z"/>
	<path id="XMLID_620_" class="st0" d="M359.3,147.5c-1.9,0.4-3.8,0.7-5.8,1.1c0-0.2,0-0.8,0.2-0.9c1.7-1,3.6-1.1,5.5-0.7
		C359.2,147.1,359.3,147.3,359.3,147.5z"/>
	<path id="XMLID_619_" class="st0" d="M365.1,163c-0.7,1.5-1.7,2.5-4.1,1.9c1.5-0.9,2.7-1.6,3.9-2.3
		C364.9,162.7,365,162.9,365.1,163z"/>
	<path id="XMLID_618_" class="st0" d="M367.6,151c0.3,1,0.5,2,0.8,3c-0.3,0.1-0.5,0.1-0.8,0.2c-0.2-1-0.4-2-0.6-3
		C367.2,151.1,367.4,151,367.6,151z"/>
	<path id="XMLID_617_" class="st0" d="M377.7,130.3c0.1,1.1,0.3,2.2,0.4,3.2c-0.2,0-0.5,0.1-0.7,0.1c-0.1-1.1-0.2-2.2-0.4-3.3
		C377.2,130.4,377.5,130.4,377.7,130.3z"/>
	<path id="XMLID_615_" class="st0" d="M436.2,267.8c0.4-2.4,0.8-4.8,1.2-7.4C438.5,261.6,437.9,266.2,436.2,267.8z"/>
	<path id="XMLID_614_" class="st0" d="M452.2,268.6c-1.5-0.9-1.4-1.9,0-3.3C452.2,266.5,452.2,267.5,452.2,268.6
		C452.2,268.6,452.2,268.6,452.2,268.6z"/>
	<path id="XMLID_612_" class="st0" d="M420.4,230.8c-1.1-1.4-2.2-2.8-3.4-4.2c0.1-0.1,0.1-0.1,0.2-0.2c1,1.5,2,3,3,4.5
		C420.3,230.9,420.3,230.8,420.4,230.8z"/>
	<path id="XMLID_611_" class="st0" d="M411.1,211.8c-0.6-1.2-0.6-1.2,1.5-2.4c0.1,0.1,0.2,0.2,0.3,0.3
		C412.4,210.4,411.8,211.1,411.1,211.8z"/>
	<path id="XMLID_610_" class="st0" d="M397.9,221.4c0-0.9,0-1.8,0-2.7c0.1,0,0.3,0,0.4,0c0,0.9,0,1.9,0,2.8
		C398.2,221.4,398.1,221.4,397.9,221.4z"/>
	<path id="XMLID_609_" class="st0" d="M355.1,253.2c-0.2,0.5-0.2,1.2-0.5,1.4c-0.5,0.2-1.4,0.2-1.7-0.1c-1.3-1.5-3-1.2-4.6-1.4
		c-1.8-0.2-2-0.4-1.2-1.9c0.5-1,1.2-1.9,1.9-2.8c1.2-1.5,3.4-1.3,4.6,0.2C354.5,250,355,251.5,355.1,253.2z"/>
	<path id="XMLID_608_" class="st0" d="M358.5,267.2c3.9,3.3,5.6,7.9,6.8,12.8c-0.7,0.2-1.3,0.3-1.9,0.5c-0.4-3.4-2.3-6.2-3.9-9.2
		c-0.6-1.2-1.1-2.5-1.6-3.7C358.1,267.4,358.3,267.3,358.5,267.2z"/>
	<path id="XMLID_607_" class="st0" d="M346.3,254.8c3.9-1.4,6.2-0.9,8.2,1.9c-1.3,0.4-3,1.4-3.5,0.9
		C349.5,256.4,346.3,258.2,346.3,254.8z"/>
	<path id="XMLID_606_" class="st0" d="M373.2,252.4c-2.4,2.4-4.2,2.6-5.5,0.6C369.5,252.2,371.1,251.2,373.2,252.4z"/>
	<path id="XMLID_605_" class="st0" d="M350.4,278.9c0.2,0.6,0.5,1.1,0.6,1.7c0.3,1.8-0.1,3.7,1,5.3c0.3,0.4-0.1,1.2-0.2,1.8
		c-0.2,0-0.4,0-0.6,0c-0.5-2.9-1-5.7-1.5-8.6C349.9,279.1,350.2,279,350.4,278.9z"/>
	<path id="XMLID_603_" class="st0" d="M485.5,173c0.4-0.1,0.9-0.3,1.3-0.4c0.5-0.2,1.2-0.2,1.5-0.6c1.5-1.7,3-3.3,4.3-5.1
		c1.2-1.7,2.3-3.6,3.3-5.4c0.7-1.4,1.2-2.9,1.8-4.3c0.2-0.5,0.4-0.9,0.8-1.3c1.1,3.6,0.1,6.8-1.9,9.6
		C492.4,171.4,488.6,174,485.5,173z"/>
	<path id="XMLID_602_" class="st0" d="M465.1,139.9c-1.3,2.9-2.6,5.9-4,8.9C460.1,146.7,462.6,140.6,465.1,139.9z"/>
	<path id="XMLID_601_" class="st0" d="M487.7,140.2c-1.3-0.9-2.6-1.7-3.8-2.7c-0.2-0.2-0.2-0.8-0.1-1.1c0.2-0.5,0.6-1,1.2-1.8
		c1.3,2.1,2.3,3.6,3.2,5.2C488.1,139.9,487.9,140.1,487.7,140.2z"/>
	<path id="XMLID_600_" class="st0" d="M464,165c-0.4-0.5-0.8-0.9-1-1.3c-0.3-0.8-0.3-1.6-0.5-2.4c0.2,0,0.7-0.2,0.7-0.1
		c0.5,1,1,2,1.4,3C464.7,164.3,464.3,164.6,464,165z"/>
	<path id="XMLID_599_" class="st0" d="M513.8,138.1c-1.3-2.4,1.2-1.3,1.3-2.5c0.2,0.1,0.3,0.3,0.5,0.4
		C515,136.6,514.4,137.4,513.8,138.1z"/>
	<path id="XMLID_598_" class="st0" d="M556.9,140.6c-0.1-0.5-0.3-1.1-0.2-1.5c0.1-0.5,0.5-0.8,0.9-1.2c0-0.1,0.4,0.1,0.5,0.2
		c-0.2,0.4-0.4,0.9-0.6,1.3C557.3,139.8,557,140.2,556.9,140.6C556.8,140.7,556.9,140.6,556.9,140.6z"/>
	<path id="XMLID_597_" class="st0" d="M361.6,193.4c1.2-0.1,2.7-1,3.3,0.5c0.5,1.2-0.6,1.9-1.7,2.1
		C360.4,196.6,362.6,194.1,361.6,193.4z"/>
	<path id="XMLID_596_" class="st0" d="M377.2,213.1c-1,0.9-4.3,0.9-5.6,0C373.4,213.3,375.1,211.1,377.2,213.1z"/>
	<path id="XMLID_595_" class="st0" d="M376.3,236.9c-1.5-0.9-2.9-1.8-4.3-2.6C373.6,233.8,375,234.5,376.3,236.9z"/>
	<path id="XMLID_594_" class="st0" d="M364.8,234.1c1.2,0.4,2.7-0.1,3.8,0.9c-0.1,0.2-0.1,0.5-0.2,0.7c-1.2-0.4-2.5-0.7-3.7-1.1
		C364.7,234.5,364.8,234.3,364.8,234.1z"/>
	<path id="XMLID_593_" class="st0" d="M361.1,196.9c-0.5,0.1-1.1,0.5-1.5,0.3c-0.3-0.1-0.4-0.8-0.7-1.7c1,0.4,1.6,0.6,2.1,0.9
		C361.1,196.5,361.1,196.7,361.1,196.9z"/>
	<path id="XMLID_591_" class="st0" d="M621.3,188.4c0.6-1.5,2.5-2.5,3.5-2c0.3,0.1,0.6,0.6,0.6,0.8c-0.1,0.4-0.4,1.1-0.7,1.1
		C623.6,188.5,622.5,188.4,621.3,188.4z"/>
	<path id="XMLID_586_" class="st0" d="M477.3,284.5c1.3-2.9,2.7-5.8,4.2-9C481.3,279.2,480.1,282.2,477.3,284.5z"/>
	<path id="XMLID_585_" class="st0" d="M498.4,289.3c-1.9-0.3-2.9,1.3-4.3,2c-0.5-1.3,0.7-1.7,1.4-2.2c1.3-1.1,2.7-2.1,4.1-3.1
		c1.2-1,1.7-2.2,1.2-3.7c-0.1-0.3,0-0.6,0.4-1c0.2,0.4,0.5,0.7,0.5,1.2c0.4,2.2-0.3,4.1-2.1,5.5
		C499.1,288.2,498.8,288.8,498.4,289.3z"/>
	<path id="XMLID_584_" class="st0" d="M502.2,277.2c-0.5,0.2-1,0.4-1.6,0.6c-0.8-2.5-2.4-4.3-5.1-5.4c2.1-1,3.5-0.6,4.3,0.7
		c0.4,0.7,0.7,1.4,1,2C501.3,275.9,501.7,276.5,502.2,277.2z"/>
	<path id="XMLID_583_" class="st0" d="M488.4,288.2c1.5-0.8,2.6-1.5,3.9-2.2c0.1,0.4,0.3,0.8,0.5,1.6
		C491.2,287.5,490,288.8,488.4,288.2z"/>
	<path id="XMLID_582_" class="st0" d="M362.3,157.3c0.1-1.5,0.2-3,0.3-4.5c0.1,0,0.3,0,0.4,0c0,1.5,0,3,0,4.5
		C362.8,157.3,362.6,157.3,362.3,157.3z"/>
	<path id="XMLID_581_" class="st0" d="M421.2,267.5c-2-1.5-1.6-4-2.8-5.9c0.2-0.1,0.4-0.2,0.7-0.3c0.9,2,1.9,3.9,2.8,5.9
		C421.7,267.3,421.5,267.4,421.2,267.5z"/>
</g>
</svg>
