<?xml version="1.0" encoding="utf-8"?>
<!-- Generator: Adobe Illustrator 19.0.0, SVG Export Plug-In . SVG Version: 6.00 Build 0)  -->
<svg version="1.1" id="Layer_1" xmlns="http://www.w3.org/2000/svg" xmlns:xlink="http://www.w3.org/1999/xlink" x="0px" y="0px"
	 viewBox="174 117 960 560" style="enable-background:new 174 117 960 560;" xml:space="preserve">
<style type="text/css">
	.st0{fill:#ED1C24;}
</style>
<g id="XMLID_4_">
	<path id="XMLID_795_" class="st0" d="M360.5,423.9c2.1,0.8,2.1,1.8,0.2,2.8c-4.7,2.7-9.9,4.8-15.8,6.5c-1.7,0.5-3.1,1.5-4.5,2.3
		c-2.6,1.7-5,3.6-7.5,5.4s-4.9,3.7-7.1,5.5c-0.3,0.2-0.7,0.3-1.2,0.6c-0.7-0.4-1.2-0.8-1.7-1.3c0,2.5-2.6,3.9-5.2,5.4
		c-0.2,0.1-0.3,0.4-0.3,0.6c0,3.7,0.2,7.4,0,11.1c0,2.5-0.3,5-0.3,7.5c0,0.2-0.2,0.4-0.2,0.6c1.6,7-0.7,13.9,0.2,21
		c0.2,1.9-0.5,3.8-0.7,5.7c0,0.5,0.7,1.1,1,1.7c0.2,0.3,0.5,0.6,0.5,0.8c-0.3,3.6-0.3,7.3-1.4,10.7c-1.2,4.4-1.4,8.9-1.6,13.3
		c-0.3,4.5-0.5,9.1-0.2,13.5c0.2,1.3,0.7,2.4,1,3.7c0.2,0.3,0.3,0.6,0.3,0.8c-1.6,3.2,1.7,6.1,1,9.1c-0.9,3.9,3,7.3,3,11.1
		c0,0.5,0,1.1,0.2,1.5c0.2,0.7,0.2,1.5,0.2,2.2c0,0.8,0.2,1.6,0.2,2.4c0.2,0.9,1.6,2.1-0.7,3c-0.2,0.1-0.3,0.8,0,0.9
		c1.7,0.9,1,2.1,1.2,3.3c0.2,0.7,1.2,1.4,1.7,2.1c0.7,0.8,1.6,1.7,2.1,2.6c0.5,0.9,0.7,2,1,3c0,0.2,0.3,0.3,0.2,0.4
		c-2.8,3.5,0.7,6.7,0.5,10.1c0,3.1,0,6.2,0,9.8c-1.6-0.5-2.1-0.7-2.8-0.9c2.3-1.9,2.1-3.5,0-5.4c1.6-1.4,0.5-8-2.3-9.1
		c0.5-0.4,0.9-0.7,1.6-1.3c-0.7-0.3-1.4-0.6-2.1-0.9c0.5-1.2,1-2.3,1.6-3.7c-3.3-0.3-2.6-2-2.8-3.5c-0.3-3.1-1.2-6-1.9-9
		c-0.5-2.3-1.2-4.6-1.9-7c-0.9-3-3-5.8-3.8-8.6c-0.7-2.2-3.6-3.7-3.5-5.9c0-0.1,0.2-0.2,0.3-0.5c0.7,0.4,1.4,0.7,2.1,1.1
		c0.2,0,0.3-0.1,0.5-0.1c-0.9-1.5-1.7-3.1-2.4-4.5c-2.3-5.1-4.5-10.1-6.8-15.3c-0.5-1.2-0.9-2.3,0.9-3.4c0.5-0.3,0.7-0.9,0.7-1.5
		c0.3-5.1,0.9-10,1.2-15.2c-2.3-0.8-2.3-1.2-0.3-2.7c0.9-0.6,0.5-1.8,0.7-2.6c-0.2,0-0.5-0.1-0.7-0.1c-0.2,0.3-0.5,0.6-0.7,1.2
		c-0.2-0.2-0.5-0.3-0.5-0.4c0.3-1.4,1-2.7,0.9-4c-0.2-3.3-0.7-6.6-0.9-9.9c-0.2-2.6,0-5.3-0.2-7.9c0-0.5-0.2-1.5-0.7-1.6
		c-2.6-0.5-2.1-1.7-1.9-2.8c0.7-7.2,1.7-14.4,1.9-21.6c0-1.2-2.6-2.6-4.3-3.6c-3.1-1.6-6.6-3-10.1-4.3c-1.9-0.7-4-1.3-5.6-2.1
		c-5.9-2.8-9.2-6.8-13.7-10.4c-1.7-1.4-4.3-2.3-5.9-3.7c-3.1-2.5-5.9-5.3-8.9-7.9c-1.2-1.1-3-2-4.2-3.1c-3.3-2.7-6.3-5.6-9.6-8.3
		c-1.4-1.1-3.1-2-4.7-3c-0.5-0.3-1.2-0.6-1.6-1.1c-0.5-0.7-0.9-1.6-1.2-2.3c0.9,0.4,1.9,0.8,3,1.3c2.4,0.9,4.7,2,7.1,3
		c0.2-0.1,0.3-0.2,0.5-0.4c-0.3-0.4-0.9-0.8-0.7-1.2c0.3-0.5,0.9-1.2,1.6-1.3c2.6-0.3,4.9,0,6.8,1.4c2.6,1.9,5.2,3.7,8,5.5
		c0.7,0.4,1.7,0.6,2.4,0.9c0.3-0.4,1-0.9,1-1.3c-0.2-0.7-0.9-1.9-1.6-1.9c-2.1-0.1-2.1-0.9-2.4-1.8c-0.3-0.9-1-2-1.2-3
		c0-0.5,1-1.2,1.6-1.7c0.5,0.4,1.2,0.8,1.6,1.3c1.9,2.3,3.3,4.8,5.6,7c3.8,3.8,8.2,7.5,12.5,11c7,5.6,14.3,11.1,21.4,16.6
		c0.9,0.6,1.7,1.4,2.6,2.2c0.3-0.4,0.7-0.5,0.7-0.6c0.5-3.8,1.6-7.5,1.6-11.3c0-2.2-1.2-4.3-1.7-6.5c-0.7-3.1-1.7-6.2-1.9-9.4
		c-0.5-5.1-0.5-10-0.9-15.1c-0.2-3.7-0.5-7.4-0.5-11.1c-0.2-9.9-0.3-19.8-0.5-29.7c-0.2-5.8-0.5-11.6-0.7-17.4c0-1.2,0.9-2.3,1-3.5
		c0.2-1.2,0-2.2-0.2-3.4c-0.2-0.8-0.9-1.7-0.7-2.5c1-3.6-0.5-7.1-1.7-10.5c-0.3-1.2-0.5-2.3-0.5-3.4c0-1.3,1.4-1.5,4.3-0.4
		c-0.5-2.5-0.7-4.8-1.4-7.1c-0.2-0.5-1.9-0.8-2.6-1.4c-0.5-0.3-0.9-0.7-0.9-1.1c0-0.2,1-0.6,1.4-0.6c0.7,0,1.4,0.3,1.7,0.7
		c0.5,0.4,0.9,1.1,1.2,1.6c0.3,0,0.5,0,0.9-0.1c0.2-0.5,0.3-1.1,0.3-1.6c0-5,0-9.8-0.2-14.8c0-1.6-1.2-3.2-1.4-4.7
		c-0.2-3.8,1-7.9-0.5-11.4c-1.6-3.4,0-7-3-10.1c3.1-1.2,1.9-3.2,2.3-4.7c0.5-4.5,0.9-9.1,1-13.6c0-2-0.9-4-0.9-6.1
		c0-1.8,0.7-3.6,0.5-5.3c-0.2-1.8-1-3.7-1.7-5.5c-0.2-0.6-0.5-1.2-0.5-1.8c-0.3-5.6-0.5-11.1-0.9-16.6c-0.2-3.1-0.2-6-0.2-9.1
		c0-0.6,0.7-1.3,1.2-1.9c-0.2-0.5-0.9-1.3-0.7-1.8c0.5-1.6-0.7-1.9-3-1.8c-3.1,0.1-6.3,0.2-9.4,0.1c-0.7,0-2.1-0.6-2.1-0.9
		c-0.2-0.4,0.7-1.3,1.4-1.5c2.1-0.4,4.2-0.6,6.3-0.9c0.9-0.1,2.1-0.5,2.1-0.8c0-0.5-0.7-1.1-1.2-1.6c-0.5-0.5-1.2-0.9-1.9-1.4
		c1-0.1,2.3-0.3,3.1-0.2c2.3,0.4,4,0.1,5.9-0.6c3.1-1.3,6.8-1.9,10.6-1.8c4.2,0.2,8.2-1.4,12.5,0.3c-0.2-0.8-0.3-1.4-0.3-1.6
		c24.2,0.2,48.3,0.4,72.3,0.6c0-0.2,0-0.4,0-0.5c-0.9-0.1-1.9,0-2.3-0.3c-0.9-0.5-1.2-1.3-1.9-2c0.9-0.2,1.7-0.7,2.6-0.7
		c1.6-0.1,3.1,0.1,4.9,0.2c1,0,2.1,0.1,3.6,0.1c-0.5-0.5-0.7-0.7-0.9-0.9c-1.2-1.4-0.9-2,1.7-2c6.8,0,13.9-0.6,20.3,0.4
		c17,2.8,34.4,2.1,51.6,3c5.4,0.2,10.8,0.4,16.2,0.4c4.7,0,9.6-0.2,14.3-0.3c13.2-0.3,26.6-0.7,39.8-1.1c0.9,0,1.7,0,2.6,0.1
		c0.7,0.2,1.4,0.5,2.1,0.8c-0.7,0.4-1.4,1.1-2.3,1.2c-2.8,0.1-5.6,0.3-8.2-0.1c-9-1.2-18.2-0.6-27.3-0.5c-0.3,0-0.7,0.2-1.2,0.7
		c0.7,0.1,1.4,0.2,2.1,0.3c10.4,0.4,21,0.8,31.5,1.4c8.3,0.4,16.5,0.8,24.9,1.5c4.5,0.3,9,0.9,13.6,1.3c3,0.2,5.7,0.2,8.7,0.4
		c2.6,0.2,5.4,0.7,8,0.8c3.3,0.1,6.6-0.1,9.9-0.1c6.3-0.1,12.5-0.2,18.8-0.2c3.6,0,6.1,2.7,4.5,4.7c-0.2,0.3-1,0.5-1.7,0.6
		c-1,0.2-2.3,0.3-3.3,0.4c-0.7,1.4,3.6,1.6,1.6,3.2c-0.2,0-0.3,0-0.3,0c-3.5-2.5-8.2-2.7-13.2-2.5c-9.6,0.3-19.3,0.6-28.9,0.9
		c-8.5,0.2-17.2,0.6-25.7,0.6c-6.4,0-13-0.3-19.5-0.5c-9.7-0.2-19.6-0.5-29.4-0.7c-11.5-0.3-22.8-0.6-34.2-0.7
		c-7.3-0.1-14.6,0.2-21.9,0c-6.1-0.1-12-0.8-17.9-1.1c-3.1-0.1-6.3,0.4-9.6,0.5c-6.4,0.3-12.9,0.8-19.3,0.9
		c-4.7,0.1-9.4-0.5-14.1-0.6c-5-0.2-10.3-0.2-15.3-0.3c-3.3,0-6.6,0.2-9.9,0.2c-1,0-1.9-0.2-3.1-0.3c0,0.3-0.2,0.7-0.2,0.9
		c-5.2-0.1-10.1-0.2-15.1-0.1c-3.1,0-6.4,0.3-9.6,0.5c-1.2,0.1-2.4,0.3-3.6,0.2c-8.2-0.8-16.3,0.3-24.5-0.2c-4.2-0.3-4.5,0-4.3,2.6
		c0.2,1.9,0.7,3.9,1,5.8c0.2,0.6,0.3,1.3,0.3,1.9c0.2,5.3,0.2,10.5,0.5,15.7c0.2,3.5,1,7,1.2,10.4c0.2,3.3-0.2,6.6-0.3,10
		c0,0.5-0.5,1.1-0.9,1.6c-0.2,0-0.5-0.1-0.7-0.1c0-0.6,0-1.3,0-1.9c-0.3,0-0.5-0.1-0.9-0.1c-0.3,0.5-0.7,1.1-0.7,1.7
		c0,1.4-0.3,2.8,0.2,4.2c1,2.7,0.2,5.4-0.5,8c-0.5,2.2,0.9,4.6,1,7c0.2,2.1-0.3,4.2,0.2,6.3c1.2,5.9-0.5,11.9,2.3,17.9
		c1,2.3-0.5,5.1-0.9,7.6c0,0.6-0.3,1.6,0.2,2c1.9,1.8,2.3,3.7,2.1,5.8c-0.2,1.4,0.2,2.8,0.3,4.3c0.3,3.2,0.9,6.4,1,9.6
		c0,1.5-0.3,3-0.7,4.4c-0.5,3-0.9,5.8-1.6,8.7c-1.6,5.3,1.4,10.5,1.2,15.7c-0.2,6.4-1,12.9-0.7,19.2c0.3,7.4-0.5,14.8,1.7,22.1
		c0.7,2,0.2,4.1,0,6.1c-0.2,3.2-0.5,6.4-0.7,9.7c-0.5-0.1-1-0.2-2.1-0.4c0.3,0.6,0.5,1.2,0.9,1.3c2.6,0.8,1.9,2.2,2.1,3.6
		c0.2,5.4,0.9,10.6,0.9,16c0,4.2-0.3,8.4-0.9,12.6c-0.2,1.5-1.2,3-1.9,4.4c0.3,0.1,0.7,0.2,1,0.3c0.9-0.4,2.3-0.7,2.6-1.4
		c4-5.4,11.6-8.7,17.9-12.9c6.8-4.6,14.9-8.3,20.9-13.5c2.4-2.1,6.3-3.7,9.2-5.5c2.1-1.3,4-2.7,6.1-4c0.9-0.5,2.3-0.8,3.3-0.8
		c0.9,0,2.4,0.4,2.6,0.7c0.2,0.7-0.2,1.6-0.7,2.3c-0.7,0.8-2.1,1.5-3.1,2.2c0.2,0.1,0.3,0.3,0.5,0.4c1.7-0.8,3.5-1.7,5.2-2.4
		c0.9-0.4,2.1-1.1,3-0.9c2.6,0.4,4.2-0.2,6.1-1.3c2.8-1.5,6.3-2.5,9.4-3.8c0.5-0.2,1-0.4,1.6-0.3c0.5,0,1.4,0.1,1.7,0.4
		c0.2,0.2,0,0.7-0.5,0.9c-3.1,1.7-6.3,3.3-9.4,4.8c-1.4,0.7-2.4,1.3-1.2,2.1c-2.4,0.9-4.7,1.8-7.1,2.6c-0.2-0.1-0.3-0.3-0.7-0.4
		c1.2-0.7,2.6-1.5,3.8-2.3c-0.2-0.1-0.2-0.2-0.3-0.3c-1.7,0.5-3.8,0.8-5.2,1.7c-1.7,1.2-5,1.6-5.4,3.5c0,0.1-0.3,0.1-0.5,0.2
		c-2.6,0.7-2.6,0.7-2.6,2.2C365.5,419.3,363.8,422.2,360.5,423.9c-1,0.7-2.1,1.5-3.1,2.2c-3,0.6-3.5,0.9-3.5,3
		c1.4-1.3,2.4-2.1,3.5-3C359.9,426.3,360.6,425.8,360.5,423.9z M313.4,452.8c-0.3,0.1-0.7,0.1-1,0.2c0.3,3.8,0.7,7.5,1.2,11.3
		c0,0.4,0.7,0.8,1,1.3c0.3-0.4,1.2-0.8,1-1.3c-0.3-3.5-1-6.8-1.6-10.3C314,453.6,313.5,453.3,313.4,452.8z M310,539.7
		c0.2,0,0.5-0.1,0.7-0.1c-0.3-0.8-0.7-1.8-1-2.6c-0.5-1.6-1.2-3.1-1.7-4.6c-0.5-1.2-0.7-2.3-1.2-3.5c-0.2-0.3-0.9-0.5-1.4-0.8
		c-0.3,0.4-1,0.8-0.9,1.2c0.3,0.9,1,1.9,1.6,3c1,2.1,2.1,4.3,3.1,6.4C309.2,538.9,309.7,539.2,310,539.7z M307.4,333.8
		c0.3,0,0.7,0,1,0c1.9-2.2,2.1-8,0-9C308.3,327.9,307.8,330.8,307.4,333.8z M306.2,307.6c0.5,1.7,1,3.3,1.6,5
		C310.2,310.3,309.7,308.7,306.2,307.6z M330.2,192.3c0,0.2,0,0.4,0,0.5c2.6,0,5.2,0,7.8,0c0-0.2,0-0.4,0-0.5
		C335.4,192.3,332.8,192.3,330.2,192.3z M316,474.8c-0.3,0-0.9,0-1.2,0c-0.2,1.8-0.3,3.7-0.5,5.5c0.5,0,0.9,0,1.4,0
		C315.6,478.4,315.8,476.7,316,474.8z M624.6,198.5c1.2-0.3,2.1-0.5,3-0.7c0.9-0.1,1.7-0.2,2.6-0.3
		C624.3,196.6,624.3,196.6,624.6,198.5z M316.5,471.7c-0.5-1.3-1-2.3-1.4-3.4c-0.3,0.1-0.7,0.1-1,0.2
		C314.4,469.6,312.7,471,316.5,471.7z M309.7,239.8c-0.3,0-0.9,0-1.2,0c-0.2,1.3-0.2,2.5-0.3,3.9c0.3,0,0.9,0,1.2,0
		C309.5,242.3,309.7,241,309.7,239.8z M315.6,193.5c-1.6-0.1-3.3-2.3-4.9,0C312.5,193.5,314,193.5,315.6,193.5z M314.9,503.8
		c-0.2,0-0.3,0-0.5,0c0,1.4,0,2.6,0,4c0.2,0,0.3,0,0.5,0C314.9,506.5,314.9,505.2,314.9,503.8z"/>
	<path id="XMLID_779_" class="st0" d="M1005.1,569.3c-1.2-2.5-2.4-5.2-3.5-7.7c-0.3,0.1-0.9,0.1-1.2,0.2c0.3,3.6,0.7,7.1,1.2,10.7
		c-0.9,0-1.7,0-2.6,0.1c0.3,0.8-1.2,2.1,2.1,2.3c-3.5,2.3-2.4,5.1-2.3,7.7c0.2,1.3,0.9,2.3,0.2,3.7c-0.2,0.3,1.4,1.1,2.1,1.6
		c-3.6,1.2-3,3.1-1.7,5.1c0.2,0.3-0.7,0.9-1,1.4c-0.3-0.1-0.5-0.1-0.9-0.2c-0.2-1.3-0.2-2.4-0.3-3.7c-0.3-4.8-0.7-9.7-1-14.5
		c-0.2-1.5-0.3-3.1-0.5-4.5c0-0.3,0.2-0.7,0.3-1.2c0.2-0.4,0.7-0.7,0.7-1.1c-0.5-1.8-1-3.6-1.7-5.5c2.6-1.3,2.8-10-0.2-12.3
		c0.7-0.1,1.4-0.1,2.3-0.2c-0.9-1.5-1.6-3-2.4-4.5c2.4-2.4,2.4-2.4-0.9-2.8c-0.3-3.3-0.7-6.6-0.9-9.9c-0.2-5-0.3-10-0.3-15
		c0-3.1,0.7-6,1-9.1c0-0.3,0.2-0.7,0.5-0.9c2.8-2.2,2.8-4.7,2.6-7.4c-0.2-11.2-0.3-22.3-0.5-33.5c0-2.8-0.9-5.6-1-8.4
		c0-1.2,0.9-2.3,1.2-3.2c-2.3-0.6-5.2-1.1-7.1-2.2c-1.9-1.1-3-2.7-4.2-4.2c-3.6-4.5-6.8-9.2-10.6-13.6c-1.6-1.8-4.2-3.3-6.1-5
		c-2.6-2.2-5.2-4.4-8-6.6c-2.3-1.8-4.7-3.4-7-5.2c-2.3-1.8-4.5-3.7-6.8-5.5c0,0,0-0.1-0.2-0.1c-5-1.9-4.7-5.5-7-8.2
		c-0.5-0.5-1.2-1.1-1.7-1.6c-0.5-0.6-1.2-1.4-1.2-2c0.2-0.6,1-1.4,1.9-1.7c0.3-0.1,1.9,0.4,2.4,0.8c2.8,2.1,5.2,4.3,8,6.3
		c2.4,1.8,5.2,3.4,7.8,5.1c3.1,2.1,6.3,4.2,9.2,6.4c4.5,3.4,8.9,6.8,13.4,10.2c3.1,2.4,6.6,4.6,9.7,7.1c0.5,0.4,0.3,1.1,0.5,1.6
		c0,0.1-0.2,0.2,0,0.3c0.9,2.2,3.3,3.8,5.4,5.6c0.3,0,0.7-0.1,1-0.1c0.2-1.4,0.3-2.7,0.5-4.1c0.2-1.9,1.4-3.7-1.6-5.7
		c-2.4-1.7-3.5-4.2-1.9-6.6c0.3-0.5,0.2-1.2,0.2-1.7c0.2-3.1,0.3-6,0.5-9.1c0.2-3.1,0-6-1.2-9.1c-1-2.1-1.4-4.3-1.4-6.5
		c-0.2-4.5-0.2-9.1,0-13.6c0.2-3.7,0.7-7.3,1.2-11c0-0.4,0.5-0.8,1-1.2c1.7-1.4,1.9-2.5,0.5-4.4c-0.3,0.3-0.7,0.6-1,0.9
		c-0.2-0.1-0.3-0.2-0.3-0.2c0.2-2.2,0.5-4.4,0.7-6.6c0.2-1.5,0.5-3,3-3.9c0.7-0.3,0.7-1.2,0.7-1.7c-0.3-5-0.9-9.8-0.9-14.8
		c0-2.6,0.9-5.3,0.7-7.9c-0.2-3.4-1-6.7-1.4-10.2c-0.5-4-0.9-8-1-11.9c0-1.4,0.2-2.8,0.5-4.1c0.3-0.9,1.9-2.1,1.6-2.8
		c-2.4-5.7,1.2-11.3,0.5-16.9c-0.5-5-0.3-9.9-0.3-14.9c0-0.6,0.5-1.5,1.4-1.7c3.1-1.2,2.8-2.7,2.1-4.5c-0.2,0.5-0.5,0.9-0.7,1.5
		c-0.2,0-0.3,0-0.3,0c-0.3-2.7-0.7-5.4-0.7-8.1c-0.2-5.6-0.2-11.2-0.2-16.6c0-5.1,0.5-10.1,0.5-15.1c0-2-0.7-4.1-0.9-6.1
		c-0.2-1.1-0.5-2-0.3-3.1c0.3-4.6,0.7-9.3,1-13.9c0-0.4-0.3-0.9-0.9-1.8c-1.4,0.8-2.3,1.4-3.8,2.4c0.2-2.2,0.2-4,0.5-5.8
		c0-0.2,0.9-0.3,1.2-0.5c0.3,0.3,0.9,0.7,0.9,1.1c0.2,0.7,0,1.5,0,2.2c0.3,0,0.5,0,0.9,0c0.2-0.2,0.5-0.3,0.5-0.5
		c-0.3-3,2.3-5.4,3.6-8c0.2-0.3-0.3-1.2-0.9-1.3c-2.1-0.3-4.2-0.5-6.4,0.2c-2.4,0.7-5.4,0.8-8.2,0.9c-10.3,0.3-20.3,0.3-30.6,0.6
		c-8.5,0.3-17,1.1-25.7,1.2c-7,0.1-13.9-0.6-20.9-0.8c-2.3-0.1-4.5,0-7.1,0c3.8,2.6,9.4,0.4,13,2.4c-6.8-0.5-13.6,0.4-20.3-0.8
		c-5-0.9-10.6-1.4-15.8-1.5c-5.6-0.1-11.1,0.4-16.7,0.5c-2.8,0.1-5.6-0.2-8.3,0s-5.4,0.8-8,1.3c-0.9,0.1-1.7,0.4-2.8,0.4
		c-6.8,0-13.4,0.1-20.2,0.1c-2.1,0-3.8,0-4.3,1.7c-0.2-0.5-0.3-1.1-0.5-1.9c-2.4,0.9-4.5,1.8-6.8,2.6c0-0.5,0.2-0.8,0.2-1.3
		c-0.3-0.1-0.5-0.2-0.9-0.2c-10.3,0.2-20.7,0.5-30.9,0.6c-7.5,0.1-14.9,0-22.2,0.2c-6.1,0.1-12.2,0.6-18.4,0.7
		c-3.5,0.1-7-0.3-10.4-0.4c-0.7,0-1.6,0.2-2.3,0.4c0.5,0.3,1,0.8,1.7,0.9c0.9,0.2,1.9,0.2,3,0.7c-2.1,0-4.3,0.2-6.4,0
		c-4.5-0.4-8.9-0.9-13.2-1.6c-2.1-0.3-3.8-0.3-5.2,0.9c-1.6-0.9-2.8-0.9-4.9-0.3c-2.4,0.7-5.6,0.8-8.2,0.6c-2.3-0.2-4.9,0-6.8-1.4
		c-0.7-0.5-3-0.4-4.5-0.5c-1.4-0.1-3,0.1-4.2,0c-0.9-0.1-1.7-0.7-2.6-1.2c0.7-0.3,1.4-0.6,2.3-0.9c0.3-0.1,1-0.1,1.2-0.3
		c1.2-1.5,3.1-1.9,5.7-1.5c0.3,0,1,0,1-0.1c1.4-1.8,4-1.2,6.4-1.3c0.7,0,1.4-0.1,1.9-0.3c2.4-1.3,5.4-1.2,8.3-1.3
		c2.4-0.1,5-0.4,7.5-0.6c2.4-0.1,4.7-0.3,7.1-0.3c12.5-0.2,25.2-0.5,37.7-0.6c9-0.1,17.9-0.1,26.9-0.3c4-0.1,8.2-0.3,12.2-0.5
		c1.6-0.1,1.9-0.6,1-1.4c-1.2-1.3,0-1.8,1.7-1.7c3.1,0.1,6.1,0.4,9.2,0.5c7.1,0.3,14.1,0.7,21.2,0.8c14.3,0.2,28.3,0.3,42.6,0.3
		c9.6,0,19.1,0.1,28.7-0.3c11.8-0.5,23.5-1.6,35.1-2.3c0.5,0,1-0.1,1.4,0c3.6,0.9,6.8,0.5,10.4-0.3c2.6-0.6,5.6-0.5,8.3,0.4
		c3.8,1.4,8.2,0.6,12.2,0.5c1.7,0,3.5-0.3,5-0.2c7,0.5,13.9,1.4,20.9,1.7c4.3,0.2,8.7,0,13-0.1c0.9,0,1.7-0.7,2.4-1.3
		c1-0.6,2.1-0.9,3,0c1,1.3,2.6,1.4,4.5,1.4c1.7,0,3.5-0.1,5,0c1,0.1,1.9,0.5,2.8,0.8c-0.5,0.6-0.9,1.7-1.6,1.8
		c-3.8,0.5-4.7,2.1-4.9,4.2c-0.3,2.5-0.9,5.1-1.2,7.7c-1,6.1,0.9,12.3,0.3,18.4c-0.7,6.5-0.3,13.1-0.7,19.6
		c-0.5,6.7-1.6,13.5-2.1,20.2c-0.2,1.9,0.3,3.9,0.7,5.8c0.7,5-0.7,9.7-2.6,14.4c-0.3,0.8-0.9,1.7-0.7,2.5c0.3,3.7,0.9,7.3,1,11
		c0.3,5.1,0.7,10.2,0.9,15.3c0,1.4,0,2.7,0,4.1c-0.2,5.2-0.3,10.4-0.7,15.6c-0.3,3.3-1,6.6-1.4,9.9c-0.2,0.6,0.2,1.4,0.2,2
		c0,0.7,0.2,1.8-0.5,2.1c-2.4,1.2-2.1,2.7-1.9,4.2c0.2,2.5,0.7,5,1,7.5c0.3,0,0.5,0.1,0.9,0.1c0.3-1.1,0.7-2.2,1-3.5
		c1.9,2.2,1.4,4.8-1.6,6.3c-0.7-0.6-1.4-1.3-2.1-1.9c-0.2,0-0.5,0.1-0.7,0.1c0.5,3.2,1,6.3,1.6,10c-2.4,1.8-0.9,4.6-1.6,7.4
		c3.8,4.2,1,8.9,1.6,13.3c0.3,3,0.5,5.8,0.5,8.7c0,1.8-0.3,3.6-0.5,5.3c-0.2,0.8-0.3,1.6-0.3,2.4c0.2,0.6,0.7,1.2,1.2,1.8
		c1-0.3,1.9-0.5,3-0.8c0.7-0.2,1.4-0.3,2.1-0.5c-0.2,0.5,0,1.6-0.3,1.7c-2.6,0.5-2.4,1.8-2.6,3.1c-0.2,0.7-1.2,1.5-1.7,2.2
		c-0.3,0.5-1,1.2-1,1.7c0.2,3.9-0.5,8,0.9,11.8c1,3,0.7,5.7,0.3,8.5c0,0.2,0,0.3,0,0.5c0,0.1,0.2,0.2,0.9,0.6
		c0.9-1.2,1.6-2.1,2.4-3.2c0.7-0.8,1-1.9,2.1-2.6c3.3-2.3,6.8-4.5,10.3-6.8c8.5-5.5,17.2-11,25.5-16.4c4-2.6,7.6-5.5,11.5-8.2
		c1.4-1.1,3-1.9,5.6-1.8c3.3,0.1,4.2,0.8,2.4,2.5c-1.9,1.8-4.2,3.5-6.3,5.3c-0.7,0.6-1.2,1.4-1.9,2c0.3,0.2,0.5,0.3,0.9,0.5
		c4.3-1.9,8.9-3.8,13.2-5.6c0.2,0.1,0.3,0.2,0.5,0.3c-0.3,0.3-0.5,0.9-1,1.1c-5.9,1.5-7.5,4.8-9.9,7.9c-1,1.2-2.3,2.3-3.3,3.4
		c0.2,0.1,0.3,0.2,0.5,0.2c1-0.1,2.1-0.2,3.3-0.2c-0.7,0.6-1.2,1.3-2.1,1.7c-5.6,2.7-11.6,5-16.3,8.3c-1.2,0.8-3,1.4-4.3,2.2
		c-0.5,0.3-0.3,0.8-0.5,1.4c0.7,0,1.4,0,1.9-0.2c1-0.2,1.9-0.6,3.3-0.6c-3,1.8-6.1,3.6-9,5.4c-0.5,0.3-1,0.6-1.4,1.1
		c-1.6,1.3-3.3,2.1-6.3,2.3c-2.3,0.2-4.5,1.3-6.6,2.1c-2.1,0.8-4,1.7-5.9,2.7c-1.6,0.8-2.8,1.8-4.2,2.6c-1.2,0.6-2.4,1.3-4,1.7
		c-2.1,0.6-3.6,1.3-3.8,2.8c-0.2,6.1-0.3,12.1-0.7,18.2c-0.2,2.3-0.3,4.5-0.5,6.8c0,0.4,0.2,0.8,0.2,1.3c0.3,0,0.5,0,0.9,0
		c0-1.5,0-3.1,0-4.5c0-0.5,0.5-0.9,0.9-1.5c0.2,0.4,0.7,0.9,0.7,1.4c0.2,2.8,0.2,5.6,0.3,8.4c0.3,3.2,0.3,6.2-1,9.4
		c-0.7,1.9,0.2,4,0.2,6.1c0,2.3-0.5,4.6-0.7,7c-0.2,0.9-0.3,2-0.5,3c0.3,0,0.5,0,0.9,0.1c0.2-0.7,0.5-1.6,0.7-2.3
		c0.2-0.1,0.5-0.2,0.7-0.2c0.5,0.5,1.2,1.2,1.2,1.7c-0.2,3.1-0.7,6.2-0.7,9.3c-0.2,4.8-0.2,9.7-0.2,14.5c0,1.4,0,2.8,0,4.4
		c0.9-0.3,1.2-0.4,1.7-0.6c0.3,0.1,0.5,0.1,0.9,0.2c-1,4.1-2.4,8.2-3.3,12.3c-0.7,3.4-0.5,6.7-0.7,10.1c0,1.6,0,3.2,0,4.6
		c-0.3,0-0.5,0-0.9,0c-0.3-0.8-0.7-1.7-1-2.5c-0.2,0-0.5,0-0.7,0c0,0.7-0.3,1.5-0.2,2.1c0.5,2.2-0.2,4.5,1.7,6.6
		c1,1.3,0.5,3.1,0.7,4.5C1005.6,569.2,1005.3,569.2,1005.1,569.3z M1006.6,283c4.2-3,3.5-19.7-1.4-22c0.5,2.4,0.9,4.5,1.2,6.5
		c0.2,0.7,0.5,1.5,0.3,2.2c-0.3,1.2-2.8,2.4,0.2,3.6c0.2,0.1-0.2,0.4-0.2,0.6c-0.3,2.6-0.5,5.4-0.9,8
		C1006.1,282.1,1006.3,282.5,1006.6,283z M1010.3,241.6c-1.6,3.8-0.9,7.4-0.5,11C1012,251.4,1012.4,243.3,1010.3,241.6z
		 M986.7,445.8c0,0.7-0.2,1.1,0,1.3c1.7,2,3.5,4,5.2,6c0.3,0.4,1.4,0.5,2.3,0.7c0.3-0.4,1.2-0.8,1-1.3c0-0.4-0.9-0.8-1.6-1.2
		c-0.5-0.3-1.6-0.5-1.6-0.7C992.2,448.3,988.6,447.7,986.7,445.8z M996.4,515.8c-0.3,0-0.7,0-0.9,0c-0.7,2.4-1.7,4.8-0.5,7.4
		c0.5,1.1,1.6,1.3,2.8,0.9C997.4,521.2,996.9,518.5,996.4,515.8z M996.9,432.2c0.3,0,0.5,0,0.9,0c-0.3-2.8-0.7-5.7-1-8.5
		c0-0.2-0.7-0.4-1.2-0.6c-0.3,0.3-1,0.6-0.9,0.8C995.2,426.7,996,429.4,996.9,432.2z M696.1,199.2c5.4-0.3,10.6-0.5,15.8-0.8
		C703,197.6,696.8,198,696.1,199.2z M998.6,548.7c0.2,0.1,0.3,0.3,0.5,0.4c0.5-0.3,1.4-0.5,1.6-0.8c0.5-0.7,0.7-1.5,0.9-2.3
		c0.2-0.8,0-1.7,0-2.4c-0.3,0-0.9,0-1.2,0C999.9,545.3,999.3,546.9,998.6,548.7z M1009.2,311.3c-0.3,0-0.7,0-0.9,0
		c0,2.1,0,4.1,0,6.2c0.9-1.8,1-3.6,1.2-5.4C1009.4,311.8,1009.2,311.5,1009.2,311.3z M1007.7,234.6c0.3,0,0.7-0.1,1-0.1
		c1.2-1.6-1.7-2.7-1.2-4.2c-0.3,0-0.7,0.1-1.2,0.1C1006.8,231.8,1007.2,233.2,1007.7,234.6z M1007.5,256.7c1.6-1.9-0.9-2-2.6-2.4
		C1003.5,255.9,1005.6,256.2,1007.5,256.7z M1039.5,429.8c-0.2-0.2-0.5-0.3-0.7-0.5c-1.9,0.8-4.5,1.3-4.9,3.1
		C1035.8,431.6,1037.6,430.7,1039.5,429.8z M1005.4,481.2c0-1.6,0-3.1,0-4.6C1003.5,477.4,1003.5,480.6,1005.4,481.2z M998,344.6
		c0.5,0,0.9,0,1.4,0.1c0.2-1.3,0.2-2.4,0.3-3.7c-0.3,0-0.9,0-1.2,0C998.3,342.2,998.1,343.4,998,344.6z M921.7,194.9
		c0,0.1,0,0.3,0,0.4c1.9,0.4,3.6,0.6,5.4,0.1c0-0.2,0-0.3,0-0.5C925.3,194.9,923.6,194.9,921.7,194.9z"/>
	<path id="XMLID_773_" class="st0" d="M389.1,326.8c-0.2-0.1-0.5-0.5-1.2-1.1c-2.4,0.6-5,1.4-7.6,2c0.2,0.1,0.2,0.2,0.3,0.3
		c10.6,0.3,21.2,0.5,31.8,0.8c0.2-0.2,0.2-0.4,0.3-0.7c-1.6-0.6-3.3-1.2-4.9-1.8c0.2-0.1,0.3-0.3,0.5-0.4c3,0.5,6.3,0.6,7.6,3
		c0.3,0.4,2.4,0.6,3.6,0.6c0.7,0,1.4-0.7,2.4-1.3c0.5,0.6,1.4,1.4,2.1,2.1c-1.7,0.5-3.3,1.1-5.2,1.6c0.2,3.6-3.3,4.8-9,3.1
		c-0.3,1.8-2.4,1.8-4.9,1.8c-9,0.1-18.1,0.2-27.1,0.3c-2.4,0-5-0.3-7.5-0.1c-1,0.1-2.1,0.9-2.8,1.6c-0.7,0.6-0.9,1.5-1.6,2.2
		c-0.3,0.3-1.4,0.3-2.1,0.5c-0.2-0.4-0.5-0.9-0.3-1.4c0.7-1.6,2.1-3.2,2.3-4.7c0.2-1.4-1.2-2.8-1.9-4.3c-1.2,0.6-1.9,1.4-2.8,1.4
		c-1,0-2.1-0.6-3.1-0.9c-0.7,0.5-1.4,0.9-2.3,1.7c-0.3-0.6-0.7-1.1-0.9-1.5c1.6-0.3,2.8-0.5,4-0.9c3.3-1.1,4.7-2.4,4-4.8
		c-0.5-2.3,0.2-4.6,0.2-7.1c0-2.6-0.7-5.4-0.5-8c0.2-2,1-4,1.6-6.1c0.3-2,0.7-4,1-6c0.5-2.6,1.2-5.3,1.7-7.8c0.2-1.6,0-3.2,0-5.3
		c-3.5,0.5-6.6,1.1-9.6,1.5c0,2.2,0,4.2,0,6.3c0,3.9,0,7.9,0.2,11.8c0,0.4,0.3,0.9,0.3,1.4c0,0.4,0.2,0.7,0,1.2c0,0.1-1,0.3-1.2,0.2
		c-0.5-0.3-1-0.6-1.2-1.1c-0.2-0.8,0.2-1.7,0-2.5c-0.2-5.4-0.5-10.7-0.7-16.1c0-0.8,2.6-3.1,4-3.2c2.6-0.2,5.4-0.4,8-0.6
		c0.3-1.2,0.7-2.3,0.9-3.5c0.5-2.5,1.2-2.7,5.2-1.7c1.9-1.5,4-3,5.7-4.5c1.2-1.2,2.4-1.3,3.1,0c1.2,2.2,4,2.7,7.5,3.1
		c5.2,0.4,10.3,1.2,15.3,1.8c1.7,0.2,3.3,0.2,5,0.3c5,0.3,10.1,0.6,15.1,1.1c0.5,0,1.4,0.6,1.4,0.8c-0.2,0.4-0.7,0.8-1.4,1.1
		c-1.4,0.5-3,0.8-5,1.5c3.1,0,5.6-0.3,7.5,0.1c1.9,0.5,3.3,1.8,5,2.7c0.3-0.1,0.7-0.1,1.2-0.2c0.2-1.4,0.3-2.6,0.7-4.2
		c1.2-0.4,2.1,0.2,2.8,1.1c2.3,3.1,4.2,6.1,6.8,9.1c2.8,3.1,2.4,6.4,3.1,9.7c0,0.3-0.3,0.7-0.7,1.1c-0.7-4.2-2.3-8.2-4.9-12.1
		c-0.3,0-0.7,0.1-1,0.1c0.5,1.7,0.9,3.5,1.6,5.2c0.7,2.2,1.4,4.5,2.3,6.7c0.3,1.1,1.2,2,1.7,3.1c0.3,0.7,0.2,1.6,0.7,2.4
		c1.2,2.2,2.6,4.4,4,6.5c1.2,1.9,3.8,3.6,3.3,5.9c0,0.1,0.3,0.3,0.5,0.5c2.3-1.5,8-15,6.8-17.1c-2.6,3-2.8,6.5-6.3,9.4
		c0.2-0.6,0-1.4,0.3-2c1.4-2.8,2.8-5.7,4.5-8.4c0.9-1.4,3.1-2.5,4.3-3.9c1.2-1.2,2.1-2.5,3-3.8c1.9-2.6,3.6-5.3,5.6-7.9
		c0.7-0.9,8.7-2,9.6-1.3c0.7,0.6,0.9,1.7,0.3,2.4c-1.4,2.6-3.1,5.3-4.5,7.9c-1.7,3.7-4.3,7.2-4.3,11.1c0,0.9-0.5,1.9-1.2,2.8
		c-3.6,5.4-7.5,10.7-11.1,16.1c-0.7,1.1-0.9,2.3-1.4,3.5c-0.2,0.4,0,0.8-0.2,1.2c-1.2,2.1-2.1,4.1,1.2,6c0.7,0.4-0.2,1.8-0.2,2.7
		c-1-0.6-2.3-1.2-3-1.9c-0.9-0.9-1.2-2-1.6-3.1c-0.5-1.3-1.6-1.5-2.8-0.6c-1.2,0.8-1.7,0.5-2.8,0c-2.3-1.2-3.5-2.6-4.3-4.3
		c-3.1-6.1-6.6-12.1-10.1-18.2c-1.7-3.3-3.8-6.4-5.7-9.6c-0.2,0.1-0.5,0.2-0.3,0.1c-1.2-2.5-2.6-5-3.8-7.5c-1-2-1.7-4.1-2.8-6.1
		c-1-2.1-6.1-3-8.5-1.6c-2.8-0.5-5.4-1.4-8-1.3c-2.8,0.1-5.2-0.6-8-0.4c-2.8,0.2-5.7,0.3-8.3,0.6c-2.3,0.3-4,1.4-6.6,0.7
		c-0.3-0.1-2.3,1.6-2.4,2.4c-0.3,1.5,0.2,3-0.2,4.5c-1.6-1.3-3-2.5-4.5-3.9c-0.2,0.1-0.5,0.1-0.7,0.2c0,3.4,0,6.7,0,10.2
		c7.3-1.7,14.4-2.2,21.7-2.4c6.8-0.1,12.3,0.7,15.6,4.8c1.6,1.9,4.9,1.1,7.6,0.9c1.2,0,2.4,0.2,3.6,0.5c0.2,0.1,0.2,1.1-0.2,1.4
		s-1.4,0.5-2.1,0.6c-1.9,0.2-3.8,0.3-4.7,1.8c-0.2,0.3-1.4,0.3-2.3,0.5c-0.7,0.2-1.9,0.3-2.1,0.6c-1.6,2.3-5.2,3.3-8.3,4.3
		c-4,1.3-7.6,1.2-11.5-0.7c-3.1-1.6-7-2.7-10.4-4c-1.2-0.4-3.8-0.8-3.8-0.7c-1.2,1.5-3.5,2-5.7,2.6c-0.2,0,0,0.5,0.7,0.9
		c0.2-0.3,0.3-0.6,0.7-1.1c0.3,0.5,0.7,0.6,0.7,0.7c-0.3,2.4-0.7,4.7-1.2,7.2c-0.2,0.9-0.3,1.7,1.9,1.7c0.3,0,1,0.4,1.2,0.7
		c0.3,0.4,0.5,0.9,0.9,1.5c0.5,0.8,1.4,2.4,1.9,2.4c2.1-0.1,4.2-0.7,6.3-1.2c2.1-0.4,4.2-0.9,6.4-1.2c4.3-0.5,8.7-1.1,13-1.5
		c0.5-0.1,1,0.1,1.7,0.5c-0.7,0.2-1.2,0.4-1.9,0.5c-5,0.7-10.1,1.5-14.9,2.3C389.6,325.5,389.5,326.4,389.1,326.8z M404.9,312.6
		c0-0.2,0-0.3,0-0.5c-4.9-0.9-10.1-0.8-15.3-1.3c1.4,1.9,6.4,0.1,6.6,2.6C399.2,313.1,402,312.9,404.9,312.6z M400.3,303.3
		c0-0.3-0.2-0.5-0.2-0.8c-3.8,0.2-7.5,0.4-11.3,0.5c0,0.3,0,0.5,0.2,0.8C392.8,303.7,396.6,303.5,400.3,303.3z M377,277.8
		c0.3,0.3,0.5,0.6,0.9,0.9c1-0.3,2.3-0.6,3.3-0.9c-0.3-0.4-0.9-0.8-1.2-1.2C378.9,277,378,277.4,377,277.8z M376.4,323.3
		c-2.4,0.5-2.3,1.6-2.1,2.5c0,0.2,0.7,0.6,1,0.6s1-0.3,1-0.5C376.6,325.1,376.4,324.4,376.4,323.3z"/>
	<path id="XMLID_765_" class="st0" d="M749.6,298c-0.5,0.6-1.2,1.4-2.1,2.3c-0.3-1.8-0.7-3.3-1-4.7c-0.3,0-0.5,0-0.9,0
		c-0.2,1.9-0.5,3.8-0.7,5.7c0.3,0.1,0.5,0.1,0.9,0.2c-1,0.3-2.1,0.5-3.3,0.8c-0.3-0.4-0.5-0.8-0.9-0.9c-0.7-0.2-1.6-0.3-2.3-0.5
		c-0.2,0.4-0.7,0.9-0.5,1.4c0.3,0.6,1,1.2,1.9,1.7c1.2,0.8,0.7,1.5-0.7,1.7c-1.7,0.2-4,1.2-4.9-0.7c-0.2-0.2-1.4-0.4-2.1-0.4
		c-4.3,0.3-8.7,0.5-13.2,0.9c-0.5,0-1,0.8-1,1.3s0.7,0.9,0.9,1.5c0.2,0.3,0,0.7,0,1.1c0,0.1-0.9,0.2-1,0.1c-0.3-0.3-0.5-0.6-0.7-0.9
		c-0.5-2-1.6-2.7-3.8-2.1c-1,0.3-2.1,1.5-2.3,2.2c-0.2,4.1,0,8.1,0.2,12.2c0.5,6.7,1.2,13.5,1.9,20.2c0.3,2.5,1,5.2,1.7,7.7
		c0.2,0.5,1.2,0.8,2.3,1.2c0.9,0.9,0.5,1.8-1.2,2.2c-1.9,0.5-2.8-0.3-3.5-1.2c-0.9-1.1-1.7-2.2-2.4-3.4c-0.3,0-0.7,0-0.9,0
		c0,0.7-0.3,1.5-0.2,2.1c1,2.5,0.9,2.7-3.3,2.6c-0.7,0.7-1.2,1.5-2.1,2.5c-2.4-2.3,2.4-4.4-0.3-6.6c-1.2,1.4-0.2,3.3-3.8,3.7
		c0-0.7,0-1.3,0-1.9c0-2.2,0-4.4,0-6.6c0-3.2-0.2-6.4,0-9.6c0.3-4.1,0.5-8.1-0.5-12.1c-1.2-4.3-1-8.9-1.6-13.3c0-0.6-0.2-1.2-0.3-2
		c-4.5,2.3-8.9,1.5-13.2,0.1c-2.4-0.7-4.7-1.5-7.6-1.2c-3.6,0.3-7.5,0.1-11.3-0.2c-1.2-0.1-3-0.9-3.3-1.6c-0.5-1.3,1.6-1.8,3.3-2.1
		c0.5-0.1,1.2-0.1,2.1-0.2c-0.9-1.8-5.6-2.1-4.3-4.4c3,0.3,5.9,0.5,8.5,0.8c-1,0.4-2.1,0.8-3.3,1.4c0.9,0.4,1.7,1.2,2.4,1.1
		c1.2-0.1,2.8-0.5,3.6-1.1c0.3-0.2-0.7-1.2-1.2-2c0.5-0.1,1.4-0.2,2.3-0.2c1.9-0.1,3.3-0.2,3.3-1.9c-0.2-1.3,2.1-1.3,3.5-1.1
		c6.8,1.2,13-0.1,19.1-1.7c0.5-0.1,1.4-0.3,1.9-0.1c4.9,1.3,9.6-0.2,14.4-0.1c6.4,0.2,12.9,0,19.3,0.2c3.6,0.1,8,0.3,10.8,1.5
		c3.6,1.5,5,1.4,6.8-0.8c0.3-0.4,3.3,0,4.9,0.2c0.3,0,0.7,1.1,0.5,1.5c-1.6,3.2,0.7,6.3,0.3,9.5c2.8-1.1,0.9-2.6,1.6-3.9
		c1.7,0.4,1.9,1.1,1.6,2.1c-0.5,1.1-2.4,2.2-0.2,3.5c-0.9,0-1.7,0-2.4,0c-0.7,3.1-0.3,3.6,4.3,4c2.4,0.2,5.2,0.1,7.6-0.3
		c4.5-0.8,9-1.4,13.7-0.9c3.3,0.2,3.6,0,3.6-1.9c0-3.3,0-6.6,0-9.9c0-0.4,0.2-0.9,0.3-1.4c0.7-1.5,1.2-2.8-0.2-4.3
		c-0.3-0.3-0.2-0.8-0.2-1.5c0.7,0.2,1.2,0.2,1.4,0.4c1.2,1.4,2.4,2.2,5.2,1.2c1.6-0.5,3.5,0.5,3.5,2c0,5.1-0.2,10.2-0.3,15.3
		c0,0.5,0,1.2-0.2,1.7c-0.3,1.2,0.3,1.8,2.3,2.2c1.2,0.3,2.6,1.2,2.8,1.8c0.2,0.5-1.2,1.5-2.3,1.8c-1.6,0.5-2.1,1.2-2.1,2.2
		c0.2,7.4,0.3,14.8,0.7,22.1c0,1.5,1.2,2.8,1.4,4.3c0.2,0.8-0.3,1.8-0.9,2.5c-0.5,0.7-1.6,1.5-2.4,2.1c-0.7-0.4-1.6-0.9-2.3-1.5
		c-0.2,0.1-0.5,0.2-0.7,0.2c-0.2,0.7-0.2,1.6-0.5,2.3c-0.2,0.4-1,0.7-1.6,1.1c-0.5-0.3-1.2-0.5-1.6-0.9c-3.6-3.9-3.3-8.1-3-12.3
		c0.2-1.6,0.2-3.1,0.3-4.6c0.3-3.8,0.5-7.6,0.9-11.4c0.2-1.2-0.2-1.6-2.3-1.7c-8.5-0.2-17-0.5-25.7-0.8c-0.3,2.1-0.5,4.2-0.9,6.6
		c-2.8,0.9-0.2,3.1-1.2,5c3.3-0.1,3.5,0.9,3.3,2.4c-0.2,1.5-0.2,3.1,0.2,4.6c0.5,2.6-0.2,3-4.7,1.9c0.5,1.6,0.9,3.2,1.6,4.6
		c1,1.8-1,2.8-2.4,4.3c-0.9-0.8-1.6-1.4-2.4-2.2c-0.9,0.5-1.7,0.9-2.6,1.4c-1.7,0.9-4.3,0.5-4.5-0.9c-0.5-6.3-4.5-12.4-3.1-19.1
		c1.2-6.1,0.9-12.3,0.9-18.5c0-3.2,0.5-6.1,3.1-9c0.7-0.6,0.5-1.6,0.9-2.4C750.3,298.1,749.9,298.1,749.6,298z M775.5,311.6
		c5,0,9.7,0,14.8,0C787.1,310.4,779.3,310.5,775.5,311.6z M686.8,305c0,0.2,0,0.4,0,0.6c2.8,0.1,5.4,0.2,8.2,0.2
		c0-0.2,0-0.3,0.2-0.5c-1.7-0.7-3.5-1.5-5.4-2.3c0.2,0.8,0.3,1.4,0.5,2.1C688.8,305.1,687.7,305,686.8,305z M734.3,296.7
		c-0.2,0.2-0.3,0.4-0.3,0.6c2.1,0.5,4.2,1.2,6.3,1.6c0.5,0.1,1.4-0.1,2.1-0.2c-0.3-0.4-0.5-1.2-1-1.2
		C739,297.1,736.7,297,734.3,296.7z M761.4,337.8c0.3,0,0.5,0,0.9,0c0-1.9,0-3.9,0-5.8c-0.3,0-0.7,0-1,0
		C760.4,333.9,760,335.8,761.4,337.8z M680.9,303.1c0,0.2,0,0.4,0,0.6c1.4,0.1,2.8,0.1,4.2,0.1c0.2,0,0.2-0.3,0.3-0.5
		c-1.2-0.1-2.6-0.3-3.8-0.4C681.5,302.9,681.3,303,680.9,303.1z M731.3,297.5c-2.6-1.8-3.5-1.8-4.3-0.3
		C728.6,297.3,730,297.4,731.3,297.5z"/>
	<path id="XMLID_755_" class="st0" d="M525.4,251.3c-1.4,2.6-0.2,5.4-3,7.8c-1.6-2.3,2.1-5.1-2.8-7.1c-0.2,1.1-0.3,1.9-0.2,2.6
		c1.4,5.9-1.7,11-7.8,15.4c-3,2.1-6.8,3.8-10.6,5.2c-2.4,0.8-5.7,1.6-8.3,1.3c-4.5-0.6-8.7,0.8-13-0.1c-0.5-0.1-1.6-0.2-1.6-0.3
		c-0.2-2.1-3.3-2-5.4-2.7c-0.5-0.2-1-0.4-1.6-0.7c-0.5-0.3-0.9-0.7-1.2-1.2c0.9-0.2,1.6-0.3,2.8-0.5c0-0.3-0.2-0.9-0.3-1.5
		c-0.2-1.9-0.3-3.8-0.7-5.7c-0.5-2.2-1.4-4.4-1.7-6.7c-0.3-2.1-0.9-4.2,1-6.2c0.2-0.2,0.3-0.5,0.2-0.8c-0.2-2.2-0.5-4.5-0.7-6.7
		c-0.7-5.9-1.6-11.8-2.3-17.6c0-0.5,0-1.1-0.2-1.6c-0.2-0.8-0.7-1.6-1-2.4c-0.2-0.5-0.5-1.1-0.7-1.6c0.9-0.1,1.7-0.3,2.6-0.2
		c2.1,0.3,3.8-0.1,5-0.9c1.6-1.2,3.1-1.8,4.9-0.2c3.3-0.9,6.3-1.9,9.4-2.8c0.5-0.1,1.2,0.3,1.9,0.3c5.4,0,10.6,0.6,15.5,2.1
		c4.9,1.4,9.9,2.5,14.8,3.7c0.5,0.1,0.9,0.3,1.2,0.7c-5.7-1.1-11.5-2.2-17.2-3.3c-5.9-1.2-12-1.4-18.1-0.4c0.3,0.1,0.9,0.4,1.2,0.4
		c3.8,0.1,7.8,0.2,11.6,0.4c0.7,0,1.6-0.1,1.9,0.1c3.5,1.6,7.6,2,11.6,2.8c2.8,0.6,5.2,1.5,7.8,2.3c0.3,0.1,0.5,0.3,0.3,0.8
		c-1.9-0.4-3.8-0.7-5.7-1.2c2.4,1.8,4.2,3.9,8.2,4.6c3,0.6,5.7,1.7,7.3,3.5c0.3,0.4,0.7,1.1,0.5,1.5c-0.5,1.4-0.7,2.6,2.1,3.6
		c-4.3,1.2-5.2,3.2-6.3,5.5c-0.9,1.8-3.8,3.1-5.7,4.7c-0.7,0.6-1.4,1.4-1.7,2.1c-0.2,0.2,1,0.6,1.6,0.9c0.2-0.1,0.3-0.2,0.7-0.3
		c-0.2-0.3-0.3-0.6-0.7-1.4C523,250.2,524.3,250.7,525.4,251.3z M490.5,242.8c0,0.1,0,0.2,0.2,0.4c3.8-0.4,7.5-0.6,11.1-1.2
		c1.9-0.3,3.8-0.9,5.6-1.7c1.2-0.5,1.9-1.4,3-2.1c2.3-1.7,1.9-3.2-0.5-4.6c-1.7-1.1-3.3-2.1-4.5-3.4c-0.9-0.9-1.6-0.9-3.1-0.9
		c-6.8,0.1-13.6,0.5-20.2,1.5c-2.4,0.3-1.9,1.1-1.6,2c0.7,2.4,1.4,5,1.9,7.4c0.2,0.5,0.2,1.2,0.2,1.7c0.2,0.9,0.9,1.5,2.6,1.3
		C486.8,242.8,488.7,242.8,490.5,242.8z M483.3,253.4c-0.5-0.6-0.9-1.3-1.6-1.7c-0.3-0.3-1.2-0.3-1.7-0.5c-0.2,0.3-0.7,0.7-0.5,1.1
		c1,1.5,2.1,3,3.5,4.6c0.2-1.2,0.3-1.9,0.3-2.6c0.2,0,0.5,0,0.7,0c0,4,0,8,0,12.1c1.4-0.2,3-0.4,4.2-0.7c3.1-0.8,5.9-1.8,9-2.5
		c9.4-2.1,9.2-6.2,5.2-10.3C496.2,254.2,489.8,253.1,483.3,253.4z M479.9,234.5c-0.3,0-0.7,0-1.2,0c-0.9,3.2-0.2,6.3,1,9.5
		c0.3,0,0.7,0,1,0C480.4,240.8,480,237.7,479.9,234.5z M513.6,234c0.2-1.5,2.4-3-0.7-4.2c-3.5-1.4-3.5-1.6-7.5-0.5
		C510.1,229.8,512.5,231.4,513.6,234z M495.7,250.1c0-0.2,0-0.3-0.2-0.5c-3.3-0.4-6.6-0.3-9.6,0.7c-0.3,0.1-0.3,0.7-0.3,0.9
		C489.1,250.8,492.4,250.4,495.7,250.1z M505.7,266.4c-0.2-0.1-0.3-0.3-0.5-0.4c-2.1,0.7-4,1.5-6.8,2.4
		C502.6,269.1,504.4,268,505.7,266.4z M510.1,253.8c-0.3,0.1-0.7,0.1-1,0.2c0.3,1.1,0.7,2.1,1,3.2c0.5-0.1,0.9-0.1,1.4-0.2
		C511,255.9,510.6,254.8,510.1,253.8z M527.6,232c-0.3,0-0.7,0-1.2,0c0.2,1.2,0.3,2.3,0.7,3.5c0.3,0,0.9-0.1,1.2-0.1
		C528,234.3,527.8,233.1,527.6,232z"/>
	<path id="XMLID_751_" class="st0" d="M657.1,377.7c-2.3-0.4-3.8-0.3-4,1.5c0,0.6-0.7,1.2-0.7,1.9c0.9-0.5,1.6-1.1,2.4-1.7
		c0.2,1.6-1.7,2.2-3.5,2.8c-3,1.1-3,0.9-1,2.6c5.7,4.8,8.7,10.2,9.2,16.1c0.3,3.5,0.9,7,1,10.4c0,0.7-0.2,1.6-0.3,2.3
		c-0.3,0-0.5,0-0.9,0.1c-0.3-0.3-0.7-0.5-0.9-0.8c-0.7-1.5-1-3-3.3-4c-0.5-0.3-0.7-1.1-0.9-1.6c-0.5-1.8-1-3.5-1.6-5.3
		c-1.6-5.2-5.9-9.7-8.9-14.5c-0.9-1.4-2.6-2.6-4.2-3.9c-0.5-0.4-1.6-0.7-2.3-1.1c-0.3,0.2-0.7,0.3-0.7,0.4c-0.5,5-4.3,9.5-5.9,14.3
		c-0.5,1.9-1.6,1.9-4.5,1.3c-0.7-0.2-1.7,0.1-2.6,0.2c-0.9,0.1-1.9,0.4-2.6,0.1c-0.5-0.2-1-1.1-0.9-1.5c1.2-2.4,2.8-4.7,4-7.2
		c1.7-3.5,3.3-6.8,3.1-10.6c-0.2-3.9-0.3-8.1,3.6-11.6c0.7-0.6,1.9-1.2,2.3-1.9c0.5-0.8,0.9-2.3,0.2-2.7c-4-2.1-4.2-5.1-5.6-7.9
		c-2.3-5-1.4-10-1.9-15s0.7-9.9,1.2-14.9c0.2-1.1,1-2.4-1.7-3.3c-0.5,1.2-1,2.1-1.4,3.1c-0.2,0-0.5,0-0.7,0
		c-0.2-0.3-0.7-0.7-0.5-1.1c2.1-3.1-0.9-5.5-2.8-8.1c-3-4.3-5.9-8.6-8.9-12.9c-0.7-0.9-1-2-2.1-2.8c-2.8-2.1-2.3-4.4-2.3-6.7
		c0-0.2,0.3-0.5,0.5-0.5c2.8-0.6,4.7-1.7,5-3.6c1.7,0.4,3.1,0.7,4.5,1.3c0.9,0.3,1.7,0.8,2.1,1.4c0.9,1.1,1.4,2.2,2.1,3.4
		c1.2,2,3.3,3.3,7.1,3.4c0.5,0,0.9,0.3,1.9,0.7c-1.7,0.1-2.8,0.2-4.2,0.3c2.1,2.5,3.8,4.8,5.7,7.2c0.9,0.9,2.1,0.7,3.1,0
		c5.6-3.3,7.8-7.5,8.9-11.9c0.2-0.4-0.2-0.7-0.2-1.2c-0.2-1.3,0.3-2.5,2.6-2.8c2.3-0.3,3.1,0.7,3.6,2.1c0.7-0.4,1.4-0.8,1.7-1.2
		c1.2-1.1,2.3-1.9,4.9-1.1c0.7,0.2,2.3-0.4,3.3-0.7c1.2-0.4,2.3-0.8,3.3-1.4c0.3,0.2,0.5,0.3,0.9,0.5c-0.7,1.1-1.4,2.2-2.1,3.3
		c-2.4,3.2-5.2,6.2-7.5,9.4c-3,3.9-5.4,7.9-8.3,11.8c-1.9,2.5-4.3,4.8-6.6,7.3l-0.2,0.1c-4,0.8-2.8,2.7-2.8,4.4c0,1.8,0.2,3.6,0,5.4
		c-0.2,3.2,1.6,5.8,4.2,8.4c0.3,0.4,0.7,0.9,1,1.4c-0.3,0.1-0.7,0.2-1,0.3c-1.4-1.4-2.8-2.7-4-4.1c-0.3,0-0.7,0.1-0.9,0.1
		c-0.9,7.6-3.6,15.2-0.3,23c4.7-1.9,8-0.6,12.2,0.5c7.3,2,8.9,6,11.5,9.7C660.8,372.1,658.9,376.8,657.1,377.7c0-1.1,0-2.2,0-3.5
		C654.7,375.7,654.5,376.8,657.1,377.7z M646.9,365.9c-0.9,0.8-1.9,1.3-2.3,1.9c-1.6,2.5-3.1,5.2-4.3,7.8c-0.3,0.6,0.2,1.4,0.3,2.1
		c1.6-0.2,3.3-0.1,4.7-0.5c2.6-0.8,3.8-2.4,4.3-4.2C650.5,370.4,649.8,368.2,646.9,365.9z M629.3,376.9c3-1.7,4-6.4,2.1-7.8
		C630.7,371.7,630,374.2,629.3,376.9z"/>
	<path id="XMLID_745_" class="st0" d="M615.1,344.3c0.5-0.1,1.2-0.3,1.7-0.4c0.2,0.2,0.3,0.3,0.3,0.3c-0.5,1.6-2.8,2.1-5,2.5
		c-0.5,0.1-1.7-0.6-2.3-1.2c-1.7-1.8-4.3-3.1-7.1-4.1c-0.2,0.1-0.5,0.2-0.7,0.3c1,0.9,2.1,1.8,3,2.7c0.7,0.6,1.4,1.5,1.4,2.1
		c-0.2,1.5-1.4,1.7-4.5,1.2c-1.2,0.8-2.3,1.7-3.3,2.5c-1.2-0.8-2.4-1.6-3.5-2.4c-2.4-1.9-4.5-3.9-7-5.8c-5.9-4.7-11.8-9.4-17.7-14.1
		c-0.5-0.5-1.6-0.8-2.8-1.5c0,1.4-0.3,2.4,0,3.5c1,2.3-1.7,4.3-1.6,6.5c0.2,1.7,0,3.3,0,5c0.3,0,0.7,0,0.9,0
		c0.3-1.8,0.9-3.5,1.2-5.3c0.2,0,0.5,0,0.7,0.1c0,2.6,0,5.3,0,7.9c0,0.3-1,0.8-1.7,0.8c-0.7,0.1-1.6-0.2-2.1-0.5
		c-0.5-0.3-0.7-0.8-1.2-1.6c-0.7,0.6-1.2,1.2-1.7,1.6c-1.6,1.2-3.3,1.2-4.7-0.1c-0.5-0.4-1-0.8-1.7-1.1c-3.1-1.1-4.5-2.6-4.5-4.7
		c-0.2-6.2-0.5-12.5-0.3-18.8c0.2-5.7,0.7-11.4,1-17c0.2-2.1,0.9-4.3,1.2-6.4c0.2-0.6-0.7-1.4-0.5-2c0.3-0.9,0.9-1.9,1.6-2.7
		c0.7-0.7,2.1-1.3,2.4-2c0.5-1.7,1.9-1.6,3.8-0.8c0.3,0.1,0.7,0.3,0.5,0.2c3.1-0.4,5.7-0.8,8.2-1.2c0-0.2,0.2-0.3,0.2-0.5
		c-1.7-0.4-3.3-0.8-5-1.3c1-1.1,2.4-1.1,4.2-0.5c2.8,0.8,5.6,1.5,8.5,2.1c0.7,0.2,1.6,0.3,1.9,0.6c3.6,2.7,9.2,3.1,14.3,3.8
		c5.6,0.7,10.8,5.6,8.9,8.9c-0.3,0.4-1,0.8-1.6,1.4c-0.9-1.5-1-3-2.3-4c-1-0.9-3.1-1.5-5.4-2.5c0.3,0.7,0.3,1.1,0.5,1.3
		c2.3,2.5,5.2,5,7,7.6c1.7,2.7,3.1,5.7,1.7,8.6c-1,2.2-1,2.3,2.8,2.5c0.7,0,1.2,0.1,1.9,0.6c-0.9,0-1.7,0.1-2.6,0
		c-2.4-0.3-4.2,0-5.9,1.3c-1.4,1.1-3.5,1.7-5.4,2.4c-0.5,0.2-1.4-0.2-2.3-0.3c0.2-0.2,0.2-0.4,0.3-0.6c0.7,0,1.4,0.1,1.4,0.1
		c1.2-1.2,2.1-2.2,3-3.2c1-1.2,2.3-2.2,3.1-3.5c0.3-0.4-0.2-1.2-1-1.8c-0.3,0.4-0.9,0.8-1.2,1.3c-1.9,2-3.5,4.2-5.7,6.1
		c-0.9,0.8-3,1.1-5,1.8c3.6,2.2,8.7,2.2,12.9,3.6c-5.4,0.4-10.1-1.5-15.6-1.6c2.1,1.3,3.8,2.6,5.7,3.7c4.9,2.7,10.1,5.3,14.8,8.1
		c2.6,1.6,4.5,3.8,6.8,5.7C611.4,341,613.2,342.6,615.1,344.3z M566.1,296.8c-0.7-0.3-1-0.5-1.6-0.7c0.2,1.6,0.3,3,0.7,4.4
		c1-0.2,1.9-0.3,3-0.5c0,0.3,0.2,0.3,0,0.4c-0.3,0.2-0.7,0.5-1.2,0.7c-3.8,1.2-3.6,3.1-3,5.2c0.5,1.7,1,3.4,1.4,5.1
		c1,4.3,1,3.8,6.8,3.6c0.5,0,0.9,0,1.4,0c4.2,0.4,6.8-0.9,8.2-3.1c1.2-1.9,2.1-3.9,3.1-5.8c1.6-3-0.3-6-4.9-7.5
		c-2.8-0.8-5.6-1.9-8.3-2.8C568.7,294.9,566.8,295.2,566.1,296.8z M601.9,337.9l-0.2,0.1c-1.7-1.6-3.5-3.2-5.2-4.7
		c-0.2,0.1-0.2,0.1-0.3,0.2C597.9,334.9,599.8,336.4,601.9,337.9z M585.7,317.8c1.2-0.8,2.3-1.5,3.3-2.2c-0.2-0.1-0.3-0.2-0.5-0.3
		C584.7,316.6,584.7,316.6,585.7,317.8z M562.8,328c0.2,0,0.5,0,0.7,0.1c0-0.9,0-2,0-3c-0.2,0-0.5,0-0.7,0
		C562.8,326,562.8,327,562.8,328z"/>
	<path id="XMLID_738_" class="st0" d="M515.8,390.2c-4.3-0.4-3.6-4.1-8.5-3.7c0,1.6,0,3.3,0,4.5c-1.6,0.5-3.5,0.8-3.5,1.2
		c0.2,1.1,0.9,2,1.4,3.1c0.2,0,0.5-0.1,0.7-0.1c-0.2-0.7-0.3-1.5-0.5-2.2c2.1,0.7,3.1,1.6,3.1,3.1c0,2.1-0.3,4.3,1.7,6.3
		c0.5,0.4,0.5,1.6,0,1.9c-0.7,0.4-2.1,0.3-3.3,0.3c-0.3,0-0.7-0.2-1-0.2c-4,0.2-4.9-0.2-4.9-3c0-1.3-0.3-1.9-3-1.1
		c-0.2-1.5-0.3-2.6-0.3-3.9c-0.2-3.4-1.9-6.3-5-9.3c-2.8-2.6-6.3-4.6-9.4-7c-1.4-0.9-2.1-2.3-3.3-3.4c-0.7-0.5-1.9-0.7-2.8-1.1
		c-0.2,0.7-0.9,1.5-0.7,2.2c0.5,1.9,1.6,3.7,2.3,5.5c0.2,0.4-0.2,0.9-0.2,1.4c0.2,0.9,0.3,1.8,0.5,2.7c0.5,0,0.9,0,1.4,0
		c-0.2-2.1-0.3-4.3-0.5-6.4c0.2,0,0.5,0,0.7-0.1c0.5,1.3,1.4,2.6,1.6,3.9c0.9,5.4,3,10.7,1.6,16.2c-0.2,0.6-1.6,1.4-2.6,1.6
		c-1.9,0.4-5.9-1.7-5.9-3c-0.5-6.3-3.3-12.3-6.6-18.2c-2.6-4.7-5.4-9.5-5.2-14.6c0-1.7-0.9-3.3-1-5c0-0.5,0.5-1.1,0.9-1.7
		c1.2-1.9,2.4-3.8,3.8-5.7c0.2-0.3,0.9-0.5,1.4-0.7c2.8-1.2,5.4-2.4,8.3-3.6c0.9-0.3,2.4-0.6,3.3-0.4c3.3,0.7,7,1.4,9.6,2.7
		c3.8,2,8.2,4,9.6,7.2c-0.2,0.1-0.3,0.2-0.7,0.3c-1.2-0.9-2.4-1.9-3.6-2.7c-0.3,0.1-0.5,0.1-0.9,0.2c0,0.4,0,0.8,0.2,1.2
		c0.9,1.7,1.7,3.4,2.6,5.1c0.2,0.3,0,0.7-0.2,0.9c-2.8,2-3.5,4.8-7.5,6.3c-0.2,0,0.3,1.2,1,1.5c2.1,1.1,4.5,1.8,6.6,2.8
		c4.9,2.5,7.5,6,9.7,9.6c0.2,0.2,0.3,0.5,1,1.3c0.2-0.8,0.5-1.3,0.3-1.7c-1-4.3-2.1-8.6-3.5-12.9c-0.5-1.6-1.6-3.1-1.9-4.6
		c-0.5-2.3-0.7-4.6-0.9-7c0-0.2,0.2-0.5,0-0.6c-2.3-2.2,1-3.9,1.7-5.8c0.3-1.1,3.3-1.1,4,0c0.7,0.8,0.7,1.9,0.9,2.8
		c0.2,0.4,0,0.8,0.3,1.1c0.2,0.1,1,0.1,1.6,0c4-0.6,7.8-1.4,11.8-1.7c2.1-0.2,4.9-0.1,6.4,0.5c2.6,1.1,4.7,2.6,6.4,4.3
		c1.4,1.4-0.9,3-3.5,2.3c-5.4-1.3-9.7,0.6-14.4,1.4c-1.6,0.2-3.1,0.2-5,0.3c0,0.1,0.2,0.7,0.5,1.4c-2.3-0.1-2.8,0.4-1.6,1.6
		c4.5-0.2,8.7-0.5,13-0.4c5.7,0.1,10.6,4.4,9,7.3c-5.2-0.4-10.3-0.8-15.3-1.3c-2.1-0.2-3,0-1.9,1.5c0.3,0.4-1.4,1.3-2.1,2
		c-0.3-0.1-0.7-0.1-1-0.2c0.2,0.7,0.5,1.6,0.9,2.4c6.8-2.5,13.4-4,21-2.6c2.3,0.4,3,1.3,2.3,3c-0.9,1.8-0.5,3.5,1.2,5.4
		c-2.4,0.6-4.2,1.6-7.5,1.2c-4-0.6-8.2-0.5-12.3-0.7c-2.3-0.1-3.3,0.5-3.1,1.9C515.3,387.6,515.5,388.8,515.8,390.2z M488.4,361.5
		c-0.2-1.9-1-3.4-2.8-4.8c-2.1-1.7-5.9-1.9-8-0.2c-1.2,0.9-2.4,1.9-3.3,3c-1.4,1.6-0.9,1.8,2.1,2c2.8,0.2,5.9-0.1,8,1.5
		c0.5,0.3,2.1,0.3,3,0.1C488,362.8,488,362,488.4,361.5z M494.3,376.2c-0.3,0.1-0.7,0.2-1,0.4c0.9,1.3,1.6,2.6,2.8,3.9
		c2.8,3.2,6.1,6.1,6.8,9.7c1-0.2,2.1-0.3,3.3-0.5C503.8,384.6,501.1,379.7,494.3,376.2z M473.1,363.2c0,3.6,5.6,1.8,8.2,3
		c0.9,0.4,3.8-0.5,6.1-0.9C483.8,362.2,479.9,361.7,473.1,363.2z M519.8,360.6c-3.6-1.3-6.6-0.2-9.6,0.6
		C512.5,363.4,515.8,363.2,519.8,360.6z M480.2,388.6c-0.5,0.1-0.9,0.2-1.4,0.3c0.9,3.1,1.7,6,2.6,9.1c0.3,0,0.7,0,1,0
		c0.2-0.6,0.9-1.5,0.3-1.9c-1.9-1.8-1.2-3.8-1.7-5.6C481.1,389.7,480.5,389.2,480.2,388.6z"/>
	<path id="XMLID_731_" class="st0" d="M685.3,275.7c3.3,2.2,7,4,12,4.3c1.2,0.1,2.6-0.3,4-0.4c0-0.1,0-0.3,0-0.4
		c-3.3-0.9-6.8-1.8-10.1-2.7c-3.1-0.9-6.4-1.9-6.4-4.6c-0.2,0-0.5,0-0.7,0c-0.3,0.5-0.7,0.9-1,1.6c-0.3-0.9-0.7-1.8-1.2-2.6
		c-0.7-1.2-1.2-2.3-4.2-1.6c-0.7,0.2-2.4-0.7-3.1-1.4c-0.7-0.5-1-1.4-1.2-2.1c-0.9-4-3-7.9-1.9-12c0.2-1.1-0.5-2.1-0.3-3.2
		c0.7-5.3,5.2-9.5,10.4-13.5c0.9-0.7,2.4-1.3,3.8-1.8c5.9-2.2,10.3-6,17.9-6.5c0.7-0.1,1.4-0.5,2.3-0.7c1.9-0.5,3.6-0.7,4.9,0.6
		c1,1.2,2.8,1.6,4.7,2.3c3,1.1,5.7,2.6,8.2,4.1c2.6,1.5,4.9,3.3,7.3,4.8c1.2,0.8,2.6,1.6,3.3,2.5c3.3,4.2,5.4,8.6,5.4,13.4
		c0,0.4,0,0.9,0.3,1.3c3.6,4.3,2.6,8.3-1.6,12.3c-3.8,3.7-8.9,6.6-14.8,9.1c-4.7,1.9-10.1,3.3-16,1.8c-1.2-0.3-3,0-4.3,0.2
		c-3.5,0.6-7,0.8-10.1-0.4c-2.8-1.1-5.2-2.4-7.8-3.7C684.8,276.1,684.9,275.9,685.3,275.7z M686.8,258.2c0.9,1.9,1.7,3.7,2.6,5.6
		c0.3,0.7,0.5,1.6,1,2.2c0.9,0.8,2.3,1.5,3.1,2.3c1.9,1.9,4.7,3,8.3,2.2c3.3-0.6,6.8-1.5,9.6-2.6c4.7-1.9,8.9-4.1,13.4-6.2
		c0.5-0.3,1.4-0.7,1.4-1.1c-0.2-2.7,0.3-5.7-1.2-8.2c-2.4-3.9-7.1-7-13.6-9.2c-3.5-1.3-8.7-2.4-5.9-6.6c-2.4,0.8-4.7,1.2-5.7,2
		c-1,0.9-2.1,1.6-3.8,2.1c-1.6,0.5-2.8,1.5-4.3,2.4c3.5,1.1,4.3,0.1,4.7-1.4c2.3,0,4.3-0.1,6.4,0c0.7,0,1.4,0.4,2.1,0.6
		c-0.5,0.3-1,0.7-1.7,0.7c-5.4,0.4-8.5,2.7-12,4.7c-4,2.3-2.1,5.3-1.9,7.9c0,1.3,1.7,1.5,3.6,0.4
		C691.4,258.9,691.4,258.9,686.8,258.2z M715,277c5.4,0.9,12-1.8,19.3-8c3.5-3,5.2-6.3,3.3-10.1c-0.7,0.4-1,0.9-1.4,1.4
		c-1,1.5-1.9,3.2-3.1,4.5c-1.7,2-3.6,3.9-5.7,5.7c-2.3,1.9-4.9,3.7-7.5,5.4c-0.5,0.4-1.7,0.4-2.6,0.6
		C716.6,276.8,715.9,276.9,715,277z M679.5,242.1c-4.2,0.7-8.7,7.2-7,9.4C674.9,248.3,677.3,245.1,679.5,242.1z M718.8,242.4
		c0.3-0.1,0.5-0.2,0.9-0.3c-1.7-1.7-3.3-3.3-5.6-5.5c-0.9,0.8-1.6,1.3-2.1,1.9c-0.2,0.3-0.2,1.1,0.2,1.2
		C714.5,240.5,716.7,241.5,718.8,242.4z M677.6,268.5c0.5-0.4,1.2-0.7,1.2-0.9c-0.7-1.1-1.6-2.1-2.4-3.2c0-0.1-0.9,0.1-1.2,0.1
		c0.3,0.8,0.3,1.8,0.9,2.5C676.1,267.6,676.8,268,677.6,268.5z"/>
	<path id="XMLID_728_" class="st0" d="M839.1,242.8c-1.2,1.6-2.4,3.2-3.5,4.8c-1.7,2.7-3.6,5.4-5.4,8.1c-0.2,0.2-0.3,0.6-0.3,0.8
		c1.2,2.6-0.9,4.4-3.6,6.3c-2.3,1.7-4.3,3.4-5,5.8c-0.7,2.5-3,5-4.5,7.4c-0.2,0.3-0.9,0.5-1.6,0.8c1.4-3,2.8-5.7,4.2-8.5
		c-0.3-0.1-0.7-0.2-1-0.2c-2.1,2.8-1.2,6.7-7.1,8.2c-0.3-0.5-1.2-1.4-1.9-2.2c-0.2,0-0.3,0-0.5,0c-0.2,0.6-0.3,1.2-0.5,1.7
		c-6.4-3.3-8.2-7.9-10.3-12.5c-0.9-1.9-2.3-3.8-3.3-5.7c-0.3,0-0.9,0-1.2,0c-0.7,1.1-1.2,2-1.9,3.1c-0.9,1.4-1.9,2.6-2.8,4
		c-0.2,0.3-0.5,0.7-0.3,0.9c2.3,2.4-0.9,4.4-1.4,6.5c-0.3,1.2-1.2,2.3-1.9,3.4c-0.5,0.6-1.4,1.8-1.7,1.7c-1.7-0.2-3.5-0.6-5-1.3
		c-0.7-0.3-0.7-1.2-1.2-1.7c-0.5-0.5-1.2-1.2-2.1-1.3c-2.6-0.4-3.8-1.3-4.5-2.7c-1.6-3.3-3.1-6.4-4.9-9.7c-0.5-0.9-1.4-1.9-2.1-2.8
		c-2.3-2.7-4.2-5.6-6.6-8.3c-2.6-2.8-5.6-5.6-8.5-8.2c-1.6-1.4-1.4-2.4,0.9-3.3c0.7-0.2,1-0.6,1.7-0.9c2.1-1.2,4.2-2.3,6.4-3.3
		c0.5-0.2,2.3,0.3,3.3,0.7c0.5,0.2,0.9,0.8,1,1.4c0.7,1.5,2.1,1.7,4.2,1.2c3.6-0.8,5.6-0.1,6.1,2.2c0.2,0.5,0.3,1.2,0.3,1.7
		c0,0.3-0.2,0.7-0.3,1.1c-0.5-0.2-1.4-0.4-1.6-0.7c-0.3-0.9-0.3-1.9-0.5-3.4c-2.1,1.3-3.6,2.1-4.9,3.1c-0.2,0.1,0.5,0.9,1,1.1
		c3.5,0.6,1.2,1.2-0.5,1.9c3.5,0.5,5.2,1.9,4.5,4c1.4,0,2.3-0.1,3.3-0.1c0,0.2,0.2,0.3,0.2,0.5c-1,0.2-2.1,0.3-3.6,0.5
		c2.6,4.8,7.1,9,12.3,12.9c0.3,0,0.7,0,0.9-0.1c0.5-1.5,1-3,1.4-4.4c1.2-4.7,2.4-9.5,5.7-13.9c0.9-1.3,1.7-2.7-0.7-3.9
		c-0.5-0.2-0.7-1.1-0.3-1.4c0.2-0.3,1.4-0.2,2.1-0.5c0.7-0.2,1.4-0.6,1.6-0.9c0.2-0.6,0-1.3-0.2-1.9c1.4-0.1,2.6-0.1,3.6-0.2
		c3-0.5,5.4,0.8,4.9,2.6c-0.5,2.5-1,5.1-1,7.6c0,1.1,1.2,2.1,1.7,3.3c0.5,1.3,0.9,2.5,1.4,3.8c0,0.2,0,0.5,0.2,0.6
		c4.7,2.2,5,5.5,5.7,8.6c0,0.1,0.2,0.3,0.5,0.6c0.5-0.2,1.2-0.4,1.4-0.7c2.6-3,5.2-5.9,7.5-9c3.1-4.4,6.1-8.9,8.9-13.4
		c0.7-1.1,0.7-2.2,0.9-3.4c0.3-2.5,3.8-4.2,7.8-3.6c1,0.2,1.9,1.2,2.3,1.9c0.7,1.5,1,3.2,1.6,4.6c0.9,0,1,0,1.2,0
		c0.9-0.4,1.7-0.7,2.8-1.2c0,0.7,0.3,1.6,0,2.3C842.6,240.6,841.9,242.3,839.1,242.8c0.3-0.4,0.7-0.8,1-1.3c0.3-0.4,0.7-0.9,1-1.4
		c-0.3-0.1-0.9-0.2-0.9-0.2c-0.5,0.4-1.4,0.8-1.6,1.3C838.4,241.7,838.9,242.3,839.1,242.8z M764.2,240.2c1-0.7,1.9-1.5,3-2.2
		c-0.3-0.1-0.5-0.3-0.9-0.4C766.3,238.7,761.9,237.7,764.2,240.2z"/>
	<path id="XMLID_721_" class="st0" d="M539.6,288.2c-8.3,0-16.5,0-25,2.1c2.4,0.4,4.3,0.5,6.1,0.9c3.5,0.8,6.8,1.9,10.3,2.6
		c2.6,0.6,5.4,0.8,8.2,1.3c0.9,0.1,1.7,0,2.6,0.1c0.7,0.1,1,0.5,1.7,0.8c-0.7,0.2-1.4,0.5-1.9,0.4c-3.6-0.8-5.6,0.8-7.6,2.1
		c-0.5,0.3-0.3,1.1-0.3,1.6c0,1.3,0,2.5,0,3.9c-0.3,0.1-0.5,0.1-0.9,0.2c-0.5-0.4-1-0.7-1.4-1.2c-0.3-0.7-0.5-1.5-0.9-2.2
		c-0.9-1.6-2.8-2.1-5.2-1.7c-2.8,0.4-5.7,0.9-8.3,1.5c-6.8,1.4-13.4,2.8-20.2,4.3c-0.7,0.2-1.4,0.8-1.6,1.4
		c-0.3,0.7-0.2,1.5-0.2,2.2c0.2,2.2,1.9,2.8,5.2,1.8c8.9-2.7,20-2.2,26.6,1.7c0.7,0.4,1.9,0.8,3,0.9c2.3,0.1,4,0.8,3.8,2
		c-0.2,0.8-2.3,1.6-3.5,2.3c-0.3,0.2-1,0.2-1.7,0.2c0.5,1.2,1.7,2.4-2.3,2.5c2.6,1.5,6.8,2.6,3.3,4.8c-1.9,1.2-4.9,1.1-7.8,0.1
		c2.1-0.5,4-0.8,5.7-1.3c0-0.1,0.2-0.3,0.2-0.4c-2.3-0.4-4.3-1.1-6.6-1.2c-4-0.2-8.2-0.1-12.2-0.1c-4,0-5.2,0.6-6.4,3.1
		c-0.2,0.2-0.3,0.4-1.4,0.6c-0.2-0.7-0.9-1.6-0.5-2.1c2.3-3.4,6.8-4.2,12.5-4c0-0.2,0-0.4,0-0.6c-1.2-0.2-2.6-0.6-3.8-0.5
		c-3.8,0.3-7.8,0.8-11.6,1.4c-0.5,0.1-1.2,0.8-1.2,1.3c-0.2,2.7-0.2,5.5,0,8.2c0,0.4,1.4,1.3,1.7,1.3c7.8-1.3,15.8-1.3,23.6-1.1
		c2.1,0.1,4.7,0.4,6.4,1.1c2.1,0.8,3.8,2.1,5,3.5c1.4,1.7-1.6,4.5-4.7,5c-0.7,0.1-1.4,0.2-2.4,0.3c1.4,2.2,3.8,4.4,0.5,7
		c-4.2-2.4-9.4-2.6-14.8-2.5c-1.4,0-2.8-0.3-4.2-0.4c-2.8-0.2-5.7-0.3-9-0.5c-1.6-1.6-3-1.7-6.3-0.4c-2.1,0.8-3.1,0.6-3.5-0.8
		c-0.5-1.8-0.7-3.6-0.9-5.3c-0.2-4.3,0-8.5-0.2-12.9c-0.2-3.7-0.7-7.4-0.5-11.1c0.2-4.2,0.9-8.4,1.2-12.6c0.2-1.1,0.9-2.3,0.2-3.2
		c-0.7-0.8-2.6-1.3-4.2-1.8c-0.7-0.3-1.6-0.4-2.3-0.6c0.7-0.3,1.2-0.7,1.9-1.1c2.4-0.9,5-2,7.6-2.8c0.7-0.2,1.6-0.2,2.4-0.1
		c5.6,0.8,10.9,0.2,16.2-0.4c3-0.3,5.7-1.7,8.7-2.2C525.7,286.3,532.7,286.8,539.6,288.2z M499.7,298.5c1.7,0.7-2.1,3.4,2.8,2.8
		c1.9-0.2,3.8-1.1,3-2.2C504.4,297.4,501.8,298.4,499.7,298.5z M526.8,319.2c-3.5-2.2-6.6,0.2-9.7,0
		C519.3,320.2,525,320.2,526.8,319.2z M525.2,344.3c-2.3-2.5-4.7-3.3-7.5-2.7C520.2,342.4,522.6,343.4,525.2,344.3z M505.2,341.3
		c0,0.2-0.2,0.4-0.2,0.6c2.1,0.4,4.3,0.7,6.4,1.2c0.2-0.2,0.2-0.5,0.3-0.7C509.9,341.3,507.3,341.8,505.2,341.3z M498.8,302.1
		c0-0.2,0-0.4-0.2-0.6c-1-0.2-1.9-0.4-3.6-0.9c0.5,0.9,0.7,1.8,1.2,1.8C496.9,302.6,497.9,302.3,498.8,302.1z"/>
	<path id="XMLID_717_" class="st0" d="M966.7,303.6c-1.7-0.3-3.5-0.6-5.2-1.1c-1.7-0.4-3.5-0.8-5.2-1.4c-1.7-0.5-3-0.6-4.7,0.2
		c-1.9,0.9-4.3,1.6-6.6,2.4c-0.2-0.1-0.3-0.2-0.5-0.3c1.6-1.1,3.3-2.1,5.2-3.4c-0.3-0.1-1-0.3-1.6-0.6c-1.4-1.2-2.6-0.6-4,0
		c-3.5,1.9-7,3.8-10.3,5.8c-1.7,1.2-3.5,2.6-4.3,4.1c-2.4,4.4-4.5,8.9-6.6,13.3c-0.3,0.8-0.2,1.9-0.3,3.4c1.4-0.5,2.4-0.8,2.6-1.2
		c0.9-2.5,4.3-2.6,7.5-3.1c4-0.6,8-1.1,11.8-2.5c2.1-0.8,5.6-0.3,8.3-0.2c2.1,0.1,4.2,0.8,6.3,0.8c5.2,0.1,10.1,2.5,6.6,6.4
		c-2.4,2.7-5.6,5.3-7.8,8c-1.2,1.5-2.6,2.7-4.7,3.7s-4.2,2.1-6.6,2.7c-3.8,1.2-8,2-12,3c-1.4,0.3-3,0.5-4.3,0.6
		c-3.6,0.1-7.3,0-10.9,0c-0.2,0-0.3,0-0.5,0c-2.4-0.2-3.6-1.1-5-2.2c-1-0.8-3.6-0.9-5.4-1.6c-0.7-0.3-1.2-1.3-1.2-1.8
		c0.2-2.6,0.7-5.4,1-8c0.2-2.1,0.2-4.2,0-6.3c-0.2-3.1,0.3-6,3-8.7c1.2-1.3,1.7-2.7,3-4.1c3-3.4,5.9-6.7,9.2-10
		c1.4-1.3,3.6-2.3,5.7-3.3c5.6-2.5,11.3-5.2,17.2-7.5c5.9-2.2,9.2-1.3,14.9,1.2c1,0.4,2.3,0.8,3.3,0.9c2.4,0.2,3.6,0.9,3.5,2.3
		c0,1.5,0,3,2.3,4c1.6,0.7,1.4,1.7,0.2,2.5c-1.2,0.8-2.6,1.6-4,2.3C966.8,304.2,966.8,303.8,966.7,303.6z M952.4,327.2
		c-1.4-0.1-2.1-0.2-2.6-0.2c-4.2,0.1-8.5,0.2-12.7,0.4c-1.9,0.1-4.2,0-5.9,0.5c-2.1,0.6-3.5,0.6-5.6-0.1c-1.4-0.5-3.6-0.9-4.2,0.5
		c-0.3,0.9-0.2,2.2,0.5,3.1c1.6,1.5,3.8,2.6,5.6,4c3,2.1,6.3,2.8,10.1,1.4c3.6-1.4,6.8-3.2,9.7-5.1
		C949.6,330.7,950.7,329,952.4,327.2z M951,293.2c2.1,0,4,0.1,5.7-0.1c0.5,0,1-0.7,1.2-1.2c0-0.2-0.5-0.7-1-0.8
		C955.4,290.7,952.1,291.7,951,293.2z"/>
	<path id="XMLID_716_" class="st0" d="M885.2,333.1c0.5-0.7,0.9-0.9,0.9-1.2c-0.9-7.9-1.9-15.8-2.8-23.6c-0.2-2.5,0.2-5.1,0.2-7.5
		c0-1.1,0-2.2,0.2-3.3c0.9-3.4,2.3-6.7,1.2-10.2c0-0.3,0.5-0.9,1-1.1c0.9-0.1,2.4-0.2,2.8,0.1c1.4,1.2,3,1.8,5.4,1.8
		c0.7,0,1.4,0.5,2.1,0.8c-0.5,0.3-0.9,0.7-1.4,1.1c-0.3,0.3-0.9,0.6-0.7,0.8c0.5,2,1,4,1.6,5.7c2.3-0.6,4-1.2,5.7-1.6
		c0.7-0.1,2.1,0.2,2.3,0.3c0.5,2.6,2.1,5.3-0.5,8.2c-0.3-0.7-0.5-1.3-0.5-1.7c0-0.9,0.2-2,0-3c-0.2-0.9,0.9-2.4-2.1-2.5
		c-1.9-0.1-4.2,1.9-4.2,3.2c0,2.1-0.2,4.1-0.2,6.2c0,0.9,0.3,1.9,0.3,2.8c0,0.2-0.2,0.5-0.2,0.7c-0.3,0.7-0.7,1.6-0.7,2.3
		c0,4.4,0.3,9,0.2,13.4c-0.2,3.2-0.7,6.4-1.2,9.6c-0.2,1.1-0.2,2.2-0.5,3.3c-0.3,0.9-1,1.8-1.6,2.7c-0.7,1.5-1.4,3.1-2.3,4.5
		c-0.3,0.6-0.7,1.2-1.4,1.6c-0.2,0.2-1.4-0.2-2.1-0.3c1.6-2.8-2.8-3.2-5.2-4.1c-5.2-2-8.5-4.7-11.1-8c-2.1-2.7-4.5-5.4-6.6-8.1
		c-1.2-1.6-1.9-3.3-2.8-4.8c-0.2-0.4-0.5-0.8-0.9-1.3c-0.3,0-0.5,0-0.9,0c-0.7,2.3-1.2,4.6-1.9,7c-1.4,4.1-2.6,8.1-4.3,12.1
		c-1.4,3.1-3.1,6.1-6.4,8.6c-0.9,0.6-2.6,1.5-3.5,1.4c-2.1-0.3-2.3-1.5-1.6-2.6c1.2-2.4,2.6-4.7,3.6-7.2c0.3-0.8,0.2-1.7,0.3-2.5
		c0-0.2,0.2-0.7,0.3-0.7c2.4-0.3,2.1-1.6,2.4-2.6c1-4,1.9-8,2.8-12c0.2-0.6-0.2-1.4-0.2-2c-0.2-1.2,0.7-2.2,1.4-3.3
		c1.2-2.1,1.6-4.5,1.6-6.8c0-3.2-1.6-6.3-0.7-9.3c0.5-1.9,2.3-3.8,3-5.8c0.3-1.1,1.6-1.2,3.1-0.6c4.2,1.5,6.3,3.5,5.7,6.4
		c-0.2,0.9-0.3,1.9-0.2,2.7c0.3,1.3,0.9,2.5,1.4,3.8c0,0.2,0.2,0.3,0.3,0.5c3.1,7.2,9,13.7,12.5,20.9
		C880.1,329.8,882.9,331.2,885.2,333.1z"/>
	<path id="XMLID_715_" class="st0" d="M580.5,266c0.3,1.3,1,2.6,0.7,2.8c-1.6,0.5-3.5,0.6-5.4,0.9c0.5,0.5,1.2,1.3,1.7,2
		c0.2,0.3,0,0.8-0.2,1.3c-0.7,0-1.7,0.1-2.1-0.2c-3.1-2.5-6.6-1.2-10.3-0.5c-2.1,0.3-4.3,0.3-6.4,0.2c-3.6-0.1-7.3-0.4-10.8,0.6
		c-2.6,0.7-5-0.3-5.6-2c-0.3-1.4-0.9-2.7-1.4-4c-0.7,0.5-1.2,1.1-1.9,1.4c-0.3,0.1-1.7-0.5-1.7-0.8c0.2-0.6,0.7-1.7,1.2-1.8
		c2.6-0.3,2.1-1.5,2.1-2.5c0-1.7,0-3.4,0-5.1c0-3.6,0-7.2,0-10.9c0.2-4.4,0.5-8.7,0.7-13.2c0.2-2.8-0.2-5.6,0-8.4
		c0-1.2,0.2-2.4,0.5-3.6c0.9-1.8,5.7-3.5,8.2-2.5c4.7,1.9,9.9,1.8,14.9,1.7c5.7-0.2,10.3,1.4,14.8,3c1.4,0.4,3,0.7,4.3,1.2
		c0.7,0.2,1.4,0.5,2.1,0.8c-0.5,0.4-1,0.9-1.7,1.2c-0.5,0.2-1.4,0.1-2.3,0.2c-0.7,0.1-1.4,0.2-2.1,0.4c0.5,0.3,0.9,0.7,1.6,1.1
		c1,0.5,2.3,0.9,3.3,1.4c0,0.1-0.2,0.3-0.2,0.4c-2.1,0.2-4.2,0.3-6.3,0.5c0,0.1,0,0.2,0,0.3c1.6,0.4,3.1,0.9,4.7,1.4
		c-0.2,0.2-0.2,0.4-0.3,0.6c-0.9-0.1-1.9-0.2-2.6-0.4c-1.2-0.3-2.1-0.9-3.3-1.3c-5-1.7-10.8-1.2-16.2-2c-1.2-0.2-2.4-0.2-3.6-0.3
		c-2.1-0.3-3.8,0.2-4.3,1.3c-0.7,1.3,1.6,1.3,3,1.6c0.5,0.1,0.9,0.3,1.4,0.4c-0.2,0.1-0.2,0.2-0.2,0.2c-7.1,0.8-7.1,0.8-6.8,5.3
		c0,0.7,0.2,1.5,0.3,2.2c0.3,1.4,0.9,2.7,1.2,4.2c3.3,0,6.6,0,9.7,0c5-0.1,9.9-0.2,14.9-0.2c2.8,0,7,2,8,3.6c0.5,1.1-0.5,2.2-2.4,2
		c-2.8-0.2-4.9,0.4-6.8,1.7c-0.5,0.3-1.6,0.5-2.3,0.6c-5,0.2-10.1,0.5-14.8-0.8c-0.7-0.2-1.6-0.4-2.4-0.4c-4-0.3-4.3,0.1-5.7,2.3
		c-1.9,3.2,0,6.2-0.7,9.4c-0.2,1.1,1,1.4,2.6,1.1c2.1-0.3,4.3-0.6,6.6-0.6c7-0.2,13.7-0.3,20.7-0.4c0.9,0,2.3,0.4,2.3,0.8
		c0.2,0.6-0.3,1.4-0.5,2C580.8,266.1,580.1,266.1,580.5,266z"/>
	<path id="XMLID_712_" class="st0" d="M563.4,358.9c0.3,0.8,0.5,1.6,0.9,2.4c0.7,1.8-0.5,2.6-3.3,2.2c-1.9-0.3-3.1,0-4,1.1
		c-1.9,2.3-4,4.5-5.4,7c-0.5,0.7,0.7,1.9,1.4,2.8c2.3,3,8.3,5.4,13.4,4.8c1.6-0.2,3-1.7,4-2.7c2.4-2.5,3.6-5.6,6.8-7.8
		c3.5-2.5,8.5-4.2,12.9-6.3c0.7-0.3,1.6-0.6,2.1-1.1c1.2-1.3,2.8-1.7,4.9-0.8c1.6,0.6,2.8,0.6,4.3,0.1c0.9-0.4,2.3-0.4,3.5-0.5
		c2.8,0,3.8,0.8,2.8,2.4c-0.9,1.2-0.3,1.9,0.7,2.8c3.1,3,6.3,5.9,7,9.4c0.3,1.7,0,3.5-1,5.1c-4.9,7.8-18.2,11.1-30.4,8.1
		c-3.5-0.8-7.1-1.5-9.6-3.6c-1.7-1.5-4.3-1.1-5.2,0.7c-1,2-5.2,2.3-8.9,1.7c-4.7-0.7-9.4-1.8-13.6-3.2c-3.6-1.2-5.9-3.3-7.3-5.8
		c-1.9-3.5-1.7-6.8,1-9.9c1.9-2,5-3.7,7.8-5.4c3.1-1.9,6.6-3.7,10.1-5.5c2.3-1.2,4.5-2.2,7.1-3.1c2.1-0.7,4.3,0,5.2,1.3
		c0.5,0.8,1,1.8,1.6,3c-1-0.1-1.6-0.2-2.1-0.2c-0.9,0.1-1.9,0.2-2.8,0.3c0.3,0.6,0.7,1.4,1.4,1.9c0.7,0.5,1.7,0.7,3.1,1.4
		c-4.2,0.4-5.4-1.3-6.8-2.7C564.1,358.7,563.8,358.8,563.4,358.9z M592.1,381.7c1.9-0.3,4.7-0.7,7.6-1.2c3.5-0.5,4.5-2.5,6.8-3.8
		c0.2-0.1,0-0.5,0-0.8c-0.2-0.9-0.7-1.9-0.7-2.8c-0.5-3-3.8-4.5-7.5-6.1c-0.9-0.4-3-0.4-4-0.1c-5.9,2-9.2,5.3-10.6,9.2
		C583.3,378.5,587.6,381.7,592.1,381.7z"/>
	<path id="XMLID_711_" class="st0" d="M608.5,223.7c0,2.2,0,4,0,5.9c0.2,0,0.3,0.1,0.7,0.1c0.5-0.3,1-0.6,1.7-1.2
		c0.3,0.4,0.7,0.8,0.7,1.3c0.2,0.8,0.3,1.4,1.9,1.6c0.9,0.1,1.7,0.8,2.6,1.3c-0.2,0.1-0.3,0.2-0.3,0.4c-0.9-0.1-1.9-0.2-3.3-0.4
		c0,4.7,0.2,9.4,0,14c0,3-0.5,5.8-0.9,8.7c0,0.3-0.3,0.7-0.2,1.1c2.8,3.1,0.3,6.1-0.5,9.1c-0.2,0.7,0.2,1.6,0.2,2.4
		c1.2-0.2,2.4-0.4,3.5-0.4c3.5,0,7,0.1,10.3,0.2c1.4,0.1,2.8,0.4,4,0.6c2.1,0.4,4.2,0.8,6.3,1.2c0.9,0.2,1.9,0.2,3,0.3
		c0-0.2,0.2-0.4,0.2-0.6c-0.7-0.2-1.2-0.4-2.1-0.6c3.6-0.3,3.6-0.3,3,3.2c1.6-0.1,3.3,0.1,2.6-1.6c-0.2-0.3,1-1.3,1.6-1.3
		c2.8,0,5.7,0.3,8.5,0.5c0.3,0,0.7,0.2,1.4,0.4c-3.3,1.2-7.6-0.5-10.6,2c2.3,0.1,4.2,0.2,5.7,0.4c1.6,0.2,3.1,0.6,5.2,1.2
		c-1.7,0.8-2.8,1.3-3.8,1.8c0.5,0.4,0.9,0.7,1.2,0.9c0.3,0.4,0.5,0.8,0.7,1.3c-0.7,0.1-1.6,0.3-2.3,0.4c-2.8,0.1-5.7-0.4-8.2,1.3
		c-0.7,0.4-2.6,0.2-4,0.3c-2.1,0-4,0.1-6.1,0c-3.3-0.2-6.6-0.5-9.9-0.9c-3.8-0.4-7.5-0.8-11.1,0.4c-2.4,0.8-4.9,0-5.9-2.3
		c-0.9-1.8-1.9-3.5-4-4.8c-0.5-0.3-0.3-1.1-0.5-1.6c0-1.8,0-3.6,0-5.5c0-3.7,0.2-7.3,0.2-11c0-1.8,0.2-3.7,0.3-5.5
		c0.2-3.8,0.5-7.7,0.7-11.5c0-1.1,0.2-2.2,0.3-3.3c0.2-1.3-0.5-2.6,2.1-3.4c0.7-0.2,1.2-1.2,1.2-1.8
		C604.6,225.7,604.6,225.7,608.5,223.7z"/>
	<path id="XMLID_707_" class="st0" d="M679,369.1c-3-1.3-3-2.4-0.5-5.7c2.6,0,5,0,8,0c-0.3,0.3-0.7,0.5-1.6,1.1
		c1.7,0.4,3.1,0.8,4.7,1.1c2.1,0.3,4.3,0.5,6.4,0.8c4.3,0.7,6.3,2.8,8,5c2.3,2.5,3.5,5.3,3.3,8.2c0,0.7,0.2,1.5,0.3,2.5
		c0.7-0.5,1-0.7,1.4-1.2c0.3,1.2,1,2.2,1,3.3c0.3,3.4-1,6.6-3.5,9.6c-1.9,2.2-4.9,3.8-9.4,4.1c-2.3,0.1-4.5,1.2-6.8,1.9
		c-1.2,0.3-2.4,1.1-3.5,0.9c-4-0.5-6.8,0.9-9.4,2.3c-2.1,1.1-2.6,0.3-3.1-0.6c-0.9-1.9-1.7-3.8-2.4-5.6c-0.2-0.3,0.3-0.7,0.3-1.2
		c0.5-1.9,1.2-3.8,1.7-5.7c0.3-1.3,0.5-2.5,0.7-3.8c0.2-1.6-0.2-3.3,0-4.8c0.3-2.4,0.9-5,1.2-7.4c0.2-1.1,0.3-2,0.5-3.1
		C676.9,370.1,676.1,369,679,369.1z M683.5,395.5c8.2-1.9,13.2-5.4,16.9-9.6c2.8-3.1,0.7-6.1-1.6-9.1c-1.7-2.2-3.1-4.7-7.8-5.4
		c-0.2,0.4-0.3,0.8-0.5,1.3c-3.1-1.1-3.6-0.8-4,0.7C685.6,380.7,684.6,387.9,683.5,395.5z M700.8,394.5c4.9-2.3,7-5.6,7.3-9.5
		C705.4,388.2,703.2,391.3,700.8,394.5z"/>
	<path id="XMLID_703_" class="st0" d="M730,401.6c-0.9,0-1.9,0-3.1,0c0.7-0.7,1.2-1.3,1.7-1.8c-0.2-0.1-0.3-0.2-0.5-0.2
		c-1,0.4-1.9,0.9-3.3,1.6c1.4,0.5,2.4,0.9,3.5,1.4c-3.5,1.8-4.5,1.9-8.5,0.4c-2.4-0.9-4.9-2.1-8-1.1c-0.3,0.1-1.4-0.2-1.6-0.4
		c-0.2-0.2,0-0.8,0.3-1.1c1.9-1.1,2.6-2.4,3-3.9c0.3-1.8,4-3.7,6.8-3.9c0.2,0,0.2,0,0.3,0c5,1.6,5.9-1.7,8.7-2.7
		c1.9-0.6,1-2.1-0.9-3c-1.6-0.6-3.1-1.3-4.7-1.9c-1.9-0.8-3.1-1.9-3-3.5c0-0.3-0.3-0.6-0.9-1.5c-0.5,0.8-0.7,1.3-1,1.7
		c-0.2,0-0.5,0-0.5-0.1c-1.4-1.7,0.2-6.3,2.6-7.5c0.3-0.1,0.3-0.5,0.5-0.7c0.3-0.4,0.7-1.1,1-1.1c2.8-0.1,3-1.5,3.8-2.5
		c0.3-0.4,1.4-0.9,2.1-0.8c5,0.3,8.7-1.3,11.6-3.1c1.7,0.2,3.1,0.3,4.7,0.4c0.5,0,1.2,0,1.7,0.1c0.7,0.2,1,0.7,1.6,1.1
		c-0.7,0.1-1.4,0.3-2.1,0.4c0.2,0.1,0.3,0.2,0.5,0.3c-1,0.6-2.1,1.7-3.3,1.9c-5.9,1.1-9.4,3.8-13,6.3c-0.7,0.5-0.7,1.6-0.5,2.2
		c0.2,0.3,1.7,0.6,2.6,0.6c1.2,0.1,2.6,0,4,0c4,0,7.5,1.6,8,4c0.7,3.8,1,7.6,1,11.4c0,2.6-3.3,4.4-7.8,4.8l0,0
		c0.7-0.5,1.2-1.2,2.1-1.6c3.1-1.5,4.3-3.5,3.6-5.8c-0.2-0.4-0.7-0.8-0.9-1.3c-0.5,0.4-0.9,0.8-0.7,1.1c0.9,1.7,0,3-2.1,3.9
		c-2.3,1.2-4.9,2.1-7.1,3.3C731.2,399.8,729.1,400.3,730,401.6L730,401.6z M744,386.8c-0.9-0.7-1.6-1.4-2.3-2.1
		c-0.7-0.7-1.2-1.5-1.7-2.1c-1.4-1.5-3.8-1.8-7.5-0.7c4.5,1.2,7.5,3,8.9,5.7C742.3,387.2,743.2,387.1,744,386.8z M720,398.4
		c3,0.6,5-0.8,7.6-0.6c-0.5-0.8-0.7-1.3-0.9-1.7C724.6,396.9,722.5,397.5,720,398.4z"/>
	<path id="XMLID_702_" class="st0" d="M829,348.4c-1.2-1.5-2.3-3.1-3.5-4.5c-0.5-0.6-1.6-1.4-2.6-1.8c-3.8-1.2-4.3-3.2-4.3-5.4
		c0.2-7.7,0.3-15.5,0.5-23.2c0-1.7-0.5-3.4-0.7-5.3c3-0.1,3.1-1.7,3.1-3.4c0-0.9,0.5-1.8,0.9-2.6c0.2-0.4,1-0.6,1.6-1.1
		c0.3,0.3,1,0.6,1.2,1.1c0.9,1.7,1.6,3.4,2.3,4.8c1.9,0,3.1,0,4.3,0c0.2,0.2,0.3,0.4,0.3,0.6c-2.3-0.5-3-0.3-2.6,0.9
		c0.5,2.6,0.5,5.4,1,8.1c0.2,0.6,1,1.2,1.4,1.6c-0.5,1.1-1.4,2.1-1.4,3.2c-0.3,2.3,0,4.5-0.3,6.8c-0.2,2.6-0.9,5.3-1,8
		c0,1.8,0.5,3.5,0.7,5.3c0.2,2,0.3,4,0.3,6c0,0.2-0.3,0.4-0.5,0.5C829.7,348.3,829.4,348.4,829,348.4z"/>
	<path id="XMLID_701_" class="st0" d="M811.3,288.3c0.2-1.1,0.3-2.3,0.9-3.5c0.2-0.3,0.5-0.7,1-0.9c1.4-0.5,2.4-0.8,0.3-1.7
		c-0.3-0.1-0.2-1.1,0.3-1.3c1.6-1.1,3.3-1.6,5.7-1.3c1.4,0.2,3,0,4.3,0c2.3,0,3.3-0.5,3.1-2c0-0.3,1.2-0.7,1.7-1.1
		c0.5,0.3,1.4,0.7,1.4,1.1c0.3,3,0.5,5.9,0.5,8.9c0,0.4-0.9,0.9-1.6,1.3c-0.7,0.4-1.9,0.7-2.3,1.3c-1.2,2.1-4.3,3-7.3,3.9
		c-4,1.3-7.6-1.3-8.5-3.8C811.1,289,811.3,288.7,811.3,288.3z"/>
	<path id="XMLID_700_" class="st0" d="M641,200.5c0-2.7,0.5-5.4,3.5-7.7c1.9-1.5,4.3-1.7,6.6-0.3c0.5,0.3,1,0.7,1.7,1.1
		c4.5,1.8,5.7,3.8,3.6,6.8c-1,1.6-3.5,3-4.3,4.5c-0.9,1.8-3.1,2.5-5.2,3.3c-2.4,0.9-3.5,0.7-4.2-0.9
		C641.8,205,641.5,202.7,641,200.5z"/>
	<path id="XMLID_699_" class="st0" d="M998.5,597.9c1,0.3,2.1,0.7,3.3,0.9c0.9,0.1,1.9,0.2,2.4-0.1c0.5-0.3,1.2-1.2,0.9-1.5
		c-2.1-2.3,1-4.1,1.2-6.1c2.6-0.2,3.5,0.5,2.8,1.8c-0.7,1.6-2.1,3.2-2.1,4.7c0,2.6-3.5,3.9-4.9,5.9c-0.9,1.2-0.3,2.7-0.2,4.2
		c0,0.6,0.3,1.3,0.7,2c-2.6-0.2-2.6-0.4-3.1-7.4c0.7,0.2,1.2,0.3,1.7,0.4c1.9-2.2,1.7-2.5-1.9-3.6c-0.5-0.2-1-0.6-1.6-0.9
		C998.1,598.3,998.3,598.1,998.5,597.9z"/>
	<path id="XMLID_698_" class="st0" d="M309.4,554.8c0.3,0.7,0.9,1.4,1,2.1c1.4,5.2,2.6,10.3,4,15.5c0.3,1.1,0.9,2,1.4,3.3
		c-0.5-0.3-1.4-0.6-1.6-1.1c-1.4-3.5-3-7-4-10.5c-0.9-3-1.4-6-2.1-9.1C308.5,555,309,555,309.4,554.8z"/>
	<path id="XMLID_697_" class="st0" d="M899.9,313.2c4.7,0,3.1,1.5,3.1,2.4c-1-0.2-2.1-0.5-3.1-0.7c-0.3,0.5-0.7,0.9-0.9,1.5
		c0,0.1,0.2,0.4,0.3,0.4c5,1.3-0.3,1.6-0.9,2.4c0-0.2,0.2-0.4,0-0.6c-2.4-3.5-0.2-6.4,3.1-9.2c0.2-0.2,0.2-0.4,0.3-0.6
		c0.3-0.3,0.9-0.6,1.4-0.8c0.3,0.3,1.4,0.8,1.2,1.1c-0.5,0.8-1.4,1.7-2.1,2.5C902,312.1,901.1,312.5,899.9,313.2z"/>
	<path id="XMLID_696_" class="st0" d="M1002.1,583.9c-1.7-2.6,0.3-8.6,4.2-10.4C1004.9,577.2,1007,581,1002.1,583.9z"/>
	<path id="XMLID_695_" class="st0" d="M876.6,201.1c-4.2-0.2-8.3-0.5-12.3-0.5c-4.2,0-8.5,0.2-12.9,0.3c0.2-0.3,0.2-0.5,0.2-0.5
		c5.4-0.4,10.6-0.9,16-1.1c3,0,6.1,0.7,9,1.2C876.8,200.7,876.6,200.9,876.6,201.1z"/>
	<path id="XMLID_694_" class="st0" d="M472.4,205.3c-0.7,0.3-1.2,0.7-1.7,0.7c-3.5-0.2-3.6-0.2-2.6,1.7c-2.4-0.5-5-0.9-7.5-1.6
		c-0.3-0.1-0.7-0.6-0.7-0.8c0.2-0.3,0.9-0.6,1.4-0.6c1.7,0,3.5,0,5,0.1C468.2,204.9,469.9,205.1,472.4,205.3z"/>
	<path id="XMLID_693_" class="st0" d="M903.1,316.8c0.9,0.5,1.9,0.7,1.9,1.2c0.5,2.8,0.3,5.7-1.9,8.3
		C903.1,323.3,903.1,320.3,903.1,316.8z"/>
	<path id="XMLID_692_" class="st0" d="M625.3,282.7c-3.1-0.2-6.4-0.4-9.6-0.7c-0.7-0.1-1.2-0.8-1.7-1.4c3.5,0.2,6.6,0.4,9.7,0.7
		c0.7,0.1,1.4,0.6,1.9,0.9C625.5,282.4,625.3,282.5,625.3,282.7z"/>
	<path id="XMLID_691_" class="st0" d="M834.8,325.1c0.2-0.3,0.3-0.6,0.5-0.8c1.2-1.1,3-2.1-1-2.3c-0.2,0-0.7-0.4-0.5-0.6
		c0-0.2,0.7-0.5,0.9-0.5c1.4,0.2,3,0.4,3.8,0.9c0.5,0.3,0.2,1.4-0.3,2c-0.7,0.6-1.7,1.2-2.8,1.7
		C835.3,325.3,834.9,325.2,834.8,325.1z"/>
	<path id="XMLID_690_" class="st0" d="M830.4,314.2c1.9-1.3,3.5-2.4,5.4-3.8C836.1,314.3,835.3,315,830.4,314.2z"/>
	<path id="XMLID_689_" class="st0" d="M553.4,209.2c0.3,3.1,4.7,2.1,7.5,2.7c-0.2,0.2-0.2,0.4-0.3,0.6c-3-0.3-6.1-0.5-9.4-0.8
		c0.5-0.9,1-1.7,1.4-2.3C552.7,209.2,553,209.2,553.4,209.2z"/>
	<path id="XMLID_687_" class="st0" d="M301.5,191.1c1-1.6,5.9-2.2,10.8-1.6C308.3,190.1,305.2,190.6,301.5,191.1z"/>
	<path id="XMLID_685_" class="st0" d="M389.6,208.4c-2.1,0.3-4.2,0.6-6.4,0.8c-0.3,0-1-0.4-1-0.5c0.2-0.3,0.7-0.8,1-0.8
		c2.1-0.1,4.2,0,6.3,0C389.6,207.9,389.6,208.2,389.6,208.4z"/>
	<path id="XMLID_684_" class="st0" d="M966.8,259c1.4,0.1,3,0.1,4.3,0.2c0.5,0,0.9,0.5,1.2,0.7c-0.5,0.2-1,0.6-1.4,0.6
		c-1.6-0.2-3-0.5-4.5-0.7C966.7,259.6,966.8,259.4,966.8,259z"/>
	<path id="XMLID_683_" class="st0" d="M769.2,229.6c1.6-0.3,3.1-0.5,4.5-0.8c0.2,0.2,0.2,0.3,0.3,0.5c-0.7,0.2-1.2,0.4-2.1,0.6
		c0.5,0.4,1,0.7,1.6,1.2c-0.2,0.1-0.3,0.3-0.3,0.4c-1.4-0.3-2.8-0.7-4.2-1.1C769.2,230.3,769.2,230,769.2,229.6z"/>
	<path id="XMLID_682_" class="st0" d="M737.3,399.5c-0.7,0.4-1.2,0.9-1.9,1.3c-1.2,0.5-2.4,0.9-3.8,1.4c-0.3,0.1-1-0.3-1.6-0.5l0,0
		C732.4,400.9,734.1,399.3,737.3,399.5C737.4,399.5,737.3,399.5,737.3,399.5z"/>
	<path id="XMLID_681_" class="st0" d="M617.8,319.2c-3.5,0-6.1,0-8.7,0c0-0.2,0-0.4,0-0.6C611.8,318.7,614.4,318.9,617.8,319.2z"/>
	<path id="XMLID_679_" class="st0" d="M716.2,311.2c2.3-0.1,4.2-0.2,5.9-0.4C720.4,311.1,719,314,716.2,311.2z"/>
	<path id="XMLID_678_" class="st0" d="M833.4,254.2c0.9-1.4,1.6-2.3,2.3-3.5C837.5,252.5,837,253.1,833.4,254.2z"/>
	<path id="XMLID_677_" class="st0" d="M498.4,207c1,0.4,1.9,0.8,2.8,1.3c0,0-0.7,0.6-1,0.9c-0.9-0.5-1.9-1.1-2.8-1.6
		C497.8,207.4,498.1,207.2,498.4,207z"/>
	<path id="XMLID_676_" class="st0" d="M937.8,311.9c-2.1,0.5-4.3,1.1-6.4,1.5c-0.2-0.2-0.3-0.4-0.3-0.6c2.3-0.5,4.3-0.9,6.6-1.5
		C937.5,311.5,937.6,311.7,937.8,311.9z"/>
	<path id="XMLID_675_" class="st0" d="M1060.5,422c0-0.2-0.2-0.4-0.2-0.4c0.9-0.5,1.9-1.2,2.8-1.7c0,0,0.7,0.4,1,0.5
		c-1,0.4-1.9,0.9-3,1.4C1061.4,422,1061,422,1060.5,422z"/>
	<path id="XMLID_674_" class="st0" d="M332.6,220.9c-1.4,0.2-2.8,0.4-4.2,0.7c-0.2-0.3-0.3-0.8-0.3-0.8c1.4-0.2,2.8-0.4,4.2-0.7
		C332.5,220.4,332.6,220.7,332.6,220.9z"/>
	<path id="XMLID_673_" class="st0" d="M962.1,333.3c0.9-0.8,1.7-1.6,2.6-2.4C966,332.8,964.9,333.6,962.1,333.3z"/>
	<path id="XMLID_672_" class="st0" d="M476.9,205.4c1.4,0,2.8,0,4,0c0,0.1,0.2,0.2,0.2,0.4c-1,0.4-2.3,0.8-3.6,1.4
		C477.2,206.5,477.1,205.9,476.9,205.4z"/>
	<path id="XMLID_671_" class="st0" d="M787,226.3c-0.9-0.6-1.6-0.9-1.7-1.3c0-0.2,0.9-0.8,1.2-0.8c0.7,0,1.6,0.4,1.7,0.7
		S787.7,225.6,787,226.3z"/>
	<path id="XMLID_670_" class="st0" d="M878.9,201.5c2.3-2,3.5,0,5.2,0C882.5,201.5,881,201.5,878.9,201.5z"/>
	<path id="XMLID_669_" class="st0" d="M511.8,208.4c-0.7,1.5-1.6,1.6-4.2,0.3C509.2,208.6,510.4,208.5,511.8,208.4z"/>
	<path id="XMLID_668_" class="st0" d="M555.3,239.3c1,0.1,2.3,0.2,3.3,0.3c0,0.2,0,0.3,0.2,0.5c-0.7,0.2-1.6,0.5-2.3,0.4
		c-0.7-0.1-1.2-0.5-1.9-0.7C554.8,239.7,555.1,239.6,555.3,239.3z"/>
	<path id="XMLID_667_" class="st0" d="M482.8,205.6c4.3-0.4,4.9-0.3,4.3,1.1C485.8,206.4,484.5,206,482.8,205.6z"/>
	<path id="XMLID_666_" class="st0" d="M299.1,297.1c0.2-1.4,0.3-2.7,0.5-4.1c0.2,0,0.2,0,0.3,0c0,1.4,0,2.7,0,4.1
		C299.6,297.2,299.3,297.2,299.1,297.1z"/>
	<path id="XMLID_665_" class="st0" d="M844.5,248.6c-1.2,0.8-2.4,1.7-3.8,2.5c-0.3-0.2-0.5-0.3-0.9-0.5c1.2-0.8,2.6-1.7,3.8-2.5
		C844.1,248.2,844.3,248.4,844.5,248.6z"/>
	<path id="XMLID_664_" class="st0" d="M339.2,215.1c-0.9-0.5-1.9-0.9-2.8-1.5c0.2-0.2,0.3-0.4,0.5-0.6c0.9,0.1,1.9,0.1,2.3,0.4
		c0.5,0.3,0.5,0.9,0.7,1.5C339.9,214.9,339.6,215,339.2,215.1z"/>
	<path id="XMLID_663_" class="st0" d="M313.4,452.8c0.3,0.3,0.7,0.7,0.9,1.1c0.5,3.5,1,6.8,1.6,10.3c0,0.4-0.7,0.8-1,1.3
		c-0.3-0.4-1-0.8-1-1.3c-0.5-3.8-0.9-7.5-1.2-11.3C312.7,452.9,313,452.9,313.4,452.8z"/>
	<path id="XMLID_662_" class="st0" d="M310,539.7c-0.3-0.4-0.9-0.7-1-1.2c-1-2.1-2.1-4.3-3.1-6.4c-0.5-0.9-1.2-1.9-1.6-3
		c-0.2-0.3,0.5-0.8,0.9-1.2c0.5,0.3,1.2,0.5,1.4,0.8c0.5,1.2,0.9,2.3,1.2,3.5c0.5,1.6,1.2,3.1,1.7,4.6c0.3,0.8,0.7,1.8,1,2.6
		C310.6,539.6,310.2,539.6,310,539.7z"/>
	<path id="XMLID_661_" class="st0" d="M307.4,333.8c0.3-3,0.7-5.9,1-9c2.1,0.9,1.9,6.6,0,9C308.1,333.8,307.8,333.8,307.4,333.8z"/>
	<path id="XMLID_660_" class="st0" d="M306.2,307.6c3.5,0.9,4,2.5,1.6,5C307.3,310.9,306.9,309.4,306.2,307.6z"/>
	<path id="XMLID_659_" class="st0" d="M330.2,192.3c2.6,0,5.2,0,7.6,0c0,0.2,0,0.4,0,0.5c-2.6,0-5.2,0-7.8,0
		C330.2,192.7,330.2,192.4,330.2,192.3z"/>
	<path id="XMLID_658_" class="st0" d="M316,474.8c-0.2,1.8-0.3,3.7-0.5,5.5c-0.5,0-0.9,0-1.4,0c0.2-1.8,0.3-3.7,0.5-5.5
		C315.1,474.8,315.6,474.8,316,474.8z"/>
	<path id="XMLID_657_" class="st0" d="M624.6,198.5c-0.3-2-0.3-2,5.6-1.1c-0.9,0.1-1.7,0.1-2.6,0.3
		C626.7,197.9,625.8,198.1,624.6,198.5z"/>
	<path id="XMLID_656_" class="st0" d="M316.5,471.7c-3.8-0.6-1.9-2.1-2.4-3.2c0.3-0.1,0.7-0.1,1-0.2
		C315.4,469.4,315.8,470.4,316.5,471.7z"/>
	<path id="XMLID_655_" class="st0" d="M309.7,239.8c-0.2,1.3-0.2,2.5-0.3,3.9c-0.3,0-0.9,0-1.2,0c0.2-1.3,0.2-2.5,0.3-3.9
		C309,239.7,309.4,239.7,309.7,239.8z"/>
	<path id="XMLID_654_" class="st0" d="M315.6,193.5c-1.6,0-3.1,0-4.9,0C312.3,191.1,314,193.3,315.6,193.5z"/>
	<path id="XMLID_653_" class="st0" d="M314.9,503.8c0,1.4,0,2.6,0,4c-0.2,0-0.3,0-0.5,0c0-1.4,0-2.6,0-4
		C314.6,503.8,314.7,503.8,314.9,503.8z"/>
	<path id="XMLID_652_" class="st0" d="M360.5,423.9c0.2,1.9-0.7,2.4-3.3,2.2l0,0C358.4,425.3,359.4,424.6,360.5,423.9
		C360.6,423.9,360.5,423.9,360.5,423.9z"/>
	<path id="XMLID_651_" class="st0" d="M357.3,426c-1,0.8-2.1,1.8-3.5,3C353.8,427,354.4,426.7,357.3,426
		C357.3,426.1,357.3,426,357.3,426z"/>
	<path id="XMLID_650_" class="st0" d="M1006.6,283c-0.2-0.4-0.5-0.8-0.5-1.2c0.2-2.6,0.5-5.4,0.9-8c0-0.2,0.3-0.6,0.2-0.6
		c-2.8-1.2-0.5-2.3-0.2-3.6c0.2-0.7-0.2-1.5-0.3-2.2c-0.3-2.1-0.9-4.1-1.2-6.5C1010.1,263.3,1010.6,280,1006.6,283z"/>
	<path id="XMLID_649_" class="st0" d="M1010.3,241.6c2.1,1.8,1.7,9.8-0.5,11C1009.4,248.9,1008.7,245.3,1010.3,241.6z"/>
	<path id="XMLID_648_" class="st0" d="M986.7,445.8c1.9,1.9,5.6,2.5,5.4,4.8c0,0.2,1,0.4,1.6,0.7c0.5,0.3,1.4,0.7,1.6,1.2
		c0,0.4-0.7,0.8-1,1.3c-0.7-0.2-1.9-0.4-2.3-0.7c-1.9-2-3.6-4-5.2-6C986.5,446.8,986.7,446.5,986.7,445.8z"/>
	<path id="XMLID_647_" class="st0" d="M996.4,515.8c0.5,2.7,0.9,5.5,1.4,8.3c-1.2,0.3-2.3,0.1-2.8-0.9c-1.2-2.5-0.2-5,0.5-7.4
		C995.9,515.8,996.2,515.8,996.4,515.8z"/>
	<path id="XMLID_646_" class="st0" d="M996.9,432.2c-0.9-2.7-1.6-5.5-2.3-8.3c0-0.2,0.5-0.6,0.9-0.8c0.3,0.2,1,0.4,1.2,0.6
		c0.3,2.8,0.7,5.7,1,8.5C997.4,432.2,997.1,432.2,996.9,432.2z"/>
	<path id="XMLID_645_" class="st0" d="M696.1,199.2c0.9-1.3,7-1.7,15.8-0.8C706.7,198.7,701.4,199,696.1,199.2z"/>
	<path id="XMLID_644_" class="st0" d="M998.6,548.7c0.5-1.8,1-3.5,1.7-5.3c0.3,0,0.9,0,1.2,0c0,0.8,0.2,1.7,0,2.4
		c-0.2,0.7-0.3,1.6-0.9,2.3c-0.2,0.3-1,0.5-1.6,0.8C999,548.9,998.8,548.8,998.6,548.7z"/>
	<path id="XMLID_643_" class="st0" d="M1009.2,311.3c0,0.3,0.2,0.5,0.2,0.8c-0.2,1.8-0.3,3.6-1.2,5.4c0-2.1,0-4.1,0-6.2
		C1008.6,311.3,1008.9,311.3,1009.2,311.3z"/>
	<path id="XMLID_642_" class="st0" d="M1007.7,234.6c-0.5-1.4-0.9-2.7-1.4-4.1c0.3,0,0.7-0.1,1.2-0.1c-0.3,1.5,2.4,2.6,1.2,4.2
		C1008.4,234.5,1008,234.5,1007.7,234.6z"/>
	<path id="XMLID_641_" class="st0" d="M1007.5,256.7c-2.1-0.4-4-0.7-2.6-2.4C1006.6,254.7,1009.1,254.8,1007.5,256.7z"/>
	<path id="XMLID_640_" class="st0" d="M1039.5,429.8c-1.9,0.8-3.8,1.7-5.7,2.6c0.5-1.8,3-2.3,4.9-3.1
		C1039,429.4,1039.3,429.7,1039.5,429.8z"/>
	<path id="XMLID_639_" class="st0" d="M1005.4,481.2c-1.7-0.6-1.9-3.9,0-4.6C1005.4,478.1,1005.4,479.6,1005.4,481.2z"/>
	<path id="XMLID_638_" class="st0" d="M998,344.6c0.2-1.3,0.3-2.4,0.5-3.7c0.3,0,0.9,0,1.2,0c-0.2,1.3-0.2,2.4-0.3,3.7
		C998.8,344.6,998.5,344.6,998,344.6z"/>
	<path id="XMLID_637_" class="st0" d="M921.7,194.9c1.7,0,3.6,0,5.4,0c0,0.2,0,0.3,0,0.5c-1.7,0.5-3.6,0.3-5.4-0.1
		C921.7,195.1,921.7,195,921.7,194.9z"/>
	<path id="XMLID_636_" class="st0" d="M404.9,312.6c-3,0.3-5.9,0.6-8.7,0.9c-0.2-2.5-5-0.7-6.6-2.6c5.2,0.4,10.3,0.3,15.3,1.3
		C404.9,312.2,404.9,312.4,404.9,312.6z"/>
	<path id="XMLID_635_" class="st0" d="M400.3,303.3c-3.8,0.2-7.5,0.4-11.3,0.6c0-0.3,0-0.5-0.2-0.8c3.8-0.2,7.5-0.4,11.3-0.5
		C400.3,302.8,400.3,303,400.3,303.3z"/>
	<path id="XMLID_634_" class="st0" d="M377,277.8c1-0.4,1.9-0.8,3-1.3c0.3,0.4,0.9,0.8,1.2,1.2c-1,0.3-2.3,0.6-3.3,0.9
		C377.5,278.4,377.3,278.1,377,277.8z"/>
	<path id="XMLID_633_" class="st0" d="M376.4,323.3c0,1.1,0.2,1.8,0,2.5c0,0.2-0.7,0.5-1,0.5s-0.9-0.4-1-0.6
		C374.2,324.9,374.2,324,376.4,323.3z"/>
	<path id="XMLID_632_" class="st0" d="M775.5,311.6c3.8-1.3,11.8-1.4,14.8,0C785,311.6,780.5,311.6,775.5,311.6z"/>
	<path id="XMLID_631_" class="st0" d="M686.8,305c1,0,1.9,0.1,3.1,0.1c-0.2-0.6-0.3-1.3-0.5-2.1c2.1,0.8,3.8,1.6,5.4,2.3
		c0,0.2,0,0.3-0.2,0.5c-2.8-0.1-5.4-0.2-8.2-0.2C686.8,305.4,686.8,305.2,686.8,305z"/>
	<path id="XMLID_630_" class="st0" d="M734.3,296.7c2.3,0.2,4.7,0.4,6.8,0.7c0.5,0.1,0.7,0.7,1,1.2c-0.7,0.1-1.6,0.4-2.1,0.2
		c-2.1-0.4-4.2-1.1-6.3-1.6C734.1,297.2,734.3,297,734.3,296.7z"/>
	<path id="XMLID_629_" class="st0" d="M761.4,337.8c-1.4-2-0.9-3.9,0-5.9c0.3,0,0.7,0,1,0c0,1.9,0,3.9,0,5.8
		C761.9,337.8,761.6,337.8,761.4,337.8z"/>
	<path id="XMLID_628_" class="st0" d="M680.9,303.1c0.2-0.1,0.5-0.2,0.7-0.2c1.2,0.1,2.6,0.3,3.8,0.4c-0.2,0.2-0.2,0.5-0.3,0.5
		c-1.4,0-2.8-0.1-4.2-0.1C680.9,303.5,680.9,303.3,680.9,303.1z"/>
	<path id="XMLID_627_" class="st0" d="M731.3,297.5c-1.4-0.1-2.8-0.2-4.3-0.3C728,295.7,728.7,295.7,731.3,297.5z"/>
	<path id="XMLID_623_" class="st0" d="M500.9,260.4c0.3,0,0.9,0,1.2,0c0-1.6,0-3.2,0-4.7c-0.2,0-0.5,0-0.7,0
		C501.4,257.3,501.1,258.8,500.9,260.4z"/>
	<path id="XMLID_622_" class="st0" d="M479.9,234.5c0.3,3.2,0.5,6.3,0.9,9.5c-0.3,0-0.7,0-1,0c-1.2-3.2-1.9-6.3-1-9.5
		C479,234.5,479.3,234.5,479.9,234.5z"/>
	<path id="XMLID_621_" class="st0" d="M513.6,234c-1-2.5-3.5-4.3-8.2-4.7c4-1.1,4-0.8,7.5,0.5C516,231.1,513.6,232.5,513.6,234z"/>
	<path id="XMLID_620_" class="st0" d="M495.7,250.1c-3.3,0.4-6.6,0.7-10.1,1.2c0-0.2,0-0.8,0.3-0.9c3-1.1,6.3-1.2,9.6-0.7
		C495.5,249.7,495.7,249.9,495.7,250.1z"/>
	<path id="XMLID_619_" class="st0" d="M505.7,266.4c-1.2,1.6-3,2.6-7.1,2c2.6-0.9,4.7-1.7,6.8-2.4
		C505.4,266.1,505.6,266.3,505.7,266.4z"/>
	<path id="XMLID_618_" class="st0" d="M510.1,253.8c0.5,1.1,0.9,2.1,1.4,3.2c-0.5,0.1-0.9,0.1-1.4,0.2c-0.3-1.1-0.7-2.1-1-3.2
		C509.4,253.9,509.7,253.8,510.1,253.8z"/>
	<path id="XMLID_617_" class="st0" d="M527.6,232c0.2,1.2,0.5,2.3,0.7,3.4c-0.3,0-0.9,0.1-1.2,0.1c-0.2-1.2-0.3-2.3-0.7-3.5
		C526.8,232.1,527.3,232.1,527.6,232z"/>
	<path id="XMLID_615_" class="st0" d="M629.3,376.9c0.7-2.5,1.4-5.1,2.1-7.8C633.3,370.3,632.3,375.2,629.3,376.9z"/>
	<path id="XMLID_614_" class="st0" d="M657.1,377.7c-2.6-0.9-2.4-2,0-3.5C657.1,375.5,657.1,376.5,657.1,377.7L657.1,377.7z"/>
	<path id="XMLID_612_" class="st0" d="M601.9,337.9c-1.9-1.5-3.8-3-5.9-4.4c0.2-0.1,0.2-0.1,0.3-0.2c1.7,1.6,3.5,3.2,5.2,4.7
		C601.7,338,601.7,337.9,601.9,337.9z"/>
	<path id="XMLID_611_" class="st0" d="M585.7,317.8c-1-1.3-1-1.3,2.6-2.5c0.2,0.1,0.3,0.2,0.5,0.3
		C588,316.4,586.9,317.1,585.7,317.8z"/>
	<path id="XMLID_610_" class="st0" d="M562.8,328c0-0.9,0-1.9,0-2.8c0.2,0,0.5,0,0.7,0c0,0.9,0,2,0,3C563.3,328,563.1,328,562.8,328
		z"/>
	<path id="XMLID_608_" class="st0" d="M494.3,376.2c6.8,3.5,9.7,8.3,11.8,13.5c-1.2,0.2-2.3,0.3-3.3,0.5c-0.7-3.6-4-6.5-6.8-9.7
		c-1-1.3-1.9-2.6-2.8-3.9C493.6,376.4,493.9,376.3,494.3,376.2z"/>
	<path id="XMLID_607_" class="st0" d="M473.1,363.2c6.8-1.5,10.8-0.9,14.3,2c-2.3,0.4-5.2,1.5-6.1,0.9
		C478.6,364.8,473.1,366.7,473.1,363.2z"/>
	<path id="XMLID_606_" class="st0" d="M519.8,360.6c-4.2,2.5-7.3,2.7-9.6,0.6C513.4,360.4,516.2,359.4,519.8,360.6z"/>
	<path id="XMLID_605_" class="st0" d="M480.2,388.6c0.3,0.6,0.9,1.2,1,1.8c0.5,1.9-0.2,3.9,1.7,5.6c0.5,0.4-0.2,1.3-0.3,1.9
		c-0.3,0-0.7,0-1,0c-0.9-3.1-1.7-6-2.6-9.1C479.3,388.8,479.9,388.7,480.2,388.6z"/>
	<path id="XMLID_603_" class="st0" d="M715,277c0.7-0.1,1.6-0.3,2.3-0.4c0.9-0.2,2.1-0.2,2.6-0.6c2.6-1.8,5.2-3.5,7.5-5.4
		c2.1-1.8,4-3.8,5.7-5.7c1.2-1.5,2.1-3.1,3.1-4.5c0.3-0.5,0.7-0.9,1.4-1.4c1.9,3.8,0.2,7.2-3.3,10.1C727,275.3,720.4,278,715,277z"
		/>
	<path id="XMLID_602_" class="st0" d="M679.5,242.1c-2.3,3.1-4.5,6.2-7,9.4C670.9,249.2,675.2,242.8,679.5,242.1z"/>
	<path id="XMLID_601_" class="st0" d="M718.8,242.4c-2.3-0.9-4.5-1.8-6.6-2.8c-0.3-0.2-0.3-0.8-0.2-1.2c0.3-0.5,1-1.1,2.1-1.9
		c2.3,2.2,4,3.8,5.6,5.5C719.5,242.1,719.2,242.3,718.8,242.4z"/>
	<path id="XMLID_600_" class="st0" d="M677.6,268.5c-0.7-0.5-1.4-0.9-1.7-1.4c-0.5-0.8-0.5-1.7-0.9-2.5c0.3,0,1.2-0.2,1.2-0.1
		c0.9,1.1,1.7,2.1,2.4,3.2C678.9,267.8,678.2,268.1,677.6,268.5z"/>
	<path id="XMLID_599_" class="st0" d="M764.2,240.2c-2.3-2.5,2.1-1.4,2.3-2.6c0.3,0.1,0.5,0.3,0.9,0.4
		C766.3,238.6,765.2,239.4,764.2,240.2z"/>
	<path id="XMLID_598_" class="st0" d="M839.1,242.8c-0.2-0.5-0.5-1.2-0.3-1.6c0.2-0.5,0.9-0.8,1.6-1.3c0-0.1,0.7,0.1,0.9,0.2
		c-0.3,0.4-0.7,0.9-1,1.4C839.8,242,839.3,242.4,839.1,242.8C838.9,242.9,839.1,242.8,839.1,242.8z"/>
	<path id="XMLID_597_" class="st0" d="M499.7,298.5c2.1-0.1,4.7-1.1,5.7,0.5c0.9,1.3-1,2-3,2.2C497.6,301.8,501.4,299.2,499.7,298.5
		z"/>
	<path id="XMLID_596_" class="st0" d="M526.8,319.2c-1.7,0.9-7.5,0.9-9.7,0C520.2,319.4,523.1,317.1,526.8,319.2z"/>
	<path id="XMLID_595_" class="st0" d="M525.2,344.3c-2.6-0.9-5-1.9-7.5-2.7C520.5,341,523,341.8,525.2,344.3z"/>
	<path id="XMLID_594_" class="st0" d="M505.2,341.3c2.1,0.4,4.7-0.1,6.6,0.9c-0.2,0.2-0.2,0.5-0.3,0.7c-2.1-0.4-4.3-0.7-6.4-1.2
		C505.1,341.8,505.2,341.6,505.2,341.3z"/>
	<path id="XMLID_593_" class="st0" d="M498.8,302.1c-0.9,0.1-1.9,0.5-2.6,0.3c-0.5-0.1-0.7-0.8-1.2-1.8c1.7,0.4,2.8,0.6,3.6,0.9
		C498.8,301.7,498.8,301.9,498.8,302.1z"/>
	<path id="XMLID_591_" class="st0" d="M951,293.2c1-1.6,4.3-2.6,6.1-2.1c0.5,0.1,1,0.6,1,0.8c-0.2,0.4-0.7,1.2-1.2,1.2
		C955,293.3,953.1,293.2,951,293.2z"/>
	<path id="XMLID_586_" class="st0" d="M700.8,394.5c2.3-3.1,4.7-6.1,7.3-9.5C707.7,388.9,705.6,392,700.8,394.5z"/>
	<path id="XMLID_585_" class="st0" d="M737.4,399.5c-3.3-0.3-5,1.4-7.5,2.1c-0.9-1.4,1.2-1.8,2.4-2.3c2.3-1.2,4.7-2.2,7.1-3.3
		c2.1-1.1,3-2.3,2.1-3.9c-0.2-0.3,0-0.6,0.7-1.1c0.3,0.4,0.9,0.7,0.9,1.3c0.7,2.3-0.5,4.3-3.6,5.8
		C738.6,398.4,738.1,399,737.4,399.5z"/>
	<path id="XMLID_584_" class="st0" d="M744,386.8c-0.9,0.2-1.7,0.4-2.8,0.6c-1.4-2.6-4.2-4.5-8.9-5.7c3.6-1.1,6.1-0.6,7.5,0.7
		c0.7,0.7,1.2,1.5,1.7,2.1C742.5,385.4,743.2,386,744,386.8z"/>
	<path id="XMLID_583_" class="st0" d="M720,398.4c2.6-0.8,4.5-1.6,6.8-2.3c0.2,0.4,0.5,0.8,0.9,1.7C724.9,397.6,722.8,399,720,398.4
		z"/>
	<path id="XMLID_582_" class="st0" d="M500.9,260.4c0.2-1.6,0.3-3.2,0.5-4.7c0.2,0,0.5,0,0.7,0c0,1.6,0,3.2,0,4.7
		C501.8,260.4,501.4,260.4,500.9,260.4z"/>
	<path id="XMLID_581_" class="st0" d="M603.3,376.5c-3.5-1.6-2.8-4.2-4.9-6.2c0.3-0.1,0.7-0.2,1.2-0.3c1.6,2.1,3.3,4.1,4.9,6.2
		C604.1,376.3,603.8,376.4,603.3,376.5z"/>
</g>
</svg>
